<?xml version="1.0" encoding="UTF-8"?>
<svg xmlns="http://www.w3.org/2000/svg" viewBox="0 0 880 1044" width="880" height="1044">
  <title>UML activity — hello / counter starter</title>
  <defs>
    <filter id="shadow" x="-4%" y="-4%" width="108%" height="112%">
      <feDropShadow dx="0" dy="2" stdDeviation="3" flood-color="#94a3b8" flood-opacity="0.18"/>
    </filter>
    <marker id="arrow" markerWidth="9" markerHeight="9" refX="8" refY="4.5" orient="auto">
      <path d="M0,0 L9,4.5 L0,9 Z" fill="#475569"/>
    </marker>
    <marker id="arrow-blue" markerWidth="9" markerHeight="9" refX="8" refY="4.5" orient="auto">
      <path d="M0,0 L9,4.5 L0,9 Z" fill="#2563eb"/>
    </marker>
    <marker id="arrow-dashed" markerWidth="9" markerHeight="9" refX="8" refY="4.5" orient="auto">
      <path d="M0,0 L9,4.5 L0,9 Z" fill="#64748b"/>
    </marker>
    <style>
      .label { font: bold 15px "JetBrainsMono Nerd Font", "Symbols Nerd Font", Verdana, sans-serif; fill: #1e293b; font-weight: 700; }
      .desc { font: italic 12px "JetBrainsMono Nerd Font", "Symbols Nerd Font", Verdana, sans-serif; fill: #64748b; }
      .small { font: 12px "JetBrainsMono Nerd Font", "Symbols Nerd Font", Verdana, sans-serif; fill: #475569; }
      .mono { font: bold 12px "JetBrainsMono Nerd Font", "Symbols Nerd Font", Consolas, monospace; fill: #1e293b; font-weight: 700; }
      .legend-title { font: bold 13px "JetBrainsMono Nerd Font", "Symbols Nerd Font", Verdana, sans-serif; fill: #334155; }
      .layer-label { font: bold 15px "JetBrainsMono Nerd Font", "Symbols Nerd Font", Verdana, sans-serif; fill: #1e293b; }
      .badge { font: bold 12px "JetBrainsMono Nerd Font", "Symbols Nerd Font", Verdana, sans-serif; fill: #2563eb; }
      .icon { font: 14px "JetBrainsMono Nerd Font", "Symbols Nerd Font", Consolas, monospace; fill: #1e293b; }
      .node { rx: 10; stroke-width: 2; filter: url(#shadow); }
      .panel { rx: 12; stroke-width: 2; }
      .legend-box { rx: 6; stroke-width: 2; }
    </style>
  </defs>
  <rect width="880" height="100%" fill="#f8fafc"/>
  <image href="../nexus-logo.png" x="24" y="16" width="36" height="36" preserveAspectRatio="xMidYMid meet"/>
  <text x="440" y="56" text-anchor="middle" class="layer-label">UML activity — hello / counter starter</text>
  <circle cx="400" cy="100" r="14" fill="#1e293b"/>
  <rect x="240" y="150" width="320" height="72" class="node" fill="#E3F2FD" stroke="#1565C0"/>
  <text x="256" y="179" class="icon">&#xf108;</text>
  <text x="278" y="181" class="label">
    <tspan x="278" dy="0">User opens generated app</tspan>
  </text>
  <text x="256" y="201" class="desc">
    <tspan x="256" dy="0">Default template desktop binary</tspan>
  </text>
  <rect x="240" y="258" width="320" height="72" class="node" fill="#E3F2FD" stroke="#1565C0"/>
  <text x="256" y="287" class="icon">&#xf080;</text>
  <text x="278" y="289" class="label">
    <tspan x="278" dy="0">See greeting + counter panel</tspan>
  </text>
  <text x="256" y="309" class="desc">
    <tspan x="256" dy="0">ImGui starter UI</tspan>
  </text>
  <rect x="50" y="366" width="700" height="8" fill="#1e293b" rx="2"/>
  <rect x="40" y="410" width="320" height="72" class="node" fill="#FFF3E0" stroke="#EF6C00"/>
  <text x="56" y="439" class="icon">&#xf5fd;</text>
  <text x="78" y="441" class="label">
    <tspan x="78" dy="0">Click Increment</tspan>
  </text>
  <text x="56" y="461" class="desc">
    <tspan x="56" dy="0">UI command from counter panel</tspan>
  </text>
  <rect x="40" y="510" width="320" height="72" class="node" fill="#F3E5F5" stroke="#7B1FA2"/>
  <text x="56" y="539" class="icon">&#xf013;</text>
  <text x="78" y="541" class="label">
    <tspan x="78" dy="0">Controller → Model.counter++</tspan>
  </text>
  <text x="56" y="561" class="desc">
    <tspan x="56" dy="0">Mutate domain state</tspan>
  </text>
  <rect x="40" y="610" width="320" height="72" class="node" fill="#E3F2FD" stroke="#1565C0"/>
  <text x="56" y="639" class="icon">&#xf080;</text>
  <text x="78" y="641" class="label">
    <tspan x="78" dy="0">View redraws count</tspan>
  </text>
  <text x="56" y="661" class="desc">
    <tspan x="56" dy="0">ImGui reflects new value</tspan>
  </text>
  <rect x="290" y="410" width="320" height="72" class="node" fill="#E0F7FA" stroke="#00838F"/>
  <text x="306" y="439" class="icon">&#xf120;</text>
  <text x="328" y="441" class="label">
    <tspan x="328" dy="0">Edit Lua panel script</tspan>
  </text>
  <text x="306" y="461" class="desc">
    <tspan x="306" dy="0">Author change in panels.lua</tspan>
  </text>
  <rect x="290" y="510" width="320" height="72" class="node" fill="#E0F7FA" stroke="#00838F"/>
  <text x="306" y="539" class="icon">&#xf121;</text>
  <text x="328" y="541" class="label">
    <tspan x="328" dy="0">Hot-reload panels.lua</tspan>
  </text>
  <text x="306" y="561" class="desc">
    <tspan x="306" dy="0">sol2 picks up new panel defs</tspan>
  </text>
  <rect x="540" y="410" width="320" height="72" class="node" fill="#E8F5E9" stroke="#2E7D32"/>
  <text x="556" y="439" class="icon">&#xe73c;</text>
  <text x="578" y="441" class="label">
    <tspan x="578" dy="0">Call Python helper</tspan>
  </text>
  <text x="556" y="461" class="desc">
    <tspan x="556" dy="0">FFT / util via pybind11</tspan>
  </text>
  <rect x="540" y="510" width="320" height="72" class="node" fill="#E8F5E9" stroke="#2E7D32"/>
  <text x="556" y="539" class="icon">&#xf1c0;</text>
  <text x="578" y="541" class="label">
    <tspan x="578" dy="0">Return into C++ model</tspan>
  </text>
  <text x="556" y="561" class="desc">
    <tspan x="556" dy="0">Bridge result stored in model</tspan>
  </text>
  <rect x="50" y="718" width="700" height="8" fill="#1e293b" rx="2"/>
  <rect x="240" y="762" width="320" height="72" class="node" fill="#FCE4EC" stroke="#C2185B"/>
  <text x="256" y="791" class="icon">&#xf108;</text>
  <text x="278" y="793" class="label">
    <tspan x="278" dy="0">User closes window</tspan>
  </text>
  <text x="256" y="813" class="desc">
    <tspan x="256" dy="0">Exit main loop</tspan>
  </text>
  <circle cx="400" cy="884" r="14" fill="none" stroke="#1e293b" stroke-width="3"/>
  <circle cx="400" cy="884" r="8" fill="#1e293b"/>
  <line x1="400" y1="114" x2="400" y2="150" stroke="#475569" stroke-width="2" marker-end="url(#arrow)"/>
  <line x1="400" y1="222" x2="400" y2="258" stroke="#475569" stroke-width="2" marker-end="url(#arrow)"/>
  <line x1="400" y1="330" x2="400" y2="366" stroke="#475569" stroke-width="2" marker-end="url(#arrow)"/>
  <line x1="200" y1="482" x2="200" y2="510" stroke="#475569" stroke-width="2" marker-end="url(#arrow)"/>
  <line x1="200" y1="582" x2="200" y2="610" stroke="#475569" stroke-width="2" marker-end="url(#arrow)"/>
  <line x1="450" y1="482" x2="450" y2="510" stroke="#475569" stroke-width="2" marker-end="url(#arrow)"/>
  <line x1="700" y1="482" x2="700" y2="510" stroke="#475569" stroke-width="2" marker-end="url(#arrow)"/>
  <path d="M400,374 L200,374 L200,410 L200,410" fill="none" stroke="#475569"  stroke-width="2" marker-end="url(#arrow)"/>
  <path d="M200,682 L200,682 L200,718 L400,718" fill="none" stroke="#475569"  stroke-width="2" marker-end="url(#arrow)"/>
  <path d="M400,374 L450,374 L450,410 L450,410" fill="none" stroke="#475569"  stroke-width="2" marker-end="url(#arrow)"/>
  <path d="M450,582 L450,582 L450,718 L400,718" fill="none" stroke="#475569"  stroke-width="2" marker-end="url(#arrow)"/>
  <path d="M400,374 L700,374 L700,410 L700,410" fill="none" stroke="#475569"  stroke-width="2" marker-end="url(#arrow)"/>
  <path d="M700,582 L700,582 L700,718 L400,718" fill="none" stroke="#475569"  stroke-width="2" marker-end="url(#arrow)"/>
  <line x1="400" y1="726" x2="400" y2="762" stroke="#475569" stroke-width="2" marker-end="url(#arrow)"/>
  <line x1="400" y1="834" x2="400" y2="870" stroke="#475569" stroke-width="2" marker-end="url(#arrow)"/>
  <rect x="48" y="934" width="640" height="88" fill="#FFFFFF" stroke="#B0BEC5" stroke-width="2" rx="10"/>
  <text x="64" y="956" class="legend-title">Starter interactions (parallel)</text>
  <rect x="64" y="958" width="16" height="16" class="legend-box" fill="#FFF3E0" stroke="#EF6C00"/>
  <text x="86" y="970" class="small">Counter — increment path</text>
  <rect x="384" y="958" width="16" height="16" class="legend-box" fill="#E0F7FA" stroke="#00838F"/>
  <text x="406" y="970" class="small">Lua — hot-reload panels</text>
  <rect x="64" y="980" width="16" height="16" class="legend-box" fill="#E8F5E9" stroke="#2E7D32"/>
  <text x="86" y="992" class="small">Python — helper via pybind11</text>
</svg>