<?plantuml 1.2026.2?><svg xmlns="http://www.w3.org/2000/svg" xmlns:xlink="http://www.w3.org/1999/xlink" contentStyleType="text/css" data-diagram-type="ACTIVITY" height="1519px" preserveAspectRatio="none" style="width:548px;height:1519px;background:#FFFFFF;" version="1.1" viewBox="0 0 548 1519" width="548px" zoomAndPan="magnify"><title>Nexus Framework &#8212; App Creation Wizard Flow</title><defs/><g><g class="title" data-source-line="8"><text fill="#000000" font-family="Verdana" font-size="22" font-weight="bold" lengthAdjust="spacing" textLength="515.4397" x="15" y="38.5181">Nexus Framework &#8212; App Creation Wizard Flow</text></g><ellipse cx="245.7713" cy="65.9641" fill="#FFFFFF" rx="10" ry="10" style="stroke:#000000;stroke-width:1;"/><rect fill="#F5F5F5" height="52.6882" rx="12.5" ry="12.5" style="stroke:#616161;stroke-width:1;" width="190.6413" x="150.4506" y="95.9641"/><text fill="#000000" font-family="Verdana" font-size="12" lengthAdjust="spacing" textLength="170.6413" x="160.4506" y="118.7922">Open Compose Desktop client</text><text fill="#000000" font-family="Verdana" font-size="12" font-weight="bold" lengthAdjust="spacing" textLength="110.2688" x="160.4506" y="135.1363">./gradlew :app:run</text><rect fill="#F5F5F5" height="52.6882" rx="12.5" ry="12.5" style="stroke:#616161;stroke-width:1;" width="274.8939" x="108.3243" y="168.6523"/><text fill="#000000" font-family="Verdana" font-size="12" lengthAdjust="spacing" textLength="74.6765" x="118.3243" y="191.4804">Home screen</text><text fill="#000000" font-family="Verdana" font-size="12" font-weight="bold" lengthAdjust="spacing" textLength="119.2089" x="118.3243" y="207.8245">Create Desktop App</text><text fill="#000000" font-family="Verdana" font-size="12" lengthAdjust="spacing" textLength="12.2161" x="240.6532" y="207.8245">or</text><text fill="#000000" font-family="Verdana" font-size="12" font-weight="bold" lengthAdjust="spacing" textLength="117.2289" x="255.9893" y="207.8245">Create Android App</text><rect fill="#FFFFFF" height="434.5091" style="stroke:#000000;stroke-width:1;" width="314.5259" x="88.5083" y="231.3406"/><path d="M186.372,231.3406 L186.372,243.4085 L176.372,253.4085 L88.5083,253.4085" fill="none" style="stroke:#000000;stroke-width:1;"/><text fill="#000000" font-family="Verdana" font-size="14" lengthAdjust="spacing" textLength="87.8637" x="91.5083" y="247.3065">6-step wizard</text><rect fill="#F5F5F5" height="36.3441" rx="12.5" ry="12.5" style="stroke:#616161;stroke-width:1;" width="214.7734" x="138.3846" y="270.4085"/><text fill="#000000" font-family="Verdana" font-size="12" font-weight="bold" lengthAdjust="spacing" textLength="36.5523" x="148.3846" y="293.2366">Step 1</text><text fill="#000000" font-family="Verdana" font-size="12" lengthAdjust="spacing" textLength="155.1011" x="188.0568" y="293.2366">&#8212; App type &amp; project name</text><rect fill="#F5F5F5" height="52.6882" rx="12.5" ry="12.5" style="stroke:#616161;stroke-width:1;" width="294.5259" x="98.5083" y="326.7526"/><text fill="#000000" font-family="Verdana" font-size="12" font-weight="bold" lengthAdjust="spacing" textLength="36.5523" x="108.5083" y="349.5807">Step 2</text><text fill="#000000" font-family="Verdana" font-size="12" lengthAdjust="spacing" textLength="109.9328" x="148.1806" y="349.5807">&#8212; Target platforms</text><text fill="#000000" font-family="Verdana" font-size="12" lengthAdjust="spacing" textLength="274.5259" x="108.5083" y="365.9248">(Desktop: Win/macOS/Linux &#183; Android: SDK/NDK)</text><rect fill="#F5F5F5" height="36.3441" rx="12.5" ry="12.5" style="stroke:#616161;stroke-width:1;" width="232.5215" x="129.5105" y="399.4408"/><text fill="#000000" font-family="Verdana" font-size="12" font-weight="bold" lengthAdjust="spacing" textLength="36.5523" x="139.5105" y="422.2689">Step 3</text><text fill="#000000" font-family="Verdana" font-size="12" lengthAdjust="spacing" textLength="172.8492" x="179.1828" y="422.2689">&#8212; UI theme &amp; catalog libraries</text><rect fill="#F5F5F5" height="69.0323" rx="12.5" ry="12.5" style="stroke:#616161;stroke-width:1;" width="224.4695" x="133.5365" y="455.7849"/><text fill="#000000" font-family="Verdana" font-size="12" font-weight="bold" lengthAdjust="spacing" textLength="36.5523" x="143.5365" y="478.613">Step 4</text><text fill="#000000" font-family="Verdana" font-size="12" lengthAdjust="spacing" textLength="12.0001" x="183.2088" y="478.613">&#8212;</text><text fill="#000000" font-family="Verdana" font-size="12" font-weight="bold" lengthAdjust="spacing" textLength="149.6771" x="198.3289" y="478.613">imnodes blueprint editor</text><text fill="#000000" font-family="Verdana" font-size="12" lengthAdjust="spacing" textLength="192.1814" x="143.5365" y="494.9571">wire Python &#183; MVC &#183; UI &#183; Lua nodes</text><text fill="#000000" font-family="Verdana" font-size="12" lengthAdjust="spacing" textLength="44.2669" x="143.5365" y="511.3013">&#8594; saves</text><text fill="#000000" font-family="Verdana" font-size="12" font-weight="bold" lengthAdjust="spacing" textLength="83.9406" x="190.9235" y="511.3013">blueprint.json</text><rect fill="#F5F5F5" height="52.6882" rx="12.5" ry="12.5" style="stroke:#616161;stroke-width:1;" width="199.2333" x="146.1546" y="544.8173"/><text fill="#000000" font-family="Verdana" font-size="12" font-weight="bold" lengthAdjust="spacing" textLength="36.5523" x="156.1546" y="567.6454">Step 5</text><text fill="#000000" font-family="Verdana" font-size="12" lengthAdjust="spacing" textLength="112.6088" x="195.8269" y="567.6454">&#8212; Dev environment</text><text fill="#000000" font-family="Verdana" font-size="12" lengthAdjust="spacing" textLength="179.2333" x="156.1546" y="583.9895">(Docker, clang-format, optional)</text><rect fill="#F5F5F5" height="36.3441" rx="12.5" ry="12.5" style="stroke:#616161;stroke-width:1;" width="180.5612" x="155.4907" y="617.5055"/><text fill="#000000" font-family="Verdana" font-size="12" font-weight="bold" lengthAdjust="spacing" textLength="36.5523" x="165.4907" y="640.3336">Step 6</text><text fill="#000000" font-family="Verdana" font-size="12" lengthAdjust="spacing" textLength="120.8889" x="205.163" y="640.3336">&#8212; Review &amp; generate</text><rect fill="#F5F5F5" height="52.6882" rx="12.5" ry="12.5" style="stroke:#616161;stroke-width:1;" width="185.9612" x="152.7906" y="685.8496"/><text fill="#000000" font-family="Verdana" font-size="12" lengthAdjust="spacing" textLength="156.8891" x="162.7906" y="708.6777">Emit project from template/</text><text fill="#000000" font-family="Verdana" font-size="12" font-weight="bold" lengthAdjust="spacing" textLength="74.7005" x="162.7906" y="725.0218">desktop-app</text><text fill="#000000" font-family="Verdana" font-size="12" lengthAdjust="spacing" textLength="12.2161" x="240.6112" y="725.0218">or</text><text fill="#000000" font-family="Verdana" font-size="12" font-weight="bold" lengthAdjust="spacing" textLength="72.8045" x="255.9473" y="725.0218">android-app</text><rect fill="#FFFFFF" height="562.1649" style="stroke:#000000;stroke-width:1;" width="370.882" x="62.8063" y="748.5378"/><path d="M250.5216,748.5378 L250.5216,760.6058 L240.5216,770.6058 L62.8063,770.6058" fill="none" style="stroke:#000000;stroke-width:1;"/><text fill="#000000" font-family="Verdana" font-size="14" lengthAdjust="spacing" textLength="177.7153" x="65.8063" y="764.5038">Generated project includes</text><rect fill="#F5F5F5" height="36.3441" rx="12.5" ry="12.5" style="stroke:#616161;stroke-width:1;" width="168.621" x="161.4607" y="787.6058"/><text fill="#000000" font-family="Verdana" font-size="12" font-weight="bold" lengthAdjust="spacing" textLength="91.2726" x="171.4607" y="810.4339">nxs_config.json</text><text fill="#000000" font-family="Verdana" font-size="12" lengthAdjust="spacing" textLength="54.2284" x="265.8534" y="810.4339">metadata</text><rect fill="#F5F5F5" height="36.3441" rx="12.5" ry="12.5" style="stroke:#616161;stroke-width:1;" width="225.2615" x="133.1405" y="843.9499"/><text fill="#000000" font-family="Verdana" font-size="12" font-weight="bold" lengthAdjust="spacing" textLength="51.3724" x="143.1405" y="866.778">C++ MVC</text><text fill="#000000" font-family="Verdana" font-size="12" lengthAdjust="spacing" textLength="150.7691" x="197.6329" y="866.778">&#8212; model/ controller/ view/</text><rect fill="#F5F5F5" height="36.3441" rx="12.5" ry="12.5" style="stroke:#616161;stroke-width:1;" width="234.3815" x="128.5805" y="900.294"/><text fill="#000000" font-family="Verdana" font-size="12" font-weight="bold" lengthAdjust="spacing" textLength="66.3485" x="138.5805" y="923.1221">ui/ui.xhtml</text><text fill="#000000" font-family="Verdana" font-size="12" lengthAdjust="spacing" textLength="6.864" x="208.049" y="923.1221">+</text><text fill="#000000" font-family="Verdana" font-size="12" font-weight="bold" lengthAdjust="spacing" textLength="42.3603" x="218.0331" y="923.1221">ui/ui.ts</text><text fill="#000000" font-family="Verdana" font-size="12" lengthAdjust="spacing" textLength="89.4486" x="263.5134" y="923.1221">(TS/XHTML DSL)</text><rect fill="#F5F5F5" height="36.3441" rx="12.5" ry="12.5" style="stroke:#616161;stroke-width:1;" width="207.8493" x="141.8466" y="956.6381"/><text fill="#000000" font-family="Verdana" font-size="12" font-weight="bold" lengthAdjust="spacing" textLength="106.2368" x="151.8466" y="979.4662">scripts/panels.lua</text><text fill="#000000" font-family="Verdana" font-size="12" lengthAdjust="spacing" textLength="78.4926" x="261.2034" y="979.4662">(sol2 runtime)</text><rect fill="#F5F5F5" height="36.3441" rx="12.5" ry="12.5" style="stroke:#616161;stroke-width:1;" width="239.4216" x="126.0605" y="1012.9822"/><text fill="#000000" font-family="Verdana" font-size="12" font-weight="bold" lengthAdjust="spacing" textLength="83.9406" x="136.0605" y="1035.8103">blueprint.json</text><text fill="#000000" font-family="Verdana" font-size="12" lengthAdjust="spacing" textLength="132.3609" x="223.1211" y="1035.8103">(re-editable flow graph)</text><rect fill="#F5F5F5" height="36.3441" rx="12.5" ry="12.5" style="stroke:#616161;stroke-width:1;" width="320.1701" x="85.6862" y="1069.3263"/><text fill="#000000" font-family="Verdana" font-size="12" font-weight="bold" lengthAdjust="spacing" textLength="42.6123" x="95.6862" y="1092.1544">Python</text><text fill="#000000" font-family="Verdana" font-size="12" lengthAdjust="spacing" textLength="254.4378" x="141.4185" y="1092.1544">&#8212; pybind11 (desktop) or Chaquopy (Android)</text><polygon fill="#F5F5F5" points="222.6879,1125.6705,268.8546,1125.6705,280.8546,1137.6705,268.8546,1149.6705,222.6879,1149.6705,210.6879,1137.6705,222.6879,1125.6705" style="stroke:#616161;stroke-width:1;"/><text fill="#000000" font-family="Verdana" font-size="11" lengthAdjust="spacing" textLength="46.1667" x="222.6879" y="1141.9384">Android?</text><text fill="#000000" font-family="Verdana" font-size="11" lengthAdjust="spacing" textLength="17.0829" x="193.6051" y="1134.4475">yes</text><text fill="#000000" font-family="Verdana" font-size="11" lengthAdjust="spacing" textLength="41.5027" x="280.8546" y="1134.4475">desktop</text><rect fill="#F5F5F5" height="52.6882" rx="12.5" ry="12.5" style="stroke:#616161;stroke-width:1;" width="162.489" x="74.8063" y="1159.6705"/><text fill="#000000" font-family="Verdana" font-size="12" font-weight="bold" lengthAdjust="spacing" textLength="35.1362" x="84.8063" y="1182.4985">Djinni</text><text fill="#000000" font-family="Verdana" font-size="12" lengthAdjust="spacing" textLength="104.2328" x="123.0625" y="1182.4985">stubs + Kotlin host</text><text fill="#000000" font-family="Verdana" font-size="12" font-weight="bold" lengthAdjust="spacing" textLength="104.9767" x="84.8063" y="1198.8427">djinni-generated/</text><rect fill="#F5F5F5" height="36.3441" rx="12.5" ry="12.5" style="stroke:#616161;stroke-width:1;" width="156.393" x="257.2953" y="1159.6705"/><text fill="#000000" font-family="Verdana" font-size="12" font-weight="bold" lengthAdjust="spacing" textLength="54.7204" x="267.2953" y="1182.4985">pybind11</text><text fill="#000000" font-family="Verdana" font-size="12" lengthAdjust="spacing" textLength="78.5525" x="325.1357" y="1182.4985">PythonEngine</text><polygon fill="#F5F5F5" points="245.7713,1218.3587,257.7713,1230.3587,245.7713,1242.3587,233.7713,1230.3587,245.7713,1218.3587" style="stroke:#616161;stroke-width:1;"/><rect fill="#F5F5F5" height="36.3441" rx="12.5" ry="12.5" style="stroke:#616161;stroke-width:1;" width="259.2697" x="116.1364" y="1262.3587"/><text fill="#000000" font-family="Verdana" font-size="12" lengthAdjust="spacing" textLength="239.2697" x="126.1364" y="1285.1868">CMake presets &#183; SDL3 &#183; sol2 &#183; ImGui/ImPlot</text><rect fill="#F5F5F5" height="36.3441" rx="12.5" ry="12.5" style="stroke:#616161;stroke-width:1;" width="269.9378" x="110.8024" y="1330.7028"/><text fill="#000000" font-family="Verdana" font-size="12" lengthAdjust="spacing" textLength="90.7567" x="120.8024" y="1353.5309">Project opens in</text><text fill="#000000" font-family="Verdana" font-size="12" font-weight="bold" lengthAdjust="spacing" textLength="156.0611" x="214.6791" y="1353.5309">Project Debug Workbench</text><rect fill="#F5F5F5" height="52.6882" rx="12.5" ry="12.5" style="stroke:#616161;stroke-width:1;" width="329.4703" x="81.0361" y="1387.0469"/><text fill="#000000" font-family="Verdana" font-size="12" lengthAdjust="spacing" textLength="63.6004" x="91.0361" y="1409.875">Build &amp; run</text><text fill="#000000" font-family="Verdana" font-size="12" font-weight="bold" lengthAdjust="spacing" textLength="39.6843" x="91.0361" y="1426.2191">cmake</text><text fill="#000000" font-family="Verdana" font-size="12" font-weight="bold" lengthAdjust="spacing" text-decoration="line-through" textLength="143.269" x="133.8404" y="1426.2191">preset debug &amp;&amp; cmake</text><text fill="#000000" font-family="Verdana" font-size="12" font-weight="bold" lengthAdjust="spacing" textLength="120.2769" x="280.2295" y="1426.2191">build --preset debug</text><path d="M276.7713,1449.7351 L276.7713,1477.2942 L256.7713,1481.2942 L276.7713,1485.2942 L276.7713,1512.8532 A0,0 0 0 0 276.7713,1512.8532 L484.6334,1512.8532 A0,0 0 0 0 484.6334,1512.8532 L484.6334,1459.7351 L474.6334,1449.7351 L276.7713,1449.7351 A0,0 0 0 0 276.7713,1449.7351" fill="#FFFFFF" style="stroke:#000000;stroke-width:1;"/><path d="M474.6334,1449.7351 L474.6334,1459.7351 L484.6334,1459.7351 L474.6334,1449.7351" fill="#FFFFFF" style="stroke:#000000;stroke-width:1;"/><text fill="#000000" font-family="Verdana" font-size="13" lengthAdjust="spacing" textLength="168.8572" x="282.7713" y="1468.6321">Re-open blueprint in wizard</text><text fill="#000000" font-family="Verdana" font-size="13" lengthAdjust="spacing" textLength="186.8622" x="282.7713" y="1486.3382">to rewire without hand-editing</text><text fill="#000000" font-family="Verdana" font-size="13" lengthAdjust="spacing" textLength="147.5111" x="282.7713" y="1504.0442">CMake or C++ structure.</text><ellipse cx="245.7713" cy="1481.2942" fill="none" rx="11" ry="11" style="stroke:#000000;stroke-width:1;"/><ellipse cx="245.7713" cy="1481.2942" fill="#FFFFFF" rx="6" ry="6" style="stroke:#000000;stroke-width:1;"/><line style="stroke:#181818;stroke-width:1;" x1="245.7713" x2="245.7713" y1="75.9641" y2="95.9641"/><polygon fill="#181818" points="241.7713,85.9641,245.7713,95.9641,249.7713,85.9641,245.7713,89.9641" style="stroke:#181818;stroke-width:1;"/><line style="stroke:#181818;stroke-width:1;" x1="245.7713" x2="245.7713" y1="148.6523" y2="168.6523"/><polygon fill="#181818" points="241.7713,158.6523,245.7713,168.6523,249.7713,158.6523,245.7713,162.6523" style="stroke:#181818;stroke-width:1;"/><line style="stroke:#181818;stroke-width:1;" x1="245.7713" x2="245.7713" y1="306.7526" y2="326.7526"/><polygon fill="#181818" points="241.7713,316.7526,245.7713,326.7526,249.7713,316.7526,245.7713,320.7526" style="stroke:#181818;stroke-width:1;"/><line style="stroke:#181818;stroke-width:1;" x1="245.7713" x2="245.7713" y1="379.4408" y2="399.4408"/><polygon fill="#181818" points="241.7713,389.4408,245.7713,399.4408,249.7713,389.4408,245.7713,393.4408" style="stroke:#181818;stroke-width:1;"/><line style="stroke:#181818;stroke-width:1;" x1="245.7713" x2="245.7713" y1="435.7849" y2="455.7849"/><polygon fill="#181818" points="241.7713,445.7849,245.7713,455.7849,249.7713,445.7849,245.7713,449.7849" style="stroke:#181818;stroke-width:1;"/><line style="stroke:#181818;stroke-width:1;" x1="245.7713" x2="245.7713" y1="524.8173" y2="544.8173"/><polygon fill="#181818" points="241.7713,534.8173,245.7713,544.8173,249.7713,534.8173,245.7713,538.8173" style="stroke:#181818;stroke-width:1;"/><line style="stroke:#181818;stroke-width:1;" x1="245.7713" x2="245.7713" y1="597.5055" y2="617.5055"/><polygon fill="#181818" points="241.7713,607.5055,245.7713,617.5055,249.7713,607.5055,245.7713,611.5055" style="stroke:#181818;stroke-width:1;"/><line style="stroke:#181818;stroke-width:1;" x1="245.7713" x2="245.7713" y1="221.3406" y2="270.4085"/><polygon fill="#181818" points="241.7713,260.4085,245.7713,270.4085,249.7713,260.4085,245.7713,264.4085" style="stroke:#181818;stroke-width:1;"/><line style="stroke:#181818;stroke-width:1;" x1="245.7713" x2="245.7713" y1="653.8496" y2="685.8496"/><polygon fill="#181818" points="241.7713,675.8496,245.7713,685.8496,249.7713,675.8496,245.7713,679.8496" style="stroke:#181818;stroke-width:1;"/><line style="stroke:#181818;stroke-width:1;" x1="245.7713" x2="245.7713" y1="823.9499" y2="843.9499"/><polygon fill="#181818" points="241.7713,833.9499,245.7713,843.9499,249.7713,833.9499,245.7713,837.9499" style="stroke:#181818;stroke-width:1;"/><line style="stroke:#181818;stroke-width:1;" x1="245.7713" x2="245.7713" y1="880.294" y2="900.294"/><polygon fill="#181818" points="241.7713,890.294,245.7713,900.294,249.7713,890.294,245.7713,894.294" style="stroke:#181818;stroke-width:1;"/><line style="stroke:#181818;stroke-width:1;" x1="245.7713" x2="245.7713" y1="936.6381" y2="956.6381"/><polygon fill="#181818" points="241.7713,946.6381,245.7713,956.6381,249.7713,946.6381,245.7713,950.6381" style="stroke:#181818;stroke-width:1;"/><line style="stroke:#181818;stroke-width:1;" x1="245.7713" x2="245.7713" y1="992.9822" y2="1012.9822"/><polygon fill="#181818" points="241.7713,1002.9822,245.7713,1012.9822,249.7713,1002.9822,245.7713,1006.9822" style="stroke:#181818;stroke-width:1;"/><line style="stroke:#181818;stroke-width:1;" x1="245.7713" x2="245.7713" y1="1049.3263" y2="1069.3263"/><polygon fill="#181818" points="241.7713,1059.3263,245.7713,1069.3263,249.7713,1059.3263,245.7713,1063.3263" style="stroke:#181818;stroke-width:1;"/><line style="stroke:#181818;stroke-width:1;" x1="210.6879" x2="156.0508" y1="1137.6705" y2="1137.6705"/><line style="stroke:#181818;stroke-width:1;" x1="156.0508" x2="156.0508" y1="1137.6705" y2="1159.6705"/><polygon fill="#181818" points="152.0508,1149.6705,156.0508,1159.6705,160.0508,1149.6705,156.0508,1153.6705" style="stroke:#181818;stroke-width:1;"/><line style="stroke:#181818;stroke-width:1;" x1="280.8546" x2="335.4918" y1="1137.6705" y2="1137.6705"/><line style="stroke:#181818;stroke-width:1;" x1="335.4918" x2="335.4918" y1="1137.6705" y2="1159.6705"/><polygon fill="#181818" points="331.4918,1149.6705,335.4918,1159.6705,339.4918,1149.6705,335.4918,1153.6705" style="stroke:#181818;stroke-width:1;"/><line style="stroke:#181818;stroke-width:1;" x1="156.0508" x2="156.0508" y1="1212.3587" y2="1230.3587"/><line style="stroke:#181818;stroke-width:1;" x1="156.0508" x2="233.7713" y1="1230.3587" y2="1230.3587"/><polygon fill="#181818" points="223.7713,1226.3587,233.7713,1230.3587,223.7713,1234.3587,227.7713,1230.3587" style="stroke:#181818;stroke-width:1;"/><line style="stroke:#181818;stroke-width:1;" x1="335.4918" x2="335.4918" y1="1196.0146" y2="1230.3587"/><line style="stroke:#181818;stroke-width:1;" x1="335.4918" x2="257.7713" y1="1230.3587" y2="1230.3587"/><polygon fill="#181818" points="267.7713,1226.3587,257.7713,1230.3587,267.7713,1234.3587,263.7713,1230.3587" style="stroke:#181818;stroke-width:1;"/><line style="stroke:#181818;stroke-width:1;" x1="245.7713" x2="245.7713" y1="1105.6705" y2="1125.6705"/><polygon fill="#181818" points="241.7713,1115.6705,245.7713,1125.6705,249.7713,1115.6705,245.7713,1119.6705" style="stroke:#181818;stroke-width:1;"/><line style="stroke:#181818;stroke-width:1;" x1="245.7713" x2="245.7713" y1="1242.3587" y2="1262.3587"/><polygon fill="#181818" points="241.7713,1252.3587,245.7713,1262.3587,249.7713,1252.3587,245.7713,1256.3587" style="stroke:#181818;stroke-width:1;"/><line style="stroke:#181818;stroke-width:1;" x1="245.7713" x2="245.7713" y1="738.5378" y2="787.6058"/><polygon fill="#181818" points="241.7713,777.6058,245.7713,787.6058,249.7713,777.6058,245.7713,781.6058" style="stroke:#181818;stroke-width:1;"/><line style="stroke:#181818;stroke-width:1;" x1="245.7713" x2="245.7713" y1="1298.7028" y2="1330.7028"/><polygon fill="#181818" points="241.7713,1320.7028,245.7713,1330.7028,249.7713,1320.7028,245.7713,1324.7028" style="stroke:#181818;stroke-width:1;"/><line style="stroke:#181818;stroke-width:1;" x1="245.7713" x2="245.7713" y1="1367.0469" y2="1387.0469"/><polygon fill="#181818" points="241.7713,1377.0469,245.7713,1387.0469,249.7713,1377.0469,245.7713,1381.0469" style="stroke:#181818;stroke-width:1;"/><line style="stroke:#181818;stroke-width:1;" x1="245.7713" x2="245.7713" y1="1439.7351" y2="1470.2942"/><polygon fill="#181818" points="241.7713,1460.2942,245.7713,1470.2942,249.7713,1460.2942,245.7713,1464.2942" style="stroke:#181818;stroke-width:1;"/><?plantuml-src RLJRRjj647tdLqnJm93fI8IInYZaXy8HuyImd1YHs_J1GB4aH-HQoztDxb2oMXJeKp-WwB_qlP-IB-aiBxBSLWH4SFVicPbpPlOhgh16i4f87Vcrr5OuKKCcydNfJAEBkL76mTSNxUy0uIjHcAtK9Qo4ydYm8tAI6qcxr__XU1MU_qCQLw3hKQVJy1oWpfqpstvp-crueeWaAOJt-D1uk60GRerRmvVV_eHpQs7kK90q6Zx9duKhu4APRHHv4ewYQFR1eeQvgQtn22dwDHaBkPAewKx7yIGfdIWKRc4ch9svXjVE-DWxmphvt27g06jZF9xdi74CdE9-vrmNpiYYss42BeQp3bazEnrxGWlRDhjdy4i4C8lZPLYRCijG1kqimX5OP-un9z1Svja1z4KFlHMkH0eMqigusj_fKP_LZ0NGIIto3yja8NNp07__DUGrWsLwbRnFhuuFEL_sdDzVGjSOHv0B4igKe6JcX9Fe3_7VzFWubhKs1Nh8L8FMIKs0XIJZulXERwL3kDbHnSLp1jS_pCEBO_3_eX7GdhpJNtx_0xpOC4aSxsaczzwq3Zm6VTK7JN43g3VI6LstverIaw_HFMStXIx7GGr1py7O8BjGJoezxKa-uaQorqTGeaR7nfr5lxBRRsf9U-LNpjH0M0U9CGdk5vt0O_5ek-XqxPQU-lssfoxsZ5Bdgc6IlVdwmV-K6xsIPLymr4YYOEtxfESd9q6uFkkQ5LC9y0boHYbq2OGoaXxSoAIHauUAQiK7Jc1O8S-VezjbykExs-i5fCl5e0atjhJa4oiqAZzHZGX8RzGBu0aWMUE0_BSpC78u3bwBZ4TonQC6F42s6l2TxttUTfT9NKodCEeLF0xYpIlnkJ5s1wE-ETkpShN__kuujAE6qGxzCM-rnEczr5eoiQScyrpbbI4bDLJ6juDSjFlZmTSYwRg8oyF7y0FPa1ZJTGc_qQNKxRoXBkGgr3A_5ck-AXrw91zwTvakNePtAnE_B-kthFDbVQCCTMrqq_jj-Cxnx3exCIobc3KbVE9xAqETLzqbyxgHgk1cPCr32NaT8ex7NKmesYD7F9FzUjR2d-wtH9vhYo9j-1voigo8q_-8uv35mO1oEjqLnBjam64xfrl9vJS45JTqwolVyGpeYWzcSIDwSarEZSD9nEf0Y1Fz0m00?></g></svg>