<?xml version="1.0" encoding="UTF-8"?>
<svg xmlns="http://www.w3.org/2000/svg" viewBox="0 0 800 420" width="800" height="420">
  <title>Blueprint vs flows — two-layer model</title>
  <rect width="100%" height="100%" fill="#1e1e2e"/>
  <rect x="0" y="0" width="100%" height="36" fill="#313244"/>
  <circle cx="18" cy="18" r="5" fill="#f38ba8"/>
  <circle cx="34" cy="18" r="5" fill="#fab387"/>
  <circle cx="50" cy="18" r="5" fill="#a6e3a1"/>
  <text x="400" y="24" text-anchor="middle" font-family="sans-serif" font-size="13" fill="#a6adc8" font-weight="bold">Two-layer model — design-time vs runtime</text>

  <!-- Layer 1: blueprint.json -->
  <rect x="40" y="70" width="720" height="130" rx="12" fill="#313244" stroke="#fab387" stroke-width="2"/>
  <rect x="40" y="70" width="720" height="30" rx="12" fill="#fab387"/>
  <rect x="40" y="85" width="720" height="15" fill="#fab387"/>
  <text x="400" y="90" text-anchor="middle" font-family="sans-serif" font-size="12" font-weight="bold" fill="#1e1e2e">Layer 1 — blueprint.json (design-time codegen)</text>

  <!-- Node type boxes -->
  <rect x="60" y="120" width="130" height="60" rx="8" fill="#313244" stroke="#89b4fa" stroke-width="1.5"/>
  <text x="125" y="148" text-anchor="middle" font-family="monospace, sans-serif" font-size="10" fill="#89b4fa">cpp.model</text>
  <text x="125" y="163" text-anchor="middle" font-family="sans-serif" font-size="8" fill="#585b70">domain state</text>

  <rect x="210" y="120" width="130" height="60" rx="8" fill="#313244" stroke="#89b4fa" stroke-width="1.5"/>
  <text x="275" y="148" text-anchor="middle" font-family="monospace, sans-serif" font-size="10" fill="#89b4fa">cpp.controller</text>
  <text x="275" y="163" text-anchor="middle" font-family="sans-serif" font-size="8" fill="#585b70">command routing</text>

  <rect x="360" y="120" width="130" height="60" rx="8" fill="#313244" stroke="#89b4fa" stroke-width="1.5"/>
  <text x="425" y="148" text-anchor="middle" font-family="monospace, sans-serif" font-size="10" fill="#89b4fa">ui.page</text>
  <text x="425" y="163" text-anchor="middle" font-family="sans-serif" font-size="8" fill="#585b70">ImGui screens</text>

  <rect x="510" y="120" width="130" height="60" rx="8" fill="#313244" stroke="#89b4fa" stroke-width="1.5"/>
  <text x="575" y="148" text-anchor="middle" font-family="monospace, sans-serif" font-size="10" fill="#89b4fa">python.module</text>
  <text x="575" y="163" text-anchor="middle" font-family="sans-serif" font-size="8" fill="#585b70">analytics glue</text>

  <rect x="60" y="195" width="200" height="24" rx="6" fill="none" stroke="#cba6f7" stroke-width="1" stroke-dasharray="3,2"/>
  <text x="160" y="211" text-anchor="middle" font-family="sans-serif" font-size="9" fill="#cba6f7">consumed by ProjectGenerator</text>

  <!-- Layer 2: flows.json -->
  <rect x="40" y="250" width="720" height="120" rx="12" fill="#313244" stroke="#a6e3a1" stroke-width="2"/>
  <rect x="40" y="250" width="720" height="30" rx="12" fill="#a6e3a1"/>
  <rect x="40" y="265" width="720" height="15" fill="#a6e3a1"/>
  <text x="400" y="270" text-anchor="middle" font-family="sans-serif" font-size="12" font-weight="bold" fill="#1e1e2e">Layer 2 — flows.json (runtime automation)</text>

  <rect x="60" y="300" width="180" height="50" rx="8" fill="#313244" stroke="#a6e3a1" stroke-width="1.5"/>
  <text x="150" y="322" text-anchor="middle" font-family="sans-serif" font-size="10" fill="#a6e3a1">background flows</text>
  <text x="150" y="338" text-anchor="middle" font-family="sans-serif" font-size="8" fill="#585b70">interval loops</text>

  <rect x="270" y="300" width="180" height="50" rx="8" fill="#313244" stroke="#a6e3a1" stroke-width="1.5"/>
  <text x="360" y="322" text-anchor="middle" font-family="sans-serif" font-size="10" fill="#a6e3a1">triggered flows</text>
  <text x="360" y="338" text-anchor="middle" font-family="sans-serif" font-size="8" fill="#585b70">event + condition</text>

  <rect x="480" y="300" width="260" height="50" rx="8" fill="#313244" stroke="#a6e3a1" stroke-width="1.5"/>
  <text x="610" y="322" text-anchor="middle" font-family="sans-serif" font-size="10" fill="#a6e3a1">step targets</text>
  <text x="610" y="338" text-anchor="middle" font-family="sans-serif" font-size="8" fill="#585b70">nxs.* · python.* · lua.* invoke</text>

  <!-- Arrow between layers -->
  <line x1="400" y1="224" x2="400" y2="244" stroke="#cba6f7" stroke-width="2" marker-end="url(#arrow)"/>
  <text x="400" y="240" text-anchor="middle" font-family="sans-serif" font-size="8" fill="#cba6f7">same canvas, separate files</text>

  <!-- Bottom note -->
  <rect x="40" y="380" width="720" height="30" rx="8" fill="#313244" stroke="#585b70" stroke-width="1"/>
  <text x="400" y="399" text-anchor="middle" font-family="sans-serif" font-size="10" fill="#a6adc8">blueprint.json declares structure · flows.json defines behaviour · FlowRunner triggers at startup</text>

  <defs>
    <marker id="arrow" viewBox="0 0 10 10" refX="8" refY="5" markerWidth="6" markerHeight="6" orient="auto">
      <path d="M0,0 L10,5 L0,10 Z" fill="#cba6f7"/>
    </marker>
  </defs>
</svg>
