<?xml version="1.0" encoding="UTF-8"?>
<svg xmlns="http://www.w3.org/2000/svg" viewBox="0 0 1200 560" width="1200" height="560">
  <title>blueprint.json vs flows.json layers</title>
  <defs>
    <marker id="arrow" markerWidth="10" markerHeight="10" refX="9" refY="5" orient="auto">
      <path d="M0,0 L10,5 L0,10 Z" fill="#37474F"/>
    </marker>
    <marker id="arrow-blue" markerWidth="10" markerHeight="10" refX="9" refY="5" orient="auto">
      <path d="M0,0 L10,5 L0,10 Z" fill="#1565C0"/>
    </marker>
    <style>
      .label { font: bold 13px "JetBrainsMono Nerd Font", "Symbols Nerd Font", Verdana, sans-serif; fill: #263238; font-weight: 700; }
      .desc { font: italic 11px "JetBrainsMono Nerd Font", "Symbols Nerd Font", Verdana, sans-serif; fill: #78909C; }
      .small { font: 11px "JetBrainsMono Nerd Font", "Symbols Nerd Font", Verdana, sans-serif; fill: #546E7A; }
      .mono { font: bold 12px "JetBrainsMono Nerd Font", "Symbols Nerd Font", Consolas, monospace; fill: #263238; font-weight: 700; }
      .legend-title { font: bold 12px "JetBrainsMono Nerd Font", "Symbols Nerd Font", Verdana, sans-serif; fill: #37474F; }
      .layer-label { font: bold 14px "JetBrainsMono Nerd Font", "Symbols Nerd Font", Verdana, sans-serif; fill: #263238; }
      .badge { font: bold 11px "JetBrainsMono Nerd Font", "Symbols Nerd Font", Verdana, sans-serif; fill: #1565C0; }
      .icon { font: 14px "JetBrainsMono Nerd Font", "Symbols Nerd Font", Consolas, monospace; fill: #263238; }
      .node { rx: 10; stroke-width: 2.5; }
      .panel { rx: 12; stroke-width: 2.5; }
      .legend-box { rx: 6; stroke-width: 2; }
    </style>
  </defs>
  <rect width="1200" height="100%" fill="#f8f9fa"/>
  <image href="../nexus-logo.png" x="24" y="16" width="40" height="40" preserveAspectRatio="xMidYMid meet"/>

  <rect x="40" y="88" width="520" height="380" class="panel" fill="#FFF8E1" stroke="#F57F17" fill-opacity="0.35"/>
  <text x="54" y="112" class="layer-label">&#xf15b; Design-time — blueprint.json</text>
  <text x="300" y="130" text-anchor="middle" class="desc">Langflow-style MVC wiring · consumed at generation</text>
  <rect x="80" y="160" width="200" height="58" class="node" fill="#FFFFFF" stroke="#F57F17"/>
  <text x="92" y="182" class="icon">&#xe73c;</text>
  <text x="114" y="182" class="label">python.module</text>
  <text x="92" y="208" class="desc">Analytics and glue modules</text>
  <rect x="300" y="160" width="200" height="58" class="node" fill="#FFFFFF" stroke="#F57F17"/>
  <text x="312" y="182" class="icon">&#xf1c0;</text>
  <text x="334" y="182" class="label">cpp.model</text>
  <text x="312" y="208" class="desc">Domain state and caches</text>
  <rect x="80" y="240" width="200" height="58" class="node" fill="#FFFFFF" stroke="#F57F17"/>
  <text x="92" y="262" class="icon">&#xf013;</text>
  <text x="114" y="262" class="label">cpp.controller</text>
  <text x="92" y="288" class="desc">Command routing layer</text>
  <rect x="300" y="240" width="200" height="58" class="node" fill="#FFFFFF" stroke="#F57F17"/>
  <text x="312" y="262" class="icon">&#xf5fd;</text>
  <text x="334" y="262" class="label">ui.page</text>
  <text x="312" y="288" class="desc">ImGui screens and DSL layout</text>
  <rect x="180" y="320" width="240" height="58" class="node" fill="#FFFFFF" stroke="#6A1B9A"/>
  <text x="192" y="342" class="icon">&#xf135;</text>
  <text x="214" y="342" class="label">:core ProjectGenerator</text>
  <text x="192" y="368" class="desc">Validates graph · emits src/ tree</text>
  <line x1="180" y1="218" x2="300" y2="218" stroke="#37474F" stroke-width="1.5" marker-end="url(#arrow)"/>
  <line x1="280" y1="298" x2="280" y2="320" stroke="#1565C0" stroke-width="2" marker-end="url(#arrow-blue)"/>

  <rect x="640" y="88" width="520" height="380" class="panel" fill="#E8F5E9" stroke="#2E7D32" fill-opacity="0.35"/>
  <text x="654" y="112" class="layer-label">&#xf126; Runtime — flows/flows.json</text>
  <text x="900" y="130" text-anchor="middle" class="desc">Optional in-app services · loaded at app startup</text>
  <rect x="680" y="160" width="200" height="58" class="node" fill="#FFFFFF" stroke="#2E7D32"/>
  <text x="692" y="182" class="icon">&#xf013;</text>
  <text x="714" y="182" class="label">background flows</text>
  <text x="692" y="208" class="desc">interval loops while app is alive</text>
  <rect x="900" y="160" width="220" height="58" class="node" fill="#FFFFFF" stroke="#2E7D32"/>
  <text x="912" y="182" class="icon">&#xf075;</text>
  <text x="934" y="182" class="label">triggered flows</text>
  <text x="912" y="208" class="desc">event · startup · manual · hotkey</text>
  <rect x="680" y="240" width="440" height="58" class="node" fill="#FFFFFF" stroke="#2E7D32"/>
  <text x="692" y="262" class="icon">&#xf120;</text>
  <text x="714" y="262" class="label">steps[] invoke</text>
  <text x="692" y="288" class="desc">nxs.* · python.* · lua.* targets</text>
  <rect x="780" y="320" width="240" height="58" class="node" fill="#FFFFFF" stroke="#00838F"/>
  <text x="792" y="342" class="icon">&#xf013;</text>
  <text x="814" y="342" class="label">FlowRunner</text>
  <text x="792" y="368" class="desc">Registers triggers from flows.json</text>
  <line x1="780" y1="218" x2="900" y2="218" stroke="#37474F" stroke-width="1.5" marker-end="url(#arrow)"/>
  <line x1="900" y1="298" x2="900" y2="320" stroke="#37474F" stroke-width="1.5" marker-end="url(#arrow)"/>

  <rect x="200" y="490" width="800" height="44" fill="#FFFFFF" stroke="#B0BEC5" stroke-width="2" rx="10"/>
  <text x="600" y="518" text-anchor="middle" class="small">Same Langflow canvas may split: structure → blueprint.json · automation → flows.json</text>

  <rect x="40" y="440" width="1120" height="88" fill="#FFFFFF" stroke="#B0BEC5" stroke-width="2" rx="10"/>
  <text x="56" y="462" class="legend-title">Two-layer model</text>
  <rect x="56" y="464" width="16" height="16" class="legend-box" fill="#FFF8E1" stroke="#F57F17"/>
  <text x="78" y="476" class="small">blueprint.json — design-time codegen</text>
  <rect x="616" y="464" width="16" height="16" class="legend-box" fill="#E8F5E9" stroke="#2E7D32"/>
  <text x="638" y="476" class="small">flows.json — runtime automation</text>
  <rect x="56" y="486" width="16" height="16" class="legend-box" fill="#6A1B9A" stroke="#6A1B9A"/>
  <text x="78" y="498" class="small">ProjectGenerator — one-time emit</text>
  <rect x="616" y="486" width="16" height="16" class="legend-box" fill="#00838F" stroke="#00838F"/>
  <text x="638" y="498" class="small">FlowRunner — in-process triggers</text>
</svg>