<?xml version="1.0" encoding="UTF-8"?>
<svg xmlns="http://www.w3.org/2000/svg" viewBox="0 0 700 650" width="700" height="650">
  <title>Blueprint vs flows — two-layer model</title>
  <rect width="100%" height="100%" fill="#1e1e2e"/>
  <rect x="0" y="0" width="700" height="38" fill="#313244"/>
  <circle cx="18" cy="19" r="5" fill="#f38ba8"/>
  <circle cx="34" cy="19" r="5" fill="#fab387"/>
  <circle cx="50" cy="19" r="5" fill="#a6e3a1"/>
  <text x="350" y="25" text-anchor="middle" font-family="sans-serif" font-size="14" fill="#a6adc8" font-weight="bold">Two-layer model — design-time vs runtime</text>

  <!-- Layer 1: blueprint.json -->
  <rect x="40" y="55" width="620" height="210" rx="12" fill="#313244" stroke="#fab387" stroke-width="2"/>
  <rect x="40" y="55" width="620" height="32" rx="12" fill="#fab387"/>
  <rect x="40" y="72" width="620" height="15" fill="#fab387"/>
  <text x="350" y="76" text-anchor="middle" font-family="sans-serif" font-size="13" font-weight="bold" fill="#1e1e2e">Layer 1 — blueprint.json (design-time codegen)</text>

  <!-- Node type boxes -->
  <rect x="56" y="107" width="135" height="65" rx="8" fill="#313244" stroke="#89b4fa" stroke-width="1.5"/>
  <text x="123" y="136" text-anchor="middle" font-family="monospace, sans-serif" font-size="10" fill="#89b4fa">cpp.model</text>
  <text x="123" y="152" text-anchor="middle" font-family="sans-serif" font-size="8" fill="#585b70">domain state</text>

  <rect x="207" y="107" width="135" height="65" rx="8" fill="#313244" stroke="#89b4fa" stroke-width="1.5"/>
  <text x="274" y="136" text-anchor="middle" font-family="monospace, sans-serif" font-size="10" fill="#89b4fa">cpp.controller</text>
  <text x="274" y="152" text-anchor="middle" font-family="sans-serif" font-size="8" fill="#585b70">command routing</text>

  <rect x="358" y="107" width="135" height="65" rx="8" fill="#313244" stroke="#89b4fa" stroke-width="1.5"/>
  <text x="425" y="136" text-anchor="middle" font-family="monospace, sans-serif" font-size="10" fill="#89b4fa">ui.page</text>
  <text x="425" y="152" text-anchor="middle" font-family="sans-serif" font-size="8" fill="#585b70">ImGui screens</text>

  <rect x="509" y="107" width="135" height="65" rx="8" fill="#313244" stroke="#89b4fa" stroke-width="1.5"/>
  <text x="576" y="136" text-anchor="middle" font-family="monospace, sans-serif" font-size="10" fill="#89b4fa">python.module</text>
  <text x="576" y="152" text-anchor="middle" font-family="sans-serif" font-size="8" fill="#585b70">analytics glue</text>

  <rect x="40" y="205" width="220" height="24" rx="6" fill="none" stroke="#cba6f7" stroke-width="1" stroke-dasharray="3,2"/>
  <text x="150" y="221" text-anchor="middle" font-family="sans-serif" font-size="9" fill="#cba6f7">consumed by ProjectGenerator</text>

  <!-- Arrow between layers -->
  <line x1="350" y1="270" x2="350" y2="294" stroke="#cba6f7" stroke-width="2" marker-end="url(#arrow)"/>
  <text x="350" y="287" text-anchor="middle" font-family="sans-serif" font-size="9" fill="#cba6f7">same canvas, separate files</text>

  <!-- Layer 2: flows.json -->
  <rect x="40" y="305" width="620" height="180" rx="12" fill="#313244" stroke="#a6e3a1" stroke-width="2"/>
  <rect x="40" y="305" width="620" height="32" rx="12" fill="#a6e3a1"/>
  <rect x="40" y="322" width="620" height="15" fill="#a6e3a1"/>
  <text x="350" y="326" text-anchor="middle" font-family="sans-serif" font-size="13" font-weight="bold" fill="#1e1e2e">Layer 2 — flows.json (runtime automation)</text>

  <rect x="51" y="357" width="192" height="58" rx="8" fill="#313244" stroke="#a6e3a1" stroke-width="1.5"/>
  <text x="147" y="381" text-anchor="middle" font-family="sans-serif" font-size="10" fill="#a6e3a1">background flows</text>
  <text x="147" y="398" text-anchor="middle" font-family="sans-serif" font-size="8" fill="#585b70">interval loops</text>

  <rect x="254" y="357" width="192" height="58" rx="8" fill="#313244" stroke="#a6e3a1" stroke-width="1.5"/>
  <text x="350" y="381" text-anchor="middle" font-family="sans-serif" font-size="10" fill="#a6e3a1">triggered flows</text>
  <text x="350" y="398" text-anchor="middle" font-family="sans-serif" font-size="8" fill="#585b70">event + condition</text>

  <rect x="457" y="357" width="192" height="58" rx="8" fill="#313244" stroke="#a6e3a1" stroke-width="1.5"/>
  <text x="553" y="381" text-anchor="middle" font-family="sans-serif" font-size="10" fill="#a6e3a1">step targets</text>
  <text x="553" y="398" text-anchor="middle" font-family="sans-serif" font-size="8" fill="#585b70">nxs.* · python.* · lua.* invoke</text>

  <!-- Bottom note -->
  <rect x="40" y="530" width="620" height="36" rx="8" fill="#313244" stroke="#585b70" stroke-width="1"/>
  <text x="350" y="553" text-anchor="middle" font-family="sans-serif" font-size="11" fill="#a6adc8">blueprint.json declares structure · flows.json defines behaviour · FlowRunner triggers at startup</text>

  <defs>
    <marker id="arrow" viewBox="0 0 10 10" refX="8" refY="5" markerWidth="6" markerHeight="6" orient="auto">
      <path d="M0,0 L10,5 L0,10 Z" fill="#cba6f7"/>
    </marker>
  </defs>
</svg>
