<?xml version="1.0" encoding="UTF-8"?>
<svg xmlns="http://www.w3.org/2000/svg" viewBox="0 0 600 540" width="600" height="540">
  <title>Cross-language bridge — in-process interop</title>
  <rect width="100%" height="100%" fill="#1e1e2e"/>
  <rect x="0" y="0" width="100%" height="36" fill="#313244"/>
  <circle cx="18" cy="18" r="6" fill="#f38ba8"/>
  <circle cx="36" cy="18" r="6" fill="#fab387"/>
  <circle cx="54" cy="18" r="6" fill="#a6e3a1"/>
  <text x="300" y="24" text-anchor="middle" font-family="sans-serif" font-size="14" fill="#a6adc8" font-weight="bold">Cross-language bridge</text>

  <rect x="30" y="70" width="200" height="90" rx="10" fill="#313244" stroke="#89b4fa" stroke-width="2"/>
  <text x="130" y="105" text-anchor="middle" font-family="sans-serif" font-size="15" font-weight="bold" fill="#89b4fa">C++20</text>
  <text x="130" y="128" text-anchor="middle" font-family="sans-serif" font-size="12" fill="#a6adc8">src/model/</text>
  <text x="130" y="148" text-anchor="middle" font-family="sans-serif" font-size="10" fill="#585b70">domain state + logic</text>

  <rect x="30" y="195" width="200" height="85" rx="10" fill="#313244" stroke="#a6e3a1" stroke-width="2"/>
  <text x="130" y="228" text-anchor="middle" font-family="sans-serif" font-size="15" font-weight="bold" fill="#a6e3a1">Lua 5.4</text>
  <text x="130" y="250" text-anchor="middle" font-family="sans-serif" font-size="12" fill="#a6adc8">scripts/panels.lua</text>
  <text x="130" y="270" text-anchor="middle" font-family="sans-serif" font-size="10" fill="#585b70">sol2 runtime scripting</text>

  <rect x="30" y="315" width="200" height="85" rx="10" fill="#313244" stroke="#fab387" stroke-width="2"/>
  <text x="130" y="348" text-anchor="middle" font-family="sans-serif" font-size="15" font-weight="bold" fill="#fab387">Python 3.11+</text>
  <text x="130" y="370" text-anchor="middle" font-family="sans-serif" font-size="12" fill="#a6adc8">python/functions.py</text>
  <text x="130" y="390" text-anchor="middle" font-family="sans-serif" font-size="10" fill="#585b70">pybind11 / Chaquopy</text>

  <rect x="280" y="120" width="200" height="105" rx="14" fill="#45475a" stroke="#cba6f7" stroke-width="3"/>
  <text x="380" y="162" text-anchor="middle" font-family="sans-serif" font-size="17" font-weight="bold" fill="#cba6f7">NexusBridge</text>
  <text x="380" y="186" text-anchor="middle" font-family="monospace, sans-serif" font-size="11" fill="#a6adc8">nxs::bridge::registry</text>
  <text x="380" y="206" text-anchor="middle" font-family="monospace, sans-serif" font-size="11" fill="#a6adc8">call("counter.get")</text>

  <rect x="280" y="270" width="200" height="90" rx="10" fill="#313244" stroke="#89dceb" stroke-width="2"/>
  <text x="380" y="305" text-anchor="middle" font-family="sans-serif" font-size="15" font-weight="bold" fill="#89dceb">Zig 0.14</text>
  <text x="380" y="328" text-anchor="middle" font-family="sans-serif" font-size="12" fill="#a6adc8">zig-services/src/</text>
  <text x="380" y="348" text-anchor="middle" font-family="sans-serif" font-size="10" fill="#585b70">arena allocator</text>

  <rect x="280" y="395" width="200" height="85" rx="10" fill="#313244" stroke="#f38ba8" stroke-width="2"/>
  <text x="380" y="428" text-anchor="middle" font-family="sans-serif" font-size="15" font-weight="bold" fill="#f38ba8">TS + XHTML</text>
  <text x="380" y="450" text-anchor="middle" font-family="sans-serif" font-size="12" fill="#a6adc8">ui/ui.ts + ui.xhtml</text>
  <text x="380" y="470" text-anchor="middle" font-family="sans-serif" font-size="10" fill="#585b70">lowers to Lua/ImGui</text>

  <line x1="230" y1="120" x2="275" y2="175" stroke="#585b70" stroke-width="2" marker-end="url(#arrow)"/>
  <line x1="230" y1="240" x2="275" y2="195" stroke="#585b70" stroke-width="2" marker-end="url(#arrow)"/>
  <line x1="230" y1="360" x2="275" y2="200" stroke="#585b70" stroke-width="2" marker-end="url(#arrow)"/>
  <line x1="480" y1="180" x2="485" y2="315" stroke="#585b70" stroke-width="2" marker-end="url(#arrow)"/>
  <line x1="480" y1="200" x2="485" y2="440" stroke="#585b70" stroke-width="2" marker-end="url(#arrow)"/>

  <defs>
    <marker id="arrow" viewBox="0 0 10 10" refX="8" refY="5" markerWidth="7" markerHeight="7" orient="auto">
      <path d="M0,0 L10,5 L0,10 Z" fill="#585b70"/>
    </marker>
  </defs>

  <text x="300" y="525" text-anchor="middle" font-family="sans-serif" font-size="11" fill="#585b70">All languages in same process — no IPC, no serialization</text>
</svg>
