<?xml version="1.0" encoding="UTF-8"?>
<svg xmlns="http://www.w3.org/2000/svg" viewBox="0 0 1500 820" width="1500" height="820">
  <title>Desktop vs Android runtime</title>
  <defs>
    <marker id="arrow" markerWidth="10" markerHeight="10" refX="9" refY="5" orient="auto">
      <path d="M0,0 L10,5 L0,10 Z" fill="#37474F"/>
    </marker>
    <marker id="arrow-blue" markerWidth="10" markerHeight="10" refX="9" refY="5" orient="auto">
      <path d="M0,0 L10,5 L0,10 Z" fill="#1565C0"/>
    </marker>
    <style>
      .title { font: 19px "JetBrainsMono Nerd Font", "Symbols Nerd Font", Verdana, sans-serif; fill: #1a1a2e; font-weight: 700; }
      .subtitle { font: 12px "JetBrainsMono Nerd Font", "Symbols Nerd Font", Verdana, sans-serif; fill: #666666; font-weight: normal; }
      .label { font: bold 13px "JetBrainsMono Nerd Font", "Symbols Nerd Font", Verdana, sans-serif; fill: #263238; font-weight: 700; }
      .desc { font: italic 11px "JetBrainsMono Nerd Font", "Symbols Nerd Font", Verdana, sans-serif; fill: #78909C; }
      .small { font: 11px "JetBrainsMono Nerd Font", "Symbols Nerd Font", Verdana, sans-serif; fill: #546E7A; }
      .mono { font: bold 12px "JetBrainsMono Nerd Font", "Symbols Nerd Font", Consolas, monospace; fill: #263238; font-weight: 700; }
      .legend-title { font: bold 12px "JetBrainsMono Nerd Font", "Symbols Nerd Font", Verdana, sans-serif; fill: #37474F; }
      .layer-label { font: bold 14px "JetBrainsMono Nerd Font", "Symbols Nerd Font", Verdana, sans-serif; fill: #263238; }
      .badge { font: bold 11px "JetBrainsMono Nerd Font", "Symbols Nerd Font", Verdana, sans-serif; fill: #1565C0; }
      .icon { font: 14px "JetBrainsMono Nerd Font", "Symbols Nerd Font", Consolas, monospace; fill: #263238; }
      .node { rx: 10; stroke-width: 2.5; }
      .panel { rx: 12; stroke-width: 2.5; }
      .legend-box { rx: 6; stroke-width: 2; }
    </style>
  </defs>
  <rect width="1500" height="100%" fill="#f8f9fa"/>
  <image href="../nexus-logo.png" x="24" y="16" width="40" height="40" preserveAspectRatio="xMidYMid meet"/>
  <text x="750" y="38" text-anchor="middle" class="title">Desktop vs Android runtime</text>
  <text x="750" y="58" text-anchor="middle" class="subtitle">pybind11/SDL3 vs Chaquopy/Djinni on the same blueprint</text>

  <rect x="420" y="78" width="480" height="340" class="panel" fill="#F3E5F5" stroke="#6A1B9A" fill-opacity="0.35"/>
  <text x="434" y="102" class="layer-label">&#xf5fd; Shared (both templates)</text>
  <rect x="440" y="118" width="200" height="62" class="node" fill="#FFFFFF" stroke="#6A1B9A"/>
  <text x="452" y="140" class="icon">&#xf15b;</text>
  <text x="474" y="140" class="label">blueprint.json</text>
  <text x="452" y="170" class="desc">Loads blueprint.json at generate time</text>
  <rect x="660" y="118" width="220" height="62" class="node" fill="#FFFFFF" stroke="#6A1B9A"/>
  <text x="672" y="140" class="icon">&#xf120;</text>
  <text x="694" y="140" class="label">Lua 5.4 + sol2</text>
  <text x="672" y="170" class="desc">Scripting layer shared across targets</text>
  <rect x="440" y="200" width="440" height="62" class="node" fill="#FFFFFF" stroke="#6A1B9A"/>
  <text x="452" y="222" class="icon">&#xf121;</text>
  <text x="474" y="222" class="label">C++20 MVC</text>
  <text x="452" y="252" class="desc">model · controller · view from graph</text>
  <rect x="440" y="282" width="200" height="62" class="node" fill="#FFFFFF" stroke="#6A1B9A"/>
  <text x="452" y="304" class="icon">&#xf080;</text>
  <text x="474" y="304" class="label">ImGui + ImPlot</text>
  <text x="452" y="334" class="desc">Immediate-mode UI and plotting</text>
  <rect x="660" y="282" width="220" height="62" class="node" fill="#FFFFFF" stroke="#6A1B9A"/>
  <text x="672" y="304" class="icon">&#xf108;</text>
  <text x="694" y="304" class="label">SDL3 render loop</text>
  <text x="672" y="334" class="desc">Cross-platform graphics and input</text>

  <rect x="24" y="450" width="520" height="340" class="panel" fill="#E3F2FD" stroke="#1565C0" fill-opacity="0.35"/>
  <text x="38" y="474" class="layer-label">&#xf108; Desktop runtime</text>
  <rect x="44" y="490" width="220" height="62" class="node" fill="#FFFFFF" stroke="#1565C0"/>
  <text x="56" y="512" class="icon">&#xf013;</text>
  <text x="78" y="512" class="label">CMake + Ninja</text>
  <text x="56" y="542" class="desc">OpenGL 3.3 native build pipeline</text>
  <rect x="280" y="490" width="240" height="62" class="node" fill="#FFFFFF" stroke="#1565C0"/>
  <text x="292" y="512" class="icon">&#xe73c;</text>
  <text x="314" y="512" class="label">pybind11 embed</text>
  <text x="292" y="542" class="desc">Embeds CPython via pybind11</text>
  <rect x="44" y="580" width="220" height="62" class="node" fill="#FFFFFF" stroke="#1565C0"/>
  <text x="56" y="602" class="icon">&#xf15b;</text>
  <text x="78" y="602" class="label">python/functions.py</text>
  <text x="56" y="632" class="desc">In-process NumPy analytics module</text>
  <rect x="280" y="580" width="240" height="62" class="node" fill="#FFFFFF" stroke="#1565C0"/>
  <text x="292" y="602" class="icon">&#xf466;</text>
  <text x="314" y="602" class="label">Native binary</text>
  <text x="292" y="632" class="desc">Win · macOS · Linux executable</text>

  <rect x="760" y="450" width="520" height="340" class="panel" fill="#FCE4EC" stroke="#C2185B" fill-opacity="0.35"/>
  <text x="774" y="474" class="layer-label">&#xf3cd; Android runtime</text>
  <rect x="780" y="490" width="220" height="62" class="node" fill="#FFFFFF" stroke="#C2185B"/>
  <text x="792" y="512" class="icon">&#xf17b;</text>
  <text x="814" y="512" class="label">Gradle + NDK</text>
  <text x="792" y="542" class="desc">APK build with native C++ libs</text>
  <rect x="1020" y="490" width="240" height="62" class="node" fill="#FFFFFF" stroke="#C2185B"/>
  <text x="1032" y="512" class="icon">&#xf108;</text>
  <text x="1054" y="512" class="label">SDL3 GLES</text>
  <text x="1032" y="542" class="desc">Full-screen touch UI on GLES</text>
  <rect x="780" y="580" width="220" height="62" class="node" fill="#FFFFFF" stroke="#C2185B"/>
  <text x="792" y="602" class="icon">&#xf1e6;</text>
  <text x="814" y="602" class="label">Djinni IDL</text>
  <text x="792" y="632" class="desc">C++ ↔ Kotlin JNI codegen</text>
  <rect x="1020" y="580" width="240" height="62" class="node" fill="#FFFFFF" stroke="#C2185B"/>
  <text x="1032" y="602" class="icon">&#xe73c;</text>
  <text x="1054" y="602" class="label">Chaquopy</text>
  <text x="1032" y="632" class="desc">app/src/main/python/ embedding</text>

  <line x1="540" y1="180" x2="540" y2="200" stroke="#37474F" stroke-width="1.5" marker-end="url(#arrow)"/>
  <text x="540" y="184" text-anchor="middle" class="small">wires nodes</text>
  <line x1="770" y1="149" x2="660" y2="200" stroke="#37474F" stroke-width="1.5" marker-end="url(#arrow)"/>
  <line x1="540" y1="262" x2="540" y2="282" stroke="#37474F" stroke-width="1.5" marker-end="url(#arrow)"/>
  <line x1="540" y1="344" x2="154" y2="450" stroke="#37474F" stroke-width="1.5" marker-end="url(#arrow)"/>
  <text x="347" y="391" text-anchor="middle" class="small">desktop</text>
  <line x1="540" y1="344" x2="900" y2="450" stroke="#37474F" stroke-width="1.5" marker-end="url(#arrow)"/>
  <text x="720" y="391" text-anchor="middle" class="small">Android NDK</text>
  <line x1="154" y1="552" x2="154" y2="580" stroke="#37474F" stroke-width="1.5" marker-end="url(#arrow)"/>
  <line x1="400" y1="552" x2="280" y2="580" stroke="#37474F" stroke-width="1.5" marker-end="url(#arrow)"/>
  <line x1="900" y1="552" x2="900" y2="580" stroke="#37474F" stroke-width="1.5" marker-end="url(#arrow)"/>
  <line x1="1020" y1="552" x2="890" y2="580" stroke="#37474F" stroke-width="1.5" marker-end="url(#arrow)"/>

  <rect x="960" y="118" width="300" height="70" class="panel" fill="#FFFDE7" stroke="#F9A825"/>
  <text x="980" y="148" class="small">Same plotter template on both targets.</text>
  <text x="980" y="168" class="desc">blueprint.json declares the same node graph.</text>

  <rect x="560" y="680" width="360" height="50" class="panel" fill="#E8F5E9" stroke="#2E7D32"/>
  <text x="580" y="710" class="small">Lowest latency: Python runs in-process via pybind11.</text>

  <rect x="24" y="720" width="480" height="88" fill="#FFFFFF" stroke="#B0BEC5" stroke-width="2" rx="10"/>
  <text x="40" y="742" class="legend-title">Runtime layers</text>
  <rect x="40" y="744" width="16" height="16" class="legend-box" fill="#F3E5F5" stroke="#6A1B9A"/>
  <text x="62" y="756" class="small">Shared — blueprint + MVC + SDL3</text>
  <rect x="280" y="744" width="16" height="16" class="legend-box" fill="#E3F2FD" stroke="#1565C0"/>
  <text x="302" y="756" class="small">Desktop — CMake + pybind11</text>
  <rect x="40" y="766" width="16" height="16" class="legend-box" fill="#FCE4EC" stroke="#C2185B"/>
  <text x="62" y="778" class="small">Android — Gradle + Djinni + Chaquopy</text>
</svg>