<?plantuml 1.2026.2?><svg xmlns="http://www.w3.org/2000/svg" xmlns:xlink="http://www.w3.org/1999/xlink" contentStyleType="text/css" data-diagram-type="DESCRIPTION" height="1281.6px" preserveAspectRatio="none" style="width:1782px;height:1281px;background:#FFFFFF;" version="1.1" viewBox="0 0 1782 1281" width="1782px" zoomAndPan="magnify"><title>Nexus Generated App &#8212; Desktop vs Android Runtime</title><defs/><g><g class="title" data-source-line="11"><text fill="#000000" font-family="Verdana" font-size="26.4" font-weight="bold" lengthAdjust="spacing" textLength="703.4569" x="534.1761" y="46.2217">Nexus Generated App &#8212; Desktop vs Android Runtime</text></g><!--cluster Shared--><g class="cluster" data-qualified-name="Shared" data-source-line="14" id="ent0002"><path d="M474.6,75.431 L693.2955,75.431 A4.5,4.5 0 0 1 696.2955,78.431 L704.6955,107.1471 L889.8,107.1471 A3,3 0 0 1 892.8,110.1471 L892.8,711.287 A3,3 0 0 1 889.8,714.287 L474.6,714.287 A3,3 0 0 1 471.6,711.287 L471.6,78.431 A3,3 0 0 1 474.6,75.431" fill="#F3E5F5" style="stroke:#000000;stroke-width:1.2;"/><line style="stroke:#000000;stroke-width:1.2;" x1="471.6" x2="704.6955" y1="107.1471" y2="107.1471"/><text fill="#000000" font-family="Verdana" font-size="18" font-weight="bold" lengthAdjust="spacing" textLength="217.4955" x="476.4" y="97.0731">Shared (both templates)</text></g><!--cluster Desk--><g class="cluster" data-qualified-name="Desk" data-source-line="23" id="ent0008"><path d="M16.2,806.687 L169.573,806.687 A4.5,4.5 0 0 1 172.573,809.687 L180.973,838.4031 L508.2,838.4031 A3,3 0 0 1 511.2,841.4031 L511.2,1270.775 A3,3 0 0 1 508.2,1273.775 L16.2,1273.775 A3,3 0 0 1 13.2,1270.775 L13.2,809.687 A3,3 0 0 1 16.2,806.687" fill="#E3F2FD" style="stroke:#000000;stroke-width:1.2;"/><line style="stroke:#000000;stroke-width:1.2;" x1="13.2" x2="180.973" y1="838.4031" y2="838.4031"/><text fill="#000000" font-family="Verdana" font-size="18" font-weight="bold" lengthAdjust="spacing" textLength="152.173" x="18" y="828.3291">Desktop runtime</text></g><!--cluster And--><g class="cluster" data-qualified-name="And" data-source-line="30" id="ent0013"><path d="M953.4,561.215 L1103.803,561.215 A4.5,4.5 0 0 1 1106.803,564.215 L1115.203,592.9311 L1433.4,592.9311 A3,3 0 0 1 1436.4,595.9311 L1436.4,1270.775 A3,3 0 0 1 1433.4,1273.775 L953.4,1273.775 A3,3 0 0 1 950.4,1270.775 L950.4,564.215 A3,3 0 0 1 953.4,561.215" fill="#FCE4EC" style="stroke:#000000;stroke-width:1.2;"/><line style="stroke:#000000;stroke-width:1.2;" x1="950.4" x2="1115.203" y1="592.9311" y2="592.9311"/><text fill="#000000" font-family="Verdana" font-size="18" font-weight="bold" lengthAdjust="spacing" textLength="149.203" x="955.2" y="582.8571">Android runtime</text></g><!--entity BP--><g class="entity" data-qualified-name="Shared.BP" data-source-line="15" id="ent0003"><rect fill="#FFFFFF" height="57.2472" rx="3" ry="3" style="stroke:#000000;stroke-width:1.2;" width="150.1489" x="500.928" y="131.831"/><rect fill="#FFFFFF" height="12" style="stroke:#000000;stroke-width:1.2;" width="18" x="627.0769" y="137.831"/><rect fill="#FFFFFF" height="2.4" style="stroke:#000000;stroke-width:1.2;" width="4.8" x="624.6769" y="140.231"/><rect fill="#FFFFFF" height="2.4" style="stroke:#000000;stroke-width:1.2;" width="4.8" x="624.6769" y="145.031"/><text fill="#000000" font-family="Verdana" font-size="15.6" lengthAdjust="spacing" textLength="102.1489" x="518.928" y="172.5074">blueprint.json</text></g><!--entity MVC--><g class="entity" data-qualified-name="Shared.MVC" data-source-line="16" id="ent0004"><rect fill="#FFFFFF" height="78.4944" rx="3" ry="3" style="stroke:#000000;stroke-width:1.2;" width="223.4066" x="524.292" y="286.283"/><rect fill="#FFFFFF" height="12" style="stroke:#000000;stroke-width:1.2;" width="18" x="723.6986" y="292.283"/><rect fill="#FFFFFF" height="2.4" style="stroke:#000000;stroke-width:1.2;" width="4.8" x="721.2986" y="294.683"/><rect fill="#FFFFFF" height="2.4" style="stroke:#000000;stroke-width:1.2;" width="4.8" x="721.2986" y="299.483"/><text fill="#000000" font-family="Verdana" font-size="15.6" lengthAdjust="spacing" textLength="82.9765" x="542.292" y="326.9594">C++20 MVC</text><text fill="#000000" font-family="Verdana" font-size="15.6" lengthAdjust="spacing" textLength="175.4066" x="542.292" y="348.2066">model &#183; controller &#183; view</text></g><!--entity ImGui--><g class="entity" data-qualified-name="Shared.ImGui" data-source-line="17" id="ent0005"><rect fill="#FFFFFF" height="57.2472" rx="3" ry="3" style="stroke:#000000;stroke-width:1.2;" width="158.3389" x="556.836" y="437.975"/><rect fill="#FFFFFF" height="12" style="stroke:#000000;stroke-width:1.2;" width="18" x="691.1749" y="443.975"/><rect fill="#FFFFFF" height="2.4" style="stroke:#000000;stroke-width:1.2;" width="4.8" x="688.7749" y="446.375"/><rect fill="#FFFFFF" height="2.4" style="stroke:#000000;stroke-width:1.2;" width="4.8" x="688.7749" y="451.175"/><text fill="#000000" font-family="Verdana" font-size="15.6" lengthAdjust="spacing" textLength="110.3389" x="574.836" y="478.6514">ImGui + ImPlot</text></g><!--entity Lua--><g class="entity" data-qualified-name="Shared.Lua" data-source-line="18" id="ent0006"><rect fill="#FFFFFF" height="57.2472" rx="3" ry="3" style="stroke:#000000;stroke-width:1.2;" width="147.5437" x="693.024" y="131.831"/><rect fill="#FFFFFF" height="12" style="stroke:#000000;stroke-width:1.2;" width="18" x="816.5677" y="137.831"/><rect fill="#FFFFFF" height="2.4" style="stroke:#000000;stroke-width:1.2;" width="4.8" x="814.1677" y="140.231"/><rect fill="#FFFFFF" height="2.4" style="stroke:#000000;stroke-width:1.2;" width="4.8" x="814.1677" y="145.031"/><text fill="#000000" font-family="Verdana" font-size="15.6" lengthAdjust="spacing" textLength="99.5437" x="711.024" y="172.5074">Lua 5.4 + sol2</text></g><!--entity SDL--><g class="entity" data-qualified-name="Shared.SDL" data-source-line="19" id="ent0007"><rect fill="#FFFFFF" height="57.2472" rx="3" ry="3" style="stroke:#000000;stroke-width:1.2;" width="175.3741" x="548.316" y="628.247"/><rect fill="#FFFFFF" height="12" style="stroke:#000000;stroke-width:1.2;" width="18" x="699.6901" y="634.247"/><rect fill="#FFFFFF" height="2.4" style="stroke:#000000;stroke-width:1.2;" width="4.8" x="697.2901" y="636.647"/><rect fill="#FFFFFF" height="2.4" style="stroke:#000000;stroke-width:1.2;" width="4.8" x="697.2901" y="641.447"/><text fill="#000000" font-family="Verdana" font-size="15.6" lengthAdjust="spacing" textLength="127.3741" x="566.316" y="668.9234">SDL3 render loop</text></g><!--entity CMake--><g class="entity" data-qualified-name="Desk.CMake" data-source-line="24" id="ent0009"><rect fill="#FFFFFF" height="78.4944" rx="3" ry="3" style="stroke:#000000;stroke-width:1.2;" width="153.2221" x="302.592" y="863.087"/><rect fill="#FFFFFF" height="12" style="stroke:#000000;stroke-width:1.2;" width="18" x="431.8141" y="869.087"/><rect fill="#FFFFFF" height="2.4" style="stroke:#000000;stroke-width:1.2;" width="4.8" x="429.4141" y="871.487"/><rect fill="#FFFFFF" height="2.4" style="stroke:#000000;stroke-width:1.2;" width="4.8" x="429.4141" y="876.287"/><text fill="#000000" font-family="Verdana" font-size="15.6" lengthAdjust="spacing" textLength="105.2221" x="320.592" y="903.7634">CMake + Ninja</text><text fill="#000000" font-family="Verdana" font-size="15.6" lengthAdjust="spacing" textLength="85.8313" x="320.592" y="925.0106">OpenGL 3.3</text></g><!--entity Pybind--><g class="entity" data-qualified-name="Desk.Pybind" data-source-line="25" id="ent0010"><rect fill="#FFFFFF" height="78.4944" rx="3" ry="3" style="stroke:#000000;stroke-width:1.2;" width="171.6769" x="288.564" y="1014.791"/><rect fill="#FFFFFF" height="12" style="stroke:#000000;stroke-width:1.2;" width="18" x="436.2409" y="1020.791"/><rect fill="#FFFFFF" height="2.4" style="stroke:#000000;stroke-width:1.2;" width="4.8" x="433.8409" y="1023.191"/><rect fill="#FFFFFF" height="2.4" style="stroke:#000000;stroke-width:1.2;" width="4.8" x="433.8409" y="1027.991"/><text fill="#000000" font-family="Verdana" font-size="15.6" lengthAdjust="spacing" textLength="123.6769" x="306.564" y="1055.4674">pybind11 embed</text><text fill="#000000" font-family="Verdana" font-size="15.6" lengthAdjust="spacing" textLength="102.1177" x="306.564" y="1076.7146">PythonEngine</text></g><!--entity PyDesk--><g class="entity" data-qualified-name="Desk.PyDesk" data-source-line="26" id="ent0011"><rect fill="#FFFFFF" height="78.4944" rx="3" ry="3" style="stroke:#000000;stroke-width:1.2;" width="195.779" x="276.516" y="1166.483"/><rect fill="#FFFFFF" height="12" style="stroke:#000000;stroke-width:1.2;" width="18" x="448.295" y="1172.483"/><rect fill="#FFFFFF" height="2.4" style="stroke:#000000;stroke-width:1.2;" width="4.8" x="445.895" y="1174.883"/><rect fill="#FFFFFF" height="2.4" style="stroke:#000000;stroke-width:1.2;" width="4.8" x="445.895" y="1179.683"/><text fill="#000000" font-family="Verdana" font-size="15.6" lengthAdjust="spacing" textLength="147.779" x="294.516" y="1207.1594">python/functions.py</text><text fill="#000000" font-family="Verdana" font-size="15.6" lengthAdjust="spacing" textLength="130.8685" x="294.516" y="1228.4066">numpy in-process</text></g><!--entity Bin--><g class="entity" data-qualified-name="Desk.Bin" data-source-line="27" id="ent0012"><rect fill="#FFFFFF" height="78.4944" rx="3" ry="3" style="stroke:#000000;stroke-width:1.2;" width="192.0662" x="41.964" y="1166.483"/><rect fill="#FFFFFF" height="12" style="stroke:#000000;stroke-width:1.2;" width="18" x="210.0302" y="1172.483"/><rect fill="#FFFFFF" height="2.4" style="stroke:#000000;stroke-width:1.2;" width="4.8" x="207.6302" y="1174.883"/><rect fill="#FFFFFF" height="2.4" style="stroke:#000000;stroke-width:1.2;" width="4.8" x="207.6302" y="1179.683"/><text fill="#000000" font-family="Verdana" font-size="15.6" lengthAdjust="spacing" textLength="97.4533" x="59.964" y="1207.1594">Native binary</text><text fill="#000000" font-family="Verdana" font-size="15.6" lengthAdjust="spacing" textLength="144.0662" x="59.964" y="1228.4066">Win &#183; macOS &#183; Linux</text></g><!--entity Gradle--><g class="entity" data-qualified-name="And.Gradle" data-source-line="31" id="ent0014"><rect fill="#FFFFFF" height="78.4944" rx="3" ry="3" style="stroke:#000000;stroke-width:1.2;" width="146.9041" x="978.948" y="617.615"/><rect fill="#FFFFFF" height="12" style="stroke:#000000;stroke-width:1.2;" width="18" x="1101.8521" y="623.615"/><rect fill="#FFFFFF" height="2.4" style="stroke:#000000;stroke-width:1.2;" width="4.8" x="1099.4521" y="626.015"/><rect fill="#FFFFFF" height="2.4" style="stroke:#000000;stroke-width:1.2;" width="4.8" x="1099.4521" y="630.815"/><text fill="#000000" font-family="Verdana" font-size="15.6" lengthAdjust="spacing" textLength="98.9041" x="996.948" y="658.2914">Gradle + NDK</text><text fill="#000000" font-family="Verdana" font-size="15.6" lengthAdjust="spacing" textLength="29.0628" x="996.948" y="679.5386">APK</text></g><!--entity Djinni--><g class="entity" data-qualified-name="And.Djinni" data-source-line="32" id="ent0015"><rect fill="#FFFFFF" height="78.4944" rx="3" ry="3" style="stroke:#000000;stroke-width:1.2;" width="139.3052" x="1078.752" y="1014.791"/><rect fill="#FFFFFF" height="12" style="stroke:#000000;stroke-width:1.2;" width="18" x="1194.0572" y="1020.791"/><rect fill="#FFFFFF" height="2.4" style="stroke:#000000;stroke-width:1.2;" width="4.8" x="1191.6572" y="1023.191"/><rect fill="#FFFFFF" height="2.4" style="stroke:#000000;stroke-width:1.2;" width="4.8" x="1191.6572" y="1027.991"/><text fill="#000000" font-family="Verdana" font-size="15.6" lengthAdjust="spacing" textLength="71.6509" x="1096.752" y="1055.4674">Djinni IDL</text><text fill="#000000" font-family="Verdana" font-size="15.6" lengthAdjust="spacing" textLength="91.3052" x="1096.752" y="1076.7146">C++ &#8596; Kotlin</text></g><!--entity Chaq--><g class="entity" data-qualified-name="And.Chaq" data-source-line="33" id="ent0016"><rect fill="#FFFFFF" height="78.4944" rx="3" ry="3" style="stroke:#000000;stroke-width:1.2;" width="209.4601" x="1043.664" y="1166.483"/><rect fill="#FFFFFF" height="12" style="stroke:#000000;stroke-width:1.2;" width="18" x="1229.1241" y="1172.483"/><rect fill="#FFFFFF" height="2.4" style="stroke:#000000;stroke-width:1.2;" width="4.8" x="1226.7241" y="1174.883"/><rect fill="#FFFFFF" height="2.4" style="stroke:#000000;stroke-width:1.2;" width="4.8" x="1226.7241" y="1179.683"/><text fill="#000000" font-family="Verdana" font-size="15.6" lengthAdjust="spacing" textLength="74.4745" x="1061.664" y="1207.1594">Chaquopy</text><text fill="#000000" font-family="Verdana" font-size="15.6" lengthAdjust="spacing" textLength="161.4601" x="1061.664" y="1228.4066">app/src/main/python/</text></g><!--entity GLES--><g class="entity" data-qualified-name="And.GLES" data-source-line="34" id="ent0017"><rect fill="#FFFFFF" height="78.4944" rx="3" ry="3" style="stroke:#000000;stroke-width:1.2;" width="191.3641" x="979.512" y="863.087"/><rect fill="#FFFFFF" height="12" style="stroke:#000000;stroke-width:1.2;" width="18" x="1146.8761" y="869.087"/><rect fill="#FFFFFF" height="2.4" style="stroke:#000000;stroke-width:1.2;" width="4.8" x="1144.4761" y="871.487"/><rect fill="#FFFFFF" height="2.4" style="stroke:#000000;stroke-width:1.2;" width="4.8" x="1144.4761" y="876.287"/><text fill="#000000" font-family="Verdana" font-size="15.6" lengthAdjust="spacing" textLength="77.8753" x="997.512" y="903.7634">SDL3 GLES</text><text fill="#000000" font-family="Verdana" font-size="15.6" lengthAdjust="spacing" textLength="143.3641" x="997.512" y="925.0106">full-screen touch UI</text></g><!--entity AndLua--><g class="entity" data-qualified-name="And.AndLua" data-source-line="35" id="ent0018"><rect fill="#FFFFFF" height="57.2472" rx="3" ry="3" style="stroke:#000000;stroke-width:1.2;" width="216.527" x="1167.336" y="628.247"/><rect fill="#FFFFFF" height="12" style="stroke:#000000;stroke-width:1.2;" width="18" x="1359.863" y="634.247"/><rect fill="#FFFFFF" height="2.4" style="stroke:#000000;stroke-width:1.2;" width="4.8" x="1357.463" y="636.647"/><rect fill="#FFFFFF" height="2.4" style="stroke:#000000;stroke-width:1.2;" width="4.8" x="1357.463" y="641.447"/><text fill="#000000" font-family="Verdana" font-size="15.6" lengthAdjust="spacing" textLength="168.527" x="1185.336" y="668.9234">android.* Lua bindings</text></g><g class="entity" data-qualified-name="GMN33" data-source-line="56" id="ent0034"><path d="M931.632,299.915 L931.632,351.1408 L1264.3606,351.1408 L1264.3606,311.915 L1252.3606,299.915 L931.632,299.915" fill="#FFFFFF" style="stroke:#000000;stroke-width:1.2;"/><path d="M1252.3606,299.915 L1252.3606,311.915 L1264.3606,311.915 L1252.3606,299.915" fill="#FFFFFF" style="stroke:#000000;stroke-width:1.2;"/><text fill="#000000" font-family="Verdana" font-size="14.4" lengthAdjust="spacing" textLength="264.2275" x="938.832" y="321.3087">Same plotter template on both targets.</text><text fill="#000000" font-family="Verdana" font-size="14.4" lengthAdjust="spacing" textLength="307.5286" x="938.832" y="340.9216">blueprint.json declares the same node graph.</text></g><g class="entity" data-qualified-name="GMN36" data-source-line="61" id="ent0037"><path d="M540.024,1038.227 L540.024,1069.8399 L921.5833,1069.8399 L921.5833,1050.227 L909.5833,1038.227 L540.024,1038.227" fill="#FFFFFF" style="stroke:#000000;stroke-width:1.2;"/><path d="M909.5833,1038.227 L909.5833,1050.227 L921.5833,1050.227 L909.5833,1038.227" fill="#FFFFFF" style="stroke:#000000;stroke-width:1.2;"/><text fill="#000000" font-family="Verdana" font-size="14.4" lengthAdjust="spacing" textLength="356.3593" x="547.224" y="1059.6207">Lowest latency: Python runs in-process via pybind11.</text></g><g class="entity" data-qualified-name="GMN39" data-source-line="65" id="ent0040"><path d="M1465.788,876.731 L1465.788,927.9568 L1774.2091,927.9568 L1774.2091,888.731 L1762.2091,876.731 L1465.788,876.731" fill="#FFFFFF" style="stroke:#000000;stroke-width:1.2;"/><path d="M1762.2091,876.731 L1762.2091,888.731 L1774.2091,888.731 L1762.2091,876.731" fill="#FFFFFF" style="stroke:#000000;stroke-width:1.2;"/><text fill="#000000" font-family="Verdana" font-size="14.4" lengthAdjust="spacing" textLength="207.1455" x="1472.988" y="898.1247">Field tablets without WebView.</text><text fill="#000000" font-family="Verdana" font-size="14.4" lengthAdjust="spacing" textLength="283.2211" x="1472.988" y="917.7376">Chaquopy + Djinni avoid hand-written JNI.</text></g><!--link BP to MVC--><g class="link" data-entity-1="ent0003" data-entity-2="ent0004" data-link-type="dependency" data-source-line="38" id="lnk19"><path d="M586.32,189.623 C596.1,216.143 608.3926,249.4797 619.2886,279.0237" fill="none" id="BP-to-MVC" style="stroke:#37474F;stroke-width:1.2;"/><polygon fill="#37474F" points="621.78,285.779,622.5464,273.9852,619.7039,280.1496,613.5395,277.307,621.78,285.779" style="stroke:#37474F;stroke-width:1.2;"/><text fill="#000000" font-family="Verdana" font-size="16.8" lengthAdjust="spacing" textLength="94.7684" x="609" y="244.2421">wires nodes</text></g><!--link Lua to MVC--><g class="link" data-entity-1="ent0006" data-entity-2="ent0004" data-link-type="dependency" data-source-line="39" id="lnk20"><path d="M752.208,189.611 C742.188,207.695 728.004,231.299 712.8,250.283 C702.96,262.571 696.3716,269.8619 685.0316,280.7939" fill="none" id="Lua-to-MVC" style="stroke:#37474F;stroke-width:1.2;"/><polygon fill="#37474F" points="679.848,285.791,690.9547,281.7511,684.1676,281.6267,684.292,274.8397,679.848,285.791" style="stroke:#37474F;stroke-width:1.2;"/></g><!--link MVC to ImGui--><g class="link" data-entity-1="ent0004" data-entity-2="ent0005" data-link-type="dependency" data-source-line="40" id="lnk21"><path d="M636,365.351 C636,388.271 636,409.607 636,430.331" fill="none" id="MVC-to-ImGui" style="stroke:#37474F;stroke-width:1.2;"/><polygon fill="#37474F" points="636,437.531,640.8,426.731,636,431.531,631.2,426.731,636,437.531" style="stroke:#37474F;stroke-width:1.2;"/></g><!--link ImGui to SDL--><g class="link" data-entity-1="ent0005" data-entity-2="ent0007" data-link-type="dependency" data-source-line="41" id="lnk22"><path d="M636,495.515 C636,531.035 636,585.059 636,620.639" fill="none" id="ImGui-to-SDL" style="stroke:#37474F;stroke-width:1.2;"/><polygon fill="#37474F" points="636,627.839,640.8,617.039,636,621.839,631.2,617.039,636,627.839" style="stroke:#37474F;stroke-width:1.2;"/></g><!--link SDL to CMake--><g class="link" data-entity-1="ent0007" data-entity-2="ent0009" data-link-type="dependency" data-source-line="43" id="lnk23"><path d="M590.508,685.979 C553.236,710.123 500.376,747.383 460.8,787.487 C438.456,810.143 421.5333,833.3364 406.5093,856.4724" fill="none" id="SDL-to-CMake" style="stroke:#37474F;stroke-width:1.2;"/><polygon fill="#37474F" points="402.588,862.511,412.4956,856.0674,405.8557,857.4789,404.4442,850.839,402.588,862.511" style="stroke:#37474F;stroke-width:1.2;"/><text fill="#000000" font-family="Verdana" font-size="16.8" lengthAdjust="spacing" textLength="63.3862" x="497.052" y="771.8461">desktop</text></g><!--link CMake to Pybind--><g class="link" data-entity-1="ent0009" data-entity-2="ent0010" data-link-type="dependency" data-source-line="44" id="lnk24"><path d="M377.964,941.987 C377.244,964.271 376.5728,985.0466 375.8648,1007.3186" fill="none" id="CMake-to-Pybind" style="stroke:#37474F;stroke-width:1.2;"/><polygon fill="#37474F" points="375.636,1014.515,380.7767,1003.8729,375.8266,1008.518,371.1816,1003.5679,375.636,1014.515" style="stroke:#37474F;stroke-width:1.2;"/></g><!--link Pybind to PyDesk--><g class="link" data-entity-1="ent0010" data-entity-2="ent0011" data-link-type="dependency" data-source-line="45" id="lnk25"><path d="M374.4,1093.679 C374.4,1115.975 374.4,1136.747 374.4,1159.007" fill="none" id="Pybind-to-PyDesk" style="stroke:#37474F;stroke-width:1.2;"/><polygon fill="#37474F" points="374.4,1166.207,379.2,1155.407,374.4,1160.207,369.6,1155.407,374.4,1166.207" style="stroke:#37474F;stroke-width:1.2;"/></g><!--link Pybind to Bin--><g class="link" data-entity-1="ent0010" data-entity-2="ent0012" data-link-type="dependency" data-source-line="46" id="lnk26"><path d="M313.212,1093.871 C278.052,1116.083 240.1361,1140.0311 205.0121,1162.2071" fill="none" id="Pybind-to-Bin" style="stroke:#37474F;stroke-width:1.2;"/><polygon fill="#37474F" points="198.924,1166.051,210.6187,1164.344,203.9974,1162.8478,205.4936,1156.2265,198.924,1166.051" style="stroke:#37474F;stroke-width:1.2;"/></g><!--link SDL to GLES--><g class="link" data-entity-1="ent0007" data-entity-2="ent0017" data-link-type="dependency" data-source-line="48" id="lnk27"><path d="M686.376,685.955 C764.904,729.407 910.3682,809.9209 999.3002,859.1329" fill="none" id="SDL-to-GLES" style="stroke:#37474F;stroke-width:1.2;"/><polygon fill="#37474F" points="1005.6,862.619,998.4744,853.19,1000.3502,859.7139,993.8263,861.5897,1005.6,862.619" style="stroke:#37474F;stroke-width:1.2;"/><text fill="#000000" font-family="Verdana" font-size="16.8" lengthAdjust="spacing" textLength="103.0172" x="843.636" y="771.8461">Android NDK</text></g><!--link GLES to Djinni--><g class="link" data-entity-1="ent0017" data-entity-2="ent0015" data-link-type="dependency" data-source-line="49" id="lnk28"><path d="M1094.052,941.987 C1104.984,964.271 1115.5331,985.7768 1126.4411,1008.0488" fill="none" id="GLES-to-Djinni" style="stroke:#37474F;stroke-width:1.2;"/><polygon fill="#37474F" points="1129.608,1014.515,1129.1684,1002.7045,1126.9689,1009.1265,1120.5469,1006.927,1129.608,1014.515" style="stroke:#37474F;stroke-width:1.2;"/></g><!--link Djinni to Chaq--><g class="link" data-entity-1="ent0015" data-entity-2="ent0016" data-link-type="dependency" data-source-line="50" id="lnk29"><path d="M1148.4,1093.679 C1148.4,1115.975 1148.4,1136.747 1148.4,1159.007" fill="none" id="Djinni-to-Chaq" style="stroke:#37474F;stroke-width:1.2;"/><polygon fill="#37474F" points="1148.4,1166.207,1153.2,1155.407,1148.4,1160.207,1143.6,1155.407,1148.4,1166.207" style="stroke:#37474F;stroke-width:1.2;"/></g><!--link Djinni to Gradle--><g class="link" data-entity-1="ent0015" data-entity-2="ent0014" data-link-type="dependency" data-source-line="51" id="lnk30"><path d="M1167.624,1014.263 C1191.312,961.079 1224.6,863.231 1191.6,787.487 C1190.268,784.439 1140.5362,738.587 1100.0722,701.567" fill="none" id="Djinni-to-Gradle" style="stroke:#37474F;stroke-width:1.2;"/><polygon fill="#37474F" points="1094.76,696.707,1099.4883,707.5386,1099.1868,700.757,1105.9684,700.4556,1094.76,696.707" style="stroke:#37474F;stroke-width:1.2;"/></g><!--link Gradle to GLES--><g class="link" data-entity-1="ent0014" data-entity-2="ent0017" data-link-type="dependency" data-source-line="52" id="lnk31"><path d="M1056.012,696.587 C1060.284,742.103 1066.6678,810.1984 1070.9278,855.6304" fill="none" id="Gradle-to-GLES" style="stroke:#37474F;stroke-width:1.2;"/><polygon fill="#37474F" points="1071.6,862.799,1075.3708,851.598,1071.0399,856.8252,1065.8127,852.4942,1071.6,862.799" style="stroke:#37474F;stroke-width:1.2;"/></g><!--link AndLua to Lua--><g class="link" data-entity-1="ent0018" data-entity-2="ent0006" data-link-type="dependency" data-source-line="53" id="lnk32"><path d="M1245.588,627.863 C1219.944,604.403 1181.808,570.239 1147.2,542.015 C1045.416,459.047 1002.408,458.855 910.8,364.775 C856.368,308.867 810.7703,237.018 786.4463,195.846" fill="none" id="AndLua-to-Lua" style="stroke:#37474F;stroke-width:1.2;"/><polygon fill="#37474F" points="782.784,189.647,784.1448,201.387,785.8359,194.8128,792.4101,196.5039,782.784,189.647" style="stroke:#37474F;stroke-width:1.2;"/></g><!--link Shared to GMN33--><g class="link" data-entity-1="ent0002" data-entity-2="ent0034" data-link-type="association" data-source-line="56" id="lnk35"><path d="M892.8694,168.9778 C893.0078,169.0826 893.1474,169.1884 893.2885,169.2952 C894.4166,170.1496 895.6291,171.068 896.9207,172.0462 C899.5039,174.0027 902.4036,176.1988 905.5776,178.6026 C918.2734,188.2178 935.3573,201.1557 954.1275,215.3705 C991.668,243.8 1035.954,277.337 1065.372,299.615" fill="none" id="Shared-GMN33" style="stroke:#37474F;stroke-width:1.2;stroke-dasharray:8.4,8.4;"/></g><!--link Desk to GMN36--><g class="link" data-entity-1="ent0008" data-entity-2="ent0037" data-link-type="association" data-source-line="61" id="lnk38"><path d="M511.2095,909.7984 C511.3622,909.8979 511.5165,909.9984 511.6724,910.1 C512.2962,910.5063 512.9459,910.9295 513.6207,911.3691 C514.9703,912.2483 516.4204,913.1929 517.9642,914.1985 C521.0516,916.2097 524.5135,918.4648 528.2951,920.9281 C543.4215,930.7812 563.6625,943.9655 585.51,958.196 C629.205,986.657 679.326,1019.303 707.808,1037.855" fill="none" id="Desk-GMN36" style="stroke:#37474F;stroke-width:1.2;stroke-dasharray:8.4,8.4;"/></g><!--link And to GMN39--><g class="link" data-entity-1="ent0013" data-entity-2="ent0040" data-link-type="association" data-source-line="65" id="lnk41"><path d="M1436.4716,670.2359 C1436.6105,670.4107 1436.7508,670.5872 1436.8924,670.7654 C1438.0252,672.1906 1439.2424,673.722 1440.5381,675.3523 C1443.1297,678.6129 1446.0357,682.2691 1449.2104,686.2632 C1461.909,702.2397 1478.9055,723.623 1497.264,746.72 C1533.981,792.914 1576.146,845.963 1600.272,876.323" fill="none" id="And-GMN39" style="stroke:#37474F;stroke-width:1.2;stroke-dasharray:8.4,8.4;"/></g><?plantuml-src VLJDZXit3BxhATZifUt2tkxQYm1xAE3u3-uw6wD6aqFSWpmZUxIheLH9iuvR1EYfJv1twRsFaYSfASsaKnIe3xR5ZwJuVIJrLQnKhS0PgL64GXe5ryCR4PuqEkbb3NjPF1szRR2SMcCzN2pIf-SHAbdQayOZ7AG9geUKwY0R4nSMurR_Ifd7FT1HOdbK_u2tFR2mjREei1Sxwi5eOo-mN-x4UtjgAnsz7BySBuI8EXAj1_MX2R1KgBoCgeI9S_3vzqymK-4fMWVF0IPOUgjB-B71g6j5aVQeI20Flmde2eONsqfwIl3rtiOAegf9lAZ2Doz01cYnYyLeVhkuJN40x_UcKSvhZCF7OF5dTdoroT3qylBcEtZzThh3sfRAm5z_4dkCtXf35zFfMQjJ2Y6d7BEgbus6IrZL6sDZmf8fe-j6mkrmJ7YmvYQXPChOThOUWLTOKcfZhKie6GdzA3uAyOLZfuhFKYHkR8EB-MXnivWbPk-dh-MJeeiUD3xA7Rvn2fTh60r7AMz2sSsTznhBwsjGzLwLEzoSOsLnZaUDAdbkaaDsPUZgq60HjSKmTESTObExCsWSE6yB5K8Rm_Lmp8EC-ba1fP2UlDzfPDbgMRpPyf-rnkP3rfncl4-owtUV9DceUzFvU3xD79TUbYQHdDtlSBAvJwcobV7PeqRKi9gjTqZDXCz_V89x6utEVSvm4gkIlpIM-KZdhe8lhcfQkgkMSLQCN4JNfkLwljtXeJ5c40gl54AqJL71JwjS0S7iApE9uRVSPHQXf5NC4X4NxZnHVhM1mU1xdY2uWvFsAj0EbIe8ZcaHmIZ_pxEKXupFF1-2lj8Xj_oETZiDYCXdHjecvf_MabhKit07lgHY1fIfwmBfAvA9iLQsLjnqCMlJExSTQDlJvHEPSpepTy5F1T2cHbk3FRJxIRfjPNhs2A1Lw9OOB4BUQkbfyyEG7F-zkyIxC9BretS10YTX8U7efQk6WZOhFKx_kRUTrRKzgH21xyBYV0Tv4tW0Gs--QUKbT4lpFqadQMSMMfcIAjuRgfYQIncR2E_K_Yqz7CoW6poQuLO_-So2LpGwWvFN90723m-htar_0m00?></g></svg>