<?plantuml 1.2026.2?><svg xmlns="http://www.w3.org/2000/svg" xmlns:xlink="http://www.w3.org/1999/xlink" contentStyleType="text/css" data-diagram-type="DESCRIPTION" height="1075px" preserveAspectRatio="none" style="width:1679px;height:1075px;background:#FFFFFF;" version="1.1" viewBox="0 0 1679 1075" width="1679px" zoomAndPan="magnify"><title>Nexus Generated App &#8212; Desktop vs Android Runtime
(same MVC + ImGui stack, different host &amp; Python bridge)</title><defs/><g><g class="title" data-source-line="6"><text fill="#000000" font-family="Verdana" font-size="22" font-weight="bold" lengthAdjust="spacing" textLength="586.2141" x="542.0086" y="38.5181">Nexus Generated App &#8212; Desktop vs Android Runtime</text><text fill="#000000" font-family="Verdana" font-size="22" font-weight="bold" lengthAdjust="spacing" textLength="630.7862" x="519.7226" y="68.4822">(same MVC + ImGui stack, different host &amp; Python bridge)</text></g><!--cluster Shared--><g class="cluster" data-qualified-name="Shared" data-source-line="8" id="ent0002"><rect fill="#F3E5F5" height="525.54" rx="2.5" ry="2.5" style="stroke:#000000;stroke-width:1;" width="661" x="12" y="92.9282"/><text fill="#000000" font-family="Verdana" font-size="14" font-weight="bold" lengthAdjust="spacing" textLength="151.6474" x="266.6763" y="109.8941">Shared across targets</text></g><!--cluster Desk--><g class="cluster" data-qualified-name="Desk" data-source-line="18" id="ent0010"><rect fill="#E3F2FD" height="384.41" rx="2.5" ry="2.5" style="stroke:#000000;stroke-width:1;" width="410" x="255" y="685.4682"/><text fill="#000000" font-family="Verdana" font-size="14" font-weight="bold" lengthAdjust="spacing" textLength="118.3555" x="400.8222" y="702.4341">Desktop runtime</text></g><!--cluster And--><g class="cluster" data-qualified-name="And" data-source-line="25" id="ent0015"><rect fill="#FCE4EC" height="442.41" rx="2.5" ry="2.5" style="stroke:#000000;stroke-width:1;" width="573" x="713" y="371.1982"/><text fill="#000000" font-family="Verdana" font-size="14" font-weight="bold" lengthAdjust="spacing" textLength="116.0455" x="941.4772" y="388.1641">Android runtime</text></g><!--entity MVC--><g class="entity" data-qualified-name="Shared.MVC" data-source-line="9" id="ent0003"><rect fill="#FFFFFF" height="58.1358" rx="2.5" ry="2.5" style="stroke:#000000;stroke-width:1;" width="193.0393" x="36.48" y="258.0682"/><text fill="#000000" font-family="Verdana" font-size="14" lengthAdjust="spacing" textLength="74.4657" x="46.48" y="283.0341">C++20 MVC</text><text fill="#000000" font-family="Verdana" font-size="14" lengthAdjust="spacing" textLength="173.0393" x="46.48" y="302.1021">model/ &#183; controller/ &#183; view/</text></g><!--entity Lua--><g class="entity" data-qualified-name="Shared.Lua" data-source-line="10" id="ent0004"><rect fill="#FFFFFF" height="58.1358" rx="2.5" ry="2.5" style="stroke:#000000;stroke-width:1;" width="135.5976" x="389.2" y="138.9282"/><text fill="#000000" font-family="Verdana" font-size="14" lengthAdjust="spacing" textLength="89.3336" x="399.2" y="163.8941">Lua 5.4 + sol2</text><text fill="#000000" font-family="Verdana" font-size="14" lengthAdjust="spacing" textLength="115.5976" x="399.2" y="182.9621">scripts/panels.lua</text></g><!--entity TSX--><g class="entity" data-qualified-name="Shared.TSX" data-source-line="11" id="ent0005"><rect fill="#FFFFFF" height="58.1358" rx="2.5" ry="2.5" style="stroke:#000000;stroke-width:1;" width="147.5815" x="264.21" y="258.0682"/><text fill="#000000" font-family="Verdana" font-size="14" lengthAdjust="spacing" textLength="126.376" x="274.21" y="283.0341">TS/XHTML &#8594; ImGui</text><text fill="#000000" font-family="Verdana" font-size="14" lengthAdjust="spacing" textLength="127.5815" x="274.21" y="302.1021">ui/ui.ts &#183; ui/ui.xhtml</text></g><!--entity BP--><g class="entity" data-qualified-name="Shared.BP" data-source-line="12" id="ent0006"><rect fill="#FFFFFF" height="58.1358" rx="2.5" ry="2.5" style="stroke:#000000;stroke-width:1;" width="156.5835" x="54.71" y="138.9282"/><text fill="#000000" font-family="Verdana" font-size="14" lengthAdjust="spacing" textLength="91.6716" x="64.71" y="163.8941">blueprint.json</text><text fill="#000000" font-family="Verdana" font-size="14" lengthAdjust="spacing" textLength="136.5835" x="64.71" y="182.9621">MVC + Python wiring</text></g><!--entity ImGui--><g class="entity" data-qualified-name="Shared.ImGui" data-source-line="13" id="ent0007"><rect fill="#FFFFFF" height="58.1358" rx="2.5" ry="2.5" style="stroke:#000000;stroke-width:1;" width="151.9075" x="284.05" y="417.1982"/><text fill="#000000" font-family="Verdana" font-size="14" lengthAdjust="spacing" textLength="99.0216" x="294.05" y="442.1641">ImGui + ImPlot</text><text fill="#000000" font-family="Verdana" font-size="14" lengthAdjust="spacing" textLength="131.9075" x="294.05" y="461.2321">immediate-mode UI</text></g><!--entity SDL--><g class="entity" data-qualified-name="Shared.SDL" data-source-line="14" id="ent0008"><rect fill="#FFFFFF" height="58.1358" rx="2.5" ry="2.5" style="stroke:#000000;stroke-width:1;" width="205.4153" x="348.29" y="536.3382"/><text fill="#000000" font-family="Verdana" font-size="14" lengthAdjust="spacing" textLength="33.2499" x="358.29" y="561.3041">SDL3</text><text fill="#000000" font-family="Verdana" font-size="14" lengthAdjust="spacing" textLength="185.4153" x="358.29" y="580.3721">window &#183; input &#183; render loop</text></g><!--entity Theme--><g class="entity" data-qualified-name="Shared.Theme" data-source-line="15" id="ent0009"><rect fill="#FFFFFF" height="58.1358" rx="2.5" ry="2.5" style="stroke:#000000;stroke-width:1;" width="194.3553" x="446.82" y="258.0682"/><text fill="#000000" font-family="Verdana" font-size="14" lengthAdjust="spacing" textLength="174.3553" x="456.82" y="283.0341">NexusTheme + FontConfig</text><text fill="#000000" font-family="Verdana" font-size="14" lengthAdjust="spacing" textLength="114.9816" x="456.82" y="302.1021">template/shared/</text></g><!--entity CMake--><g class="entity" data-qualified-name="Desk.CMake" data-source-line="19" id="ent0011"><rect fill="#FFFFFF" height="58.1358" rx="2.5" ry="2.5" style="stroke:#000000;stroke-width:1;" width="166.7194" x="367.64" y="731.4682"/><text fill="#000000" font-family="Verdana" font-size="14" lengthAdjust="spacing" textLength="146.7194" x="377.64" y="756.4341">CMake presets + Ninja</text><text fill="#000000" font-family="Verdana" font-size="14" lengthAdjust="spacing" textLength="128.9395" x="377.64" y="775.5021">OpenGL 3.3 &#183; C++20</text></g><!--entity Pybind--><g class="entity" data-qualified-name="Desk.Pybind" data-source-line="20" id="ent0012"><rect fill="#FFFFFF" height="58.1358" rx="2.5" ry="2.5" style="stroke:#000000;stroke-width:1;" width="182.9454" x="359.53" y="868.6082"/><text fill="#000000" font-family="Verdana" font-size="14" lengthAdjust="spacing" textLength="110.9916" x="369.53" y="893.5741">pybind11 embed</text><text fill="#000000" font-family="Verdana" font-size="14" lengthAdjust="spacing" textLength="162.9454" x="369.53" y="912.6421">PythonEngine in-process</text></g><!--entity PyDesk--><g class="entity" data-qualified-name="Desk.PyDesk" data-source-line="21" id="ent0013"><rect fill="#FFFFFF" height="58.1358" rx="2.5" ry="2.5" style="stroke:#000000;stroke-width:1;" width="169.1834" x="279.41" y="987.7382"/><text fill="#000000" font-family="Verdana" font-size="14" lengthAdjust="spacing" textLength="132.6215" x="289.41" y="1012.7041">python/functions.py</text><text fill="#000000" font-family="Verdana" font-size="14" lengthAdjust="spacing" textLength="149.1834" x="289.41" y="1031.7721">numpy buffer protocol</text></g><!--entity Bin--><g class="entity" data-qualified-name="Desk.Bin" data-source-line="22" id="ent0014"><rect fill="#FFFFFF" height="58.1358" rx="2.5" ry="2.5" style="stroke:#000000;stroke-width:1;" width="149.2895" x="483.36" y="987.7382"/><text fill="#000000" font-family="Verdana" font-size="14" lengthAdjust="spacing" textLength="129.1775" x="493.36" y="1012.7041">Single native binary</text><text fill="#000000" font-family="Verdana" font-size="14" lengthAdjust="spacing" textLength="129.2895" x="493.36" y="1031.7721">Win &#183; macOS &#183; Linux</text></g><!--entity Gradle--><g class="entity" data-qualified-name="And.Gradle" data-source-line="26" id="ent0016"><rect fill="#FFFFFF" height="58.1358" rx="2.5" ry="2.5" style="stroke:#000000;stroke-width:1;" width="117.7196" x="737.14" y="417.1982"/><text fill="#000000" font-family="Verdana" font-size="14" lengthAdjust="spacing" textLength="88.7596" x="747.14" y="442.1641">Gradle + NDK</text><text fill="#000000" font-family="Verdana" font-size="14" lengthAdjust="spacing" textLength="97.7196" x="747.14" y="461.2321">APK packaging</text></g><!--entity Djinni--><g class="entity" data-qualified-name="And.Djinni" data-source-line="27" id="ent0017"><rect fill="#FFFFFF" height="58.1358" rx="2.5" ry="2.5" style="stroke:#000000;stroke-width:1;" width="146.9375" x="889.53" y="417.1982"/><text fill="#000000" font-family="Verdana" font-size="14" lengthAdjust="spacing" textLength="64.3017" x="899.53" y="442.1641">Djinni IDL</text><text fill="#000000" font-family="Verdana" font-size="14" lengthAdjust="spacing" textLength="126.9375" x="899.53" y="461.2321">djinni/plotter.djinni</text></g><!--entity Kotlin--><g class="entity" data-qualified-name="And.Kotlin" data-source-line="28" id="ent0018"><rect fill="#FFFFFF" height="58.1358" rx="2.5" ry="2.5" style="stroke:#000000;stroke-width:1;" width="183.5894" x="853.21" y="536.3382"/><text fill="#000000" font-family="Verdana" font-size="14" lengthAdjust="spacing" textLength="70.5877" x="863.21" y="561.3041">Kotlin host</text><text fill="#000000" font-family="Verdana" font-size="14" lengthAdjust="spacing" textLength="163.5894" x="863.21" y="580.3721">MainActivity &#183; SDLActivity</text></g><!--entity Chaquopy--><g class="entity" data-qualified-name="And.Chaquopy" data-source-line="29" id="ent0019"><rect fill="#FFFFFF" height="58.1358" rx="2.5" ry="2.5" style="stroke:#000000;stroke-width:1;" width="164.8994" x="1071.55" y="536.3382"/><text fill="#000000" font-family="Verdana" font-size="14" lengthAdjust="spacing" textLength="66.8357" x="1081.55" y="561.3041">Chaquopy</text><text fill="#000000" font-family="Verdana" font-size="14" lengthAdjust="spacing" textLength="144.8994" x="1081.55" y="580.3721">app/src/main/python/</text></g><!--entity GLES--><g class="entity" data-qualified-name="And.GLES" data-source-line="30" id="ent0020"><rect fill="#FFFFFF" height="58.1358" rx="2.5" ry="2.5" style="stroke:#000000;stroke-width:1;" width="148.6595" x="742.67" y="731.4682"/><text fill="#000000" font-family="Verdana" font-size="14" lengthAdjust="spacing" textLength="69.8877" x="752.67" y="756.4341">SDL3 GLES</text><text fill="#000000" font-family="Verdana" font-size="14" lengthAdjust="spacing" textLength="128.6595" x="752.67" y="775.5021">full-screen touch UI</text></g><!--entity AndLua--><g class="entity" data-qualified-name="And.AndLua" data-source-line="31" id="ent0021"><rect fill="#FFFFFF" height="58.1358" rx="2.5" ry="2.5" style="stroke:#000000;stroke-width:1;" width="171.2414" x="1071.38" y="417.1982"/><text fill="#000000" font-family="Verdana" font-size="14" lengthAdjust="spacing" textLength="151.2414" x="1081.38" y="442.1641">android.* Lua bindings</text><text fill="#000000" font-family="Verdana" font-size="14" lengthAdjust="spacing" textLength="102.7736" x="1081.38" y="461.2321">field tablet APIs</text></g><g class="entity" data-qualified-name="GMN38" data-source-line="54" id="ent0039"><path d="M747.14,264.4282 L747.14,309.8402 L1038.8652,309.8402 L1038.8652,274.4282 L1028.8652,264.4282 L747.14,264.4282" fill="#FFFFFF" style="stroke:#000000;stroke-width:1;"/><path d="M1028.8652,264.4282 L1028.8652,274.4282 L1038.8652,274.4282 L1028.8652,264.4282" fill="#FFFFFF" style="stroke:#000000;stroke-width:1;"/><text fill="#000000" font-family="Verdana" font-size="13" lengthAdjust="spacing" textLength="270.7252" x="753.14" y="283.3252">Same plotter template logic on both targets.</text><text fill="#000000" font-family="Verdana" font-size="13" lengthAdjust="spacing" textLength="258.9603" x="753.14" y="301.0312">Only the Python bridge and OS host differ.</text></g><g class="entity" data-qualified-name="GMN41" data-source-line="59" id="ent0042"><path d="M688.92,874.9682 L688.92,920.3802 L981.0742,920.3802 L981.0742,884.9682 L971.0742,874.9682 L688.92,874.9682" fill="#FFFFFF" style="stroke:#000000;stroke-width:1;"/><path d="M971.0742,874.9682 L971.0742,884.9682 L981.0742,884.9682 L971.0742,874.9682" fill="#FFFFFF" style="stroke:#000000;stroke-width:1;"/><text fill="#000000" font-family="Verdana" font-size="13" lengthAdjust="spacing" textLength="240.8252" x="694.92" y="893.8652">Lowest latency: Python runs in-process.</text><text fill="#000000" font-family="Verdana" font-size="13" lengthAdjust="spacing" textLength="271.1542" x="694.92" y="911.5712">Roadmap: python.dat pack for IP protection.</text></g><g class="entity" data-qualified-name="GMN44" data-source-line="64" id="ent0045"><path d="M1309.76,542.6982 L1309.76,588.1102 L1672.2313,588.1102 L1672.2313,552.6982 L1662.2313,542.6982 L1309.76,542.6982" fill="#FFFFFF" style="stroke:#000000;stroke-width:1;"/><path d="M1662.2313,542.6982 L1662.2313,552.6982 L1672.2313,552.6982 L1662.2313,542.6982" fill="#FFFFFF" style="stroke:#000000;stroke-width:1;"/><text fill="#000000" font-family="Verdana" font-size="13" lengthAdjust="spacing" textLength="187.0052" x="1315.76" y="561.5952">Field tablets without WebView.</text><text fill="#000000" font-family="Verdana" font-size="13" lengthAdjust="spacing" textLength="341.4713" x="1315.76" y="579.3012">Chaquopy adds APK size; Djinni avoids hand-written JNI.</text></g><!--link MVC to ImGui--><g class="link" data-entity-1="ent0003" data-entity-2="ent0007" data-link-type="dependency" data-source-line="34" id="lnk22"><path d="M174.11,316.5882 C215.12,344.9782 272.8471,384.9326 313.8771,413.3426" fill="none" id="MVC-to-ImGui" style="stroke:#000000;stroke-width:1;"/><polygon fill="#000000" points="318.81,416.7582,313.6877,408.3462,314.6993,413.9118,309.1336,414.9233,318.81,416.7582" style="stroke:#000000;stroke-width:1;"/></g><!--link Lua to MVC--><g class="link" data-entity-1="ent0004" data-entity-2="ent0003" data-link-type="dependency" data-source-line="35" id="lnk23"><path d="M389.08,193.5482 C337.4,212.2382 271.8125,235.9481 217.6025,255.5481" fill="none" id="Lua-to-MVC" style="stroke:#000000;stroke-width:1;"/><polygon fill="#000000" points="211.96,257.5882,221.7838,258.2897,216.6621,255.8881,219.0637,250.7664,211.96,257.5882" style="stroke:#000000;stroke-width:1;"/></g><!--link TSX to ImGui--><g class="link" data-entity-1="ent0005" data-entity-2="ent0007" data-link-type="dependency" data-source-line="36" id="lnk24"><path d="M341.98,316.5882 C345.96,344.9782 351.1976,382.4062 355.1776,410.8162" fill="none" id="TSX-to-ImGui" style="stroke:#000000;stroke-width:1;"/><polygon fill="#000000" points="356.01,416.7582,358.7227,407.2903,355.3163,411.8066,350.8001,408.4002,356.01,416.7582" style="stroke:#000000;stroke-width:1;"/></g><!--link BP to MVC--><g class="link" data-entity-1="ent0006" data-entity-2="ent0003" data-link-type="dependency" data-source-line="37" id="lnk25"><path d="M133,197.3482 C133,215.6282 133,233.3182 133,251.6282" fill="none" id="BP-to-MVC" style="stroke:#000000;stroke-width:1;"/><polygon fill="#000000" points="133,257.6282,137,248.6282,133,252.6282,129,248.6282,133,257.6282" style="stroke:#000000;stroke-width:1;"/></g><!--link ImGui to SDL--><g class="link" data-entity-1="ent0007" data-entity-2="ent0008" data-link-type="dependency" data-source-line="38" id="lnk26"><path d="M382.03,475.6182 C396.23,493.9082 410.9481,512.8507 425.1781,531.1607" fill="none" id="ImGui-to-SDL" style="stroke:#000000;stroke-width:1;"/><polygon fill="#000000" points="428.86,535.8982,426.4956,526.3374,425.7918,531.9503,420.1789,531.2465,428.86,535.8982" style="stroke:#000000;stroke-width:1;"/></g><!--link Theme to ImGui--><g class="link" data-entity-1="ent0009" data-entity-2="ent0007" data-link-type="dependency" data-source-line="39" id="lnk27"><path d="M510.68,316.5882 C477.44,344.9782 431.2128,384.4519 397.9428,412.8619" fill="none" id="Theme-to-ImGui" style="stroke:#000000;stroke-width:1;"/><polygon fill="#000000" points="393.38,416.7582,402.8217,413.9557,397.1823,413.5113,397.6267,407.8719,393.38,416.7582" style="stroke:#000000;stroke-width:1;"/></g><!--link SDL to CMake--><g class="link" data-entity-1="ent0008" data-entity-2="ent0011" data-link-type="dependency" data-source-line="41" id="lnk28"><path d="M451,594.8982 C451,631.5182 451,688.7182 451,725.2382" fill="none" id="SDL-to-CMake" style="stroke:#000000;stroke-width:1;"/><polygon fill="#000000" points="451,731.2382,455,722.2382,451,726.2382,447,722.2382,451,731.2382" style="stroke:#000000;stroke-width:1;"/><text fill="#000000" font-family="Verdana" font-size="13" lengthAdjust="spacing" textLength="49.049" x="452" y="657.3652">desktop</text></g><!--link CMake to Pybind--><g class="link" data-entity-1="ent0011" data-entity-2="ent0012" data-link-type="dependency" data-source-line="42" id="lnk29"><path d="M451,789.8682 C451,812.9282 451,839.3282 451,862.3782" fill="none" id="CMake-to-Pybind" style="stroke:#000000;stroke-width:1;"/><polygon fill="#000000" points="451,868.3782,455,859.3782,451,863.3782,447,859.3782,451,868.3782" style="stroke:#000000;stroke-width:1;"/></g><!--link Pybind to PyDesk--><g class="link" data-entity-1="ent0012" data-entity-2="ent0013" data-link-type="dependency" data-source-line="43" id="lnk30"><path d="M429.94,927.0282 C416.36,945.3082 402.3477,964.1815 388.7477,982.4915" fill="none" id="Pybind-to-PyDesk" style="stroke:#000000;stroke-width:1;"/><polygon fill="#000000" points="385.17,987.3082,393.7476,982.4683,388.1514,983.2943,387.3254,977.6981,385.17,987.3082" style="stroke:#000000;stroke-width:1;"/></g><!--link Pybind to Bin--><g class="link" data-entity-1="ent0012" data-entity-2="ent0014" data-link-type="dependency" data-source-line="44" id="lnk31"><path d="M476.9,927.0282 C493.6,945.3082 511.1928,964.5688 527.9228,982.8788" fill="none" id="Pybind-to-Bin" style="stroke:#000000;stroke-width:1;"/><polygon fill="#000000" points="531.97,987.3082,528.8521,977.9659,528.5973,983.617,522.9462,983.3622,531.97,987.3082" style="stroke:#000000;stroke-width:1;"/></g><!--link SDL to GLES--><g class="link" data-entity-1="ent0008" data-entity-2="ent0020" data-link-type="dependency" data-source-line="46" id="lnk32"><path d="M518.12,594.9582 C562.72,614.5582 622.2,641.9282 673,669.4682 C708.13,688.5182 741.3892,709.3432 769.6492,727.8332" fill="none" id="SDL-to-GLES" style="stroke:#000000;stroke-width:1;"/><polygon fill="#000000" points="774.67,731.1182,769.3288,722.8435,770.486,728.3807,764.9488,729.5379,774.67,731.1182" style="stroke:#000000;stroke-width:1;"/><text fill="#000000" font-family="Verdana" font-size="13" lengthAdjust="spacing" textLength="79.7161" x="656.49" y="657.3652">Android NDK</text></g><!--link GLES to Djinni--><g class="link" data-entity-1="ent0020" data-entity-2="ent0017" data-link-type="dependency" data-source-line="47" id="lnk33"><path d="M812.2,731.2182 C806.11,686.5282 800.32,598.3582 836,536.3382 C850.91,510.4282 871.6015,493.3026 896.1115,478.7426" fill="none" id="GLES-to-Djinni" style="stroke:#000000;stroke-width:1;"/><polygon fill="#000000" points="901.27,475.6782,891.4894,476.8358,896.9713,478.2318,895.5752,483.7137,901.27,475.6782" style="stroke:#000000;stroke-width:1;"/></g><!--link Djinni to Kotlin--><g class="link" data-entity-1="ent0017" data-entity-2="ent0018" data-link-type="dependency" data-source-line="48" id="lnk34"><path d="M958.64,475.6182 C955.83,493.9082 953.1002,511.6576 950.2902,529.9676" fill="none" id="Djinni-to-Kotlin" style="stroke:#000000;stroke-width:1;"/><polygon fill="#000000" points="949.38,535.8982,954.6989,527.6091,950.1385,530.9561,946.7915,526.3956,949.38,535.8982" style="stroke:#000000;stroke-width:1;"/></g><!--link Djinni to Chaquopy--><g class="link" data-entity-1="ent0017" data-entity-2="ent0019" data-link-type="dependency" data-source-line="49" id="lnk35"><path d="M1009.24,475.6182 C1039.04,493.9082 1072.5551,514.4517 1102.4151,532.7617" fill="none" id="Djinni-to-Chaquopy" style="stroke:#000000;stroke-width:1;"/><polygon fill="#000000" points="1107.53,535.8982,1101.9486,527.7836,1103.2675,533.2845,1097.7666,534.6035,1107.53,535.8982" style="stroke:#000000;stroke-width:1;"/></g><!--link Kotlin to GLES--><g class="link" data-entity-1="ent0018" data-entity-2="ent0020" data-link-type="dependency" data-source-line="50" id="lnk36"><path d="M926.11,594.8982 C901.84,631.5182 863.2743,689.7167 839.0743,726.2367" fill="none" id="Kotlin-to-GLES" style="stroke:#000000;stroke-width:1;"/><polygon fill="#000000" points="835.76,731.2382,844.0658,725.9454,838.5219,727.0702,837.3971,721.5264,835.76,731.2382" style="stroke:#000000;stroke-width:1;"/></g><!--link AndLua to Lua--><g class="link" data-entity-1="ent0021" data-entity-2="ent0004" data-link-type="dependency" data-source-line="51" id="lnk37"><path d="M1133.44,417.0582 C1114.33,396.2482 1085.46,369.2182 1054,355.1982 C921.52,296.1682 863.42,373.0782 730,316.1982 C692.48,300.2082 693.75,279.4082 659,258.0682 C635.4,243.5682 579.6305,219.3609 530.6905,199.0209" fill="none" id="AndLua-to-Lua" style="stroke:#000000;stroke-width:1;"/><polygon fill="#000000" points="525.15,196.7182,531.9257,203.866,529.7671,198.6371,534.9959,196.4786,525.15,196.7182" style="stroke:#000000;stroke-width:1;"/></g><!--link Shared to GMN38--><g class="link" data-entity-1="ent0002" data-entity-2="ent0039" data-link-type="association" data-source-line="54" id="lnk40"><path d="M673.3529,173.2845 C673.8651,173.5477 674.3988,173.8219 674.9532,174.1068 C676.062,174.6766 677.254,175.289 678.5242,175.9417 C681.0646,177.2471 683.918,178.7131 687.045,180.3198 C699.5531,186.7463 716.44,195.422 735.1925,205.0557 C772.6975,224.3232 817.665,247.4232 849.99,264.0282" fill="none" id="Shared-GMN38" style="stroke:#000000;stroke-width:1;stroke-dasharray:7,7;"/></g><!--link Desk to GMN41--><g class="link" data-entity-1="ent0010" data-entity-2="ent0042" data-link-type="association" data-source-line="59" id="lnk43"><path d="M665.0576,771.7971 C665.1201,771.8743 665.1829,771.9519 665.246,772.0298 C665.3722,772.1856 665.4996,772.3427 665.6283,772.5012 C665.8857,772.8183 666.1481,773.1407 666.4154,773.4683 C667.4846,774.7788 668.6319,776.1723 669.8505,777.6358 C672.2877,780.563 675.0103,783.7704 677.9638,787.1545 C689.7775,800.6907 705.285,817.0532 721,829.6082 C742.53,846.8082 768.92,862.6182 790.89,874.5582" fill="none" id="Desk-GMN41" style="stroke:#000000;stroke-width:1;stroke-dasharray:7,7;"/></g><!--link And to GMN44--><g class="link" data-entity-1="ent0015" data-entity-2="ent0045" data-link-type="association" data-source-line="64" id="lnk46"><path d="M1286.1793,451.7635 C1286.3018,451.8308 1286.4254,451.8988 1286.5504,451.9675 C1286.8002,452.1049 1287.055,452.245 1287.3146,452.3878 C1288.3532,452.959 1289.4696,453.573 1290.6593,454.2272 C1293.0386,455.5357 1295.7109,457.0054 1298.6394,458.6159 C1310.3531,465.0579 1326.165,473.7538 1343.7175,483.407 C1378.8225,502.7132 1420.89,525.8482 1451.06,542.4382" fill="none" id="And-GMN44" style="stroke:#000000;stroke-width:1;stroke-dasharray:7,7;"/></g><?plantuml-src VLNDRkCs4BxhAQO9KBHDBNUJpIK52dZzaxfn4cETPlUW2osDRIRKK2Mf96vHeAS-GD5twRsFia_I8IbbfGIeBnR9-U5yytt3BzmEIuHA2Kc9lPTK2IDAM8lyVcjqJSLOAstWS1P-7Gkx4uL-bBI5ZL0MEoS5RaIjt4oJkn8S-nPD8KXqB2gEBhQuSdk5O31tWhOA4oSThw_mgRPmZeH6E2nWL5NmwO-_OOBstkaA7YoCg31Q5l2-9YTBpEWhwnDTtexX2ERbUIt1EixnBHHoiq63v62dhOClORbtEqsmDhBOujT9qbm53bOxOJYRo8ss5fmmMtJs08I5vkHmTZ8zdPt2RmbylZCSZ8-EZh_pgJCgTO5g2F_-0pdNRhHIQCBoGUBZCCHYkxxxeXPmchxbUrkjZZEokP6LiyDA42gRgbe4FpRh-zsiXXz_lBbSmAS__uebPrJBOIrJPttA-FsqSwKA0MvM7_i1rgh6oaXowPtLb544hu7dKVB9DZY-M_Rz8hmUvgNIBYDPbbX8xjJ0bmy_puDNiEexhYQBauoOCKmRVqCcG-ty1xUdG0DAwohYFLdqFGCZRW9FZy3JQgnf8xSPEIoPk0w7DhGeGXmCazyxhMsPOo9TWfNVWyFfoUnuDddLqajnpv8mQ9a2dF9Aqft8wBf2Eb_0INhYRntw7a85ytw4Qh_cEj-y0IpNM6GKOPtILX9ouOFAw1njfDSosBxqz_R3JKsvavfiMkqpehgizh2kFQFvTjhfNAicX2_d1Tmo_9DmyW61KmZ3CJv8yfSlHNwzyXyBIVLJx3FhlmjQgx4kQBp7CXXFtqx7Bp4xDw9GlZzNaukCHikBHkGjZU9vtsTo9uaap2UBZ8hmFQoOKmvD6fUnK-6pxtcXdU9AlAQPkJowHepJWtHxNnFpfrs60D7uHOjtufTQUrH5LGsjoOSbHnaskCUsDYQlMGpdY-ageqsjr83rYaZWT9tlMlBxuxwNY62cttWX-sOKZ8lb419LmSDchT31Q3ctBSnUxzmDByh1u8T6JjxNh_mGOJrtJjujdm-YFltAwoYgvhDXmfjX6Jb-niCwQ2E9Qt_Iy37-DJk1NfqTJvRdKBvSZjGIXWcGX2r_rZIlwRJVQRhHsNa6kkbg6pE9E8IrnoCXxPZ9J11TWjuqSvc1NedmWWNcG3iJU9viPGv-rcktQmTwokRNfFR0prx_BG3k4R0emZiHduqquSa4Fkkht8tU5leHsTpdetn_raPapTYEp7tIzreKfQZE858iBOGB2e4DlwxpPT0p1h7_JzPHc1Ep3caiZsgEnuFq0wvl-PdnkLf0GHG5iucrQEMl-7tJ310Ft2OBEovuy6WaeqRmqzMya_S_?></g></svg>