<?xml version="1.0" encoding="UTF-8"?>
<svg xmlns="http://www.w3.org/2000/svg" xmlns:xlink="http://www.w3.org/1999/xlink" viewBox="0 0 1580 920" width="1580" height="920">
  <title>Nexus full-stack architecture</title>
  <defs>
    <marker id="arrow" markerWidth="10" markerHeight="10" refX="9" refY="5" orient="auto">
      <path d="M0,0 L10,5 L0,10 Z" fill="#37474F"/>
    </marker>
    <marker id="arrow-blue" markerWidth="10" markerHeight="10" refX="9" refY="5" orient="auto">
      <path d="M0,0 L10,5 L0,10 Z" fill="#1565C0"/>
    </marker>
    <style>
      .label { font: bold 14px "JetBrainsMono Nerd Font", "Symbols Nerd Font", Verdana, sans-serif; fill: #263238; font-weight: 700; }
      .desc { font: italic 11px "JetBrainsMono Nerd Font", "Symbols Nerd Font", Verdana, sans-serif; fill: #78909C; }
      .small { font: 11px "JetBrainsMono Nerd Font", "Symbols Nerd Font", Verdana, sans-serif; fill: #546E7A; }
      .mono { font: bold 12px "JetBrainsMono Nerd Font", "Symbols Nerd Font", Consolas, monospace; fill: #263238; font-weight: 700; }
      .legend-title { font: bold 12px "JetBrainsMono Nerd Font", "Symbols Nerd Font", Verdana, sans-serif; fill: #37474F; }
      .layer-label { font: bold 14px "JetBrainsMono Nerd Font", "Symbols Nerd Font", Verdana, sans-serif; fill: #263238; }
      .badge { font: bold 11px "JetBrainsMono Nerd Font", "Symbols Nerd Font", Verdana, sans-serif; fill: #1565C0; }
      .icon { font: 14px "JetBrainsMono Nerd Font", "Symbols Nerd Font", Consolas, monospace; fill: #263238; }
      .node { rx: 10; stroke-width: 2.5; }
      .panel { rx: 12; stroke-width: 2.5; }
      .legend-box { rx: 6; stroke-width: 2; }
    </style>
  </defs>
  <rect width="1580" height="100%" fill="#f8f9fa"/>
  <image href="../nexus-logo.png" x="24" y="16" width="40" height="40" preserveAspectRatio="xMidYMid meet"/>

  <rect x="620" y="78" width="360" height="400" class="panel" fill="#E8F4FD" stroke="#1565C0" fill-opacity="0.35"/>
  <text x="634" y="102" class="layer-label">&#xf108; Scaffold client (:app)</text>
  <rect x="640" y="118" width="320" height="72" class="node" fill="#FFFFFF" stroke="#1565C0"/>
  <text x="654" y="144" class="icon">&#xf135;</text>
  <text x="676" y="146" class="label">
    <tspan x="676" dy="0">Generate Project</tspan>
  </text>
  <text x="654" y="165" class="desc">
    <tspan x="654" dy="0">Compose UI entry for project scaffolding</tspan>
  </text>
  <rect x="640" y="206" width="320" height="72" class="node" fill="#FFFFFF" stroke="#1565C0"/>
  <text x="654" y="232" class="icon">&#xf121;</text>
  <text x="676" y="234" class="label">
    <tspan x="676" dy="0">Blueprint Editor</tspan>
  </text>
  <text x="654" y="253" class="desc">
    <tspan x="654" dy="0">Visual canvas + JSON sync for blueprint.json</tspan>
  </text>
  <rect x="640" y="294" width="320" height="72" class="node" fill="#FFFFFF" stroke="#1565C0"/>
  <text x="654" y="320" class="icon">&#xf013;</text>
  <text x="676" y="322" class="label">
    <tspan x="676" dy="0">:core ProjectGenerator</tspan>
  </text>
  <text x="654" y="341" class="desc">
    <tspan x="654" dy="0">Reads graph and emits native project tree</tspan>
  </text>

  <rect x="24" y="500" width="760" height="380" class="panel" fill="#FFF8E1" stroke="#F57F17" fill-opacity="0.35"/>
  <text x="38" y="524" class="layer-label">&#xf15b; Authoring — blueprint.json</text>
  <rect x="44" y="540" width="288" height="78" class="node" fill="#FFFFFF" stroke="#F57F17"/>
  <text x="58" y="566" class="icon">&#xe73c;</text>
  <text x="80" y="568" class="label">
    <tspan x="80" dy="0">python.module</tspan>
  </text>
  <text x="58" y="587" class="desc">
    <tspan x="58" dy="0">NumPy/analytics hooks evaluated at</tspan>
    <tspan x="58" dy="14">runtime</tspan>
  </text>
  <rect x="44" y="628" width="251" height="78" class="node" fill="#FFFFFF" stroke="#F57F17"/>
  <text x="58" y="654" class="icon">&#xf121;</text>
  <text x="80" y="656" class="label">
    <tspan x="80" dy="0">cpp.controller</tspan>
  </text>
  <text x="58" y="675" class="desc">
    <tspan x="58" dy="0">Routes commands between UI and</tspan>
    <tspan x="58" dy="14">model</tspan>
  </text>
  <rect x="44" y="716" width="245" height="72" class="node" fill="#FFFFFF" stroke="#F57F17"/>
  <text x="58" y="742" class="icon">&#xf1c0;</text>
  <text x="80" y="744" class="label">
    <tspan x="80" dy="0">cpp.model</tspan>
  </text>
  <text x="58" y="763" class="desc">
    <tspan x="58" dy="0">Holds domain state and sample cache</tspan>
  </text>
  <rect x="44" y="804" width="251" height="78" class="node" fill="#FFFFFF" stroke="#F57F17"/>
  <text x="58" y="830" class="icon">&#xf5fd;</text>
  <text x="80" y="832" class="label">
    <tspan x="80" dy="0">ui.page</tspan>
  </text>
  <text x="58" y="851" class="desc">
    <tspan x="58" dy="0">ImGui screens wired via TS/XHTML</tspan>
    <tspan x="58" dy="14">DSL</tspan>
  </text>
  <rect x="260" y="540" width="238" height="78" class="node" fill="#FFFFFF" stroke="#F57F17"/>
  <text x="274" y="566" class="icon">&#xf120;</text>
  <text x="296" y="568" class="label">
    <tspan x="296" dy="0">lua.script</tspan>
  </text>
  <text x="274" y="587" class="desc">
    <tspan x="274" dy="0">sol2 panels and hot-reload</tspan>
    <tspan x="274" dy="14">scripts</tspan>
  </text>
  <rect x="480" y="560" width="300" height="110" class="node" fill="#FFFDE7" stroke="#F9A825"/>
  <text x="494" y="586" class="icon">&#xf126;</text>
  <text x="516" y="588" class="mono">
    <tspan x="516" dy="0">Langflow-style graph</tspan>
  </text>
  <text x="494" y="607" class="desc">
    <tspan x="494" dy="0">Edit blueprint in :app; edges wire data</tspan>
    <tspan x="494" dy="14">flow</tspan>
  </text>

  <rect x="820" y="500" width="380" height="380" class="panel" fill="#F3E5F5" stroke="#6A1B9A" fill-opacity="0.35"/>
  <text x="834" y="524" class="layer-label">&#xf466; Generated app — C++ MVC</text>
  <rect x="840" y="540" width="251" height="78" class="node" fill="#FFFFFF" stroke="#6A1B9A"/>
  <text x="854" y="566" class="icon">&#xf1c0;</text>
  <text x="876" y="568" class="label">
    <tspan x="876" dy="0">model/</tspan>
  </text>
  <text x="854" y="587" class="desc">
    <tspan x="854" dy="0">Generated C++ domain types and</tspan>
    <tspan x="854" dy="14">state</tspan>
  </text>
  <rect x="840" y="628" width="257" height="78" class="node" fill="#FFFFFF" stroke="#6A1B9A"/>
  <text x="854" y="654" class="icon">&#xf013;</text>
  <text x="876" y="656" class="label">
    <tspan x="876" dy="0">controller/</tspan>
  </text>
  <text x="854" y="675" class="desc">
    <tspan x="854" dy="0">Command handlers from blueprint</tspan>
    <tspan x="854" dy="14">ports</tspan>
  </text>
  <rect x="840" y="716" width="360" height="72" class="node" fill="#FFFFFF" stroke="#6A1B9A"/>
  <text x="854" y="742" class="icon">&#xf080;</text>
  <text x="876" y="744" class="label">
    <tspan x="876" dy="0">view/ ImGui + ImPlot</tspan>
  </text>
  <text x="854" y="763" class="desc">
    <tspan x="854" dy="0">Renders plots and UI from blueprint layout</tspan>
  </text>

  <rect x="1220" y="500" width="340" height="200" class="panel" fill="#E8F5E9" stroke="#2E7D32" fill-opacity="0.35"/>
  <text x="1234" y="524" class="layer-label">&#xf121; Scripting &amp; UI</text>
  <rect x="1240" y="540" width="269" height="78" class="node" fill="#FFFFFF" stroke="#2E7D32"/>
  <text x="1254" y="566" class="icon">&#xf120;</text>
  <text x="1276" y="568" class="label">
    <tspan x="1276" dy="0">Lua 5.4 + sol2</tspan>
  </text>
  <text x="1254" y="587" class="desc">
    <tspan x="1254" dy="0">Embeds Lua runtime for scripting</tspan>
    <tspan x="1254" dy="14">panels</tspan>
  </text>
  <rect x="1400" y="540" width="269" height="78" class="node" fill="#FFFFFF" stroke="#2E7D32"/>
  <text x="1414" y="566" class="icon">&#xf15b;</text>
  <text x="1436" y="568" class="label">
    <tspan x="1436" dy="0">TS/XHTML DSL</tspan>
  </text>
  <text x="1414" y="587" class="desc">
    <tspan x="1414" dy="0">Declarative UI markup compiled to</tspan>
    <tspan x="1414" dy="14">ImGui</tspan>
  </text>

  <rect x="820" y="720" width="380" height="160" class="panel" fill="#ECEFF1" stroke="#455A64" fill-opacity="0.35"/>
  <text x="834" y="744" class="layer-label">&#xf108; Runtime</text>
  <rect x="840" y="760" width="263" height="78" class="node" fill="#FFFFFF" stroke="#455A64"/>
  <text x="854" y="786" class="icon">&#xe73c;</text>
  <text x="876" y="788" class="label">
    <tspan x="876" dy="0">Python bridge</tspan>
  </text>
  <text x="854" y="807" class="desc">
    <tspan x="854" dy="0">Embeds CPython via pybind11 /</tspan>
    <tspan x="854" dy="14">Chaquopy</tspan>
  </text>
  <rect x="1040" y="760" width="251" height="78" class="node" fill="#FFFFFF" stroke="#455A64"/>
  <text x="1054" y="786" class="icon">&#xf108;</text>
  <text x="1076" y="788" class="label">
    <tspan x="1076" dy="0">SDL3</tspan>
  </text>
  <text x="1054" y="807" class="desc">
    <tspan x="1054" dy="0">Cross-platform render loop and</tspan>
    <tspan x="1054" dy="14">input</tspan>
  </text>

  <line x1="800" y1="147" x2="800" y2="192" stroke="#37474F" stroke-width="1.5" marker-end="url(#arrow)"/>
  <text x="800" y="163" text-anchor="middle" class="small">Edit blueprint</text>
  <line x1="800" y1="250" x2="800" y2="266" stroke="#37474F" stroke-width="1.5" marker-end="url(#arrow)"/>
  <text x="800" y="252" text-anchor="middle" class="small">validated graph</text>
  <line x1="960" y1="147" x2="960" y2="266" stroke="#37474F" stroke-width="1.5" marker-end="url(#arrow)"/>
  <text x="960" y="200" text-anchor="middle" class="small">Generate</text>
  <line x1="780" y1="324" x2="404" y2="500" stroke="#37474F" stroke-width="1.5" marker-end="url(#arrow)" stroke-dasharray="8,5"/>
  <text x="592" y="406" text-anchor="middle" class="small">emit blueprint.json</text>
  <line x1="960" y1="324" x2="1010" y2="500" stroke="#37474F" stroke-width="1.5" marker-end="url(#arrow)"/>
  <text x="985" y="406" text-anchor="middle" class="small">emit src/</text>
  <line x1="224" y1="598" x2="224" y2="618" stroke="#37474F" stroke-width="1.5" marker-end="url(#arrow)"/>
  <text x="224" y="602" text-anchor="middle" class="small">evaluate</text>
  <line x1="134" y1="676" x2="134" y2="696" stroke="#37474F" stroke-width="1.5" marker-end="url(#arrow)"/>
  <text x="134" y="680" text-anchor="middle" class="small">sampleCache</text>
  <line x1="134" y1="754" x2="134" y2="774" stroke="#37474F" stroke-width="1.5" marker-end="url(#arrow)"/>
  <text x="134" y="758" text-anchor="middle" class="small">activeCurves</text>
  <line x1="224" y1="774" x2="224" y2="676" stroke="#37474F" stroke-width="1.5" marker-end="url(#arrow)"/>
  <text x="224" y="719" text-anchor="middle" class="small">commands</text>
  <line x1="350" y1="569" x2="224" y2="618" stroke="#37474F" stroke-width="1.5" marker-end="url(#arrow)"/>
  <text x="287" y="587" text-anchor="middle" class="small">commands</text>
  <line x1="760" y1="520" x2="920" y2="540" stroke="#37474F" stroke-width="1.5" marker-end="url(#arrow)" stroke-dasharray="8,5"/>
  <text x="840" y="524" text-anchor="middle" class="small">declares</text>
  <line x1="760" y1="647" x2="920" y2="647" stroke="#37474F" stroke-width="1.5" marker-end="url(#arrow)" stroke-dasharray="8,5"/>
  <text x="840" y="641" text-anchor="middle" class="small">declares</text>
  <line x1="760" y1="725" x2="920" y2="725" stroke="#37474F" stroke-width="1.5" marker-end="url(#arrow)" stroke-dasharray="8,5"/>
  <text x="840" y="719" text-anchor="middle" class="small">declares</text>
  <line x1="1240" y1="569" x2="1000" y2="647" stroke="#37474F" stroke-width="1.5" marker-end="url(#arrow)"/>
  <line x1="1470" y1="569" x2="1010" y2="725" stroke="#37474F" stroke-width="1.5" marker-end="url(#arrow)"/>
  <line x1="1010" y1="754" x2="1100" y2="789" stroke="#37474F" stroke-width="1.5" marker-end="url(#arrow)"/>
  <line x1="920" y1="676" x2="920" y2="696" stroke="#37474F" stroke-width="1.5" marker-end="url(#arrow)"/>
  <line x1="920" y1="754" x2="1100" y2="789" stroke="#37474F" stroke-width="1.5" marker-end="url(#arrow)"/>

  <rect x="1220" y="720" width="340" height="88" fill="#FFFFFF" stroke="#B0BEC5" stroke-width="2" rx="10"/>
  <text x="1236" y="742" class="legend-title">Layer colors</text>
  <rect x="1236" y="744" width="16" height="16" class="legend-box" fill="#E8F4FD" stroke="#1565C0"/>
  <text x="1258" y="756" class="small">Client — Compose scaffold UI</text>
  <rect x="1406" y="744" width="16" height="16" class="legend-box" fill="#FFF8E1" stroke="#F57F17"/>
  <text x="1428" y="756" class="small">Authoring — blueprint.json graph</text>
  <rect x="1236" y="766" width="16" height="16" class="legend-box" fill="#F3E5F5" stroke="#6A1B9A"/>
  <text x="1258" y="778" class="small">Generated — C++ MVC output</text>
  <rect x="1406" y="766" width="16" height="16" class="legend-box" fill="#ECEFF1" stroke="#455A64"/>
  <text x="1428" y="778" class="small">Runtime — SDL3 + Python bridge</text>
</svg>