<?xml version="1.0" encoding="UTF-8"?>
<svg xmlns="http://www.w3.org/2000/svg" xmlns:xlink="http://www.w3.org/1999/xlink" viewBox="0 0 1580 920" width="1580" height="920">
  <title>Nexus full-stack architecture</title>
  <defs>
    <marker id="arrow" markerWidth="10" markerHeight="10" refX="9" refY="5" orient="auto">
      <path d="M0,0 L10,5 L0,10 Z" fill="#37474F"/>
    </marker>
    <marker id="arrow-blue" markerWidth="10" markerHeight="10" refX="9" refY="5" orient="auto">
      <path d="M0,0 L10,5 L0,10 Z" fill="#1565C0"/>
    </marker>
    <style>
      .title { font: 19px "JetBrainsMono Nerd Font", "Symbols Nerd Font", Verdana, sans-serif; fill: #1a1a2e; font-weight: 700; }
      .subtitle { font: 12px "JetBrainsMono Nerd Font", "Symbols Nerd Font", Verdana, sans-serif; fill: #666666; font-weight: normal; }
      .label { font: bold 13px "JetBrainsMono Nerd Font", "Symbols Nerd Font", Verdana, sans-serif; fill: #263238; font-weight: 700; }
      .desc { font: italic 11px "JetBrainsMono Nerd Font", "Symbols Nerd Font", Verdana, sans-serif; fill: #78909C; }
      .small { font: 11px "JetBrainsMono Nerd Font", "Symbols Nerd Font", Verdana, sans-serif; fill: #546E7A; }
      .mono { font: bold 12px "JetBrainsMono Nerd Font", "Symbols Nerd Font", Consolas, monospace; fill: #263238; font-weight: 700; }
      .legend-title { font: bold 12px "JetBrainsMono Nerd Font", "Symbols Nerd Font", Verdana, sans-serif; fill: #37474F; }
      .layer-label { font: bold 14px "JetBrainsMono Nerd Font", "Symbols Nerd Font", Verdana, sans-serif; fill: #263238; }
      .badge { font: bold 11px "JetBrainsMono Nerd Font", "Symbols Nerd Font", Verdana, sans-serif; fill: #1565C0; }
      .icon { font: 14px "JetBrainsMono Nerd Font", "Symbols Nerd Font", Consolas, monospace; fill: #263238; }
      .node { rx: 10; stroke-width: 2.5; }
      .panel { rx: 12; stroke-width: 2.5; }
      .legend-box { rx: 6; stroke-width: 2; }
    </style>
  </defs>
  <rect width="1580" height="100%" fill="#f8f9fa"/>
  <image href="../nexus-logo.png" x="24" y="16" width="40" height="40" preserveAspectRatio="xMidYMid meet"/>
  <text x="790" y="38" text-anchor="middle" class="title">Nexus full-stack architecture</text>
  <text x="790" y="58" text-anchor="middle" class="subtitle">Client, generation pipeline, templates, and native runtimes</text>

  <rect x="620" y="78" width="360" height="400" class="panel" fill="#E8F4FD" stroke="#1565C0" fill-opacity="0.35"/>
  <text x="634" y="102" class="layer-label">&#xf108; Scaffold client (:app)</text>
  <rect x="640" y="118" width="320" height="58" class="node" fill="#FFFFFF" stroke="#1565C0"/>
  <text x="652" y="140" class="icon">&#xf135;</text>
  <text x="674" y="140" class="label">Generate Project</text>
  <text x="652" y="166" class="desc">Compose UI entry for project scaffolding</text>
  <rect x="640" y="192" width="320" height="58" class="node" fill="#FFFFFF" stroke="#1565C0"/>
  <text x="652" y="214" class="icon">&#xf121;</text>
  <text x="674" y="214" class="label">Blueprint Editor</text>
  <text x="652" y="240" class="desc">Visual canvas + JSON sync for blueprint.json</text>
  <rect x="640" y="266" width="320" height="58" class="node" fill="#FFFFFF" stroke="#1565C0"/>
  <text x="652" y="288" class="icon">&#xf013;</text>
  <text x="674" y="288" class="label">:core ProjectGenerator</text>
  <text x="652" y="314" class="desc">Reads graph and emits native project tree</text>

  <rect x="24" y="500" width="760" height="380" class="panel" fill="#FFF8E1" stroke="#F57F17" fill-opacity="0.35"/>
  <text x="38" y="524" class="layer-label">&#xf15b; Authoring — blueprint.json</text>
  <rect x="44" y="540" width="180" height="58" class="node" fill="#FFFFFF" stroke="#F57F17"/>
  <text x="56" y="562" class="icon">&#xe73c;</text>
  <text x="78" y="562" class="label">python.module</text>
  <text x="56" y="588" class="desc">NumPy/analytics hooks evaluated at runtime</text>
  <rect x="44" y="618" width="180" height="58" class="node" fill="#FFFFFF" stroke="#F57F17"/>
  <text x="56" y="640" class="icon">&#xf121;</text>
  <text x="78" y="640" class="label">cpp.controller</text>
  <text x="56" y="666" class="desc">Routes commands between UI and model</text>
  <rect x="44" y="696" width="180" height="58" class="node" fill="#FFFFFF" stroke="#F57F17"/>
  <text x="56" y="718" class="icon">&#xf1c0;</text>
  <text x="78" y="718" class="label">cpp.model</text>
  <text x="56" y="744" class="desc">Holds domain state and sample cache</text>
  <rect x="44" y="774" width="180" height="58" class="node" fill="#FFFFFF" stroke="#F57F17"/>
  <text x="56" y="796" class="icon">&#xf5fd;</text>
  <text x="78" y="796" class="label">ui.page</text>
  <text x="56" y="822" class="desc">ImGui screens wired via TS/XHTML DSL</text>
  <rect x="260" y="540" width="180" height="58" class="node" fill="#FFFFFF" stroke="#F57F17"/>
  <text x="272" y="562" class="icon">&#xf120;</text>
  <text x="294" y="562" class="label">lua.script</text>
  <text x="272" y="588" class="desc">sol2 panels and hot-reload scripts</text>
  <rect x="480" y="560" width="280" height="100" class="node" fill="#FFFDE7" stroke="#F9A825"/>
  <text x="492" y="582" class="icon">&#xf126;</text>
  <text x="514" y="582" class="mono">Langflow-style graph</text>
  <text x="492" y="650" class="desc">Edit blueprint in :app; edges wire data flow</text>

  <rect x="820" y="500" width="380" height="380" class="panel" fill="#F3E5F5" stroke="#6A1B9A" fill-opacity="0.35"/>
  <text x="834" y="524" class="layer-label">&#xf466; Generated app — C++ MVC</text>
  <rect x="840" y="540" width="160" height="58" class="node" fill="#FFFFFF" stroke="#6A1B9A"/>
  <text x="852" y="562" class="icon">&#xf1c0;</text>
  <text x="874" y="562" class="label">model/</text>
  <text x="852" y="588" class="desc">Generated C++ domain types and state</text>
  <rect x="840" y="618" width="160" height="58" class="node" fill="#FFFFFF" stroke="#6A1B9A"/>
  <text x="852" y="640" class="icon">&#xf013;</text>
  <text x="874" y="640" class="label">controller/</text>
  <text x="852" y="666" class="desc">Command handlers from blueprint ports</text>
  <rect x="840" y="696" width="340" height="58" class="node" fill="#FFFFFF" stroke="#6A1B9A"/>
  <text x="852" y="718" class="icon">&#xf080;</text>
  <text x="874" y="718" class="label">view/ ImGui + ImPlot</text>
  <text x="852" y="744" class="desc">Renders plots and UI from blueprint layout</text>

  <rect x="1220" y="500" width="340" height="200" class="panel" fill="#E8F5E9" stroke="#2E7D32" fill-opacity="0.35"/>
  <text x="1234" y="524" class="layer-label">&#xf121; Scripting &amp; UI</text>
  <rect x="1240" y="540" width="140" height="58" class="node" fill="#FFFFFF" stroke="#2E7D32"/>
  <text x="1252" y="562" class="icon">&#xf120;</text>
  <text x="1274" y="562" class="label">Lua 5.4 + sol2</text>
  <text x="1252" y="588" class="desc">Embeds Lua runtime for scripting panels</text>
  <rect x="1400" y="540" width="140" height="58" class="node" fill="#FFFFFF" stroke="#2E7D32"/>
  <text x="1412" y="562" class="icon">&#xf15b;</text>
  <text x="1434" y="562" class="label">TS/XHTML DSL</text>
  <text x="1412" y="588" class="desc">Declarative UI markup compiled to ImGui</text>

  <rect x="820" y="720" width="380" height="160" class="panel" fill="#ECEFF1" stroke="#455A64" fill-opacity="0.35"/>
  <text x="834" y="744" class="layer-label">&#xf108; Runtime</text>
  <rect x="840" y="760" width="160" height="58" class="node" fill="#FFFFFF" stroke="#455A64"/>
  <text x="852" y="782" class="icon">&#xe73c;</text>
  <text x="874" y="782" class="label">Python bridge</text>
  <text x="852" y="808" class="desc">Embeds CPython via pybind11 / Chaquopy</text>
  <rect x="1020" y="760" width="160" height="58" class="node" fill="#FFFFFF" stroke="#455A64"/>
  <text x="1032" y="782" class="icon">&#xf108;</text>
  <text x="1054" y="782" class="label">SDL3</text>
  <text x="1032" y="808" class="desc">Cross-platform render loop and input</text>

  <line x1="800" y1="147" x2="800" y2="192" stroke="#37474F" stroke-width="1.5" marker-end="url(#arrow)"/>
  <text x="800" y="163" text-anchor="middle" class="small">Edit blueprint</text>
  <line x1="800" y1="250" x2="800" y2="266" stroke="#37474F" stroke-width="1.5" marker-end="url(#arrow)"/>
  <text x="800" y="252" text-anchor="middle" class="small">validated graph</text>
  <line x1="960" y1="147" x2="960" y2="266" stroke="#37474F" stroke-width="1.5" marker-end="url(#arrow)"/>
  <text x="960" y="200" text-anchor="middle" class="small">Generate</text>
  <line x1="780" y1="324" x2="404" y2="500" stroke="#37474F" stroke-width="1.5" marker-end="url(#arrow)" stroke-dasharray="8,5"/>
  <text x="592" y="406" text-anchor="middle" class="small">emit blueprint.json</text>
  <line x1="960" y1="324" x2="1010" y2="500" stroke="#37474F" stroke-width="1.5" marker-end="url(#arrow)"/>
  <text x="985" y="406" text-anchor="middle" class="small">emit src/</text>
  <line x1="224" y1="598" x2="224" y2="618" stroke="#37474F" stroke-width="1.5" marker-end="url(#arrow)"/>
  <text x="224" y="602" text-anchor="middle" class="small">evaluate</text>
  <line x1="134" y1="676" x2="134" y2="696" stroke="#37474F" stroke-width="1.5" marker-end="url(#arrow)"/>
  <text x="134" y="680" text-anchor="middle" class="small">sampleCache</text>
  <line x1="134" y1="754" x2="134" y2="774" stroke="#37474F" stroke-width="1.5" marker-end="url(#arrow)"/>
  <text x="134" y="758" text-anchor="middle" class="small">activeCurves</text>
  <line x1="224" y1="774" x2="224" y2="676" stroke="#37474F" stroke-width="1.5" marker-end="url(#arrow)"/>
  <text x="224" y="719" text-anchor="middle" class="small">commands</text>
  <line x1="350" y1="569" x2="224" y2="618" stroke="#37474F" stroke-width="1.5" marker-end="url(#arrow)"/>
  <text x="287" y="587" text-anchor="middle" class="small">commands</text>
  <line x1="760" y1="520" x2="920" y2="540" stroke="#37474F" stroke-width="1.5" marker-end="url(#arrow)" stroke-dasharray="8,5"/>
  <text x="840" y="524" text-anchor="middle" class="small">declares</text>
  <line x1="760" y1="647" x2="920" y2="647" stroke="#37474F" stroke-width="1.5" marker-end="url(#arrow)" stroke-dasharray="8,5"/>
  <text x="840" y="641" text-anchor="middle" class="small">declares</text>
  <line x1="760" y1="725" x2="920" y2="725" stroke="#37474F" stroke-width="1.5" marker-end="url(#arrow)" stroke-dasharray="8,5"/>
  <text x="840" y="719" text-anchor="middle" class="small">declares</text>
  <line x1="1240" y1="569" x2="1000" y2="647" stroke="#37474F" stroke-width="1.5" marker-end="url(#arrow)"/>
  <line x1="1470" y1="569" x2="1010" y2="725" stroke="#37474F" stroke-width="1.5" marker-end="url(#arrow)"/>
  <line x1="1010" y1="754" x2="1100" y2="789" stroke="#37474F" stroke-width="1.5" marker-end="url(#arrow)"/>
  <line x1="920" y1="676" x2="920" y2="696" stroke="#37474F" stroke-width="1.5" marker-end="url(#arrow)"/>
  <line x1="920" y1="754" x2="1100" y2="789" stroke="#37474F" stroke-width="1.5" marker-end="url(#arrow)"/>

  <rect x="1220" y="720" width="340" height="88" fill="#FFFFFF" stroke="#B0BEC5" stroke-width="2" rx="10"/>
  <text x="1236" y="742" class="legend-title">Layer colors</text>
  <rect x="1236" y="744" width="16" height="16" class="legend-box" fill="#E8F4FD" stroke="#1565C0"/>
  <text x="1258" y="756" class="small">Client — Compose scaffold UI</text>
  <rect x="1406" y="744" width="16" height="16" class="legend-box" fill="#FFF8E1" stroke="#F57F17"/>
  <text x="1428" y="756" class="small">Authoring — blueprint.json graph</text>
  <rect x="1236" y="766" width="16" height="16" class="legend-box" fill="#F3E5F5" stroke="#6A1B9A"/>
  <text x="1258" y="778" class="small">Generated — C++ MVC output</text>
  <rect x="1406" y="766" width="16" height="16" class="legend-box" fill="#ECEFF1" stroke="#455A64"/>
  <text x="1428" y="778" class="small">Runtime — SDL3 + Python bridge</text>
</svg>