<?plantuml 1.2026.2?><svg xmlns="http://www.w3.org/2000/svg" xmlns:xlink="http://www.w3.org/1999/xlink" contentStyleType="text/css" data-diagram-type="DESCRIPTION" height="1180.8px" preserveAspectRatio="none" style="width:1564px;height:1180px;background:#FFFFFF;" version="1.1" viewBox="0 0 1564 1180" width="1564.8px" zoomAndPan="magnify"><title>Nexus Framework &#8212; Full Stack + Blueprint Authoring</title><defs/><g><g class="title" data-source-line="12"><text fill="#000000" font-family="Verdana" font-size="26.4" font-weight="bold" lengthAdjust="spacing" textLength="699.9456" x="427.0272" y="46.2217">Nexus Framework &#8212; Full Stack + Blueprint Authoring</text></g><!--cluster Client--><g class="cluster" data-qualified-name="Client" data-source-line="14" id="ent0002"><path d="M652.2,75.431 L835.7593,75.431 A4.5,4.5 0 0 1 838.7593,78.431 L847.1593,107.1471 L954.6,107.1471 A3,3 0 0 1 957.6,110.1471 L957.6,475.415 A3,3 0 0 1 954.6,478.415 L652.2,478.415 A3,3 0 0 1 649.2,475.415 L649.2,78.431 A3,3 0 0 1 652.2,75.431" fill="#E8F4FD" style="stroke:#000000;stroke-width:1.2;"/><line style="stroke:#000000;stroke-width:1.2;" x1="649.2" x2="847.1593" y1="107.1471" y2="107.1471"/><text fill="#000000" font-family="Verdana" font-size="18" font-weight="bold" lengthAdjust="spacing" textLength="182.3593" x="654" y="97.0731">Scaffold client (:app)</text></g><!--cluster Authoring--><g class="cluster" data-qualified-name="Authoring" data-source-line="20" id="ent0006"><path d="M16.2,516.815 L262.0937,516.815 A4.5,4.5 0 0 1 265.0937,519.815 L273.4937,548.5311 L778.2,548.5311 A3,3 0 0 1 781.2,551.5311 L781.2,1169.435 A3,3 0 0 1 778.2,1172.435 L16.2,1172.435 A3,3 0 0 1 13.2,1169.435 L13.2,519.815 A3,3 0 0 1 16.2,516.815" fill="#FFF8E1" style="stroke:#000000;stroke-width:1.2;"/><line style="stroke:#000000;stroke-width:1.2;" x1="13.2" x2="273.4937" y1="548.5311" y2="548.5311"/><text fill="#000000" font-family="Verdana" font-size="18" font-weight="bold" lengthAdjust="spacing" textLength="244.6937" x="18" y="538.4571">Authoring &#8212; blueprint.json</text></g><!--cluster App--><g class="cluster" data-qualified-name="App" data-source-line="35" id="ent0015"><path d="M869.4,583.847 L1108.2196,583.847 A4.5,4.5 0 0 1 1111.2196,586.847 L1119.6196,615.5631 L1132.2,615.5631 A3,3 0 0 1 1135.2,618.5631 L1135.2,988.583 A3,3 0 0 1 1132.2,991.583 L869.4,991.583 A3,3 0 0 1 866.4,988.583 L866.4,586.847 A3,3 0 0 1 869.4,583.847" fill="#F3E5F5" style="stroke:#000000;stroke-width:1.2;"/><line style="stroke:#000000;stroke-width:1.2;" x1="866.4" x2="1119.6196" y1="615.5631" y2="615.5631"/><text fill="#000000" font-family="Verdana" font-size="18" font-weight="bold" lengthAdjust="spacing" textLength="237.6196" x="871.2" y="605.4891">Generated app &#8212; C++ MVC</text></g><!--cluster Script--><g class="cluster" data-qualified-name="Script" data-source-line="41" id="ent0019"><path d="M1176.6,593.447 L1301.5508,593.447 A4.5,4.5 0 0 1 1304.5508,596.447 L1312.9508,625.1631 L1553.4,625.1631 A3,3 0 0 1 1556.4,628.1631 L1556.4,713.699 A3,3 0 0 1 1553.4,716.699 L1176.6,716.699 A3,3 0 0 1 1173.6,713.699 L1173.6,596.447 A3,3 0 0 1 1176.6,593.447" fill="#E8F5E9" style="stroke:#000000;stroke-width:1.2;"/><line style="stroke:#000000;stroke-width:1.2;" x1="1173.6" x2="1312.9508" y1="625.1631" y2="625.1631"/><text fill="#000000" font-family="Verdana" font-size="18" font-weight="bold" lengthAdjust="spacing" textLength="123.7508" x="1178.4" y="615.0891">Scripting &amp; UI</text></g><!--cluster RT--><g class="cluster" data-qualified-name="RT" data-source-line="46" id="ent0022"><path d="M822.6,1029.983 L900.4985,1029.983 A4.5,4.5 0 0 1 903.4985,1032.983 L911.8985,1061.6991 L1133.4,1061.6991 A3,3 0 0 1 1136.4,1064.6991 L1136.4,1150.235 A3,3 0 0 1 1133.4,1153.235 L822.6,1153.235 A3,3 0 0 1 819.6,1150.235 L819.6,1032.983 A3,3 0 0 1 822.6,1029.983" fill="#ECEFF1" style="stroke:#000000;stroke-width:1.2;"/><line style="stroke:#000000;stroke-width:1.2;" x1="819.6" x2="911.8985" y1="1061.6991" y2="1061.6991"/><text fill="#000000" font-family="Verdana" font-size="18" font-weight="bold" lengthAdjust="spacing" textLength="76.6985" x="824.4" y="1051.6251">Runtime</text></g><!--entity GenUI--><g class="entity" data-qualified-name="Client.GenUI" data-source-line="15" id="ent0003"><rect fill="#FFFFFF" height="57.2472" rx="3" ry="3" style="stroke:#000000;stroke-width:1.2;" width="171.5365" x="731.436" y="122.231"/><rect fill="#FFFFFF" height="12" style="stroke:#000000;stroke-width:1.2;" width="18" x="878.9725" y="128.231"/><rect fill="#FFFFFF" height="2.4" style="stroke:#000000;stroke-width:1.2;" width="4.8" x="876.5725" y="130.631"/><rect fill="#FFFFFF" height="2.4" style="stroke:#000000;stroke-width:1.2;" width="4.8" x="876.5725" y="135.431"/><text fill="#000000" font-family="Verdana" font-size="15.6" lengthAdjust="spacing" textLength="123.5365" x="749.436" y="162.9074">Generate Project</text></g><!--entity BPEditor--><g class="entity" data-qualified-name="Client.BPEditor" data-source-line="16" id="ent0004"><rect fill="#FFFFFF" height="78.4944" rx="3" ry="3" style="stroke:#000000;stroke-width:1.2;" width="225.1693" x="668.616" y="251.471"/><rect fill="#FFFFFF" height="12" style="stroke:#000000;stroke-width:1.2;" width="18" x="869.7853" y="257.471"/><rect fill="#FFFFFF" height="2.4" style="stroke:#000000;stroke-width:1.2;" width="4.8" x="867.3853" y="259.871"/><rect fill="#FFFFFF" height="2.4" style="stroke:#000000;stroke-width:1.2;" width="4.8" x="867.3853" y="264.671"/><text fill="#000000" font-family="Verdana" font-size="15.6" lengthAdjust="spacing" textLength="115.7989" x="686.616" y="292.1474">Blueprint Editor</text><text fill="#000000" font-family="Verdana" font-size="15.6" lengthAdjust="spacing" textLength="177.1693" x="686.616" y="313.3946">Compose canvas + JSON</text></g><!--entity CoreGen--><g class="entity" data-qualified-name="Client.CoreGen" data-source-line="17" id="ent0005"><rect fill="#FFFFFF" height="57.2472" rx="3" ry="3" style="stroke:#000000;stroke-width:1.2;" width="227.6965" x="688.956" y="401.975"/><rect fill="#FFFFFF" height="12" style="stroke:#000000;stroke-width:1.2;" width="18" x="892.6525" y="407.975"/><rect fill="#FFFFFF" height="2.4" style="stroke:#000000;stroke-width:1.2;" width="4.8" x="890.2525" y="410.375"/><rect fill="#FFFFFF" height="2.4" style="stroke:#000000;stroke-width:1.2;" width="4.8" x="890.2525" y="415.175"/><text fill="#000000" font-family="Verdana" font-size="15.6" lengthAdjust="spacing" textLength="179.6965" x="706.956" y="442.6514">":core ProjectGenerator"</text></g><!--entity NPy--><g class="entity" data-qualified-name="Authoring.NPy" data-source-line="22" id="ent0007"><rect fill="#FFFFFF" height="57.2472" rx="3" ry="3" style="stroke:#000000;stroke-width:1.2;" width="160.1641" x="51.912" y="640.247"/><rect fill="#FFFFFF" height="12" style="stroke:#000000;stroke-width:1.2;" width="18" x="188.0761" y="646.247"/><rect fill="#FFFFFF" height="2.4" style="stroke:#000000;stroke-width:1.2;" width="4.8" x="185.6761" y="648.647"/><rect fill="#FFFFFF" height="2.4" style="stroke:#000000;stroke-width:1.2;" width="4.8" x="185.6761" y="653.447"/><text fill="#000000" font-family="Verdana" font-size="15.6" lengthAdjust="spacing" textLength="112.1641" x="69.912" y="680.9234">python.module</text></g><!--entity NModel--><g class="entity" data-qualified-name="Authoring.NModel" data-source-line="23" id="ent0008"><rect fill="#FFFFFF" height="57.2472" rx="3" ry="3" style="stroke:#000000;stroke-width:1.2;" width="125.2981" x="59.748" y="905.543"/><rect fill="#FFFFFF" height="12" style="stroke:#000000;stroke-width:1.2;" width="18" x="161.0461" y="911.543"/><rect fill="#FFFFFF" height="2.4" style="stroke:#000000;stroke-width:1.2;" width="4.8" x="158.6461" y="913.943"/><rect fill="#FFFFFF" height="2.4" style="stroke:#000000;stroke-width:1.2;" width="4.8" x="158.6461" y="918.743"/><text fill="#000000" font-family="Verdana" font-size="15.6" lengthAdjust="spacing" textLength="77.2981" x="77.748" y="946.2194">cpp.model</text></g><!--entity NCtrl--><g class="entity" data-qualified-name="Authoring.NCtrl" data-source-line="24" id="ent0009"><rect fill="#FFFFFF" height="57.2472" rx="3" ry="3" style="stroke:#000000;stroke-width:1.2;" width="150.2269" x="104.892" y="776.291"/><rect fill="#FFFFFF" height="12" style="stroke:#000000;stroke-width:1.2;" width="18" x="231.1189" y="782.291"/><rect fill="#FFFFFF" height="2.4" style="stroke:#000000;stroke-width:1.2;" width="4.8" x="228.7189" y="784.691"/><rect fill="#FFFFFF" height="2.4" style="stroke:#000000;stroke-width:1.2;" width="4.8" x="228.7189" y="789.491"/><text fill="#000000" font-family="Verdana" font-size="15.6" lengthAdjust="spacing" textLength="102.2269" x="122.892" y="816.9674">cpp.controller</text></g><!--entity NUI--><g class="entity" data-qualified-name="Authoring.NUI" data-source-line="25" id="ent0010"><rect fill="#FFFFFF" height="57.2472" rx="3" ry="3" style="stroke:#000000;stroke-width:1.2;" width="102.5845" x="123.912" y="1076.783"/><rect fill="#FFFFFF" height="12" style="stroke:#000000;stroke-width:1.2;" width="18" x="202.4965" y="1082.783"/><rect fill="#FFFFFF" height="2.4" style="stroke:#000000;stroke-width:1.2;" width="4.8" x="200.0965" y="1085.183"/><rect fill="#FFFFFF" height="2.4" style="stroke:#000000;stroke-width:1.2;" width="4.8" x="200.0965" y="1089.983"/><text fill="#000000" font-family="Verdana" font-size="15.6" lengthAdjust="spacing" textLength="54.5845" x="141.912" y="1117.4594">ui.page</text></g><!--entity NLua--><g class="entity" data-qualified-name="Authoring.NLua" data-source-line="26" id="ent0011"><rect fill="#FFFFFF" height="57.2472" rx="3" ry="3" style="stroke:#000000;stroke-width:1.2;" width="115.2517" x="254.376" y="640.247"/><rect fill="#FFFFFF" height="12" style="stroke:#000000;stroke-width:1.2;" width="18" x="345.6277" y="646.247"/><rect fill="#FFFFFF" height="2.4" style="stroke:#000000;stroke-width:1.2;" width="4.8" x="343.2277" y="648.647"/><rect fill="#FFFFFF" height="2.4" style="stroke:#000000;stroke-width:1.2;" width="4.8" x="343.2277" y="653.447"/><text fill="#000000" font-family="Verdana" font-size="15.6" lengthAdjust="spacing" textLength="67.2517" x="272.376" y="680.9234">lua.script</text></g><g class="entity" data-qualified-name="Authoring.GMN12" data-source-line="29" id="ent0013"><path d="M411.816,633.455 L411.816,704.2938 L752.1766,704.2938 L752.1766,645.455 L740.1766,633.455 L411.816,633.455" fill="#FFFFFF" style="stroke:#000000;stroke-width:1.2;"/><path d="M740.1766,633.455 L740.1766,645.455 L752.1766,645.455 L740.1766,633.455" fill="#FFFFFF" style="stroke:#000000;stroke-width:1.2;"/><text fill="#000000" font-family="Verdana" font-size="14.4" lengthAdjust="spacing" textLength="273.4003" x="419.016" y="654.8487">Langflow-style graph (imnodes schema).</text><text fill="#000000" font-family="Verdana" font-size="14.4" font-weight="bold" lengthAdjust="spacing" textLength="98.2663" x="419.016" y="674.4616">Edit blueprint</text><text fill="#000000" font-family="Verdana" font-size="14.4" lengthAdjust="spacing" textLength="209.5198" x="521.0263" y="674.4616">in :app &#8594; edges wire data flow.</text><text fill="#000000" font-family="Verdana" font-size="14.4" lengthAdjust="spacing" textLength="315.1606" x="419.016" y="694.0745">Samples: template/desktop-app/blueprint.json</text></g><!--entity Model--><g class="entity" data-qualified-name="App.Model" data-source-line="36" id="ent0016"><rect fill="#FFFFFF" height="57.2472" rx="3" ry="3" style="stroke:#000000;stroke-width:1.2;" width="100.2444" x="901.476" y="640.247"/><rect fill="#FFFFFF" height="12" style="stroke:#000000;stroke-width:1.2;" width="18" x="977.7204" y="646.247"/><rect fill="#FFFFFF" height="2.4" style="stroke:#000000;stroke-width:1.2;" width="4.8" x="975.3204" y="648.647"/><rect fill="#FFFFFF" height="2.4" style="stroke:#000000;stroke-width:1.2;" width="4.8" x="975.3204" y="653.447"/><text fill="#000000" font-family="Verdana" font-size="15.6" lengthAdjust="spacing" textLength="52.2444" x="919.476" y="680.9234">model/</text></g><!--entity Ctrl--><g class="entity" data-qualified-name="App.Ctrl" data-source-line="37" id="ent0017"><rect fill="#FFFFFF" height="57.2472" rx="3" ry="3" style="stroke:#000000;stroke-width:1.2;" width="125.1733" x="895.008" y="776.291"/><rect fill="#FFFFFF" height="12" style="stroke:#000000;stroke-width:1.2;" width="18" x="996.1813" y="782.291"/><rect fill="#FFFFFF" height="2.4" style="stroke:#000000;stroke-width:1.2;" width="4.8" x="993.7813" y="784.691"/><rect fill="#FFFFFF" height="2.4" style="stroke:#000000;stroke-width:1.2;" width="4.8" x="993.7813" y="789.491"/><text fill="#000000" font-family="Verdana" font-size="15.6" lengthAdjust="spacing" textLength="77.1733" x="913.008" y="816.9674">controller/</text></g><!--entity View--><g class="entity" data-qualified-name="App.View" data-source-line="38" id="ent0018"><rect fill="#FFFFFF" height="57.2472" rx="3" ry="3" style="stroke:#000000;stroke-width:1.2;" width="201.2077" x="895.392" y="905.543"/><rect fill="#FFFFFF" height="12" style="stroke:#000000;stroke-width:1.2;" width="18" x="1072.5997" y="911.543"/><rect fill="#FFFFFF" height="2.4" style="stroke:#000000;stroke-width:1.2;" width="4.8" x="1070.1997" y="913.943"/><rect fill="#FFFFFF" height="2.4" style="stroke:#000000;stroke-width:1.2;" width="4.8" x="1070.1997" y="918.743"/><text fill="#000000" font-family="Verdana" font-size="15.6" lengthAdjust="spacing" textLength="153.2077" x="913.392" y="946.2194">view/ ImGui + ImPlot</text></g><!--entity Lua--><g class="entity" data-qualified-name="Script.Lua" data-source-line="42" id="ent0020"><rect fill="#FFFFFF" height="57.2472" rx="3" ry="3" style="stroke:#000000;stroke-width:1.2;" width="147.5437" x="1192.224" y="640.247"/><rect fill="#FFFFFF" height="12" style="stroke:#000000;stroke-width:1.2;" width="18" x="1315.7677" y="646.247"/><rect fill="#FFFFFF" height="2.4" style="stroke:#000000;stroke-width:1.2;" width="4.8" x="1313.3677" y="648.647"/><rect fill="#FFFFFF" height="2.4" style="stroke:#000000;stroke-width:1.2;" width="4.8" x="1313.3677" y="653.447"/><text fill="#000000" font-family="Verdana" font-size="15.6" lengthAdjust="spacing" textLength="99.5437" x="1210.224" y="680.9234">Lua 5.4 + sol2</text></g><!--entity TSX--><g class="entity" data-qualified-name="Script.TSX" data-source-line="43" id="ent0021"><rect fill="#FFFFFF" height="57.2472" rx="3" ry="3" style="stroke:#000000;stroke-width:1.2;" width="154.9225" x="1381.74" y="640.247"/><rect fill="#FFFFFF" height="12" style="stroke:#000000;stroke-width:1.2;" width="18" x="1512.6625" y="646.247"/><rect fill="#FFFFFF" height="2.4" style="stroke:#000000;stroke-width:1.2;" width="4.8" x="1510.2625" y="648.647"/><rect fill="#FFFFFF" height="2.4" style="stroke:#000000;stroke-width:1.2;" width="4.8" x="1510.2625" y="653.447"/><text fill="#000000" font-family="Verdana" font-size="15.6" lengthAdjust="spacing" textLength="106.9225" x="1399.74" y="680.9234">TS/XHTML DSL</text></g><!--entity SDL--><g class="entity" data-qualified-name="RT.SDL" data-source-line="47" id="ent0023"><rect fill="#FFFFFF" height="57.2472" rx="3" ry="3" style="stroke:#000000;stroke-width:1.2;" width="85.05" x="1032.672" y="1076.783"/><rect fill="#FFFFFF" height="12" style="stroke:#000000;stroke-width:1.2;" width="18" x="1093.722" y="1082.783"/><rect fill="#FFFFFF" height="2.4" style="stroke:#000000;stroke-width:1.2;" width="4.8" x="1091.322" y="1085.183"/><rect fill="#FFFFFF" height="2.4" style="stroke:#000000;stroke-width:1.2;" width="4.8" x="1091.322" y="1089.983"/><text fill="#000000" font-family="Verdana" font-size="15.6" lengthAdjust="spacing" textLength="37.05" x="1050.672" y="1117.4594">SDL3</text></g><!--entity Py--><g class="entity" data-qualified-name="RT.Py" data-source-line="48" id="ent0024"><rect fill="#FFFFFF" height="57.2472" rx="3" ry="3" style="stroke:#000000;stroke-width:1.2;" width="151.8493" x="838.476" y="1076.783"/><rect fill="#FFFFFF" height="12" style="stroke:#000000;stroke-width:1.2;" width="18" x="966.3253" y="1082.783"/><rect fill="#FFFFFF" height="2.4" style="stroke:#000000;stroke-width:1.2;" width="4.8" x="963.9253" y="1085.183"/><rect fill="#FFFFFF" height="2.4" style="stroke:#000000;stroke-width:1.2;" width="4.8" x="963.9253" y="1089.983"/><text fill="#000000" font-family="Verdana" font-size="15.6" lengthAdjust="spacing" textLength="103.8493" x="856.476" y="1117.4594">Python bridge</text></g><!--link Authoring to GMN12--><g class="link" data-entity-1="ent0006" data-entity-2="ent0013" data-link-type="association" data-source-line="29" id="lnk14"><path d="M770.712,554.435 C763.932,554.435 720.564,554.435 720.564,554.435 C720.564,554.435 720.564,599.423 720.564,632.975" fill="none" id="Authoring-GMN12" style="stroke:#37474F;stroke-width:1.2;stroke-dasharray:8.4,8.4;"/></g><!--link GenUI to BPEditor--><g class="link" data-entity-1="ent0003" data-entity-2="ent0004" data-link-type="dependency" data-source-line="51" id="lnk25"><path d="M812.604,179.831 C812.604,200.483 812.604,221.279 812.604,243.971" fill="none" id="GenUI-to-BPEditor" style="stroke:#37474F;stroke-width:1.2;"/><polygon fill="#37474F" points="812.604,251.171,817.404,240.371,812.604,245.171,807.804,240.371,812.604,251.171" style="stroke:#37474F;stroke-width:1.2;"/><text fill="#000000" font-family="Verdana" font-size="16.8" lengthAdjust="spacing" textLength="107.0156" x="704.604" y="209.4661">Edit blueprint</text></g><!--link BPEditor to CoreGen--><g class="link" data-entity-1="ent0004" data-entity-2="ent0005" data-link-type="dependency" data-source-line="52" id="lnk26"><path d="M791.364,330.431 C791.364,353.051 791.364,373.679 791.364,394.259" fill="none" id="BPEditor-to-CoreGen" style="stroke:#37474F;stroke-width:1.2;"/><polygon fill="#37474F" points="791.364,401.459,796.164,390.659,791.364,395.459,786.564,390.659,791.364,401.459" style="stroke:#37474F;stroke-width:1.2;"/><text fill="#000000" font-family="Verdana" font-size="16.8" lengthAdjust="spacing" textLength="124.0339" x="666.564" y="359.9101">validated graph</text></g><!--link GenUI to CoreGen--><g class="link" data-entity-1="ent0003" data-entity-2="ent0005" data-link-type="dependency" data-source-line="53" id="lnk27"><path d="M898.38,179.735 C898.38,233.339 898.38,340.451 898.38,394.247" fill="none" id="GenUI-to-CoreGen" style="stroke:#37474F;stroke-width:1.2;"/><polygon fill="#37474F" points="898.38,401.447,903.18,390.647,898.38,395.447,893.58,390.647,898.38,401.447" style="stroke:#37474F;stroke-width:1.2;"/><text fill="#000000" font-family="Verdana" font-size="16.8" lengthAdjust="spacing" textLength="73.4661" x="899.58" y="284.5501">Generate</text></g><!--link CoreGen to Authoring--><g class="link" data-entity-1="ent0005" data-entity-2="ent0006" data-link-type="dependency" data-source-line="54" id="lnk28"><path d="M771.6,459.635 C771.6,476.507 771.6,497.969 771.6,516.206 C771.6,516.3484 771.6,541.0069 771.6,541.149" fill="none" id="CoreGen-to-Authoring" style="stroke:#37474F;stroke-width:1.2;"/><polygon fill="#37474F" points="771.6,548.349,776.4,537.549,771.6,542.349,766.8,537.549,771.6,548.349" style="stroke:#37474F;stroke-width:1.2;"/><text fill="#000000" font-family="Verdana" font-size="16.8" lengthAdjust="spacing" textLength="149.9562" x="621.6" y="500.4901">emit blueprint.json</text></g><!--link CoreGen to App--><g class="link" data-entity-1="ent0005" data-entity-2="ent0015" data-link-type="dependency" data-source-line="55" id="lnk29"><path d="M917.064,430.835 C1009.92,430.835 1125.6,430.835 1125.6,430.835 C1125.6,430.835 1125.6,486.683 1125.6,544.277 C1125.6,551.4762 1125.6,558.7027 1125.6,565.8509 C1125.6,569.425 1125.6,572.9794 1125.6,576.5011 C1125.6,578.2619 1125.6,580.0146 1125.6,581.7574 C1125.6,582.193 1125.6,607.1443 1125.6,607.5787" fill="none" id="CoreGen-to-App" style="stroke:#37474F;stroke-width:1.2;"/><polygon fill="#37474F" points="1125.6,614.7787,1130.4,603.9787,1125.6,608.7787,1120.8,603.9787,1125.6,614.7787" style="stroke:#37474F;stroke-width:1.2;"/><text fill="#000000" font-family="Verdana" font-size="16.8" lengthAdjust="spacing" textLength="69.2493" x="1056" y="439.2061">emit src/</text></g><!--link NPy to NCtrl--><g class="link" data-entity-1="ent0007" data-entity-2="ent0009" data-link-type="dependency" data-source-line="57" id="lnk30"><path d="M158.484,698.063 C158.484,721.007 158.484,745.643 158.484,768.575" fill="none" id="NPy-to-NCtrl" style="stroke:#37474F;stroke-width:1.2;"/><polygon fill="#37474F" points="158.484,775.775,163.284,764.975,158.484,769.775,153.684,764.975,158.484,775.775" style="stroke:#37474F;stroke-width:1.2;"/><text fill="#000000" font-family="Verdana" font-size="16.8" lengthAdjust="spacing" textLength="67.1157" x="91.284" y="730.8781">evaluate</text></g><!--link NCtrl to NModel--><g class="link" data-entity-1="ent0009" data-entity-2="ent0008" data-link-type="dependency" data-source-line="58" id="lnk31"><path d="M144.972,833.927 C144.972,855.203 144.972,876.791 144.972,898.055" fill="none" id="NCtrl-to-NModel" style="stroke:#37474F;stroke-width:1.2;"/><polygon fill="#37474F" points="144.972,905.255,149.772,894.455,144.972,899.255,140.172,894.455,144.972,905.255" style="stroke:#37474F;stroke-width:1.2;"/><text fill="#000000" font-family="Verdana" font-size="16.8" lengthAdjust="spacing" textLength="105.2852" x="39.372" y="863.5501">sampleCache</text></g><!--link NModel to NUI--><g class="link" data-entity-1="ent0008" data-entity-2="ent0010" data-link-type="dependency" data-source-line="59" id="lnk32"><path d="M154.476,963.215 C154.476,994.703 154.476,1037.471 154.476,1069.019" fill="none" id="NModel-to-NUI" style="stroke:#37474F;stroke-width:1.2;"/><polygon fill="#37474F" points="154.476,1076.219,159.276,1065.419,154.476,1070.219,149.676,1065.419,154.476,1076.219" style="stroke:#37474F;stroke-width:1.2;"/><text fill="#000000" font-family="Verdana" font-size="16.8" lengthAdjust="spacing" textLength="99.8924" x="53.676" y="1013.6701">activeCurves</text></g><!--link NUI to NCtrl--><g class="link" data-entity-1="ent0010" data-entity-2="ent0009" data-link-type="dependency" data-source-line="60" id="lnk33"><path d="M205.776,1076.603 C205.776,1019.303 205.776,898.859 205.776,841.283" fill="none" id="NUI-to-NCtrl" style="stroke:#37474F;stroke-width:1.2;"/><polygon fill="#37474F" points="205.776,834.083,200.976,844.883,205.776,840.083,210.576,844.883,205.776,834.083" style="stroke:#37474F;stroke-width:1.2;"/><text fill="#000000" font-family="Verdana" font-size="16.8" lengthAdjust="spacing" textLength="87.8301" x="206.976" y="949.3021">commands</text></g><!--link NLua to NCtrl--><g class="link" data-entity-1="ent0011" data-entity-2="ent0009" data-link-type="dependency" data-source-line="61" id="lnk34"><path d="M253.92,668.435 C242.112,668.435 233.232,668.435 233.232,668.435 C233.232,668.435 233.232,728.711 233.232,768.767" fill="none" id="NLua-to-NCtrl" style="stroke:#37474F;stroke-width:1.2;"/><polygon fill="#37474F" points="233.232,775.967,238.032,765.167,233.232,769.967,228.432,765.167,233.232,775.967" style="stroke:#37474F;stroke-width:1.2;"/><text fill="#000000" font-family="Verdana" font-size="16.8" lengthAdjust="spacing" textLength="87.8301" x="234.432" y="731.0101">commands</text></g><!--link Authoring to Model--><g class="link" data-entity-1="ent0006" data-entity-2="ent0016" data-link-type="dependency" data-source-line="63" id="lnk35"><path d="M781.2861,554.435 C781.4253,554.435 781.5657,554.435 781.7075,554.435 C786.2428,554.435 792.0814,554.435 798.7583,554.435 C812.112,554.435 828.819,554.435 845.16,554.435 C877.842,554.435 909.06,554.435 909.06,554.435 C909.06,554.435 909.06,598.895 909.06,632.795" fill="none" id="Authoring-to-Model" style="stroke:#37474F;stroke-width:1.2;stroke-dasharray:8.4,8.4;"/><polygon fill="#37474F" points="909.06,639.995,913.86,629.195,909.06,633.995,904.26,629.195,909.06,639.995" style="stroke:#37474F;stroke-width:1.2;"/><text fill="#000000" font-family="Verdana" font-size="16.8" lengthAdjust="spacing" textLength="66.0909" x="816.348" y="548.3941">declares</text></g><!--link Authoring to Ctrl--><g class="link" data-entity-1="ent0006" data-entity-2="ent0017" data-link-type="dependency" data-source-line="64" id="lnk36"><path d="M781.3201,795.635 C781.4238,795.635 781.5282,795.635 781.6333,795.635 C781.8436,795.635 782.057,795.635 782.2734,795.635 C782.7061,795.635 783.1509,795.635 783.6073,795.635 C790.9106,795.635 801.2093,795.635 813.1905,795.635 C837.153,795.635 860.646,795.635 887.568,795.635" fill="none" id="Authoring-to-Ctrl" style="stroke:#37474F;stroke-width:1.2;stroke-dasharray:8.4,8.4;"/><polygon fill="#37474F" points="894.768,795.635,883.968,790.835,888.768,795.635,883.968,800.435,894.768,795.635" style="stroke:#37474F;stroke-width:1.2;"/><text fill="#000000" font-family="Verdana" font-size="16.8" lengthAdjust="spacing" textLength="66.0909" x="704.796" y="730.7341">declares</text></g><!--link Authoring to View--><g class="link" data-entity-1="ent0006" data-entity-2="ent0018" data-link-type="dependency" data-source-line="65" id="lnk37"><path d="M781.2022,933.635 C781.3064,933.635 781.4113,933.635 781.517,933.635 C781.7283,933.635 781.9425,933.635 782.1596,933.635 C789.1065,933.635 798.9915,933.635 810.744,933.635 C834.249,933.635 858.024,933.635 887.904,933.635" fill="none" id="Authoring-to-View" style="stroke:#37474F;stroke-width:1.2;stroke-dasharray:8.4,8.4;"/><polygon fill="#37474F" points="895.104,933.635,884.304,928.835,889.104,933.635,884.304,938.435,895.104,933.635" style="stroke:#37474F;stroke-width:1.2;"/><text fill="#000000" font-family="Verdana" font-size="16.8" lengthAdjust="spacing" textLength="66.0909" x="704.004" y="800.2621">declares</text></g><!--link Lua to Ctrl--><g class="link" data-entity-1="ent0020" data-entity-2="ent0017" data-link-type="dependency" data-source-line="67" id="lnk38"><path d="M1191.888,684.035 C1116.588,684.035 1010.952,684.035 1010.952,684.035 C1010.952,684.035 1010.952,732.995 1010.952,768.767" fill="none" id="Lua-to-Ctrl" style="stroke:#37474F;stroke-width:1.2;"/><polygon fill="#37474F" points="1010.952,775.967,1015.752,765.167,1010.952,769.967,1006.152,765.167,1010.952,775.967" style="stroke:#37474F;stroke-width:1.2;"/></g><!--link TSX to View--><g class="link" data-entity-1="ent0021" data-entity-2="ent0018" data-link-type="dependency" data-source-line="68" id="lnk39"><path d="M1459.2,697.715 C1459.2,766.331 1459.2,933.635 1459.2,933.635 C1459.2,933.635 1240.572,933.635 1104.276,933.635" fill="none" id="TSX-to-View" style="stroke:#37474F;stroke-width:1.2;"/><polygon fill="#37474F" points="1097.076,933.635,1107.876,938.435,1103.076,933.635,1107.876,928.835,1097.076,933.635" style="stroke:#37474F;stroke-width:1.2;"/></g><!--link Model to Ctrl--><g class="link" data-entity-1="ent0016" data-entity-2="ent0017" data-link-type="dependency" data-source-line="69" id="lnk40"><path d="M951.6,698.063 C951.6,721.007 951.6,745.643 951.6,768.575" fill="none" id="Model-to-Ctrl" style="stroke:#37474F;stroke-width:1.2;"/><polygon fill="#37474F" points="951.6,775.775,956.4,764.975,951.6,769.775,946.8,764.975,951.6,775.775" style="stroke:#37474F;stroke-width:1.2;"/></g><!--link Ctrl to View--><g class="link" data-entity-1="ent0017" data-entity-2="ent0018" data-link-type="dependency" data-source-line="70" id="lnk41"><path d="M957.792,833.927 C957.792,855.203 957.792,876.791 957.792,898.055" fill="none" id="Ctrl-to-View" style="stroke:#37474F;stroke-width:1.2;"/><polygon fill="#37474F" points="957.792,905.255,962.592,894.455,957.792,899.255,952.992,894.455,957.792,905.255" style="stroke:#37474F;stroke-width:1.2;"/></g><!--link View to SDL--><g class="link" data-entity-1="ent0018" data-entity-2="ent0023" data-link-type="dependency" data-source-line="71" id="lnk42"><path d="M1064.64,963.215 C1064.64,994.703 1064.64,1037.471 1064.64,1069.019" fill="none" id="View-to-SDL" style="stroke:#37474F;stroke-width:1.2;"/><polygon fill="#37474F" points="1064.64,1076.219,1069.44,1065.419,1064.64,1070.219,1059.84,1065.419,1064.64,1076.219" style="stroke:#37474F;stroke-width:1.2;"/></g><!--link Ctrl to Py--><g class="link" data-entity-1="ent0017" data-entity-2="ent0024" data-link-type="dependency" data-source-line="72" id="lnk43"><path d="M894.492,814.835 C879,814.835 866.748,814.835 866.748,814.835 C866.748,814.835 866.748,995.795 866.748,1069.283" fill="none" id="Ctrl-to-Py" style="stroke:#37474F;stroke-width:1.2;"/><polygon fill="#37474F" points="866.748,1076.483,871.548,1065.683,866.748,1070.483,861.948,1065.683,866.748,1076.483" style="stroke:#37474F;stroke-width:1.2;"/><text fill="#000000" font-family="Verdana" font-size="16.8" lengthAdjust="spacing" textLength="139.0026" x="727.548" y="925.7461">numpy / analytics</text></g><?plantuml-src TLJTRjCm6BttKtni4cARcWhMQj0Bf2rhOAWR5HdJfCA5bxYTcMDRjjDI419NF03Y2VSaVBRJ9aMYKgNuEz-Vppd94tVFAWPQK2w9BQXWy3nvGUm3bveQMi4TBHuMHjMoJ9LG1lQpyEjas7jQgXMN2vXJOLa7ATcSri9bIhgSVyFEWmweiJ5Ti1OSTi12LLf99ZkrnnrOAjSfxAvxQenQDPiUdmnE1jrD1PVChJK3PToz8iHnX_UzObzh2naci9Ko3_3uymzajH2GErmHZk1Cr4mRBXsSrbY7Jmj2clLXBo_eVAv42ONWk30y6r6j3_Q0MaXZP7_yCXjav_2T0CpUCCaCTGocHdrXXVli4p7uySAZxQXnoPqodsJgcR0C2YgNc7a4x_BtLw7eR1fpVDtUg51csxEPeSnUI4mHmX3vqTbwUvDmtRlDsEIBLJBitYPunL-EduVrdLemT8m91vohrvWbaqgLjM1XsDLq7Q52Qnzd8eOl_MEB5AYUKK8m4-7KcGQjUQ9nnHWEh61Gr3InXU4wydKrgIa2F_3lhG1toZbLWPft5F9r4oeNSw5MFUlMgFJ2K7qFptWbSHaBja3lquCaf1uUUZPR9WuFWKlmMiBZhz_0oWLMh3YIN597mNUDXJcjj61s18xX0ohRnzuFJkaUrlPtcSK29ikmyuuQ6rEK4EQX8kdH4LpUf54AZErdn-DXDemU2hJs0nCRMcSjeH5e29qjELlruQ9wKtCqpqKr5IfoU8F0pX9vuDSh_XG-NeJ9CHGCF1o_YiEHUXWc0sncbNWHMaKrPjTv__RjzUK4plD9Y5_djpiJFjJIyOg5rX-kiMqwph9eh5b-FZaEHVZWpzFWBBWpl6pCWCR2Pk5LWLxlzTR_C89TwSWMyMcD-p5hIGKl0yl129rMRSv62R89URXz5qR0gkwegEfEBehLP5bJz0d15m9w-86K20QRUnXNgVsK6DZ2GKt4RV1KIj6Wf0bkSt3b4T32yILBQxDablZGlnFm0rfHMIBezVelIjgh9SbhsCmlMI6emTQxS5Fz7zGRgekICBaNomXw8Ho2xPehRR18mWOCVVp9Es4B8OiZa7Mbrz07AgbOErvOyXS0?></g></svg>