<?xml version="1.0" encoding="UTF-8"?>
<svg xmlns="http://www.w3.org/2000/svg" viewBox="0 0 720 660" width="720" height="660">
  <title>Nexus Framework — system context</title>
  <rect width="100%" height="100%" fill="#1e1e2e"/>
  <rect x="0" y="0" width="100%" height="36" fill="#313244"/>
  <circle cx="18" cy="18" r="6" fill="#f38ba8"/>
  <circle cx="36" cy="18" r="6" fill="#fab387"/>
  <circle cx="54" cy="18" r="6" fill="#a6e3a1"/>
  <text x="360" y="24" text-anchor="middle" font-family="sans-serif" font-size="14" fill="#a6adc8" font-weight="bold">Nexus Framework — system context</text>

  <rect x="160" y="70" width="420" height="510" rx="16" fill="none" stroke="#585b70" stroke-width="2" stroke-dasharray="6,4"/>
  <rect x="280" y="58" width="180" height="26" rx="6" fill="#313244"/>
  <text x="370" y="76" text-anchor="middle" font-family="sans-serif" font-size="13" fill="#a6adc8">Nexus Framework</text>

  <circle cx="90" cy="300" r="24" fill="#f5c2e7" opacity="0.8"/>
  <line x1="90" y1="324" x2="90" y2="380" stroke="#f5c2e7" stroke-width="3" stroke-linecap="round"/>
  <line x1="56" y1="350" x2="124" y2="350" stroke="#f5c2e7" stroke-width="3" stroke-linecap="round"/>
  <line x1="90" y1="380" x2="60" y2="430" stroke="#f5c2e7" stroke-width="3" stroke-linecap="round"/>
  <line x1="90" y1="380" x2="120" y2="430" stroke="#f5c2e7" stroke-width="3" stroke-linecap="round"/>
  <text x="90" y="460" text-anchor="middle" font-family="sans-serif" font-size="13" fill="#f5c2e7">Developer</text>

  <rect x="200" y="110" width="340" height="80" rx="10" fill="#313244" stroke="#fab387" stroke-width="2"/>
  <text x="370" y="148" text-anchor="middle" font-family="sans-serif" font-size="16" font-weight="bold" fill="#fab387">blueprint.json</text>
  <text x="370" y="170" text-anchor="middle" font-family="sans-serif" font-size="12" fill="#a6adc8">node graph + port wiring</text>

  <rect x="200" y="220" width="340" height="80" rx="10" fill="#313244" stroke="#89b4fa" stroke-width="2"/>
  <text x="370" y="258" text-anchor="middle" font-family="sans-serif" font-size="16" font-weight="bold" fill="#89b4fa">ProjectGenerator</text>
  <text x="370" y="280" text-anchor="middle" font-family="sans-serif" font-size="12" fill="#a6adc8">:core template engine</text>

  <rect x="200" y="330" width="340" height="80" rx="10" fill="#313244" stroke="#89dceb" stroke-width="2"/>
  <text x="370" y="368" text-anchor="middle" font-family="sans-serif" font-size="16" font-weight="bold" fill="#89dceb">zig build</text>
  <text x="370" y="390" text-anchor="middle" font-family="sans-serif" font-size="12" fill="#a6adc8">C++ compile + link</text>

  <line x1="370" y1="190" x2="370" y2="215" stroke="#585b70" stroke-width="2" marker-end="url(#arrow)"/>
  <line x1="370" y1="300" x2="370" y2="325" stroke="#585b70" stroke-width="2" marker-end="url(#arrow)"/>

  <rect x="200" y="450" width="160" height="80" rx="10" fill="#313244" stroke="#a6e3a1" stroke-width="2"/>
  <text x="280" y="488" text-anchor="middle" font-family="sans-serif" font-size="15" font-weight="bold" fill="#a6e3a1">Desktop</text>
  <text x="280" y="510" text-anchor="middle" font-family="sans-serif" font-size="11" fill="#a6adc8">SDL3 + pybind11</text>

  <rect x="380" y="450" width="160" height="80" rx="10" fill="#313244" stroke="#f38ba8" stroke-width="2"/>
  <text x="460" y="488" text-anchor="middle" font-family="sans-serif" font-size="15" font-weight="bold" fill="#f38ba8">Android</text>
  <text x="460" y="510" text-anchor="middle" font-family="sans-serif" font-size="11" fill="#a6adc8">Zig JNI + Chaquopy</text>

  <path d="M370,410 L370,435 L280,435 L280,445" fill="none" stroke="#585b70" stroke-width="2" marker-end="url(#arrow)"/>
  <path d="M370,410 L370,435 L460,435 L460,445" fill="none" stroke="#585b70" stroke-width="2" marker-end="url(#arrow)"/>

  <rect x="200" y="560" width="340" height="40" rx="20" fill="#313244" stroke="#cba6f7" stroke-width="1.5"/>
  <text x="370" y="585" text-anchor="middle" font-family="sans-serif" font-size="12" fill="#cba6f7">:app Compose Desktop client</text>

  <circle cx="630" cy="300" r="24" fill="#a6e3a1" opacity="0.8"/>
  <line x1="630" y1="324" x2="630" y2="380" stroke="#a6e3a1" stroke-width="3" stroke-linecap="round"/>
  <line x1="596" y1="350" x2="664" y2="350" stroke="#a6e3a1" stroke-width="3" stroke-linecap="round"/>
  <line x1="630" y1="380" x2="600" y2="430" stroke="#a6e3a1" stroke-width="3" stroke-linecap="round"/>
  <line x1="630" y1="380" x2="660" y2="430" stroke="#a6e3a1" stroke-width="3" stroke-linecap="round"/>
  <text x="630" y="460" text-anchor="middle" font-family="sans-serif" font-size="13" fill="#a6e3a1">User</text>

  <line x1="114" y1="310" x2="195" y2="150" stroke="#585b70" stroke-width="2" marker-end="url(#arrow)"/>
  <line x1="114" y1="320" x2="195" y2="260" stroke="#585b70" stroke-width="2" marker-end="url(#arrow)"/>
  <line x1="606" y1="310" x2="545" y2="490" stroke="#585b70" stroke-width="2" marker-end="url(#arrow)"/>

  <defs>
    <marker id="arrow" viewBox="0 0 10 10" refX="8" refY="5" markerWidth="7" markerHeight="7" orient="auto">
      <path d="M0,0 L10,5 L0,10 Z" fill="#585b70"/>
    </marker>
  </defs>

  <text x="360" y="650" text-anchor="middle" font-family="sans-serif" font-size="11" fill="#585b70">Actors left/right · Components center · Two output targets</text>
</svg>
