<?plantuml 1.2026.2?><svg xmlns="http://www.w3.org/2000/svg" xmlns:xlink="http://www.w3.org/1999/xlink" contentStyleType="text/css" data-diagram-type="DESCRIPTION" height="1748px" preserveAspectRatio="none" style="width:2164px;height:1748px;background:#FFFFFF;" version="1.1" viewBox="0 0 2164 1748" width="2164px" zoomAndPan="magnify"><title>Nexus Framework &#8212; Full Stack Architecture
(scaffold client + generated Desktop / Android apps)</title><defs/><g><g class="title" data-source-line="7"><text fill="#000000" font-family="Verdana" font-size="22" font-weight="bold" lengthAdjust="spacing" textLength="482.8796" x="836.5477" y="38.5181">Nexus Framework &#8212; Full Stack Architecture</text><text fill="#000000" font-family="Verdana" font-size="22" font-weight="bold" lengthAdjust="spacing" textLength="569.6699" x="793.1526" y="68.4822">(scaffold client + generated Desktop / Android apps)</text></g><!--cluster Client--><g class="cluster" data-qualified-name="Client" data-source-line="9" id="ent0002"><rect fill="#E8F4FD" height="268.27" rx="4" ry="4" style="stroke:#000000;stroke-width:1;" width="696" x="1166" y="92.9282"/><text fill="#000000" font-family="Verdana" font-size="14" font-weight="bold" lengthAdjust="spacing" textLength="148.0494" x="1439.9753" y="109.8941">Nexus Scaffold Client</text><text fill="#000000" font-family="Verdana" font-size="14" font-weight="bold" lengthAdjust="spacing" textLength="219.0151" x="1404.4924" y="128.9621">(Compose Desktop &#8212; this repo)</text></g><!--cluster GenPipe--><g class="cluster" data-qualified-name="GenPipe" data-source-line="16" id="ent0007"><rect fill="#FFF3E0" height="268.27" rx="4" ry="4" style="stroke:#000000;stroke-width:1;" width="256" x="886" y="92.9282"/><text fill="#000000" font-family="Verdana" font-size="14" font-weight="bold" lengthAdjust="spacing" textLength="138.4035" x="944.7983" y="109.8941">Generation pipeline</text><text fill="#000000" font-family="Verdana" font-size="14" font-weight="bold" lengthAdjust="spacing" textLength="146.7475" x="940.6263" y="128.9621">(misc/core + misc/cli)</text></g><!--cluster Authoring--><g class="cluster" data-qualified-name="Authoring" data-source-line="21" id="ent0010"><rect fill="#FFF8E1" height="289.25" rx="4" ry="4" style="stroke:#000000;stroke-width:1;" width="522" x="1099" y="420.1982"/><text fill="#000000" font-family="Verdana" font-size="14" font-weight="bold" lengthAdjust="spacing" textLength="109.9136" x="1305.0432" y="437.1641">Authoring layer</text><text fill="#000000" font-family="Verdana" font-size="14" font-weight="bold" lengthAdjust="spacing" textLength="168.2094" x="1275.8953" y="456.2321">(generated project files)</text></g><!--cluster Scripting--><g class="cluster" data-qualified-name="Scripting" data-source-line="27" id="ent0014"><rect fill="#E8F5E9" height="308.27" rx="4" ry="4" style="stroke:#000000;stroke-width:1;" width="182" x="1506" y="768.4482"/><text fill="#000000" font-family="Verdana" font-size="14" font-weight="bold" lengthAdjust="spacing" textLength="101.2476" x="1546.3762" y="785.4141">Scripting layer</text></g><!--cluster Core--><g class="cluster" data-qualified-name="Core" data-source-line="32" id="ent0017"><rect fill="#F3E5F5" height="475.94" rx="4" ry="4" style="stroke:#000000;stroke-width:1;" width="448" x="1026" y="937.5882"/><text fill="#000000" font-family="Verdana" font-size="14" font-weight="bold" lengthAdjust="spacing" textLength="111.8035" x="1194.0982" y="954.5541">C++ core &#8212; MVC</text><text fill="#000000" font-family="Verdana" font-size="14" font-weight="bold" lengthAdjust="spacing" textLength="26.3199" x="1236.84" y="973.6221">src/</text></g><!--cluster Render--><g class="cluster" data-qualified-name="Render" data-source-line="38" id="ent0021"><rect fill="#ECEFF1" height="276.8" rx="4" ry="4" style="stroke:#000000;stroke-width:1;" width="252" x="1506" y="1283.8582"/><text fill="#000000" font-family="Verdana" font-size="14" font-weight="bold" lengthAdjust="spacing" textLength="72.2397" x="1595.8801" y="1300.8241">Rendering</text></g><!--cluster Python--><g class="cluster" data-qualified-name="Python" data-source-line="43" id="ent0024"><rect fill="#FFF3E0" height="112.13" rx="4" ry="4" style="stroke:#000000;stroke-width:1;" width="742" x="12" y="1283.8582"/><text fill="#000000" font-family="Verdana" font-size="14" font-weight="bold" lengthAdjust="spacing" textLength="132.6775" x="316.6613" y="1300.8241">Python integration</text></g><!--cluster Desktop--><g class="cluster" data-qualified-name="Desktop" data-source-line="49" id="ent0028"><rect fill="#E3F2FD" height="131.14" rx="4" ry="4" style="stroke:#000000;stroke-width:1;" width="188" x="1535" y="1611.6582"/><text fill="#000000" font-family="Verdana" font-size="14" font-weight="bold" lengthAdjust="spacing" textLength="105.6296" x="1576.1852" y="1628.6241">Desktop target</text><text fill="#000000" font-family="Verdana" font-size="14" font-weight="bold" lengthAdjust="spacing" textLength="135.6035" x="1561.1983" y="1647.6921">Win &#183; macOS &#183; Linux</text></g><!--cluster Android--><g class="cluster" data-qualified-name="Android" data-source-line="53" id="ent0030"><rect fill="#FCE4EC" height="477.94" rx="4" ry="4" style="stroke:#000000;stroke-width:1;" width="216" x="778" y="1264.8582"/><text fill="#000000" font-family="Verdana" font-size="14" font-weight="bold" lengthAdjust="spacing" textLength="103.3196" x="834.3402" y="1281.8241">Android target</text><text fill="#000000" font-family="Verdana" font-size="14" font-weight="bold" lengthAdjust="spacing" textLength="71.6937" x="850.1531" y="1300.8921">APK / NDK</text></g><!--entity ClientView--><g class="entity" data-qualified-name="Client.ClientView" data-source-line="10" id="ent0003"><rect fill="#D6EAF8" height="58.1358" rx="4" ry="4" style="stroke:#000000;stroke-width:1;" width="180.3554" x="1428.82" y="149.9282"/><text fill="#000000" font-family="Verdana" font-size="14" lengthAdjust="spacing" textLength="30.9119" x="1438.82" y="174.8941">View</text><text fill="#000000" font-family="Verdana" font-size="14" lengthAdjust="spacing" textLength="160.3554" x="1438.82" y="193.9621">Compose UI + @Preview</text></g><!--entity ClientCtrl--><g class="entity" data-qualified-name="Client.ClientCtrl" data-source-line="11" id="ent0004"><rect fill="#D6EAF8" height="58.1358" rx="4" ry="4" style="stroke:#000000;stroke-width:1;" width="201.8593" x="1644.07" y="149.9282"/><text fill="#000000" font-family="Verdana" font-size="14" lengthAdjust="spacing" textLength="66.1777" x="1654.07" y="174.8941">Controller</text><text fill="#000000" font-family="Verdana" font-size="14" lengthAdjust="spacing" textLength="181.8593" x="1654.07" y="193.9621">GenerateController, actions</text></g><!--entity ClientModel--><g class="entity" data-qualified-name="Client.ClientModel" data-source-line="12" id="ent0005"><rect fill="#D6EAF8" height="58.1358" rx="4" ry="4" style="stroke:#000000;stroke-width:1;" width="127.6736" x="1455.16" y="287.0582"/><text fill="#000000" font-family="Verdana" font-size="14" lengthAdjust="spacing" textLength="41.2858" x="1465.16" y="312.0241">Model</text><text fill="#000000" font-family="Verdana" font-size="14" lengthAdjust="spacing" textLength="107.6736" x="1465.16" y="331.0921">immutable state</text></g><!--entity Wizard--><g class="entity" data-qualified-name="Client.Wizard" data-source-line="13" id="ent0006"><rect fill="#B8DAFF" height="58.1358" rx="4" ry="4" style="stroke:#000000;stroke-width:1;" width="211.0992" x="1182.45" y="149.9282"/><text fill="#000000" font-family="Verdana" font-size="14" lengthAdjust="spacing" textLength="158.1574" x="1192.45" y="174.8941">Generate Project screen</text><text fill="#000000" font-family="Verdana" font-size="14" lengthAdjust="spacing" textLength="191.0992" x="1192.45" y="193.9621">(v1: 6-step wizard + imnodes)</text></g><!--entity CoreGen--><g class="entity" data-qualified-name="GenPipe.CoreGen" data-source-line="17" id="ent0008"><rect fill="#FFE0B2" height="58.1358" rx="4" ry="4" style="stroke:#000000;stroke-width:1;" width="223.0132" x="902.49" y="287.0582"/><text fill="#000000" font-family="Verdana" font-size="14" lengthAdjust="spacing" textLength="149.8414" x="912.49" y="312.0241">:core ProjectGenerator</text><text fill="#000000" font-family="Verdana" font-size="14" lengthAdjust="spacing" textLength="203.0132" x="912.49" y="331.0921">TemplateEngine, nxs_config v2</text></g><!--entity CliGen--><g class="entity" data-qualified-name="GenPipe.CliGen" data-source-line="18" id="ent0009"><rect fill="#FFCC80" height="58.1358" rx="4" ry="4" style="stroke:#000000;stroke-width:1;" width="191.8073" x="918.1" y="149.9282"/><text fill="#000000" font-family="Verdana" font-size="14" lengthAdjust="spacing" textLength="80.9757" x="928.1" y="174.8941">:cli generate</text><text fill="#000000" font-family="Verdana" font-size="14" lengthAdjust="spacing" textLength="171.8073" x="928.1" y="193.9621">headless + Docker/Jenkins</text></g><!--entity TSX--><g class="entity" data-qualified-name="Authoring.TSX" data-source-line="22" id="ent0011"><rect fill="#FFECB3" height="58.1358" rx="4" ry="4" style="stroke:#000000;stroke-width:1;" width="179.4594" x="1417.27" y="627.3182"/><text fill="#000000" font-family="Verdana" font-size="14" lengthAdjust="spacing" textLength="159.4594" x="1427.27" y="652.2841">TypeScript + XHTML DSL</text><text fill="#000000" font-family="Verdana" font-size="14" lengthAdjust="spacing" textLength="127.5815" x="1427.27" y="671.3521">ui/ui.ts &#183; ui/ui.xhtml</text></g><!--entity Blueprint--><g class="entity" data-qualified-name="Authoring.Blueprint" data-source-line="23" id="ent0012"><rect fill="#FFECB3" height="58.1358" rx="4" ry="4" style="stroke:#000000;stroke-width:1;" width="227.9412" x="1142.03" y="485.1982"/><text fill="#000000" font-family="Verdana" font-size="14" lengthAdjust="spacing" textLength="91.6716" x="1152.03" y="510.1641">blueprint.json</text><text fill="#000000" font-family="Verdana" font-size="14" lengthAdjust="spacing" textLength="207.9412" x="1152.03" y="529.2321">imnodes / Langflow-style graph</text></g><!--entity SharedDSL--><g class="entity" data-qualified-name="Authoring.SharedDSL" data-source-line="24" id="ent0013"><rect fill="#FFECB3" height="58.1358" rx="4" ry="4" style="stroke:#000000;stroke-width:1;" width="192.2413" x="1404.88" y="485.1982"/><text fill="#000000" font-family="Verdana" font-size="14" lengthAdjust="spacing" textLength="139.1175" x="1414.88" y="510.1641">template/shared/dsl/</text><text fill="#000000" font-family="Verdana" font-size="14" lengthAdjust="spacing" textLength="172.2413" x="1414.88" y="529.2321">Component, tags, widgets</text></g><!--entity Lua--><g class="entity" data-qualified-name="Scripting.Lua" data-source-line="28" id="ent0015"><rect fill="#C8E6C9" height="58.1358" rx="4" ry="4" style="stroke:#000000;stroke-width:1;" width="140.0635" x="1526.97" y="806.4482"/><text fill="#000000" font-family="Verdana" font-size="14" lengthAdjust="spacing" textLength="120.0635" x="1536.97" y="831.4141">Lua 5.4 ImGui DSL</text><text fill="#000000" font-family="Verdana" font-size="14" lengthAdjust="spacing" textLength="115.5976" x="1536.97" y="850.4821">scripts/panels.lua</text></g><!--entity Sol2--><g class="entity" data-qualified-name="Scripting.Sol2" data-source-line="29" id="ent0016"><rect fill="#A5D6A7" height="58.1358" rx="4" ry="4" style="stroke:#000000;stroke-width:1;" width="149.6815" x="1522.16" y="1002.5882"/><text fill="#000000" font-family="Verdana" font-size="14" lengthAdjust="spacing" textLength="87.4997" x="1532.16" y="1027.5541">sol2 bindings</text><text fill="#000000" font-family="Verdana" font-size="14" lengthAdjust="spacing" textLength="129.6815" x="1532.16" y="1046.6221">nxs &#183; ui &#183; keys tables</text></g><!--entity Model--><g class="entity" data-qualified-name="Core.Model" data-source-line="33" id="ent0018"><rect fill="#E1BEE7" height="58.1358" rx="4" ry="4" style="stroke:#000000;stroke-width:1;" width="182.5254" x="1108.74" y="1002.5882"/><text fill="#000000" font-family="Verdana" font-size="14" lengthAdjust="spacing" textLength="46.8858" x="1118.74" y="1027.5541">model/</text><text fill="#000000" font-family="Verdana" font-size="14" lengthAdjust="spacing" textLength="162.5254" x="1118.74" y="1046.6221">FunctionRegistry, caches</text></g><!--entity Controller--><g class="entity" data-qualified-name="Core.Controller" data-source-line="34" id="ent0019"><rect fill="#CE93D8" height="58.1358" rx="4" ry="4" style="stroke:#000000;stroke-width:1;" width="192.3674" x="1057.82" y="1141.7182"/><text fill="#000000" font-family="Verdana" font-size="14" lengthAdjust="spacing" textLength="69.2577" x="1067.82" y="1166.6841">controller/</text><text fill="#000000" font-family="Verdana" font-size="14" lengthAdjust="spacing" textLength="172.3674" x="1067.82" y="1185.7521">PlotController, commands</text></g><!--entity View--><g class="entity" data-qualified-name="Core.View" data-source-line="35" id="ent0020"><rect fill="#BA68C8" height="77.2038" rx="4" ry="4" style="stroke:#000000;stroke-width:1;" width="169.6734" x="1280.16" y="1312.3182"/><text fill="#000000" font-family="Verdana" font-size="14" lengthAdjust="spacing" textLength="34.8318" x="1290.16" y="1337.2841">view/</text><text fill="#000000" font-family="Verdana" font-size="14" lengthAdjust="spacing" textLength="149.6734" x="1290.16" y="1356.3521">PlotterView, LuaPanels</text><text fill="#000000" font-family="Verdana" font-size="14" lengthAdjust="spacing" textLength="99.0216" x="1290.16" y="1375.42">ImGui + ImPlot</text></g><!--entity ImGui--><g class="entity" data-qualified-name="Render.ImGui" data-source-line="39" id="ent0022"><rect fill="#CFD8DC" height="58.1358" rx="4" ry="4" style="stroke:#000000;stroke-width:1;" width="220.1712" x="1521.91" y="1321.8582"/><text fill="#000000" font-family="Verdana" font-size="14" lengthAdjust="spacing" textLength="134.4135" x="1531.91" y="1346.8241">Dear ImGui + ImPlot</text><text fill="#000000" font-family="Verdana" font-size="14" lengthAdjust="spacing" textLength="200.1712" x="1531.91" y="1365.8921">(+ imnodes in blueprint editor)</text></g><!--entity SDL--><g class="entity" data-qualified-name="Render.SDL" data-source-line="40" id="ent0023"><rect fill="#B0BEC5" height="58.1358" rx="4" ry="4" style="stroke:#000000;stroke-width:1;" width="209.7832" x="1524.11" y="1486.5282"/><text fill="#000000" font-family="Verdana" font-size="14" lengthAdjust="spacing" textLength="33.2499" x="1534.11" y="1511.4941">SDL3</text><text fill="#000000" font-family="Verdana" font-size="14" lengthAdjust="spacing" textLength="189.7832" x="1534.11" y="1530.5621">window &#183; input &#183; GPU context</text></g><!--entity PyDesktop--><g class="entity" data-qualified-name="Python.PyDesktop" data-source-line="44" id="ent0025"><rect fill="#FFE0B2" height="58.1358" rx="4" ry="4" style="stroke:#000000;stroke-width:1;" width="255.2971" x="283.35" y="1321.8582"/><text fill="#000000" font-family="Verdana" font-size="14" lengthAdjust="spacing" textLength="172.8153" x="293.35" y="1346.8241">Desktop: pybind11 embed</text><text fill="#000000" font-family="Verdana" font-size="14" lengthAdjust="spacing" textLength="235.2971" x="293.35" y="1365.8921">PythonEngine &#183; python/functions.py</text></g><!--entity PyAndroid--><g class="entity" data-qualified-name="Python.PyAndroid" data-source-line="45" id="ent0026"><rect fill="#FFCC80" height="58.1358" rx="4" ry="4" style="stroke:#000000;stroke-width:1;" width="164.8994" x="573.55" y="1321.8582"/><text fill="#000000" font-family="Verdana" font-size="14" lengthAdjust="spacing" textLength="126.9095" x="583.55" y="1346.8241">Android: Chaquopy</text><text fill="#000000" font-family="Verdana" font-size="14" lengthAdjust="spacing" textLength="144.8994" x="583.55" y="1365.8921">app/src/main/python/</text></g><!--entity DatPack--><g class="entity" data-qualified-name="Python.DatPack" data-source-line="46" id="ent0027"><rect fill="#FFD54F" height="58.1358" rx="4" ry="4" style="stroke:#000000;stroke-width:1;" width="220.3112" x="27.84" y="1321.8582"/><text fill="#000000" font-family="Verdana" font-size="14" lengthAdjust="spacing" textLength="200.3112" x="37.84" y="1346.8241">Roadmap: python.dat / lua.dat</text><text fill="#000000" font-family="Verdana" font-size="14" lengthAdjust="spacing" textLength="183.1613" x="37.84" y="1365.8921">packed bytecode protection</text></g><!--entity DeskBin--><g class="entity" data-qualified-name="Desktop.DeskBin" data-source-line="50" id="ent0029"><rect fill="#BBDEFB" height="58.1358" rx="4" ry="4" style="stroke:#000000;stroke-width:1;" width="156.1354" x="1550.93" y="1668.6582"/><text fill="#000000" font-family="Verdana" font-size="14" lengthAdjust="spacing" textLength="87.4577" x="1560.93" y="1693.6241">Native binary</text><text fill="#000000" font-family="Verdana" font-size="14" lengthAdjust="spacing" textLength="136.1354" x="1560.93" y="1712.6921">OpenGL 3.3 via SDL3</text></g><!--entity Djinni--><g class="entity" data-qualified-name="Android.Djinni" data-source-line="54" id="ent0031"><rect fill="#F8BBD0" height="58.1358" rx="4" ry="4" style="stroke:#000000;stroke-width:1;" width="146.9375" x="812.53" y="1321.8582"/><text fill="#000000" font-family="Verdana" font-size="14" lengthAdjust="spacing" textLength="111.0616" x="822.53" y="1346.8241">Djinni IDL bridge</text><text fill="#000000" font-family="Verdana" font-size="14" lengthAdjust="spacing" textLength="126.9375" x="822.53" y="1365.8921">djinni/plotter.djinni</text></g><!--entity Kotlin--><g class="entity" data-qualified-name="Android.Kotlin" data-source-line="55" id="ent0032"><rect fill="#F48FB1" height="58.1358" rx="4" ry="4" style="stroke:#000000;stroke-width:1;" width="183.5894" x="794.21" y="1486.5282"/><text fill="#000000" font-family="Verdana" font-size="14" lengthAdjust="spacing" textLength="107.9956" x="804.21" y="1511.4941">Kotlin / JVM host</text><text fill="#000000" font-family="Verdana" font-size="14" lengthAdjust="spacing" textLength="163.5894" x="804.21" y="1530.5621">MainActivity &#183; SDLActivity</text></g><!--entity GLES--><g class="entity" data-qualified-name="Android.GLES" data-source-line="56" id="ent0033"><rect fill="#F06292" height="58.1358" rx="4" ry="4" style="stroke:#000000;stroke-width:1;" width="151.2915" x="822.35" y="1668.6582"/><text fill="#000000" font-family="Verdana" font-size="14" lengthAdjust="spacing" textLength="69.8877" x="832.35" y="1693.6241">SDL3 GLES</text><text fill="#000000" font-family="Verdana" font-size="14" lengthAdjust="spacing" textLength="131.2915" x="832.35" y="1712.6921">full-screen native UI</text></g><g class="entity" data-qualified-name="GMN61" data-source-line="91" id="ent0062"><path d="M1644.8,628.8182 L1644.8,652.3782 L1597.21,656.3782 L1644.8,660.3782 L1644.8,683.9363 A4,4 0 0 0 1648.8,687.9363 L1859.2052,687.9363 A4,4 0 0 0 1863.2052,683.9363 L1863.2052,634.8182 L1853.2052,624.8182 L1648.8,624.8182 A4,4 0 0 0 1644.8,628.8182" fill="#FFFFFF" style="stroke:#000000;stroke-width:1;"/><path d="M1853.2052,624.8182 L1853.2052,632.8182 A2,2 0 0 0 1855.2052,634.8182 L1863.2052,634.8182 L1853.2052,624.8182" fill="#FFFFFF" style="stroke:#000000;stroke-width:1;"/><text fill="#000000" font-family="Verdana" font-size="13" lengthAdjust="spacing" textLength="197.4052" x="1650.8" y="643.7152">Web-familiar component model.</text><text fill="#000000" font-family="Verdana" font-size="13" lengthAdjust="spacing" textLength="188.9812" x="1650.8" y="661.4212">No browser engine &#8212; each tag</text><text fill="#000000" font-family="Verdana" font-size="13" lengthAdjust="spacing" textLength="190.2162" x="1650.8" y="679.1272">maps to a native ImGui widget.</text></g><g class="entity" data-qualified-name="GMN64" data-source-line="97" id="ent0065"><path d="M1645.15,486.7082 L1645.15,541.8263 A4,4 0 0 0 1649.15,545.8263 L1864.8462,545.8263 A4,4 0 0 0 1868.8462,541.8263 L1868.8462,492.7082 L1858.8462,482.7082 L1649.15,482.7082 A4,4 0 0 0 1645.15,486.7082" fill="#FFFFFF" style="stroke:#000000;stroke-width:1;"/><path d="M1858.8462,482.7082 L1858.8462,490.7082 A2,2 0 0 0 1860.8462,492.7082 L1868.8462,492.7082 L1858.8462,482.7082" fill="#FFFFFF" style="stroke:#000000;stroke-width:1;"/><text fill="#000000" font-family="Verdana" font-size="13" lengthAdjust="spacing" textLength="202.6962" x="1651.15" y="501.6052">Authored in wizard imnodes GUI.</text><text fill="#000000" font-family="Verdana" font-size="13" lengthAdjust="spacing" textLength="162.7471" x="1651.15" y="519.3112">Re-open to rewire screens,</text><text fill="#000000" font-family="Verdana" font-size="13" lengthAdjust="spacing" textLength="183.8982" x="1651.15" y="537.0172">Python modules, MVC classes.</text></g><g class="entity" data-qualified-name="GMN67" data-source-line="103" id="ent0068"><path d="M1776.76,1323.3682 L1776.76,1378.4863 A4,4 0 0 0 1780.76,1382.4863 L1965.2432,1382.4863 A4,4 0 0 0 1969.2432,1378.4863 L1969.2432,1329.3682 L1959.2432,1319.3682 L1780.76,1319.3682 A4,4 0 0 0 1776.76,1323.3682" fill="#FFFFFF" style="stroke:#000000;stroke-width:1;"/><path d="M1959.2432,1319.3682 L1959.2432,1327.3682 A2,2 0 0 0 1961.2432,1329.3682 L1969.2432,1329.3682 L1959.2432,1319.3682" fill="#FFFFFF" style="stroke:#000000;stroke-width:1;"/><text fill="#000000" font-family="Verdana" font-size="13" lengthAdjust="spacing" textLength="148.8891" x="1782.76" y="1338.2652">Planned v1: ship logic as</text><text fill="#000000" font-family="Verdana" font-size="13" lengthAdjust="spacing" textLength="171.4832" x="1782.76" y="1355.9712">packed .dat blobs instead of</text><text fill="#000000" font-family="Verdana" font-size="13" lengthAdjust="spacing" textLength="138.5541" x="1782.76" y="1373.6772">loose .py / .lua on disk.</text></g><!--link Wizard to CoreGen--><g class="link" data-entity-1="ent0006" data-entity-2="ent0008" data-link-type="dependency" data-source-line="59" id="lnk34"><path d="M1230.23,208.4882 C1183.59,231.4882 1123.6917,261.0354 1077.0717,284.0154" fill="none" id="Wizard-to-CoreGen" style="stroke:#000000;stroke-width:1;"/><polygon fill="#000000" points="1071.69,286.6682,1081.5311,286.2769,1076.1748,284.4576,1077.9941,279.1012,1071.69,286.6682" style="stroke:#000000;stroke-width:1;"/><text fill="#000000" font-family="Verdana" font-size="13" lengthAdjust="spacing" textLength="46.358" x="1168.4" y="252.9552">invokes</text></g><!--link CliGen to CoreGen--><g class="link" data-entity-1="ent0009" data-entity-2="ent0008" data-link-type="dependency" data-source-line="60" id="lnk35"><path d="M1014,208.3182 C1014,231.3882 1014,257.7782 1014,280.8382" fill="none" id="CliGen-to-CoreGen" style="stroke:#000000;stroke-width:1;"/><polygon fill="#000000" points="1014,286.8382,1018,277.8382,1014,281.8382,1010,277.8382,1014,286.8382" style="stroke:#000000;stroke-width:1;"/><text fill="#000000" font-family="Verdana" font-size="13" lengthAdjust="spacing" textLength="46.358" x="1015" y="252.9552">invokes</text></g><!--link CoreGen to Authoring--><g class="link" data-entity-1="ent0008" data-entity-2="ent0010" data-link-type="dependency" data-source-line="61" id="lnk36"><path d="M1027.52,345.6482 C1040.215,372.4232 1059.6675,413.4457 1076.15,448.2045 C1084.3913,465.5838 1091.89,481.3973 1097.4303,493.0809 C1097.7766,493.8111 1098.1152,494.5252 1098.4459,495.2225 C1098.6112,495.5712 1096.2038,490.4943 1096.3651,490.8345" fill="none" id="CoreGen-to-Authoring" style="stroke:#000000;stroke-width:1;"/><polygon fill="#000000" points="1098.9359,496.2559,1098.694,486.41,1096.7936,491.7381,1091.4655,489.8377,1098.9359,496.2559" style="stroke:#000000;stroke-width:1;"/><text fill="#000000" font-family="Verdana" font-size="13" lengthAdjust="spacing" textLength="96.8241" x="1050.44" y="392.0952">emits template/</text></g><!--link CoreGen to Core--><g class="link" data-entity-1="ent0008" data-entity-2="ent0017" data-link-type="dependency" data-source-line="62" id="lnk37"><path d="M1014,345.3882 C1014,383.4982 1014,453.4982 1014,513.2682 C1014,513.2682 1014,513.2682 1014,836.5182 C1014,879.2082 1018.845,926.9032 1023.7663,964.3357 C1024.3814,969.0148 1024.9978,973.5335 1025.606,977.862 C1025.682,978.4031 1025.7579,978.9412 1025.8337,979.4762 C1025.8715,979.7438 1025.0652,974.0702 1025.103,974.3363" fill="none" id="CoreGen-to-Core" style="stroke:#000000;stroke-width:1;"/><polygon fill="#000000" points="1025.9472,980.2766,1028.6411,970.8033,1025.2437,975.3263,1020.7207,971.9289,1025.9472,980.2766" style="stroke:#000000;stroke-width:1;"/><text fill="#000000" font-family="Verdana" font-size="13" lengthAdjust="spacing" textLength="59.813" x="1015" y="661.7752">emits src/</text></g><!--link Wizard to Blueprint--><g class="link" data-entity-1="ent0006" data-entity-2="ent0012" data-link-type="dependency" data-source-line="64" id="lnk38"><path d="M1285.27,208.4082 C1279.23,271.3682 1265.3335,416.0457 1259.2935,478.9457" fill="none" id="Wizard-to-Blueprint" style="stroke:#000000;stroke-width:1;stroke-dasharray:7,7;"/><polygon fill="#000000" points="1258.72,484.9182,1263.562,476.3418,1259.1979,479.9411,1255.5986,475.5771,1258.72,484.9182" style="stroke:#000000;stroke-width:1;"/><text fill="#000000" font-family="Verdana" font-size="13" lengthAdjust="spacing" textLength="96.7461" x="1278.25" y="321.5252">edits (roadmap)</text></g><!--link TSX to Lua--><g class="link" data-entity-1="ent0011" data-entity-2="ent0015" data-link-type="dependency" data-source-line="65" id="lnk39"><path d="M1521.46,685.8382 C1538.26,718.8982 1563.0824,767.7489 1579.8624,800.7789" fill="none" id="TSX-to-Lua" style="stroke:#000000;stroke-width:1;"/><polygon fill="#000000" points="1582.58,806.1282,1582.0699,796.2926,1580.3154,801.6705,1574.9375,799.916,1582.58,806.1282" style="stroke:#000000;stroke-width:1;"/><text fill="#000000" font-family="Verdana" font-size="13" lengthAdjust="spacing" textLength="56.303" x="1555.7" y="748.3452">lowers to</text></g><!--link Blueprint to Lua--><g class="link" data-entity-1="ent0012" data-entity-2="ent0015" data-link-type="dependency" data-source-line="66" id="lnk40"><path d="M1370.18,542.5682 C1375.86,543.7182 1381.49,544.8082 1387,545.8182 C1496.34,565.9482 1809.67,539.5482 1881,624.8182 C1909.69,659.1282 1906.33,688.5882 1881,725.4482 C1833.29,794.8782 1740.7353,819.3195 1673.2453,828.4995" fill="none" id="Blueprint-to-Lua" style="stroke:#000000;stroke-width:1;"/><polygon fill="#000000" points="1667.3,829.3082,1676.757,832.0587,1672.2544,828.6343,1675.6788,824.1317,1667.3,829.3082" style="stroke:#000000;stroke-width:1;"/><text fill="#000000" font-family="Verdana" font-size="13" lengthAdjust="spacing" textLength="76.1151" x="1902.28" y="661.7752">wires panels</text></g><!--link SharedDSL to TSX--><g class="link" data-entity-1="ent0013" data-entity-2="ent0011" data-link-type="dependency" data-source-line="67" id="lnk41"><path d="M1502.21,543.6182 C1503.26,567.9282 1504.4934,596.7737 1505.5334,621.0737" fill="none" id="SharedDSL-to-TSX" style="stroke:#000000;stroke-width:1;"/><polygon fill="#000000" points="1505.79,627.0682,1509.4015,617.9054,1505.5762,622.0728,1501.4088,618.2475,1505.79,627.0682" style="stroke:#000000;stroke-width:1;"/><text fill="#000000" font-family="Verdana" font-size="13" lengthAdjust="spacing" textLength="94.8871" x="1505.36" y="590.7152">types + widgets</text></g><!--link Blueprint to Model--><g class="link" data-entity-1="ent0012" data-entity-2="ent0018" data-link-type="dependency" data-source-line="68" id="lnk42"><path d="M1251.42,543.7882 C1244.85,585.3982 1232.71,665.2082 1225,733.4482 C1213.87,831.9782 1205.8027,943.4217 1202.2427,996.3417" fill="none" id="Blueprint-to-Model" style="stroke:#000000;stroke-width:1;"/><polygon fill="#000000" points="1201.84,1002.3282,1206.4351,993.617,1202.1756,997.3395,1198.4531,993.08,1201.84,1002.3282" style="stroke:#000000;stroke-width:1;"/><text fill="#000000" font-family="Verdana" font-size="13" lengthAdjust="spacing" textLength="91.9751" x="1226" y="748.3452">declares nodes</text></g><!--link Blueprint to Controller--><g class="link" data-entity-1="ent0012" data-entity-2="ent0019" data-link-type="dependency" data-source-line="69" id="lnk43"><path d="M1287.27,543.7182 C1312.57,569.9682 1344,611.4282 1344,655.3782 C1344,655.3782 1344,655.3782 1344,1032.6482 C1344,1085.5382 1300.4936,1117.6657 1252.2636,1138.8457" fill="none" id="Blueprint-to-Controller" style="stroke:#000000;stroke-width:1;"/><polygon fill="#000000" points="1246.77,1141.2582,1256.6188,1141.3019,1251.348,1139.2478,1253.4021,1133.977,1246.77,1141.2582" style="stroke:#000000;stroke-width:1;"/><text fill="#000000" font-family="Verdana" font-size="13" lengthAdjust="spacing" textLength="91.9751" x="1345" y="840.9152">declares nodes</text></g><!--link Blueprint to View--><g class="link" data-entity-1="ent0012" data-entity-2="ent0020" data-link-type="dependency" data-source-line="70" id="lnk44"><path d="M1370.46,543.0882 C1376.04,544.0882 1381.57,545.0082 1387,545.8182 C1537.73,568.3282 2064,502.9782 2064,655.3782 C2064,655.3782 2064,655.3782 2064,1171.7882 C2064,1297.2182 1623.06,1211.8082 1506,1256.8582 C1471.92,1269.9682 1442.4525,1288.755 1416.2225,1308.285" fill="none" id="Blueprint-to-View" style="stroke:#000000;stroke-width:1;"/><polygon fill="#000000" points="1411.41,1311.8682,1421.0176,1309.7017,1415.4204,1308.8822,1416.24,1303.285,1411.41,1311.8682" style="stroke:#000000;stroke-width:1;"/><text fill="#000000" font-family="Verdana" font-size="13" lengthAdjust="spacing" textLength="91.9751" x="2065" y="909.4852">declares nodes</text></g><!--link Lua to Sol2--><g class="link" data-entity-1="ent0015" data-entity-2="ent0016" data-link-type="dependency" data-source-line="72" id="lnk45"><path d="M1597,864.7482 C1597,901.5482 1597,959.5682 1597,996.3882" fill="none" id="Lua-to-Sol2" style="stroke:#000000;stroke-width:1;"/><polygon fill="#000000" points="1597,1002.3882,1601,993.3882,1597,997.3882,1593,993.3882,1597,1002.3882" style="stroke:#000000;stroke-width:1;"/></g><!--link Sol2 to Controller--><g class="link" data-entity-1="ent0016" data-entity-2="ent0019" data-link-type="dependency" data-source-line="73" id="lnk46"><path d="M1529.17,1061.1682 C1509,1069.2282 1486.75,1077.6982 1466,1084.7182 C1394.74,1108.8282 1318.4079,1129.5413 1256.2979,1145.2013" fill="none" id="Sol2-to-Controller" style="stroke:#000000;stroke-width:1;"/><polygon fill="#000000" points="1250.48,1146.6682,1260.1848,1148.3465,1255.3283,1145.4458,1258.229,1140.5893,1250.48,1146.6682" style="stroke:#000000;stroke-width:1;"/><text fill="#000000" font-family="Verdana" font-size="13" lengthAdjust="spacing" textLength="67.9641" x="1442.11" y="1107.6152">commands</text></g><!--link Sol2 to View--><g class="link" data-entity-1="ent0016" data-entity-2="ent0020" data-link-type="dependency" data-source-line="74" id="lnk47"><path d="M1576.21,1061.0882 C1534.33,1118.3582 1443.3714,1242.7448 1396.2914,1307.1348" fill="none" id="Sol2-to-View" style="stroke:#000000;stroke-width:1;"/><polygon fill="#000000" points="1392.75,1311.9782,1401.291,1307.074,1395.7011,1307.942,1394.8331,1302.3522,1392.75,1311.9782" style="stroke:#000000;stroke-width:1;"/><text fill="#000000" font-family="Verdana" font-size="13" lengthAdjust="spacing" textLength="146.7701" x="1516.34" y="1176.1852">register_panel / hotkeys</text></g><!--link Controller to View--><g class="link" data-entity-1="ent0019" data-entity-2="ent0020" data-link-type="dependency" data-source-line="75" id="lnk48"><path d="M1187.43,1200.0182 C1223.22,1230.2282 1275.6258,1274.4671 1315.3558,1308.0171" fill="none" id="Controller-to-View" style="stroke:#000000;stroke-width:1;"/><polygon fill="#000000" points="1319.94,1311.8882,1315.6445,1303.0254,1316.1199,1308.6623,1310.483,1309.1377,1319.94,1311.8882" style="stroke:#000000;stroke-width:1;"/><text fill="#000000" font-family="Verdana" font-size="13" lengthAdjust="spacing" textLength="48.5551" x="1241.6" y="1244.7552">settings</text></g><!--link Model to Controller--><g class="link" data-entity-1="ent0018" data-entity-2="ent0019" data-link-type="dependency" data-source-line="76" id="lnk49"><path d="M1190.47,1061.0682 C1182.57,1084.6082 1173.3182,1112.1997 1165.4282,1135.7197" fill="none" id="Model-to-Controller" style="stroke:#000000;stroke-width:1;"/><polygon fill="#000000" points="1163.52,1141.4082,1170.1747,1134.1477,1165.1102,1136.6678,1162.5901,1131.6033,1163.52,1141.4082" style="stroke:#000000;stroke-width:1;"/><text fill="#000000" font-family="Verdana" font-size="13" lengthAdjust="spacing" textLength="88.0881" x="1180.75" y="1107.6152">update caches</text></g><!--link Model to View--><g class="link" data-entity-1="ent0018" data-entity-2="ent0020" data-link-type="dependency" data-source-line="77" id="lnk50"><path d="M1246.2,1061.1182 C1257.85,1070.0582 1269.46,1080.7582 1278,1092.7182 C1326.78,1160.9982 1348.7251,1252.7617 1358.2251,1305.9517" fill="none" id="Model-to-View" style="stroke:#000000;stroke-width:1;"/><polygon fill="#000000" points="1359.28,1311.8582,1361.6353,1302.2951,1358.4009,1306.9361,1353.7599,1303.7017,1359.28,1311.8582" style="stroke:#000000;stroke-width:1;"/><text fill="#000000" font-family="Verdana" font-size="13" lengthAdjust="spacing" textLength="128.8951" x="1331.43" y="1176.1852">activeCurves, catalog</text></g><!--link View to ImGui--><g class="link" data-entity-1="ent0020" data-entity-2="ent0022" data-link-type="dependency" data-source-line="78" id="lnk51"><path d="M1450.26,1350.9282 C1474.04,1350.9282 1491.83,1350.9282 1515.61,1350.9282" fill="none" id="View-to-ImGui" style="stroke:#000000;stroke-width:1;"/><polygon fill="#000000" points="1521.61,1350.9282,1512.61,1346.9282,1516.61,1350.9282,1512.61,1354.9282,1521.61,1350.9282" style="stroke:#000000;stroke-width:1;"/></g><!--link ImGui to SDL--><g class="link" data-entity-1="ent0022" data-entity-2="ent0023" data-link-type="dependency" data-source-line="79" id="lnk52"><path d="M1631.48,1380.2582 C1630.93,1409.9382 1630.1909,1450.2792 1629.6409,1480.0392" fill="none" id="ImGui-to-SDL" style="stroke:#000000;stroke-width:1;"/><polygon fill="#000000" points="1629.53,1486.0382,1633.6956,1477.1137,1629.6224,1481.0391,1625.697,1476.9658,1629.53,1486.0382" style="stroke:#000000;stroke-width:1;"/></g><!--link Controller to PyDesktop--><g class="link" data-entity-1="ent0019" data-entity-2="ent0025" data-link-type="dependency" data-source-line="81" id="lnk53"><path d="M1057.67,1186.9282 C952.3,1203.2582 778.35,1229.4982 628,1248.8582 C596.07,1252.9682 586.35,1246.0982 556,1256.8582 C514.7,1271.4982 477.929,1296.1912 449.969,1317.7812" fill="none" id="Controller-to-PyDesktop" style="stroke:#000000;stroke-width:1;"/><polygon fill="#000000" points="445.22,1321.4482,454.7882,1319.1136,449.1775,1318.3923,449.8988,1312.7817,445.22,1321.4482" style="stroke:#000000;stroke-width:1;"/><text fill="#000000" font-family="Verdana" font-size="13" lengthAdjust="spacing" textLength="120.7181" x="759.08" y="1244.7552">evaluate() [desktop]</text></g><!--link PyDesktop to Controller--><g class="link" data-entity-1="ent0025" data-entity-2="ent0019" data-link-type="dependency" data-source-line="82" id="lnk54"><path d="M432.33,1321.4582 C455.57,1292.8482 495.56,1250.1582 541,1229.8582 C630.86,1189.7182 902.562,1177.4321 1051.422,1173.6121" fill="none" id="PyDesktop-to-Controller" style="stroke:#000000;stroke-width:1;"/><polygon fill="#000000" points="1057.42,1173.4582,1048.3203,1169.6904,1052.4216,1173.5865,1048.5256,1177.6878,1057.42,1173.4582" style="stroke:#000000;stroke-width:1;"/><text fill="#000000" font-family="Verdana" font-size="13" lengthAdjust="spacing" textLength="77.0251" x="542" y="1244.7552">numpy xs/ys</text></g><!--link Controller to Djinni--><g class="link" data-entity-1="ent0019" data-entity-2="ent0031" data-link-type="dependency" data-source-line="83" id="lnk55"><path d="M1111.24,1200.2082 C1061.14,1233.5082 983.6371,1285.0272 933.6071,1318.2772" fill="none" id="Controller-to-Djinni" style="stroke:#000000;stroke-width:1;"/><polygon fill="#000000" points="928.61,1321.5982,938.3196,1319.948,932.7742,1318.8307,933.8916,1313.2853,928.61,1321.5982" style="stroke:#000000;stroke-width:1;"/><text fill="#000000" font-family="Verdana" font-size="13" lengthAdjust="spacing" textLength="119.5741" x="1060.66" y="1244.7552">evaluate() [android]</text></g><!--link Djinni to PyAndroid--><g class="link" data-entity-1="ent0031" data-entity-2="ent0026" data-link-type="dependency" data-source-line="84" id="lnk56"><path d="M812.04,1350.9282 C787.58,1350.9282 769.12,1350.9282 744.66,1350.9282" fill="none" id="Djinni-to-PyAndroid" style="stroke:#000000;stroke-width:1;"/><polygon fill="#000000" points="738.66,1350.9282,747.66,1354.9282,743.66,1350.9282,747.66,1346.9282,738.66,1350.9282" style="stroke:#000000;stroke-width:1;"/></g><!--link Djinni to Kotlin--><g class="link" data-entity-1="ent0031" data-entity-2="ent0032" data-link-type="dependency" data-source-line="85" id="lnk57"><path d="M886,1380.2582 C886,1409.9382 886,1450.2782 886,1480.0382" fill="none" id="Djinni-to-Kotlin" style="stroke:#000000;stroke-width:1;"/><polygon fill="#000000" points="886,1486.0382,890,1477.0382,886,1481.0382,882,1477.0382,886,1486.0382" style="stroke:#000000;stroke-width:1;"/><text fill="#000000" font-family="Verdana" font-size="13" lengthAdjust="spacing" textLength="63.8806" x="887" y="1452.4252">C++ &#8596; JVM</text></g><!--link SDL to DeskBin--><g class="link" data-entity-1="ent0023" data-entity-2="ent0029" data-link-type="dependency" data-source-line="86" id="lnk58"><path d="M1629,1545.1382 C1629,1578.8682 1629,1628.6482 1629,1662.3182" fill="none" id="SDL-to-DeskBin" style="stroke:#000000;stroke-width:1;"/><polygon fill="#000000" points="1629,1668.3182,1633,1659.3182,1629,1663.3182,1625,1659.3182,1629,1668.3182" style="stroke:#000000;stroke-width:1;"/><text fill="#000000" font-family="Verdana" font-size="13" lengthAdjust="spacing" textLength="83.1611" x="1630" y="1591.5552">desktop build</text></g><!--link SDL to GLES--><g class="link" data-entity-1="ent0023" data-entity-2="ent0033" data-link-type="dependency" data-source-line="87" id="lnk59"><path d="M1523.88,1542.4982 C1374.73,1579.2482 1111.1057,1644.2126 979.8257,1676.5626" fill="none" id="SDL-to-GLES" style="stroke:#000000;stroke-width:1;"/><polygon fill="#000000" points="974,1677.9982,983.6956,1679.7287,978.8548,1676.8019,981.7815,1671.961,974,1677.9982" style="stroke:#000000;stroke-width:1;"/><text fill="#000000" font-family="Verdana" font-size="13" lengthAdjust="spacing" textLength="79.7161" x="1372.69" y="1591.5552">Android NDK</text></g><!--link Kotlin to GLES--><g class="link" data-entity-1="ent0032" data-entity-2="ent0033" data-link-type="dependency" data-source-line="88" id="lnk60"><path d="M887.9,1545.1382 C890.15,1578.8682 893.4599,1628.6616 895.7099,1662.3316" fill="none" id="Kotlin-to-GLES" style="stroke:#000000;stroke-width:1;"/><polygon fill="#000000" points="896.11,1668.3182,899.501,1659.0715,895.7766,1663.3293,891.5188,1659.6049,896.11,1668.3182" style="stroke:#000000;stroke-width:1;"/><text fill="#000000" font-family="Verdana" font-size="13" lengthAdjust="spacing" textLength="67.3141" x="891.93" y="1591.5552">SDLActivity</text></g><!--link Blueprint to GMN64--><g class="link" data-entity-1="ent0012" data-entity-2="ent0065" data-link-type="association" data-source-line="97" id="lnk66"><path d="M1279.02,484.7482 C1305.42,453.5382 1351.91,406.1782 1404.5,386.6982 C1444.3,371.9482 1555.4,372.7682 1595.5,386.6982 C1649.84,405.5682 1699.71,451.1582 1729.24,482.3982" fill="none" id="Blueprint-GMN64" style="stroke:#000000;stroke-width:1;stroke-dasharray:7,7;"/></g><!--link DatPack to GMN67--><g class="link" data-entity-1="ent0027" data-entity-2="ent0068" data-link-type="association" data-source-line="103" id="lnk69"><path d="M161.63,1321.4582 C187.77,1291.4582 232.93,1246.8182 283.5,1228.3582 C359.54,1200.5982 1665.13,1198.8382 1740.5,1228.3582 C1786.75,1246.4682 1826.52,1289.1382 1850.11,1319.0082" fill="none" id="DatPack-GMN67" style="stroke:#000000;stroke-width:1;stroke-dasharray:7,7;"/></g><?plantuml-src XLVDRYEv4RxtKp2Zomp6bcpBzcfqM4HgTJlUaRt2Q7uMY1OBgfkIE6QJ7P8jMma2v9Gds7V9FO-oJv8gajrgIJE83uP4LdsiAbPz7_Kdks458wMWN4RcYSkIQbgG9SsUrbfLCe-LK9fqKlVNiZ0RcgjdBjTaHOLXhPsShMWbRAgaVQI0_Pdfd4hQiYW1dQxPtEu48vfbbigrQ4EuapEb9TDa45bkmUwHlLI6fB3DdfL-8d_ywtUILaAGkGKuCjBPXbl0gZHRoDScewkL4Zd916VIahTapG2DMfQJ2JDFLfMaHqOoruhdX9QbUHD58Ixoofyrhp5YXm6eiIfAPLY3W37O3JUGHAdUl2BK15lIIGRfTJeX_uZ8FaFowZDdpmjPmtowXxZ-FDDi2yijRxGYdSbjCae7X_un55Kh8PXUoBkGq7xjZD3CSYLD2oksMdmRwq7bJ2maBuhAqYMi60jeBLTdy6tV-cmoq-ehB1EJQSOab6XxEIItvyQoaZpplrETGugya01bV86--DNEU30PGKVzirNsW0ePa9ANJ729Lrbma_MW6HWW-S-2UoYmdu6Twyv-Sd5SxA5p2X46R0M5-yWAw7VB4hc64yw8V36_PKgk-9fihtp-u0WE29nSZA-EOGLlkcaXDupcWXa3qKrKziHqxoScePERImX0SJouECXsLDcDqZX1WkxmGb_lMxGCPLrnKTTjRuxf3fBButG_xaesppGliTj_-Sl7XocPpASBMV5UnRlMaF_-X_ZFBnjR20VwSVwBIp8Uzm_1bg9Y9Pnckr-DajWbxWfXPgPWiHBg6UuOntUjQRbnMEFQvTk8DbIz1yoXMTxBZUY5KP3GR6V4qhKvWwR9rypwuisT9IJH8BRhvtDjwkSzcZKSm9latN6HfXKbDzrhSb_SLTpNnpWVqokfPC9qHKKT55fsua5o6xyxX31AN94bbpaSOnOIkiTN5ly_iPqXRff21cZR6TrCRaS_70GVltrBN7iYXJnyZY4CdVMQveE4-ybDUdCSVe4Z2MLBA-ac_GDRSsFrxenaDDk4GyFS9fVZ9FdXq3zhk090PaBPDdbagYYep4FZDXjGXUHTVtB404XP0SCoZOnrXYMRkI8kfA_lMwWpMZX4pshZqUqW7XpKuWEJESFETcR-6uGV9sbwqkGJHZKv18V1QIY6S4cQrYKivp3mVdoyJoTE9uD9V8Wvdqpx2mbQ1eA6bmWgL5dyS3VxHB1YxCLd08QGmCKuYMyE4fZjO3Gb-5cszlpbpCFoTzWfQCYGb3jifijBmeebow6apisJ4qPHkk-zLRXoqort0RwMeM_ILD2s8Oatz6-LAdSB2JBNmpOhGEnx0JP0rKfO4zK1r0T5yuAwKD6dcrCBH023WfyM4ki0dBNSWVp29I1veH3NPPXGEqE51kZ9pVKXuzSPMAfXwXVo2zmVf5pGxESvVfXoMRrub3hNf9zUdGhh8vHzot0igOPCVowPl9kIVhTFjfpYnVKRb36SqHcF9qawFkJZK88wbj7iFMJvE7dlwRSfK9nS9_79RNxbKd9o3nsor4XX2vcxfLxf9wJhl_eel74d7K0OHxL-hope7Xpyq-S7ib460dc0wnf1FRVSxh0ea4tzrS45bqvwFKZ7bwUzJUwcoNmXL_1OElSwJQGlrwTxhwEm3-uNjrVlhh0aGQBFptzib708tRrLJyn4GT6-inbMS7SlM4DeRGu2r4Z0WPtZkze4sxC9eDlziQKgGpVFXhpMlXtVHAXUY81KFIIWIKp38IhQ--ntdxa6Ul0S7-s51GqGPaWio2UAU12W8n3FgKDut6Q28fAZcoEZ5cV-7ql7XISs4OQAsoWRaTEE4zYQfFVR0KixAM3wDvSZDD16MPIZgENUCZVCeawQo6TsSavLvlY-yxBICWhk-D3SihZIMsPGV2mLQXsvJRHoR1jvpdK9JQRHSI1x_eARtLAW4yjUlo5_pVtghz7Uu2GwMHNbZhoOtcb-ORWECQcVtb-ZiElF3pFTNWop1Am90lt7lt_7COoGznrqO0-yE1_Oik8YR_RT70qRgW3gY09UQxSrlL4aWIc9vkkD9Mg5ZGZJ-uKjprUqu8A3r6Nr-uWuwU_2_gC2Yb7F1l9bNYJm3S7Wel091GOm6pW6XDPZxk_1DtOt0dqbUExnwKs70eIVNI1rY3qyusk5lVjqZr5yOESAI1RFqGo7A_m4C6Um6PGFGgu4zWSySE2763M6cU-V7tG2tGML4Wx7tn9cmqiOxJNFWAbWBuYDqw2bK4kKV6XxcWC4R0k5Fwn08c40y2b788oScwVMiVy3?></g></svg>