<?plantuml 1.2026.2?><svg xmlns="http://www.w3.org/2000/svg" xmlns:xlink="http://www.w3.org/1999/xlink" contentStyleType="text/css" data-diagram-type="DESCRIPTION" height="1882px" preserveAspectRatio="none" style="width:2476px;height:1882px;background:#FFFFFF;" version="1.1" viewBox="0 0 2476 1882" width="2476px" zoomAndPan="magnify"><title>Nexus Framework &#8212; Full Stack Architecture
(Scaffold client + generated Desktop / Android apps)</title><defs/><g><g class="title" data-source-line="9"><text fill="#000000" font-family="Verdana" font-size="22" font-weight="bold" lengthAdjust="spacing" textLength="482.8796" x="992.1628" y="38.5181">Nexus Framework &#8212; Full Stack Architecture</text><text fill="#000000" font-family="Verdana" font-size="22" font-weight="bold" lengthAdjust="spacing" textLength="570.7479" x="948.2286" y="68.4822">(Scaffold client + generated Desktop / Android apps)</text></g><!--cluster Client--><g class="cluster" data-qualified-name="Client" data-source-line="12" id="ent0002"><rect fill="#E8F4FD" height="425.27" rx="2.5" ry="2.5" style="stroke:#000000;stroke-width:1;" width="652" x="1324" y="92.9282"/><text fill="#000000" font-family="Verdana" font-size="14" font-weight="bold" lengthAdjust="spacing" textLength="148.0494" x="1575.9753" y="109.8941">Nexus Scaffold Client</text><text fill="#000000" font-family="Verdana" font-size="14" font-weight="bold" lengthAdjust="spacing" textLength="219.0151" x="1540.4924" y="128.9621">(Compose Desktop &#8212; this repo)</text></g><!--cluster Authoring--><g class="cluster" data-qualified-name="Authoring" data-source-line="22" id="ent0007"><rect fill="#FFF8E1" height="188.14" rx="2.5" ry="2.5" style="stroke:#000000;stroke-width:1;" width="768" x="524" y="330.0582"/><text fill="#000000" font-family="Verdana" font-size="14" font-weight="bold" lengthAdjust="spacing" textLength="109.9136" x="853.0432" y="347.0241">Authoring layer</text><text fill="#000000" font-family="Verdana" font-size="14" font-weight="bold" lengthAdjust="spacing" textLength="168.2094" x="823.8953" y="366.0921">(generated project files)</text></g><!--cluster Scripting--><g class="cluster" data-qualified-name="Scripting" data-source-line="29" id="ent0011"><rect fill="#E8F5E9" height="371.27" rx="2.5" ry="2.5" style="stroke:#000000;stroke-width:1;" width="182" x="987" y="577.1982"/><text fill="#000000" font-family="Verdana" font-size="14" font-weight="bold" lengthAdjust="spacing" textLength="101.2476" x="1027.3762" y="594.1641">Scripting layer</text></g><!--cluster Core--><g class="cluster" data-qualified-name="Core" data-source-line="35" id="ent0014"><rect fill="#F3E5F5" height="488.46" rx="2.5" ry="2.5" style="stroke:#000000;stroke-width:1;" width="448" x="507" y="768.3282"/><text fill="#000000" font-family="Verdana" font-size="14" font-weight="bold" lengthAdjust="spacing" textLength="111.8035" x="675.0982" y="785.2941">C++ core &#8212; MVC</text><text fill="#000000" font-family="Verdana" font-size="14" font-weight="bold" lengthAdjust="spacing" textLength="26.3199" x="717.84" y="804.3621">src/</text></g><!--cluster Render--><g class="cluster" data-qualified-name="Render" data-source-line="42" id="ent0018"><rect fill="#ECEFF1" height="337.27" rx="2.5" ry="2.5" style="stroke:#000000;stroke-width:1;" width="252" x="1009" y="1315.7882"/><text fill="#000000" font-family="Verdana" font-size="14" font-weight="bold" lengthAdjust="spacing" textLength="72.2397" x="1098.8801" y="1332.7541">Rendering</text></g><!--cluster Python--><g class="cluster" data-qualified-name="Python" data-source-line="48" id="ent0021"><rect fill="#FFF3E0" height="134.14" rx="2.5" ry="2.5" style="stroke:#000000;stroke-width:1;" width="487" x="12" y="1742.0582"/><text fill="#000000" font-family="Verdana" font-size="14" font-weight="bold" lengthAdjust="spacing" textLength="132.6775" x="189.1613" y="1759.0241">Python integration</text></g><!--cluster Desktop--><g class="cluster" data-qualified-name="Desktop" data-source-line="54" id="ent0024"><rect fill="#E3F2FD" height="172.14" rx="2.5" ry="2.5" style="stroke:#000000;stroke-width:1;" width="188" x="1038" y="1704.0582"/><text fill="#000000" font-family="Verdana" font-size="14" font-weight="bold" lengthAdjust="spacing" textLength="105.6296" x="1079.1852" y="1721.0241">Desktop target</text><text fill="#000000" font-family="Verdana" font-size="14" font-weight="bold" lengthAdjust="spacing" textLength="135.6035" x="1064.1983" y="1740.0921">Win &#183; macOS &#183; Linux</text></g><!--cluster Android--><g class="cluster" data-qualified-name="Android" data-source-line="58" id="ent0026"><rect fill="#FCE4EC" height="395.27" rx="2.5" ry="2.5" style="stroke:#000000;stroke-width:1;" width="462" x="523" y="1480.9282"/><text fill="#000000" font-family="Verdana" font-size="14" font-weight="bold" lengthAdjust="spacing" textLength="103.3196" x="702.3402" y="1497.8941">Android target</text><text fill="#000000" font-family="Verdana" font-size="14" font-weight="bold" lengthAdjust="spacing" textLength="71.6937" x="718.1531" y="1516.9621">APK / NDK</text></g><!--entity ClientView--><g class="entity" data-qualified-name="Client.ClientView" data-source-line="14" id="ent0003"><rect fill="#D6EAF8" height="58.1358" rx="2.5" ry="2.5" style="stroke:#000000;stroke-width:1;" width="180.3554" x="1570.82" y="198.9282"/><text fill="#000000" font-family="Verdana" font-size="14" lengthAdjust="spacing" textLength="30.9119" x="1645.5418" y="223.8941">View</text><text fill="#000000" font-family="Verdana" font-size="14" lengthAdjust="spacing" textLength="160.3554" x="1580.82" y="242.9621">Compose UI + @Preview</text></g><!--entity ClientCtrl--><g class="entity" data-qualified-name="Client.ClientCtrl" data-source-line="15" id="ent0004"><rect fill="#D6EAF8" height="58.1358" rx="2.5" ry="2.5" style="stroke:#000000;stroke-width:1;" width="165.4315" x="1786.28" y="198.9282"/><text fill="#000000" font-family="Verdana" font-size="14" lengthAdjust="spacing" textLength="66.1777" x="1835.9069" y="223.8941">Controller</text><text fill="#000000" font-family="Verdana" font-size="14" lengthAdjust="spacing" textLength="145.4315" x="1796.28" y="242.9621">mutable state, actions</text></g><!--entity ClientModel--><g class="entity" data-qualified-name="Client.ClientModel" data-source-line="16" id="ent0005"><rect fill="#D6EAF8" height="58.1358" rx="2.5" ry="2.5" style="stroke:#000000;stroke-width:1;" width="127.6736" x="1597.16" y="436.0582"/><text fill="#000000" font-family="Verdana" font-size="14" lengthAdjust="spacing" textLength="41.2858" x="1640.3539" y="461.0241">Model</text><text fill="#000000" font-family="Verdana" font-size="14" lengthAdjust="spacing" textLength="107.6736" x="1607.16" y="480.0921">immutable state</text></g><!--entity Wizard--><g class="entity" data-qualified-name="Client.Wizard" data-source-line="18" id="ent0006"><rect fill="#B8DAFF" height="58.1358" rx="2.5" ry="2.5" style="stroke:#000000;stroke-width:1;" width="195.8673" x="1340.07" y="198.9282"/><text fill="#000000" font-family="Verdana" font-size="14" lengthAdjust="spacing" textLength="89.8797" x="1393.0638" y="223.8941">6-step Wizard</text><text fill="#000000" font-family="Verdana" font-size="14" lengthAdjust="spacing" textLength="175.8673" x="1350.07" y="242.9621">+ imnodes blueprint editor</text></g><!--entity TSX--><g class="entity" data-qualified-name="Authoring.TSX" data-source-line="23" id="ent0008"><rect fill="#FFECB3" height="58.1358" rx="2.5" ry="2.5" style="stroke:#000000;stroke-width:1;" width="179.4594" x="1069.27" y="436.0582"/><text fill="#000000" font-family="Verdana" font-size="14" lengthAdjust="spacing" textLength="159.4594" x="1079.27" y="461.0241">TypeScript + XHTML DSL</text><text fill="#000000" font-family="Verdana" font-size="14" lengthAdjust="spacing" textLength="127.5815" x="1095.2089" y="480.0921">ui/ui.ts &#183; ui/ui.xhtml</text></g><!--entity Blueprint--><g class="entity" data-qualified-name="Authoring.Blueprint" data-source-line="24" id="ent0009"><rect fill="#FFECB3" height="58.1358" rx="2.5" ry="2.5" style="stroke:#000000;stroke-width:1;" width="259.4831" x="775.26" y="436.0582"/><text fill="#000000" font-family="Verdana" font-size="14" lengthAdjust="spacing" textLength="91.6716" x="859.1657" y="461.0241">blueprint.json</text><text fill="#000000" font-family="Verdana" font-size="14" lengthAdjust="spacing" textLength="239.4831" x="785.26" y="480.0921">imnodes / Langflow-style flow graph</text></g><!--entity SharedDSL--><g class="entity" data-qualified-name="Authoring.SharedDSL" data-source-line="25" id="ent0010"><rect fill="#FFECB3" height="58.1358" rx="2.5" ry="2.5" style="stroke:#000000;stroke-width:1;" width="192.2413" x="547.88" y="436.0582"/><text fill="#000000" font-family="Verdana" font-size="14" lengthAdjust="spacing" textLength="139.1175" x="574.4419" y="461.0241">template/shared/dsl/</text><text fill="#000000" font-family="Verdana" font-size="14" lengthAdjust="spacing" textLength="172.2413" x="557.88" y="480.0921">Component, tags, widgets</text></g><!--entity Lua--><g class="entity" data-qualified-name="Scripting.Lua" data-source-line="30" id="ent0012"><rect fill="#C8E6C9" height="58.1358" rx="2.5" ry="2.5" style="stroke:#000000;stroke-width:1;" width="140.0635" x="1007.97" y="637.1982"/><text fill="#000000" font-family="Verdana" font-size="14" lengthAdjust="spacing" textLength="120.0635" x="1017.97" y="662.1641">Lua 5.4 ImGui DSL</text><text fill="#000000" font-family="Verdana" font-size="14" lengthAdjust="spacing" textLength="115.5976" x="1020.203" y="681.2321">scripts/panels.lua</text></g><!--entity Sol2--><g class="entity" data-qualified-name="Scripting.Sol2" data-source-line="31" id="ent0013"><rect fill="#A5D6A7" height="58.1358" rx="2.5" ry="2.5" style="stroke:#000000;stroke-width:1;" width="149.6815" x="1003.16" y="874.3282"/><text fill="#000000" font-family="Verdana" font-size="14" lengthAdjust="spacing" textLength="87.4997" x="1034.2509" y="899.2941">sol2 bindings</text><text fill="#000000" font-family="Verdana" font-size="14" lengthAdjust="spacing" textLength="129.6815" x="1013.16" y="918.3621">nxs &#183; ui &#183; keys tables</text></g><!--entity Model--><g class="entity" data-qualified-name="Core.Model" data-source-line="36" id="ent0015"><rect fill="#E1BEE7" height="58.1358" rx="2.5" ry="2.5" style="stroke:#000000;stroke-width:1;" width="182.5254" x="634.74" y="874.3282"/><text fill="#000000" font-family="Verdana" font-size="14" lengthAdjust="spacing" textLength="46.8858" x="702.5598" y="899.2941">model/</text><text fill="#000000" font-family="Verdana" font-size="14" lengthAdjust="spacing" textLength="162.5254" x="644.74" y="918.3621">FunctionRegistry, caches</text></g><!--entity Controller--><g class="entity" data-qualified-name="Core.Controller" data-source-line="37" id="ent0016"><rect fill="#CE93D8" height="58.1358" rx="2.5" ry="2.5" style="stroke:#000000;stroke-width:1;" width="192.3674" x="538.82" y="1015.9582"/><text fill="#000000" font-family="Verdana" font-size="14" lengthAdjust="spacing" textLength="69.2577" x="600.3748" y="1040.9241">controller/</text><text fill="#000000" font-family="Verdana" font-size="14" lengthAdjust="spacing" textLength="172.3674" x="548.82" y="1059.9921">PlotController, commands</text></g><!--entity View--><g class="entity" data-qualified-name="Core.View" data-source-line="38" id="ent0017"><rect fill="#BA68C8" height="77.2038" rx="2.5" ry="2.5" style="stroke:#000000;stroke-width:1;" width="169.6734" x="739.16" y="1155.5882"/><text fill="#000000" font-family="Verdana" font-size="14" lengthAdjust="spacing" textLength="34.8318" x="806.5808" y="1180.5541">view/</text><text fill="#000000" font-family="Verdana" font-size="14" lengthAdjust="spacing" textLength="149.6734" x="749.16" y="1199.6221">PlotterView, LuaPanels</text><text fill="#000000" font-family="Verdana" font-size="14" lengthAdjust="spacing" textLength="99.0216" x="774.4859" y="1218.69">ImGui + ImPlot</text></g><!--entity ImGui--><g class="entity" data-qualified-name="Render.ImGui" data-source-line="43" id="ent0019"><rect fill="#CFD8DC" height="58.1358" rx="2.5" ry="2.5" style="stroke:#000000;stroke-width:1;" width="220.1712" x="1024.91" y="1375.7882"/><text fill="#000000" font-family="Verdana" font-size="14" lengthAdjust="spacing" textLength="134.4135" x="1067.7889" y="1400.7541">Dear ImGui + ImPlot</text><text fill="#000000" font-family="Verdana" font-size="14" lengthAdjust="spacing" textLength="200.1712" x="1034.91" y="1419.8221">(+ imnodes in blueprint editor)</text></g><!--entity SDL--><g class="entity" data-qualified-name="Render.SDL" data-source-line="44" id="ent0020"><rect fill="#B0BEC5" height="58.1358" rx="2.5" ry="2.5" style="stroke:#000000;stroke-width:1;" width="209.7832" x="1027.11" y="1578.9282"/><text fill="#000000" font-family="Verdana" font-size="14" lengthAdjust="spacing" textLength="33.2499" x="1115.3767" y="1603.8941">SDL3</text><text fill="#000000" font-family="Verdana" font-size="14" lengthAdjust="spacing" textLength="189.7832" x="1037.11" y="1622.9621">window &#183; input &#183; GPU context</text></g><!--entity PyDesktop--><g class="entity" data-qualified-name="Python.PyDesktop" data-source-line="49" id="ent0022"><rect fill="#FFE0B2" height="58.1358" rx="2.5" ry="2.5" style="stroke:#000000;stroke-width:1;" width="255.2971" x="28.35" y="1802.0582"/><text fill="#000000" font-family="Verdana" font-size="14" lengthAdjust="spacing" textLength="172.8153" x="69.5909" y="1827.0241">Desktop: pybind11 embed</text><text fill="#000000" font-family="Verdana" font-size="14" lengthAdjust="spacing" textLength="235.2971" x="38.35" y="1846.0921">PythonEngine &#183; python/functions.py</text></g><!--entity PyAndroid--><g class="entity" data-qualified-name="Python.PyAndroid" data-source-line="50" id="ent0023"><rect fill="#FFCC80" height="58.1358" rx="2.5" ry="2.5" style="stroke:#000000;stroke-width:1;" width="164.8994" x="318.55" y="1802.0582"/><text fill="#000000" font-family="Verdana" font-size="14" lengthAdjust="spacing" textLength="126.9095" x="337.545" y="1827.0241">Android: Chaquopy</text><text fill="#000000" font-family="Verdana" font-size="14" lengthAdjust="spacing" textLength="144.8994" x="328.55" y="1846.0921">app/src/main/python/</text></g><!--entity DeskBin--><g class="entity" data-qualified-name="Desktop.DeskBin" data-source-line="55" id="ent0025"><rect fill="#BBDEFB" height="58.1358" rx="2.5" ry="2.5" style="stroke:#000000;stroke-width:1;" width="156.1354" x="1053.93" y="1802.0582"/><text fill="#000000" font-family="Verdana" font-size="14" lengthAdjust="spacing" textLength="87.4577" x="1088.2689" y="1827.0241">Native binary</text><text fill="#000000" font-family="Verdana" font-size="14" lengthAdjust="spacing" textLength="136.1354" x="1063.93" y="1846.0921">OpenGL 3.3 via SDL3</text></g><!--entity Djinni--><g class="entity" data-qualified-name="Android.Djinni" data-source-line="59" id="ent0027"><rect fill="#F8BBD0" height="58.1358" rx="2.5" ry="2.5" style="stroke:#000000;stroke-width:1;" width="146.9375" x="538.53" y="1578.9282"/><text fill="#000000" font-family="Verdana" font-size="14" lengthAdjust="spacing" textLength="111.0616" x="556.468" y="1603.8941">Djinni IDL bridge</text><text fill="#000000" font-family="Verdana" font-size="14" lengthAdjust="spacing" textLength="126.9375" x="548.53" y="1622.9621">djinni/plotter.djinni</text></g><!--entity Kotlin--><g class="entity" data-qualified-name="Android.Kotlin" data-source-line="60" id="ent0028"><rect fill="#F48FB1" height="58.1358" rx="2.5" ry="2.5" style="stroke:#000000;stroke-width:1;" width="183.5894" x="785.21" y="1578.9282"/><text fill="#000000" font-family="Verdana" font-size="14" lengthAdjust="spacing" textLength="107.9956" x="823.0069" y="1603.8941">Kotlin / JVM host</text><text fill="#000000" font-family="Verdana" font-size="14" lengthAdjust="spacing" textLength="163.5894" x="795.21" y="1622.9621">MainActivity &#183; SDLActivity</text></g><!--entity GLES--><g class="entity" data-qualified-name="Android.GLES" data-source-line="61" id="ent0029"><rect fill="#F06292" height="58.1358" rx="2.5" ry="2.5" style="stroke:#000000;stroke-width:1;" width="151.2915" x="760.35" y="1802.0582"/><text fill="#000000" font-family="Verdana" font-size="14" lengthAdjust="spacing" textLength="69.8877" x="801.0519" y="1827.0241">SDL3 GLES</text><text fill="#000000" font-family="Verdana" font-size="14" lengthAdjust="spacing" textLength="131.2915" x="770.35" y="1846.0921">full-screen native UI</text></g><g class="entity" data-qualified-name="GMN62" data-source-line="106" id="ent0063"><path d="M2250.8,433.5682 L2250.8,496.6863 L2469.2052,496.6863 L2469.2052,443.5682 L2459.2052,433.5682 L2250.8,433.5682" fill="#FFFFFF" style="stroke:#000000;stroke-width:1;"/><path d="M2459.2052,433.5682 L2459.2052,443.5682 L2469.2052,443.5682 L2459.2052,433.5682" fill="#FFFFFF" style="stroke:#000000;stroke-width:1;"/><text fill="#000000" font-family="Verdana" font-size="13" lengthAdjust="spacing" textLength="197.4052" x="2256.8" y="452.4652">Web-familiar component model.</text><text fill="#000000" font-family="Verdana" font-size="13" lengthAdjust="spacing" textLength="188.9812" x="2261.012" y="470.1712">No browser engine &#8212; each tag</text><text fill="#000000" font-family="Verdana" font-size="13" lengthAdjust="spacing" textLength="190.2162" x="2260.3945" y="487.8772">maps to a native ImGui widget.</text></g><g class="entity" data-qualified-name="GMN65" data-source-line="112" id="ent0066"><path d="M1992.15,433.5682 L1992.15,496.6863 L2215.8462,496.6863 L2215.8462,443.5682 L2205.8462,433.5682 L1992.15,433.5682" fill="#FFFFFF" style="stroke:#000000;stroke-width:1;"/><path d="M2205.8462,433.5682 L2205.8462,443.5682 L2215.8462,443.5682 L2205.8462,433.5682" fill="#FFFFFF" style="stroke:#000000;stroke-width:1;"/><text fill="#000000" font-family="Verdana" font-size="13" lengthAdjust="spacing" textLength="202.6962" x="1998.15" y="452.4652">Authored in wizard imnodes GUI.</text><text fill="#000000" font-family="Verdana" font-size="13" lengthAdjust="spacing" textLength="162.7471" x="2018.1245" y="470.1712">Re-open to rewire screens,</text><text fill="#000000" font-family="Verdana" font-size="13" lengthAdjust="spacing" textLength="183.8982" x="2007.549" y="487.8772">Python modules, MVC classes.</text></g><g class="entity" data-qualified-name="GMN68" data-source-line="118" id="ent0069"><path d="M284.64,1013.4682 L284.64,1076.5863 L483.3501,1076.5863 L483.3501,1023.4682 L473.3501,1013.4682 L284.64,1013.4682" fill="#FFFFFF" style="stroke:#000000;stroke-width:1;"/><path d="M473.3501,1013.4682 L473.3501,1023.4682 L483.3501,1023.4682 L473.3501,1013.4682" fill="#FFFFFF" style="stroke:#000000;stroke-width:1;"/><text fill="#000000" font-family="Verdana" font-size="13" lengthAdjust="spacing" textLength="177.6192" x="290.6855" y="1032.3652">Desmos-style plotter sample:</text><text fill="#000000" font-family="Verdana" font-size="13" lengthAdjust="spacing" textLength="143.7541" x="307.618" y="1050.0712">Python samples curves,</text><text fill="#000000" font-family="Verdana" font-size="13" lengthAdjust="spacing" textLength="177.7101" x="290.64" y="1067.7772">C++ owns data, ImGui draws.</text></g><!--link Wizard to Authoring--><g class="link" data-entity-1="ent0006" data-entity-2="ent0007" data-link-type="dependency" data-source-line="65" id="lnk30"><path d="M1419.42,257.3582 C1399.26,288.1382 1366.14,338.7082 1337.7013,382.132 C1323.4819,403.8438 1310.4328,423.7691 1300.7592,438.5409 C1298.3408,442.2338 1296.1334,445.6046 1294.1714,448.6007 C1293.6809,449.3498 1293.2057,450.0754 1292.7464,450.7768 C1292.5168,451.1274 1295.5781,446.4525 1295.3565,446.791" fill="none" id="Wizard-to-Authoring" style="stroke:#181818;stroke-width:1;"/><polygon fill="#181818" points="1292.0695,451.8105,1300.3463,446.4725,1294.8086,447.6276,1293.6536,442.0899,1292.0695,451.8105" style="stroke:#181818;stroke-width:1;"/><text fill="#000000" font-family="Verdana" font-size="13" lengthAdjust="spacing" textLength="61.607" x="1397.7" y="301.9552">generates</text></g><!--link Wizard to Core--><g class="link" data-entity-1="ent0006" data-entity-2="ent0014" data-link-type="dependency" data-source-line="66" id="lnk31"><path d="M1339.7,231.0282 C1116.48,236.6382 586.42,255.9982 532,314.0582 C443.255,408.7482 438.3775,554.2832 455.9963,676.912 C464.8056,738.2263 479.2391,793.8141 491.6252,834.4565 C494.7217,844.6171 497.6902,853.8436 500.411,861.9919 C501.7714,866.0661 503.0698,869.8707 504.2912,873.3878 C504.902,875.1464 505.4935,876.8331 506.0639,878.4456 C506.3491,879.2519 504.6123,874.3887 504.8867,875.1576" fill="none" id="Wizard-to-Core" style="stroke:#181818;stroke-width:1;"/><polygon fill="#181818" points="506.9034,880.8085,507.6457,870.9877,505.2228,876.0994,500.1111,873.6766,506.9034,880.8085" style="stroke:#181818;stroke-width:1;"/><text fill="#000000" font-family="Verdana" font-size="13" lengthAdjust="spacing" textLength="96.8241" x="449.37" y="557.0952">emits template/</text></g><!--link TSX to Lua--><g class="link" data-entity-1="ent0008" data-entity-2="ent0012" data-link-type="dependency" data-source-line="69" id="lnk32"><path d="M1147.39,494.6582 C1132,532.5182 1107.231,593.4005 1091.841,631.2305" fill="none" id="TSX-to-Lua" style="stroke:#181818;stroke-width:1;"/><polygon fill="#181818" points="1089.58,636.7882,1096.6766,629.959,1091.4642,632.1568,1089.2663,626.9443,1089.58,636.7882" style="stroke:#181818;stroke-width:1;"/><text fill="#000000" font-family="Verdana" font-size="13" lengthAdjust="spacing" textLength="56.303" x="1126.76" y="557.0952">lowers to</text></g><!--link Blueprint to Lua--><g class="link" data-entity-1="ent0009" data-entity-2="ent0012" data-link-type="dependency" data-source-line="70" id="lnk33"><path d="M929.79,494.6582 C962.67,532.5182 1016.4654,594.4285 1049.3254,632.2585" fill="none" id="Blueprint-to-Lua" style="stroke:#181818;stroke-width:1;"/><polygon fill="#181818" points="1053.26,636.7882,1050.3779,627.3705,1049.9811,633.0134,1044.3382,632.6167,1053.26,636.7882" style="stroke:#181818;stroke-width:1;"/><text fill="#000000" font-family="Verdana" font-size="13" lengthAdjust="spacing" textLength="76.1151" x="987.31" y="557.0952">wires panels</text></g><!--link SharedDSL to TSX--><g class="link" data-entity-1="ent0010" data-entity-2="ent0008" data-link-type="dependency" data-source-line="71" id="lnk34"><path d="M658.51,435.6582 C676.62,402.6082 711.05,350.7682 758,328.8182 C817.19,301.1682 993.25,300.2482 1052,328.8182 C1097.45,350.9282 1126.6415,397.3542 1143.1815,430.3542" fill="none" id="SharedDSL-to-TSX" style="stroke:#181818;stroke-width:1;"/><polygon fill="#181818" points="1145.87,435.7182,1145.4133,425.8799,1143.6296,431.2482,1138.2613,429.4646,1145.87,435.7182" style="stroke:#181818;stroke-width:1;"/><text fill="#000000" font-family="Verdana" font-size="13" lengthAdjust="spacing" textLength="94.8871" x="857" y="301.9552">types + widgets</text></g><!--link Blueprint to Model--><g class="link" data-entity-1="ent0009" data-entity-2="ent0015" data-link-type="dependency" data-source-line="72" id="lnk35"><path d="M838.2,494.5082 C806.88,511.4282 772.27,536.1482 753,569.1982 C695.12,668.4682 709.6434,807.5882 719.6434,868.2082" fill="none" id="Blueprint-to-Model" style="stroke:#181818;stroke-width:1;"/><polygon fill="#181818" points="720.62,874.1282,723.1018,864.5972,719.8062,869.1949,715.2085,865.8993,720.62,874.1282" style="stroke:#181818;stroke-width:1;"/><text fill="#000000" font-family="Verdana" font-size="13" lengthAdjust="spacing" textLength="91.9751" x="754" y="671.6652">declares nodes</text></g><!--link Blueprint to Controller--><g class="link" data-entity-1="ent0009" data-entity-2="ent0016" data-link-type="dependency" data-source-line="73" id="lnk36"><path d="M904.26,494.6582 C901.34,587.7582 888.05,881.0282 835,956.4682 C810.8,990.8882 775.674,1010.0266 737.204,1022.8066" fill="none" id="Blueprint-to-Controller" style="stroke:#181818;stroke-width:1;"/><polygon fill="#181818" points="731.51,1024.6982,741.3121,1025.6568,736.255,1023.1219,738.79,1018.0648,731.51,1024.6982" style="stroke:#181818;stroke-width:1;"/><text fill="#000000" font-family="Verdana" font-size="13" lengthAdjust="spacing" textLength="91.9751" x="889.73" y="740.2252">declares nodes</text></g><!--link Blueprint to View--><g class="link" data-entity-1="ent0009" data-entity-2="ent0017" data-link-type="dependency" data-source-line="74" id="lnk37"><path d="M954.29,494.6482 C982.05,509.2282 1017.9,525.6582 1052,534.1982 C1067.11,537.9782 1179.99,532.2682 1192,542.1982 C1235.48,578.1282 1223,608.8582 1223,665.2682 C1223,665.2682 1223,665.2682 1223,1046.0282 C1223,1112.3882 1032.1928,1157.0327 915.0128,1178.3827" fill="none" id="Blueprint-to-View" style="stroke:#181818;stroke-width:1;"/><polygon fill="#181818" points="909.11,1179.4582,918.6812,1181.7802,914.029,1178.562,917.2472,1173.9098,909.11,1179.4582" style="stroke:#181818;stroke-width:1;"/><text fill="#000000" font-family="Verdana" font-size="13" lengthAdjust="spacing" textLength="91.9751" x="1224" y="908.7952">declares nodes</text></g><!--link Lua to Sol2--><g class="link" data-entity-1="ent0012" data-entity-2="ent0013" data-link-type="dependency" data-source-line="77" id="lnk38"><path d="M1078,695.6282 C1078,740.8182 1078,822.6782 1078,867.9382" fill="none" id="Lua-to-Sol2" style="stroke:#181818;stroke-width:1;"/><polygon fill="#181818" points="1078,873.9382,1082,864.9382,1078,868.9382,1074,864.9382,1078,873.9382" style="stroke:#181818;stroke-width:1;"/></g><!--link Sol2 to Controller--><g class="link" data-entity-1="ent0013" data-entity-2="ent0016" data-link-type="dependency" data-source-line="78" id="lnk39"><path d="M1006.34,932.8582 C967.87,948.1482 928.05,963.9882 927,964.4682 C910.57,972.0482 907.97,977.1982 891,983.4682 C834.16,1004.4582 816.96,999.4982 758,1013.4682 C749.44,1015.4982 746.3796,1016.2184 737.4696,1018.3884" fill="none" id="Sol2-to-Controller" style="stroke:#181818;stroke-width:1;"/><polygon fill="#181818" points="731.64,1019.8082,741.3309,1021.5649,736.498,1018.6251,739.4379,1013.7921,731.64,1019.8082" style="stroke:#181818;stroke-width:1;"/><text fill="#000000" font-family="Verdana" font-size="13" lengthAdjust="spacing" textLength="67.9641" x="928" y="979.3652">commands</text></g><!--link Sol2 to View--><g class="link" data-entity-1="ent0013" data-entity-2="ent0017" data-link-type="dependency" data-source-line="79" id="lnk40"><path d="M1060.6,932.6682 C1038.24,968.0082 997.23,1029.5782 955,1076.5882 C929.46,1105.0082 902.0799,1129.7358 876.1099,1151.4858" fill="none" id="Sol2-to-View" style="stroke:#181818;stroke-width:1;"/><polygon fill="#181818" points="871.51,1155.3382,880.9781,1152.6262,875.3432,1152.1279,875.8415,1146.493,871.51,1155.3382" style="stroke:#181818;stroke-width:1;"/><text fill="#000000" font-family="Verdana" font-size="13" lengthAdjust="spacing" textLength="146.7701" x="1006.52" y="1050.4252">register_panel / hotkeys</text></g><!--reverse link Controller to View--><g class="link" data-entity-1="ent0016" data-entity-2="ent0017" data-link-type="dependency" data-source-line="82" id="lnk42"><path d="M628.0606,1080.2761 C626.1006,1096.7361 627.41,1111.0682 638,1125.5882 C661.48,1157.7882 701.87,1174.6882 739.03,1183.5482" fill="none" id="Controller-backto-View" style="stroke:#181818;stroke-width:1;"/><polygon fill="#181818" points="628.77,1074.3182,623.7339,1082.7821,628.1788,1079.2831,631.6778,1083.728,628.77,1074.3182" style="stroke:#181818;stroke-width:1;"/><text fill="#000000" font-family="Verdana" font-size="13" lengthAdjust="spacing" textLength="62.4521" x="639" y="1121.4852">user input</text></g><!--link Controller to View--><g class="link" data-entity-1="ent0016" data-entity-2="ent0017" data-link-type="dependency" data-source-line="85" id="lnk46"><path d="M671.44,1074.3982 C700.94,1097.3682 738.0253,1126.2527 770.4253,1151.4727" fill="none" id="Controller-to-View" style="stroke:#181818;stroke-width:1;"/><polygon fill="#181818" points="775.16,1155.1582,770.5149,1146.4735,771.2144,1152.087,765.601,1152.7865,775.16,1155.1582" style="stroke:#181818;stroke-width:1;"/><text fill="#000000" font-family="Verdana" font-size="13" lengthAdjust="spacing" textLength="48.5551" x="736.17" y="1121.4852">settings</text></g><!--reverse link Model to Controller--><g class="link" data-entity-1="ent0015" data-entity-2="ent0016" data-link-type="dependency" data-source-line="83" id="lnk44"><path d="M704.3047,937.6854 C688.5247,961.9054 669.17,991.5982 653.39,1015.8182" fill="none" id="Model-backto-Controller" style="stroke:#181818;stroke-width:1;"/><polygon fill="#181818" points="707.58,932.6582,699.3156,938.0154,704.8506,936.8475,706.0184,942.3825,707.58,932.6582" style="stroke:#181818;stroke-width:1;"/><text fill="#000000" font-family="Verdana" font-size="13" lengthAdjust="spacing" textLength="88.0881" x="686.95" y="979.3652">update caches</text></g><!--link Model to View--><g class="link" data-entity-1="ent0015" data-entity-2="ent0017" data-link-type="dependency" data-source-line="84" id="lnk45"><path d="M760.07,932.7482 C769.16,941.9682 778.09,952.8382 784,964.4682 C815.43,1026.2682 822.5045,1102.2808 823.8845,1149.4408" fill="none" id="Model-to-View" style="stroke:#181818;stroke-width:1;"/><polygon fill="#181818" points="824.06,1155.4382,827.795,1146.3251,823.9138,1150.4403,819.7985,1146.5591,824.06,1155.4382" style="stroke:#181818;stroke-width:1;"/><text fill="#000000" font-family="Verdana" font-size="13" lengthAdjust="spacing" textLength="128.8951" x="817.83" y="1050.4252">activeCurves, catalog</text></g><!--link View to ImGui--><g class="link" data-entity-1="ent0017" data-entity-2="ent0019" data-link-type="dependency" data-source-line="88" id="lnk47"><path d="M880.68,1233.2182 C941.83,1274.2482 1032.7974,1335.2856 1087.6974,1372.1156" fill="none" id="View-to-ImGui" style="stroke:#181818;stroke-width:1;"/><polygon fill="#181818" points="1092.68,1375.4582,1087.4345,1367.1225,1088.5278,1372.6727,1082.9776,1373.766,1092.68,1375.4582" style="stroke:#181818;stroke-width:1;"/></g><!--link ImGui to SDL--><g class="link" data-entity-1="ent0019" data-entity-2="ent0020" data-link-type="dependency" data-source-line="89" id="lnk48"><path d="M1134.58,1434.2482 C1134,1472.5882 1133.0794,1534.4889 1132.5094,1572.7489" fill="none" id="ImGui-to-SDL" style="stroke:#181818;stroke-width:1;"/><polygon fill="#181818" points="1132.42,1578.7482,1136.5536,1569.8088,1132.4945,1573.7488,1128.5545,1569.6896,1132.42,1578.7482" style="stroke:#181818;stroke-width:1;"/></g><!--link Controller to PyDesktop--><g class="link" data-entity-1="ent0016" data-entity-2="ent0022" data-link-type="dependency" data-source-line="92" id="lnk49"><path d="M543.51,1074.5782 C460.83,1103.1982 352,1149.2282 352,1193.1882 C352,1193.1882 352,1193.1882 352,1608.9982 C352,1657.2182 250.863,1749.9722 194.703,1797.9222" fill="none" id="Controller-to-PyDesktop" style="stroke:#181818;stroke-width:1;"/><polygon fill="#181818" points="190.14,1801.8182,199.5819,1799.0163,193.9425,1798.5716,194.3872,1792.9322,190.14,1801.8182" style="stroke:#181818;stroke-width:1;"/><text fill="#000000" font-family="Verdana" font-size="13" lengthAdjust="spacing" textLength="120.7181" x="353" y="1410.2552">evaluate() [desktop]</text></g><!--reverse link Controller to PyDesktop--><g class="link" data-entity-1="ent0016" data-entity-2="ent0022" data-link-type="dependency" data-source-line="94" id="lnk52"><path d="M532.6583,1069.7692 C402.8783,1101.1692 194,1157.1482 194,1193.1882 C194,1193.1882 194,1193.1882 194,1608.9982 C194,1679.1082 175.21,1759.9482 164.06,1801.7682" fill="none" id="Controller-backto-PyDesktop" style="stroke:#181818;stroke-width:1;"/><polygon fill="#181818" points="538.49,1068.3582,528.8017,1066.5868,533.6302,1069.534,530.683,1074.3625,538.49,1068.3582" style="stroke:#181818;stroke-width:1;"/><text fill="#000000" font-family="Verdana" font-size="13" lengthAdjust="spacing" textLength="77.0251" x="195" y="1410.2552">numpy xs/ys</text></g><!--link Controller to Djinni--><g class="link" data-entity-1="ent0016" data-entity-2="ent0027" data-link-type="dependency" data-source-line="93" id="lnk50"><path d="M627.72,1074.4882 C625.45,1084.5582 623.23,1096.0082 622,1106.5882 C601.23,1285.2582 607.2616,1496.1633 610.4316,1572.6533" fill="none" id="Controller-to-Djinni" style="stroke:#181818;stroke-width:1;"/><polygon fill="#181818" points="610.68,1578.6482,614.3039,1569.4903,610.473,1573.6525,606.3108,1569.8216,610.68,1578.6482" style="stroke:#181818;stroke-width:1;"/><text fill="#000000" font-family="Verdana" font-size="13" lengthAdjust="spacing" textLength="119.5741" x="610.46" y="1295.6852">evaluate() [android]</text></g><!--link Djinni to PyAndroid--><g class="link" data-entity-1="ent0027" data-entity-2="ent0023" data-link-type="dependency" data-source-line="95" id="lnk53"><path d="M582.31,1637.1982 C564.81,1654.0382 542.36,1675.9882 523,1696.0582 C488.59,1731.7382 454.3207,1769.7689 429.9807,1797.2189" fill="none" id="Djinni-to-PyAndroid" style="stroke:#181818;stroke-width:1;"/><polygon fill="#181818" points="426,1801.7082,434.9639,1797.628,429.3172,1797.9671,428.9782,1792.3204,426,1801.7082" style="stroke:#181818;stroke-width:1;"/></g><!--reverse link Djinni to PyAndroid--><g class="link" data-entity-1="ent0027" data-entity-2="ent0023" data-link-type="dependency" data-source-line="96" id="lnk55"><path d="M532.527,1626.3826 C504.967,1635.3926 481,1647.5282 460,1669.0582 C424.14,1705.8382 409.82,1766.1882 404.29,1801.6382" fill="none" id="Djinni-backto-PyAndroid" style="stroke:#181818;stroke-width:1;"/><polygon fill="#181818" points="538.23,1624.5182,528.4326,1623.5129,533.4775,1626.0719,530.9185,1631.1168,538.23,1624.5182" style="stroke:#181818;stroke-width:1;"/><text fill="#000000" font-family="Verdana" font-size="13" lengthAdjust="spacing" textLength="62.2051" x="461" y="1683.9552">EvalResult</text></g><!--link SDL to DeskBin--><g class="link" data-entity-1="ent0020" data-entity-2="ent0025" data-link-type="dependency" data-source-line="99" id="lnk56"><path d="M1132,1637.4482 C1132,1679.9082 1132,1753.3882 1132,1795.7782" fill="none" id="SDL-to-DeskBin" style="stroke:#181818;stroke-width:1;"/><polygon fill="#181818" points="1132,1801.7782,1136,1792.7782,1132,1796.7782,1128,1792.7782,1132,1801.7782" style="stroke:#181818;stroke-width:1;"/><text fill="#000000" font-family="Verdana" font-size="13" lengthAdjust="spacing" textLength="83.1611" x="1133" y="1683.9552">desktop build</text></g><!--link SDL to GLES--><g class="link" data-entity-1="ent0020" data-entity-2="ent0029" data-link-type="dependency" data-source-line="100" id="lnk57"><path d="M1088.59,1637.4382 C1073.96,1647.2482 1057.64,1658.4482 1043,1669.0582 C981.26,1713.8382 916.3643,1765.2165 875.6443,1797.9865" fill="none" id="SDL-to-GLES" style="stroke:#181818;stroke-width:1;"/><polygon fill="#181818" points="870.97,1801.7482,880.4893,1799.2218,874.8653,1798.6134,875.4737,1792.9894,870.97,1801.7482" style="stroke:#181818;stroke-width:1;"/><text fill="#000000" font-family="Verdana" font-size="13" lengthAdjust="spacing" textLength="79.7161" x="1044" y="1683.9552">Android NDK</text></g><!--reverse link Kotlin to GLES--><g class="link" data-entity-1="ent0028" data-entity-2="ent0029" data-link-type="dependency" data-source-line="101" id="lnk59"><path d="M779.2616,1627.6439 C755.5416,1636.5339 738.31,1648.0782 724,1669.0582 C692.15,1715.7782 748.7,1769.6382 792.4,1801.7282" fill="none" id="Kotlin-backto-GLES" style="stroke:#181818;stroke-width:1;"/><polygon fill="#181818" points="784.88,1625.5382,775.0487,1624.9512,780.198,1627.293,777.8563,1632.4423,784.88,1625.5382" style="stroke:#181818;stroke-width:1;"/><text fill="#000000" font-family="Verdana" font-size="13" lengthAdjust="spacing" textLength="67.3141" x="725" y="1683.9552">SDLActivity</text></g><!--link Kotlin to GLES--><g class="link" data-entity-1="ent0028" data-entity-2="ent0029" data-link-type="dependency" data-source-line="103" id="lnk61"><path d="M851.11,1637.5282 C844.17,1646.9082 837.61,1657.8282 834,1669.0582 C819.68,1713.6582 823.995,1762.9263 829.345,1795.7563" fill="none" id="Kotlin-to-GLES" style="stroke:#181818;stroke-width:1;"/><polygon fill="#181818" points="830.31,1801.6782,832.8104,1792.152,829.5058,1796.7433,824.9145,1793.4387,830.31,1801.6782" style="stroke:#181818;stroke-width:1;"/><text fill="#000000" font-family="Verdana" font-size="13" lengthAdjust="spacing" textLength="131.1441" x="835" y="1683.9552">install_python_bridge</text></g><!--link Djinni to Kotlin--><g class="link" data-entity-1="ent0027" data-entity-2="ent0028" data-link-type="dependency" data-source-line="102" id="lnk60"><path d="M685.82,1607.9982 C716.6,1607.9982 746.68,1607.9982 779.15,1607.9982" fill="none" id="Djinni-to-Kotlin" style="stroke:#181818;stroke-width:1;"/><polygon fill="#181818" points="785.15,1607.9982,776.15,1603.9982,780.15,1607.9982,776.15,1611.9982,785.15,1607.9982" style="stroke:#181818;stroke-width:1;"/><text fill="#000000" font-family="Verdana" font-size="13" lengthAdjust="spacing" textLength="63.8806" x="703.84" y="1600.8952">C++ &#8596; JVM</text></g><!--link TSX to GMN62--><g class="link" data-entity-1="ent0008" data-entity-2="ent0063" data-link-type="association" data-source-line="106" id="lnk64"><path d="M1167.27,435.8882 C1180.93,393.8182 1212.61,317.7582 1270.5,285.5582 C1316.38,260.0482 2168.15,262.8882 2215.5,285.5582 C2279.38,316.1482 2324,390.2782 2345.46,433.1182" fill="none" id="TSX-GMN62" style="stroke:#181818;stroke-width:1;stroke-dasharray:7,7;"/></g><!--link Blueprint to GMN65--><g class="link" data-entity-1="ent0009" data-entity-2="ent0066" data-link-type="association" data-source-line="112" id="lnk67"><path d="M921.05,435.8582 C946.23,393.3882 999.46,316.3882 1069.5,285.5582 C1114.3,265.8482 1906.05,265.0782 1950.5,285.5582 C2016.62,316.0282 2064.84,390.5682 2088.2,433.4282" fill="none" id="Blueprint-GMN65" style="stroke:#181818;stroke-width:1;stroke-dasharray:7,7;"/></g><!--link Core to GMN68--><g class="link" data-entity-1="ent0014" data-entity-2="ent0069" data-link-type="association" data-source-line="118" id="lnk70"><path d="M506.9209,913.0126 C506.8315,913.1079 506.7414,913.2039 506.6507,913.3006 C506.2879,913.6873 505.9148,914.0849 505.5318,914.4932 C504.7657,915.3096 503.9599,916.1684 503.1169,917.067 C496.3725,924.2551 487.245,933.9832 477.025,944.8757 C456.585,966.6607 431.775,993.1032 412.92,1013.1982" fill="none" id="Core-GMN68" style="stroke:#181818;stroke-width:1;stroke-dasharray:7,7;"/></g><?plantuml-src rLZTSjis5hxdKvoDBZOP_yW_iQleOcSbYdAziLDFv2ITgJePM8Gan2J01K3BQYSplUe3xEHTzhwFaYVfEG14aRAwitkrLUAn9V3W0yuFllE1Vx5pddCeCYPaPEw5B9XcETonoVrCgrAciSgKXjRG_QjPc3bBrKB86KnPPdZjIO5psOoFx3BZeFd4CZdBwWOfdx8oixVyqVOoCPCvbnOc-8lhcbLFQxK8gnztwF_cmzkvcDnBRWmSHv4L5fTxmnzB0qCquGkbx-7hBrzWM6OPZ2pk2gTDviBYbahDn_BvQCAcKvMbCCa4xM4FPbnopInFOS3DlLK5jA4dKwr42gmep8ie-Yjy_V8B_i3cxETsBWmwNAWNmUJ__XE5NC0p7vXgox7RCeOWLdcX3A_SfO2j_NW6p0HRQ2MTuSlX07wE0AoQSImSxRx0EidmxBtWYx5SeRwxn9Z-_KRp1nokWP4Lj0RdIM_OsKI8bRHQPHdNOvcNbjtXeB6OatrW4okKD3MWsEhiZu2kLSgpiHHv0wKssHdKPd-E6lFF3upb1NmGFp6TZkKUY5pY30DtMSaBBJ0cF1LMQGVfpQ3LxmnwU50-rmgbLzgvqdHKChR4eFr9YkD_Aw0D9x1qrcUbqEeJnWsc8kF65ytQdAYZanoxKgb5ztPPyD54YuAEtVVVtbvVmM1qDPQbQ9VYq1huxT_WFp_ERPuvqDlHzmINnFtJ9bYLaSDFHadAkSzK6wxGOfgf1UQIw8W-maopOku0-rKcjy9QdYCnMjv6ijCyRQScQuVYbbW_-s3PpEp3GgHu77nPZfmbUb8XVcvG1ZcyuvMmuOHtkneZcZXBNcsc-wfaS7Ru4YxpYrBuJ1itnxGB9dbc3hEIEIYoRCMTv3n-rOGmAZk1Eo5JNCQCfNmCDKA_x_dIW3lb8Gras-gT3SvxtpGo4E_jmKHf3i-ltySlTZC1bGz4rkW6Xb9FsfxOQBWrF4tEXcURASY9xh1-XwLqFFgMpuInUhaF4pQPXy05JaoE-qdoJNF-f29c1Bd9b5qpDKAeF6So3TnSFS1C9gzE1vqc4dM3W84zdvh1FgNznXN2MFeQsSDQ8Gk7w1j6ltVUYJkDVBxbCkMEPtOebVyfkPL3pc__3VCH9yFX4muTSAQX6ItavNMZ4l99h_BixEUquk6WCuYRcAF1rUbOeh13TKSd2nLNQUd3nSqxe190rUQFs00vhd_KJ-ApHaPkbiZyShVJiIKlmIsC9CV-GUV7HI4CKvCxJOwU9iYfgYuKIoAkusFW-Hr7CU6d9N8c9AVW5kvxUngEfZaibW5-9SoedHprJvhuGPfs8PwpVvQgM8ubgjGsqK6EWhuTO0FKIiWYL1ntZffPmputLJf74jNKp63tChIAbFTWB3zW-MDeSpRvRaGVheGi7rqegfWcfyEJ86bhKNs3wNtWr6gOneX-Lt1vSGMdXwVm81ZL_Mc5qiSrMlt-81dsAPnhjHH2lTfBx-OrYf4tWzTU75M9Y9ENIVoaQZu9AGLSuW6xqwGjnZ9rG-t2C-QX_-ftuOrRmmvkuwW9z5hP33VOXd-yluQvChYHQooB7jROWx1B2Wfwi_hguCAKrl1bPzW_VaeDS76LZCPoYdUg0spWd4kGFbplBXq0FSVfH-SdhquQ5HO4yjTV_mMgj4GgkyG3OVS7o8hou6yrUTkjxencqyWruouUUO7dgTAIMoy651LJQQW_RnX8WQ_S8w7M1HJKNADxAbgBwQR5GcZiHLxbHMjzVA35R6xHYZ2xOF4-OB2D1J6z1SrBaowaV98nWdHDRejXJNxy5zPEMZonswRPAKbUT-rArL82LdwI98wSBjuQfvM0Qvg4u6Wd5Rd-wBA8X39NbYHtBKoeGrrpr99bEzdy8-VhGSQdTZCsfS4_JWX5jV63igXLPLcaUBg3b8xyw4OKwVN50uzB_S0DYMxBCZLh83Rj3RTKT_KekoTKXzeBmrsDSd3KwT38gz6gJWTNJzMaxuDcn_pTbjkreiFEyC3mrclvynVmG-f7Vzms9_JuvWJcHSIFqHhHLsIZT6MP5qjuD6qyh05clPEWGwArDFG8rNe9hlUMcpApswIYnZw-IpUlYAuiLKo3UYFczz6xAqMMDcoSbkbMSWtbM-I6V9I2LEhMDLGLurLpgupeqlxrroyanQ8mkB6Ca0OP8VleHVj7N_9H91NIYeC3DQLcYQBi0xyxcB9SP08lW9FL-oXmD_n3VFv6uObH2w8jxkyOzAg08pVHAoiqo5b1FHlOIhtvC-YRxs64v0AqxkRgLVT422zUU4gtp8KNFgjxvyMxIzh5MtwWK3lJEfgJ2W2l6Cq-FWm76xTSPaI7r3-m0nl3pPFrxr3rgfmsG98A9sFoScN2ExqWYi4mL5YykyRs0mOcdd7n0IK1Osu0kPhj1wTJpHRrDNy7?></g></svg>