<?xml version="1.0" encoding="UTF-8"?>
<svg xmlns="http://www.w3.org/2000/svg" viewBox="0 0 960 520" width="960" height="520">
  <title>Nexus Framework — system context</title>
  <rect width="100%" height="100%" fill="#1e1e2e"/>
  <rect x="0" y="0" width="100%" height="36" fill="#313244"/>
  <circle cx="18" cy="18" r="5" fill="#f38ba8"/>
  <circle cx="34" cy="18" r="5" fill="#fab387"/>
  <circle cx="50" cy="18" r="5" fill="#a6e3a1"/>
  <text x="480" y="24" text-anchor="middle" font-family="sans-serif" font-size="13" fill="#a6adc8" font-weight="bold">Nexus Framework — system context</text>

  <!-- System boundary -->
  <rect x="190" y="70" width="580" height="380" rx="16" fill="none" stroke="#585b70" stroke-width="2" stroke-dasharray="6,4"/>
  <rect x="380" y="58" width="200" height="26" rx="6" fill="#313244"/>
  <text x="480" y="76" text-anchor="middle" font-family="sans-serif" font-size="12" fill="#a6adc8">Nexus Framework</text>

  <!-- Actor: Developer -->
  <circle cx="80" cy="140" r="20" fill="#f5c2e7" opacity="0.8"/>
  <line x1="80" y1="160" x2="80" y2="210" stroke="#f5c2e7" stroke-width="3" stroke-linecap="round"/>
  <line x1="50" y1="185" x2="110" y2="185" stroke="#f5c2e7" stroke-width="3" stroke-linecap="round"/>
  <line x1="80" y1="210" x2="55" y2="250" stroke="#f5c2e7" stroke-width="3" stroke-linecap="round"/>
  <line x1="80" y1="210" x2="105" y2="250" stroke="#f5c2e7" stroke-width="3" stroke-linecap="round"/>
  <text x="80" y="275" text-anchor="middle" font-family="sans-serif" font-size="11" fill="#f5c2e7">Developer</text>

  <!-- Component 1: blueprint.json -->
  <rect x="230" y="120" width="200" height="80" rx="10" fill="#313244" stroke="#fab387" stroke-width="2"/>
  <text x="330" y="155" text-anchor="middle" font-family="sans-serif" font-size="15" font-weight="bold" fill="#fab387">blueprint.json</text>
  <text x="330" y="175" text-anchor="middle" font-family="sans-serif" font-size="10" fill="#a6adc8">node graph + wiring</text>

  <!-- Component 2: ProjectGenerator -->
  <rect x="230" y="240" width="200" height="80" rx="10" fill="#313244" stroke="#89b4fa" stroke-width="2"/>
  <text x="330" y="275" text-anchor="middle" font-family="sans-serif" font-size="15" font-weight="bold" fill="#89b4fa">ProjectGenerator</text>
  <text x="330" y="295" text-anchor="middle" font-family="sans-serif" font-size="10" fill="#a6adc8">:core template engine</text>

  <!-- Component 3: Zig Build -->
  <rect x="230" y="360" width="200" height="80" rx="10" fill="#313244" stroke="#89dceb" stroke-width="2"/>
  <text x="330" y="395" text-anchor="middle" font-family="sans-serif" font-size="15" font-weight="bold" fill="#89dceb">zig build</text>
  <text x="330" y="415" text-anchor="middle" font-family="sans-serif" font-size="10" fill="#a6adc8">C++ compile + link</text>

  <!-- Actor: User -->
  <circle cx="880" cy="240" r="20" fill="#a6e3a1" opacity="0.8"/>
  <line x1="880" y1="260" x2="880" y2="310" stroke="#a6e3a1" stroke-width="3" stroke-linecap="round"/>
  <line x1="850" y1="285" x2="910" y2="285" stroke="#a6e3a1" stroke-width="3" stroke-linecap="round"/>
  <line x1="880" y1="310" x2="855" y2="350" stroke="#a6e3a1" stroke-width="3" stroke-linecap="round"/>
  <line x1="880" y1="310" x2="905" y2="350" stroke="#a6e3a1" stroke-width="3" stroke-linecap="round"/>
  <text x="880" y="375" text-anchor="middle" font-family="sans-serif" font-size="11" fill="#a6e3a1">User</text>

  <!-- Output boxes (on the right side) -->
  <rect x="500" y="150" width="230" height="70" rx="10" fill="#313244" stroke="#a6e3a1" stroke-width="2"/>
  <text x="615" y="182" text-anchor="middle" font-family="sans-serif" font-size="14" font-weight="bold" fill="#a6e3a1">Desktop App</text>
  <text x="615" y="200" text-anchor="middle" font-family="sans-serif" font-size="10" fill="#a6adc8">SDL3 + ImGui + pybind11</text>

  <rect x="500" y="260" width="230" height="70" rx="10" fill="#313244" stroke="#f38ba8" stroke-width="2"/>
  <text x="615" y="292" text-anchor="middle" font-family="sans-serif" font-size="14" font-weight="bold" fill="#f38ba8">Android App</text>
  <text x="615" y="310" text-anchor="middle" font-family="sans-serif" font-size="10" fill="#a6adc8">Zig JNI + Chaquopy</text>

  <!-- Compose client pill -->
  <rect x="500" y="370" width="230" height="40" rx="20" fill="#313244" stroke="#cba6f7" stroke-width="1.5"/>
  <text x="615" y="395" text-anchor="middle" font-family="sans-serif" font-size="11" fill="#cba6f7">:app Compose Client</text>

  <!-- Arrows -->
  <line x1="115" y1="190" x2="225" y2="160" stroke="#585b70" stroke-width="2" marker-end="url(#arrow)"/>
  <line x1="430" y1="160" x2="495" y2="185" stroke="#585b70" stroke-width="2" marker-end="url(#arrow)"/>
  <line x1="330" y1="200" x2="330" y2="235" stroke="#585b70" stroke-width="2" marker-end="url(#arrow)"/>
  <line x1="330" y1="320" x2="330" y2="355" stroke="#585b70" stroke-width="2" marker-end="url(#arrow)"/>
  <line x1="615" y1="220" x2="615" y2="255" stroke="#585b70" stroke-width="2" marker-end="url(#arrow)"/>
  <line x1="880" y1="260" x2="735" y2="200" stroke="#585b70" stroke-width="2" marker-end="url(#arrow)"/>

  <defs>
    <marker id="arrow" viewBox="0 0 10 10" refX="8" refY="5" markerWidth="6" markerHeight="6" orient="auto">
      <path d="M0,0 L10,5 L0,10 Z" fill="#585b70"/>
    </marker>
  </defs>

  <text x="480" y="490" text-anchor="middle" font-family="sans-serif" font-size="10" fill="#585b70">Actors (left/right) · Components (center) · Outputs (right)</text>
</svg>
