<?xml version="1.0" encoding="UTF-8"?>
<svg xmlns="http://www.w3.org/2000/svg" viewBox="0 0 2589 996" width="2589" height="996">
  <title>Generation &amp; builds flow</title>
  <defs>
    <marker id="arrow" markerWidth="10" markerHeight="10" refX="9" refY="5" orient="auto">
      <path d="M0,0 L10,5 L0,10 Z" fill="#37474F"/>
    </marker>
    <marker id="arrow-blue" markerWidth="10" markerHeight="10" refX="9" refY="5" orient="auto">
      <path d="M0,0 L10,5 L0,10 Z" fill="#1565C0"/>
    </marker>
    <style>
      .label { font: bold 14px "JetBrainsMono Nerd Font", "Symbols Nerd Font", Verdana, sans-serif; fill: #263238; font-weight: 700; }
      .desc { font: italic 11px "JetBrainsMono Nerd Font", "Symbols Nerd Font", Verdana, sans-serif; fill: #78909C; }
      .small { font: 11px "JetBrainsMono Nerd Font", "Symbols Nerd Font", Verdana, sans-serif; fill: #546E7A; }
      .mono { font: bold 12px "JetBrainsMono Nerd Font", "Symbols Nerd Font", Consolas, monospace; fill: #263238; font-weight: 700; }
      .legend-title { font: bold 12px "JetBrainsMono Nerd Font", "Symbols Nerd Font", Verdana, sans-serif; fill: #37474F; }
      .layer-label { font: bold 14px "JetBrainsMono Nerd Font", "Symbols Nerd Font", Verdana, sans-serif; fill: #263238; }
      .badge { font: bold 11px "JetBrainsMono Nerd Font", "Symbols Nerd Font", Verdana, sans-serif; fill: #1565C0; }
      .icon { font: 14px "JetBrainsMono Nerd Font", "Symbols Nerd Font", Consolas, monospace; fill: #263238; }
      .node { rx: 10; stroke-width: 2.5; }
      .panel { rx: 12; stroke-width: 2.5; }
      .legend-box { rx: 6; stroke-width: 2; }
    </style>
  </defs>
  <rect width="2589" height="100%" fill="#f8f9fa"/>
  <image href="../nexus-logo.png" x="24" y="16" width="40" height="40" preserveAspectRatio="xMidYMid meet"/>

  <text x="184" y="110" text-anchor="middle" class="layer-label">First run</text>
  <text x="514" y="110" text-anchor="middle" class="layer-label">Scaffold client</text>
  <text x="834" y="110" text-anchor="middle" class="layer-label">:core / :cli</text>
  <text x="1147" y="110" text-anchor="middle" class="layer-label">Output</text>
  <text x="1609" y="110" text-anchor="middle" class="layer-label">Native build</text>
  <text x="2379" y="110" text-anchor="middle" class="layer-label">Optional</text>
  <line x1="320" y1="120" x2="320" y2="746" stroke="#CFD8DC" stroke-width="2" stroke-dasharray="6,4"/>
  <line x1="600" y1="120" x2="600" y2="746" stroke="#CFD8DC" stroke-width="2" stroke-dasharray="6,4"/>
  <line x1="920" y1="120" x2="920" y2="746" stroke="#CFD8DC" stroke-width="2" stroke-dasharray="6,4"/>
  <line x1="1180" y1="120" x2="1180" y2="746" stroke="#CFD8DC" stroke-width="2" stroke-dasharray="6,4"/>
  <line x1="1400" y1="120" x2="1400" y2="746" stroke="#CFD8DC" stroke-width="2" stroke-dasharray="6,4"/>
  <line x1="1760" y1="120" x2="1760" y2="746" stroke="#CFD8DC" stroke-width="2" stroke-dasharray="6,4"/>
  <line x1="2080" y1="120" x2="2080" y2="746" stroke="#CFD8DC" stroke-width="2" stroke-dasharray="6,4"/>
  <rect x="40" y="140" width="288" height="78" class="node" fill="#E8F5E9" stroke="#2E7D32"/>
  <text x="54" y="166" class="icon">&#xf0ad;</text>
  <text x="76" y="168" class="label">
    <tspan x="76" dy="0">Run misc/client-setup/</tspan>
  </text>
  <text x="54" y="187" class="desc">
    <tspan x="54" dy="0">Installs JDK 26 and Git before first</tspan>
    <tspan x="54" dy="14">build</tspan>
  </text>
  <rect x="40" y="266" width="276" height="72" class="node" fill="#E8F5E9" stroke="#2E7D32"/>
  <text x="54" y="292" class="icon">&#xf120;</text>
  <text x="76" y="294" class="label">
    <tspan x="76" dy="0">source env.sh</tspan>
  </text>
  <text x="54" y="313" class="desc">
    <tspan x="54" dy="0">Activates toolchain for Gradle and CMake</tspan>
  </text>
  <rect x="376" y="140" width="276" height="72" class="node" fill="#E3F2FD" stroke="#1565C0"/>
  <text x="390" y="166" class="icon">&#xf108;</text>
  <text x="412" y="168" class="label">
    <tspan x="412" dy="0">./gradlew :app:run</tspan>
  </text>
  <text x="390" y="187" class="desc">
    <tspan x="390" dy="0">Launches Compose Desktop scaffold client</tspan>
  </text>
  <rect x="376" y="260" width="260" height="72" class="node" fill="#E3F2FD" stroke="#1565C0"/>
  <text x="390" y="286" class="icon">&#xf5fd;</text>
  <text x="412" y="288" class="label">
    <tspan x="412" dy="0">Generate Project screen</tspan>
  </text>
  <text x="390" y="307" class="desc">
    <tspan x="390" dy="0">Collects name, type, and output path</tspan>
  </text>
  <rect x="376" y="380" width="263" height="78" class="node" fill="#FFF3E0" stroke="#EF6C00"/>
  <text x="390" y="406" class="icon">&#xf126;</text>
  <text x="412" y="408" class="label">
    <tspan x="412" dy="0">Blueprint Editor?</tspan>
  </text>
  <text x="390" y="427" class="desc">
    <tspan x="390" dy="0">Optional visual edit of</tspan>
    <tspan x="390" dy="14">blueprint.json</tspan>
  </text>
  <rect x="376" y="506" width="260" height="72" class="node" fill="#FFF3E0" stroke="#EF6C00"/>
  <text x="390" y="532" class="icon">&#xf013;</text>
  <text x="412" y="534" class="label">
    <tspan x="412" dy="0">BlueprintValidator</tspan>
  </text>
  <text x="390" y="553" class="desc">
    <tspan x="390" dy="0">Schema check before codegen proceeds</tspan>
  </text>
  <rect x="376" y="626" width="260" height="72" class="node" fill="#FFF3E0" stroke="#EF6C00"/>
  <text x="390" y="652" class="icon">&#xf135;</text>
  <text x="412" y="654" class="label">
    <tspan x="412" dy="0">ProjectGenerator</tspan>
  </text>
  <text x="390" y="673" class="desc">
    <tspan x="390" dy="0">Orchestrates template copy and emit</tspan>
  </text>
  <rect x="700" y="140" width="260" height="72" class="node" fill="#F3E5F5" stroke="#6A1B9A"/>
  <text x="714" y="166" class="icon">&#xf487;</text>
  <text x="736" y="168" class="label">
    <tspan x="736" dy="0">Read template/</tspan>
  </text>
  <text x="714" y="187" class="desc">
    <tspan x="714" dy="0">desktop-app or android-app skeleton</tspan>
  </text>
  <rect x="700" y="260" width="260" height="72" class="node" fill="#F3E5F5" stroke="#6A1B9A"/>
  <text x="714" y="286" class="icon">&#xf121;</text>
  <text x="736" y="288" class="label">
    <tspan x="736" dy="0">TemplateEngine</tspan>
  </text>
  <text x="714" y="307" class="desc">
    <tspan x="714" dy="0">Substitutes {{placeholders}} in files</tspan>
  </text>
  <rect x="700" y="380" width="269" height="78" class="node" fill="#F3E5F5" stroke="#6A1B9A"/>
  <text x="714" y="406" class="icon">&#xf15b;</text>
  <text x="736" y="408" class="label">
    <tspan x="736" dy="0">Validate blueprint.json</tspan>
  </text>
  <text x="714" y="427" class="desc">
    <tspan x="714" dy="0">Ensures graph nodes and edges are</tspan>
    <tspan x="714" dy="14">valid</tspan>
  </text>
  <rect x="700" y="506" width="260" height="72" class="node" fill="#F3E5F5" stroke="#6A1B9A"/>
  <text x="714" y="532" class="icon">&#xf466;</text>
  <text x="736" y="534" class="label">
    <tspan x="736" dy="0">Copy template/shared/</tspan>
  </text>
  <text x="714" y="553" class="desc">
    <tspan x="714" dy="0">DSL, themes, and runtime helpers</tspan>
  </text>
  <rect x="700" y="626" width="260" height="72" class="node" fill="#F3E5F5" stroke="#6A1B9A"/>
  <text x="714" y="652" class="icon">&#xf15b;</text>
  <text x="736" y="654" class="label">
    <tspan x="736" dy="0">Write nxs_config.json</tspan>
  </text>
  <text x="714" y="673" class="desc">
    <tspan x="714" dy="0">Schema v2 project metadata on disk</tspan>
  </text>
  <rect x="1017" y="140" width="260" height="72" class="node" fill="#E0F7FA" stroke="#00838F"/>
  <text x="1031" y="166" class="icon">&#xf466;</text>
  <text x="1053" y="168" class="label">
    <tspan x="1053" dy="0">Emit builds/framework/</tspan>
  </text>
  <text x="1031" y="187" class="desc">
    <tspan x="1031" dy="0">Out-of-source native project tree</tspan>
  </text>
  <rect x="1325" y="140" width="260" height="72" class="node" fill="#ECEFF1" stroke="#455A64"/>
  <text x="1339" y="166" class="icon">&#xf126;</text>
  <text x="1361" y="168" class="label">
    <tspan x="1361" dy="0">Desktop?</tspan>
  </text>
  <text x="1339" y="187" class="desc">
    <tspan x="1339" dy="0">Branch on project type selection</tspan>
  </text>
  <rect x="1633" y="140" width="260" height="72" class="node" fill="#E3F2FD" stroke="#1565C0"/>
  <text x="1647" y="166" class="icon">&#xf108;</text>
  <text x="1669" y="168" class="label">
    <tspan x="1669" dy="0">cmake --preset debug</tspan>
  </text>
  <text x="1647" y="187" class="desc">
    <tspan x="1647" dy="0">Configure CMake + Ninja build files</tspan>
  </text>
  <rect x="1633" y="260" width="260" height="72" class="node" fill="#E3F2FD" stroke="#1565C0"/>
  <text x="1647" y="286" class="icon">&#xf013;</text>
  <text x="1669" y="288" class="label">
    <tspan x="1669" dy="0">cmake --build</tspan>
  </text>
  <text x="1647" y="307" class="desc">
    <tspan x="1647" dy="0">Compile C++ sources and link binary</tspan>
  </text>
  <rect x="1633" y="380" width="260" height="72" class="node" fill="#E3F2FD" stroke="#1565C0"/>
  <text x="1647" y="406" class="icon">&#xf135;</text>
  <text x="1669" y="408" class="label">
    <tspan x="1669" dy="0">Run native binary</tspan>
  </text>
  <text x="1647" y="427" class="desc">
    <tspan x="1647" dy="0">SDL3 desktop app with pybind11</tspan>
  </text>
  <rect x="1941" y="140" width="260" height="72" class="node" fill="#FCE4EC" stroke="#C2185B"/>
  <text x="1955" y="166" class="icon">&#xf17b;</text>
  <text x="1977" y="168" class="label">
    <tspan x="1977" dy="0">assembleDebug</tspan>
  </text>
  <text x="1955" y="187" class="desc">
    <tspan x="1955" dy="0">Gradle builds Android APK via NDK</tspan>
  </text>
  <rect x="1941" y="260" width="260" height="72" class="node" fill="#FCE4EC" stroke="#C2185B"/>
  <text x="1955" y="286" class="icon">&#xf1e6;</text>
  <text x="1977" y="288" class="label">
    <tspan x="1977" dy="0">Djinni + Chaquopy</tspan>
  </text>
  <text x="1955" y="307" class="desc">
    <tspan x="1955" dy="0">JNI bridge and embedded Python</tspan>
  </text>
  <rect x="1941" y="380" width="260" height="72" class="node" fill="#FCE4EC" stroke="#C2185B"/>
  <text x="1955" y="406" class="icon">&#xf3cd;</text>
  <text x="1977" y="408" class="label">
    <tspan x="1977" dy="0">Install APK</tspan>
  </text>
  <text x="1955" y="427" class="desc">
    <tspan x="1955" dy="0">Deploy to device or emulator</tspan>
  </text>
  <rect x="2249" y="140" width="260" height="72" class="node" fill="#E8EAF6" stroke="#3949AB"/>
  <text x="2263" y="166" class="icon">&#xf0c2;</text>
  <text x="2285" y="168" class="label">
    <tspan x="2285" dy="0">deployToBuildsClient</tspan>
  </text>
  <text x="2263" y="187" class="desc">
    <tspan x="2263" dy="0">Copy client distro to builds/client/</tspan>
  </text>
  <line x1="184" y1="218" x2="178" y2="266" stroke="#37474F" stroke-width="1.5" marker-end="url(#arrow)"/>
  <line x1="316" y1="302" x2="376" y2="176" stroke="#37474F" stroke-width="1.5" marker-end="url(#arrow)"/>
  <line x1="514" y1="212" x2="506" y2="260" stroke="#37474F" stroke-width="1.5" marker-end="url(#arrow)"/>
  <line x1="506" y1="332" x2="507" y2="380" stroke="#37474F" stroke-width="1.5" marker-end="url(#arrow)"/>
  <line x1="507" y1="458" x2="506" y2="506" stroke="#37474F" stroke-width="1.5" marker-end="url(#arrow)"/>
  <line x1="506" y1="578" x2="506" y2="626" stroke="#37474F" stroke-width="1.5" marker-end="url(#arrow)"/>
  <path d="M636,662 L636,176 L700,176 L700,176" fill="none" stroke="#37474F" stroke-width="1.5" marker-end="url(#arrow)"/>
  <line x1="830" y1="212" x2="830" y2="260" stroke="#37474F" stroke-width="1.5" marker-end="url(#arrow)"/>
  <line x1="830" y1="332" x2="834" y2="380" stroke="#37474F" stroke-width="1.5" marker-end="url(#arrow)"/>
  <line x1="834" y1="458" x2="830" y2="506" stroke="#37474F" stroke-width="1.5" marker-end="url(#arrow)"/>
  <line x1="830" y1="578" x2="830" y2="626" stroke="#37474F" stroke-width="1.5" marker-end="url(#arrow)"/>
  <line x1="960" y1="662" x2="1017" y2="176" stroke="#37474F" stroke-width="1.5" marker-end="url(#arrow)"/>
  <line x1="1277" y1="176" x2="1325" y2="176" stroke="#37474F" stroke-width="1.5" marker-end="url(#arrow)"/>
  <path d="M1585,176 L1585,100 L1633,100 L1633,176" fill="none" stroke="#37474F" stroke-width="1.5" marker-end="url(#arrow)"/>
  <path d="M1585,176 L1595,120 L1951,120 L1941,176" fill="none" stroke="#37474F" stroke-width="1.5" marker-end="url(#arrow)"/>
  <line x1="1763" y1="212" x2="1763" y2="260" stroke="#37474F" stroke-width="1.5" marker-end="url(#arrow)"/>
  <line x1="1763" y1="332" x2="1763" y2="380" stroke="#37474F" stroke-width="1.5" marker-end="url(#arrow)"/>
  <line x1="2071" y1="212" x2="2071" y2="260" stroke="#37474F" stroke-width="1.5" marker-end="url(#arrow)"/>
  <line x1="2071" y1="332" x2="2071" y2="380" stroke="#37474F" stroke-width="1.5" marker-end="url(#arrow)"/>
  <path d="M2201,416 L2201,176 L2249,176 L2249,176" fill="none" stroke="#37474F" stroke-width="1.5" marker-end="url(#arrow)"/>
  <rect x="680" y="746" width="380" height="70" class="panel" fill="#FFFDE7" stroke="#F9A825"/>
  <text x="700" y="774" class="small">Headless: ./gradlew :cli:run --args="generate …"</text>
  <text x="700" y="794" class="desc">Optional Docker path via misc/docker/</text>
  <rect x="24" y="836" width="520" height="88" fill="#FFFFFF" stroke="#B0BEC5" stroke-width="2" rx="10"/>
  <text x="40" y="858" class="legend-title">Pipeline stages</text>
  <rect x="40" y="860" width="16" height="16" class="legend-box" fill="#E8F5E9" stroke="#2E7D32"/>
  <text x="62" y="872" class="small">Setup — JDK 26 + Git bootstrap</text>
  <rect x="300" y="860" width="16" height="16" class="legend-box" fill="#E3F2FD" stroke="#1565C0"/>
  <text x="322" y="872" class="small">Client — Compose Generate UI</text>
  <rect x="40" y="882" width="16" height="16" class="legend-box" fill="#F3E5F5" stroke="#6A1B9A"/>
  <text x="62" y="894" class="small">Core — template engine + emit</text>
  <rect x="300" y="882" width="16" height="16" class="legend-box" fill="#FCE4EC" stroke="#C2185B"/>
  <text x="322" y="894" class="small">Android — Gradle + Chaquopy path</text>
</svg>