<?xml version="1.0" encoding="UTF-8"?>
<svg xmlns="http://www.w3.org/2000/svg" viewBox="0 0 650 600" width="650" height="600">
  <title>Nexus build pipeline — use case view</title>
  <rect width="100%" height="100%" fill="#1e1e2e"/>
  <rect x="0" y="0" width="100%" height="36" fill="#313244"/>
  <circle cx="18" cy="18" r="6" fill="#f38ba8"/>
  <circle cx="36" cy="18" r="6" fill="#fab387"/>
  <circle cx="54" cy="18" r="6" fill="#a6e3a1"/>
  <text x="325" y="24" text-anchor="middle" font-family="sans-serif" font-size="14" fill="#a6adc8" font-weight="bold">Build pipeline — use cases</text>

  <rect x="180" y="60" width="320" height="470" rx="16" fill="none" stroke="#585b70" stroke-width="2" stroke-dasharray="6,4"/>
  <rect x="240" y="48" width="200" height="26" rx="6" fill="#313244"/>
  <text x="340" y="66" text-anchor="middle" font-family="sans-serif" font-size="13" fill="#a6adc8">Nexus Build Pipeline</text>

  <ellipse cx="340" cy="130" rx="130" ry="36" fill="#313244" stroke="#89b4fa" stroke-width="2"/>
  <text x="340" y="135" text-anchor="middle" font-family="sans-serif" font-size="14" fill="#89b4fa" font-weight="bold">Design Blueprint</text>
  <text x="340" y="155" text-anchor="middle" font-family="sans-serif" font-size="10" fill="#585b70">blueprint.json + :app editor</text>

  <ellipse cx="340" cy="240" rx="130" ry="36" fill="#313244" stroke="#fab387" stroke-width="2"/>
  <text x="340" y="245" text-anchor="middle" font-family="sans-serif" font-size="14" fill="#fab387" font-weight="bold">Generate Project</text>
  <text x="340" y="265" text-anchor="middle" font-family="sans-serif" font-size="10" fill="#585b70">:core + template engine</text>

  <ellipse cx="340" cy="350" rx="120" ry="36" fill="#313244" stroke="#a6e3a1" stroke-width="2"/>
  <text x="340" y="355" text-anchor="middle" font-family="sans-serif" font-size="14" fill="#a6e3a1" font-weight="bold">Compile Binary</text>
  <text x="340" y="375" text-anchor="middle" font-family="sans-serif" font-size="10" fill="#585b70">zig build · CMake removed</text>

  <ellipse cx="340" cy="460" rx="120" ry="36" fill="#313244" stroke="#cba6f7" stroke-width="2"/>
  <text x="340" y="465" text-anchor="middle" font-family="sans-serif" font-size="14" fill="#cba6f7" font-weight="bold">Ship to Target</text>
  <text x="340" y="485" text-anchor="middle" font-family="sans-serif" font-size="10" fill="#585b70">Desktop binary / Android APK</text>

  <line x1="340" y1="166" x2="340" y2="200" stroke="#585b70" stroke-width="2.5" marker-end="url(#arrow)"/>
  <line x1="340" y1="276" x2="340" y2="310" stroke="#585b70" stroke-width="2.5" marker-end="url(#arrow)"/>
  <line x1="340" y1="386" x2="340" y2="420" stroke="#585b70" stroke-width="2.5" marker-end="url(#arrow)"/>

  <circle cx="90" cy="260" r="22" fill="#f5c2e7" opacity="0.8"/>
  <line x1="90" y1="282" x2="90" y2="330" stroke="#f5c2e7" stroke-width="3" stroke-linecap="round"/>
  <line x1="58" y1="306" x2="122" y2="306" stroke="#f5c2e7" stroke-width="3" stroke-linecap="round"/>
  <line x1="90" y1="330" x2="62" y2="372" stroke="#f5c2e7" stroke-width="3" stroke-linecap="round"/>
  <line x1="90" y1="330" x2="118" y2="372" stroke="#f5c2e7" stroke-width="3" stroke-linecap="round"/>
  <text x="90" y="400" text-anchor="middle" font-family="sans-serif" font-size="13" fill="#f5c2e7">Developer</text>

  <line x1="112" y1="270" x2="208" y2="145" stroke="#585b70" stroke-width="1.5" marker-end="url(#arrow)"/>
  <line x1="112" y1="285" x2="208" y2="250" stroke="#585b70" stroke-width="1.5" marker-end="url(#arrow)"/>
  <line x1="112" y1="300" x2="218" y2="360" stroke="#585b70" stroke-width="1.5" marker-end="url(#arrow)"/>

  <circle cx="560" cy="300" r="22" fill="#a6e3a1" opacity="0.8"/>
  <line x1="560" y1="322" x2="560" y2="370" stroke="#a6e3a1" stroke-width="3" stroke-linecap="round"/>
  <line x1="528" y1="346" x2="592" y2="346" stroke="#a6e3a1" stroke-width="3" stroke-linecap="round"/>
  <line x1="560" y1="370" x2="532" y2="412" stroke="#a6e3a1" stroke-width="3" stroke-linecap="round"/>
  <line x1="560" y1="370" x2="588" y2="412" stroke="#a6e3a1" stroke-width="3" stroke-linecap="round"/>
  <text x="560" y="440" text-anchor="middle" font-family="sans-serif" font-size="13" fill="#a6e3a1">Desktop / Android</text>

  <line x1="538" y1="310" x2="462" y2="360" stroke="#585b70" stroke-width="1.5" marker-end="url(#arrow)"/>
  <line x1="538" y1="330" x2="462" y2="460" stroke="#585b70" stroke-width="1.5" marker-end="url(#arrow)"/>

  <defs>
    <marker id="arrow" viewBox="0 0 10 10" refX="8" refY="5" markerWidth="7" markerHeight="7" orient="auto">
      <path d="M0,0 L10,5 L0,10 Z" fill="#585b70"/>
    </marker>
  </defs>

  <text x="325" y="590" text-anchor="middle" font-family="sans-serif" font-size="11" fill="#585b70">Use cases: what the framework does for you</text>
</svg>
