<?plantuml 1.2026.2?><svg xmlns="http://www.w3.org/2000/svg" xmlns:xlink="http://www.w3.org/1999/xlink" contentStyleType="text/css" data-diagram-type="ACTIVITY" height="1674px" preserveAspectRatio="none" style="width:2154px;height:1674px;background:#FFFFFF;" version="1.1" viewBox="0 0 2154 1674" width="2154px" zoomAndPan="magnify"><title>Nexus &#8212; Generation &amp; Builds Flow
from first-run setup to runnable native app</title><defs/><g><g class="title" data-source-line="8"><text fill="#000000" font-family="Verdana" font-size="22" font-weight="bold" lengthAdjust="spacing" textLength="378.0932" x="886.8991" y="38.5181">Nexus &#8212; Generation &amp; Builds Flow</text><text fill="#000000" font-family="Verdana" font-size="22" font-weight="bold" lengthAdjust="spacing" textLength="473.8816" x="839.005" y="68.4822">from first-run setup to runnable native app</text></g><rect fill="#FFFFFF" height="24.5158" style="stroke:#FFFFFF;stroke-width:1;" width="2131.8915" x="10" y="89.7022"/><ellipse cx="118.6287" cy="129.218" fill="#FFFFFF" rx="10" ry="10" style="stroke:#000000;stroke-width:1;"/><rect fill="#E8F4FD" height="52.6882" rx="12.5" ry="12.5" style="stroke:#1565C0;stroke-width:1;" width="205.2573" x="16" y="159.218"/><text fill="#000000" font-family="Verdana" font-size="12" lengthAdjust="spacing" textLength="125.7849" x="26" y="182.0461">Run client-setup script</text><text fill="#000000" font-family="Verdana" font-size="12" lengthAdjust="spacing" textLength="185.2573" x="26" y="198.3902">linux/setup.sh &#183; macos &#183; windows</text><path d="M240.1293,235.5443 L240.1293,254.2504 L220.1293,258.2504 L240.1293,262.2504 L240.1293,280.9564 A0,0 0 0 0 240.1293,280.9564 L454.6215,280.9564 A0,0 0 0 0 454.6215,280.9564 L454.6215,245.5443 L444.6215,235.5443 L240.1293,235.5443 A0,0 0 0 0 240.1293,235.5443" fill="#FFFFFF" style="stroke:#000000;stroke-width:1;"/><path d="M444.6215,235.5443 L444.6215,245.5443 L454.6215,245.5443 L444.6215,235.5443" fill="#FFFFFF" style="stroke:#000000;stroke-width:1;"/><text fill="#000000" font-family="Verdana" font-size="13" lengthAdjust="spacing" textLength="150.0721" x="246.1293" y="254.4414">buildSrc requires JDK 26.</text><text fill="#000000" font-family="Verdana" font-size="13" lengthAdjust="spacing" textLength="193.4922" x="246.1293" y="272.1474">Foojay can bootstrap if missing.</text><rect fill="#E8F4FD" height="52.6882" rx="12.5" ry="12.5" style="stroke:#1565C0;stroke-width:1;" width="203.0013" x="17.128" y="231.9062"/><text fill="#000000" font-family="Verdana" font-size="12" lengthAdjust="spacing" textLength="71.2685" x="27.128" y="254.7343">Load env file</text><text fill="#000000" font-family="Verdana" font-size="12" lengthAdjust="spacing" textLength="183.0013" x="27.128" y="271.0784">client-setup/env.sh (JDK 26 + Git)</text><line style="stroke:#000000;stroke-width:1;" x1="10" x2="10" y1="89.7022" y2="1667.8922"/><rect fill="#E8F4FD" height="52.6882" rx="12.5" ry="12.5" style="stroke:#1565C0;stroke-width:1;" width="158.025" x="523.7319" y="304.5945"/><text fill="#000000" font-family="Verdana" font-size="12" lengthAdjust="spacing" textLength="104.2567" x="533.7319" y="327.4226">./gradlew :app:run</text><text fill="#000000" font-family="Verdana" font-size="12" lengthAdjust="spacing" textLength="138.025" x="533.7319" y="343.7667">Compose Desktop (:app)</text><rect fill="#E8F4FD" height="52.6882" rx="12.5" ry="12.5" style="stroke:#1565C0;stroke-width:1;" width="177.1891" x="514.1498" y="377.2827"/><text fill="#000000" font-family="Verdana" font-size="12" lengthAdjust="spacing" textLength="110.2688" x="524.1498" y="400.1108">Counter MVC demo</text><text fill="#000000" font-family="Verdana" font-size="12" lengthAdjust="spacing" textLength="12.2161" x="524.1498" y="416.4549">or</text><text fill="#000000" font-family="Verdana" font-size="12" font-weight="bold" lengthAdjust="spacing" textLength="101.3167" x="539.486" y="416.4549">Generate Project</text><text fill="#000000" font-family="Verdana" font-size="12" lengthAdjust="spacing" textLength="37.4163" x="643.9227" y="416.4549">screen</text><rect fill="#E8F4FD" height="52.6882" rx="12.5" ry="12.5" style="stroke:#1565C0;stroke-width:1;" width="274.2458" x="465.6215" y="449.9709"/><text fill="#000000" font-family="Verdana" font-size="12" lengthAdjust="spacing" textLength="149.737" x="475.6215" y="472.799">Optional: ./gradlew :cli:run</text><text fill="#000000" font-family="Verdana" font-size="12" lengthAdjust="spacing" text-decoration="line-through" textLength="87.6966" x="475.6215" y="489.1431">args="generate</text><text fill="#000000" font-family="Verdana" font-size="12" lengthAdjust="spacing" textLength="163.4292" x="566.4381" y="489.1431">type desktop --name MyApp"</text><line style="stroke:#000000;stroke-width:1;" x1="459.6215" x2="459.6215" y1="89.7022" y2="1667.8922"/><rect fill="#FFFFFF" height="345.4767" style="stroke:#000000;stroke-width:1;" width="253.7575" x="749.8673" y="512.6592"/><path d="M873.9389,512.6592 L873.9389,524.7271 L863.9389,534.7271 L749.8673,534.7271" fill="none" style="stroke:#000000;stroke-width:1;"/><text fill="#000000" font-family="Verdana" font-size="14" lengthAdjust="spacing" textLength="114.0715" x="752.8673" y="528.6251">:core (misc/core/)</text><rect fill="#E8F4FD" height="52.6882" rx="12.5" ry="12.5" style="stroke:#1565C0;stroke-width:1;" width="233.7575" x="759.8673" y="551.7271"/><text fill="#000000" font-family="Verdana" font-size="12" lengthAdjust="spacing" textLength="132.061" x="769.8673" y="574.5552">ProjectGenerator reads</text><text fill="#000000" font-family="Verdana" font-size="12" lengthAdjust="spacing" textLength="213.7575" x="769.8673" y="590.8993">template/desktop-app or android-app</text><rect fill="#E8F4FD" height="52.6882" rx="12.5" ry="12.5" style="stroke:#1565C0;stroke-width:1;" width="220.0174" x="766.7374" y="624.4153"/><text fill="#000000" font-family="Verdana" font-size="12" lengthAdjust="spacing" textLength="141.277" x="776.7374" y="647.2434">TemplateEngine resolves</text><text fill="#000000" font-family="Verdana" font-size="12" lengthAdjust="spacing" textLength="200.0174" x="776.7374" y="663.5875">{{projectName}}, {{windowTitle}}, &#8230;</text><rect fill="#E8F4FD" height="36.3441" rx="12.5" ry="12.5" style="stroke:#1565C0;stroke-width:1;" width="219.8134" x="766.8394" y="697.1035"/><text fill="#000000" font-family="Verdana" font-size="12" lengthAdjust="spacing" textLength="199.8134" x="776.8394" y="719.9316">Copy shared/ DSL, themes, runtime</text><rect fill="#E8F4FD" height="36.3441" rx="12.5" ry="12.5" style="stroke:#1565C0;stroke-width:1;" width="210.0933" x="771.6994" y="753.4476"/><text fill="#000000" font-family="Verdana" font-size="12" lengthAdjust="spacing" textLength="190.0933" x="781.6994" y="776.2757">Write nxs_config.json (schema v2)</text><rect fill="#E8F4FD" height="36.3441" rx="12.5" ry="12.5" style="stroke:#1565C0;stroke-width:1;" width="160.005" x="796.7436" y="809.7918"/><text fill="#000000" font-family="Verdana" font-size="12" lengthAdjust="spacing" textLength="140.005" x="806.7436" y="832.6199">Write blueprint.json stub</text><rect fill="#FFFFFF" height="160.1003" style="stroke:#000000;stroke-width:1;" width="236.0454" x="758.7234" y="868.1359"/><path d="M852.947,868.1359 L852.947,880.2038 L842.947,890.2038 L758.7234,890.2038" fill="none" style="stroke:#000000;stroke-width:1;"/><text fill="#000000" font-family="Verdana" font-size="14" lengthAdjust="spacing" textLength="84.2236" x="761.7234" y="884.1018">:cli (misc/cli/)</text><rect fill="#E8F4FD" height="36.3441" rx="12.5" ry="12.5" style="stroke:#1565C0;stroke-width:1;" width="152.2049" x="800.6436" y="907.2038"/><text fill="#000000" font-family="Verdana" font-size="12" lengthAdjust="spacing" textLength="132.2049" x="810.6436" y="930.0319">Same pipeline headless</text><rect fill="#E8F4FD" height="52.6882" rx="12.5" ry="12.5" style="stroke:#1565C0;stroke-width:1;" width="216.0454" x="768.7234" y="963.5479"/><text fill="#000000" font-family="Verdana" font-size="12" lengthAdjust="spacing" textLength="128.3049" x="778.7234" y="986.376">Optional: misc/docker/</text><text fill="#000000" font-family="Verdana" font-size="12" lengthAdjust="spacing" textLength="196.0454" x="778.7234" y="1002.7201">misc/scripts/generate-in-docker.sh</text><line style="stroke:#000000;stroke-width:1;" x1="743.8673" x2="743.8673" y1="89.7022" y2="1667.8922"/><path d="M1218.938,1043.0212 L1218.938,1070.5803 L1198.938,1074.5803 L1218.938,1078.5803 L1218.938,1106.1393 A0,0 0 0 0 1218.938,1106.1393 L1414.1512,1106.1393 A0,0 0 0 0 1414.1512,1106.1393 L1414.1512,1053.0212 L1404.1512,1043.0212 L1218.938,1043.0212 A0,0 0 0 0 1218.938,1043.0212" fill="#FFFFFF" style="stroke:#000000;stroke-width:1;"/><path d="M1404.1512,1043.0212 L1404.1512,1053.0212 L1414.1512,1053.0212 L1404.1512,1043.0212" fill="#FFFFFF" style="stroke:#000000;stroke-width:1;"/><text fill="#000000" font-family="Verdana" font-size="13" lengthAdjust="spacing" textLength="150.4622" x="1224.938" y="1061.9182">Out-of-source by design.</text><text fill="#000000" font-family="Verdana" font-size="13" lengthAdjust="spacing" textLength="174.2132" x="1224.938" y="1079.6243">Git-ignored generated trees.</text><text fill="#000000" font-family="Verdana" font-size="13" lengthAdjust="spacing" textLength="142.7402" x="1224.938" y="1097.3303">See builds/README.md</text><rect fill="#E8F4FD" height="52.6882" rx="12.5" ry="12.5" style="stroke:#1565C0;stroke-width:1;" width="185.3132" x="1013.6248" y="1048.2361"/><text fill="#000000" font-family="Verdana" font-size="12" lengthAdjust="spacing" textLength="82.7046" x="1023.6248" y="1071.0642">Emit project to</text><text fill="#000000" font-family="Verdana" font-size="12" font-weight="bold" lengthAdjust="spacing" textLength="165.3132" x="1023.6248" y="1087.4083">builds/framework/&lt;name&gt;/</text><line style="stroke:#000000;stroke-width:1;" x1="1007.6248" x2="1007.6248" y1="89.7022" y2="1667.8922"/><polygon fill="#E8F4FD" points="1656.8649,1126.1393,1704.4066,1126.1393,1716.4066,1138.1393,1704.4066,1150.1393,1656.8649,1150.1393,1644.8649,1138.1393,1656.8649,1126.1393" style="stroke:#1565C0;stroke-width:1;"/><text fill="#000000" font-family="Verdana" font-size="11" lengthAdjust="spacing" textLength="47.5417" x="1656.8649" y="1142.4072">Desktop?</text><text fill="#000000" font-family="Verdana" font-size="11" lengthAdjust="spacing" textLength="17.0829" x="1627.782" y="1134.9163">yes</text><text fill="#000000" font-family="Verdana" font-size="11" lengthAdjust="spacing" textLength="41.3927" x="1716.4066" y="1134.9163">Android</text><rect fill="#E8F4FD" height="36.3441" rx="12.5" ry="12.5" style="stroke:#1565C0;stroke-width:1;" width="191.4932" x="1460.3474" y="1160.1393"/><text fill="#000000" font-family="Verdana" font-size="12" lengthAdjust="spacing" textLength="171.4932" x="1470.3474" y="1182.9674">cd builds/framework/&lt;name&gt;/</text><rect fill="#E8F4FD" height="36.3441" rx="12.5" ry="12.5" style="stroke:#1565C0;stroke-width:1;" width="143.1329" x="1484.5276" y="1231.4834"/><text fill="#000000" font-family="Verdana" font-size="12" lengthAdjust="spacing" textLength="123.1329" x="1494.5276" y="1254.3115">cmake --preset debug</text><rect fill="#E8F4FD" height="36.3441" rx="12.5" ry="12.5" style="stroke:#1565C0;stroke-width:1;" width="166.8931" x="1472.6475" y="1302.8275"/><text fill="#000000" font-family="Verdana" font-size="12" lengthAdjust="spacing" textLength="36.8883" x="1482.6475" y="1325.6556">cmake</text><text fill="#000000" font-family="Verdana" font-size="12" lengthAdjust="spacing" text-decoration="line-through" textLength="28.3682" x="1522.6558" y="1325.6556">build</text><text fill="#000000" font-family="Verdana" font-size="12" lengthAdjust="spacing" textLength="75.3965" x="1554.144" y="1325.6556">preset debug</text><rect fill="#E8F4FD" height="52.6882" rx="12.5" ry="12.5" style="stroke:#1565C0;stroke-width:1;" width="261.8857" x="1425.1512" y="1374.1716"/><text fill="#000000" font-family="Verdana" font-size="12" lengthAdjust="spacing" textLength="61.1164" x="1435.1512" y="1396.9997">Run binary</text><text fill="#000000" font-family="Verdana" font-size="12" lengthAdjust="spacing" textLength="241.8857" x="1435.1512" y="1413.3438">builds/framework/&lt;name&gt;/debug/&lt;name&gt;</text><rect fill="#E8F4FD" height="52.6882" rx="12.5" ry="12.5" style="stroke:#1565C0;stroke-width:1;" width="183.0452" x="1713.6549" y="1160.1393"/><text fill="#000000" font-family="Verdana" font-size="12" lengthAdjust="spacing" textLength="132.0369" x="1723.6549" y="1182.9674">Open in Android Studio</text><text fill="#000000" font-family="Verdana" font-size="12" lengthAdjust="spacing" textLength="163.0452" x="1723.6549" y="1199.3115">or ./gradlew assembleDebug</text><rect fill="#E8F4FD" height="36.3441" rx="12.5" ry="12.5" style="stroke:#1565C0;stroke-width:1;" width="196.2812" x="1707.0369" y="1247.8275"/><text fill="#000000" font-family="Verdana" font-size="12" lengthAdjust="spacing" textLength="176.2812" x="1717.0369" y="1270.6556">Djinni + Chaquopy + SDL3 GLES</text><rect fill="#E8F4FD" height="36.3441" rx="12.5" ry="12.5" style="stroke:#1565C0;stroke-width:1;" width="173.8531" x="1718.2509" y="1319.1716"/><text fill="#000000" font-family="Verdana" font-size="12" lengthAdjust="spacing" textLength="153.8531" x="1728.2509" y="1341.9997">Install APK on device/tablet</text><polygon fill="#E8F4FD" points="1680.6357,1432.8598,1692.6357,1444.8598,1680.6357,1456.8598,1668.6357,1444.8598,1680.6357,1432.8598" style="stroke:#1565C0;stroke-width:1;"/><line style="stroke:#000000;stroke-width:1;" x1="1419.1512" x2="1419.1512" y1="89.7022" y2="1667.8922"/><rect fill="#E8F4FD" height="36.3441" rx="12.5" ry="12.5" style="stroke:#1565C0;stroke-width:1;" width="223.2334" x="1913.3181" y="1476.8598"/><text fill="#000000" font-family="Verdana" font-size="12" lengthAdjust="spacing" textLength="203.2334" x="1923.3181" y="1499.6879">./gradlew :app:deployToBuildsClient</text><rect fill="#E8F4FD" height="36.3441" rx="12.5" ry="12.5" style="stroke:#1565C0;stroke-width:1;" width="182.5158" x="1933.6769" y="1533.204"/><text fill="#000000" font-family="Verdana" font-size="12" lengthAdjust="spacing" textLength="162.5158" x="1943.6769" y="1556.0321">Artifacts &#8594; builds/client/app/</text><rect fill="#E8F4FD" height="36.3441" rx="12.5" ry="12.5" style="stroke:#1565C0;stroke-width:1;" width="219.968" x="1914.9508" y="1589.5481"/><text fill="#000000" font-family="Verdana" font-size="12" lengthAdjust="spacing" textLength="199.968" x="1924.9508" y="1612.3762">Packages &#8594; builds/client/packages/</text><ellipse cx="2024.9348" cy="1656.8922" fill="none" rx="11" ry="11" style="stroke:#000000;stroke-width:1;"/><ellipse cx="2024.9348" cy="1656.8922" fill="#FFFFFF" rx="6" ry="6" style="stroke:#000000;stroke-width:1;"/><line style="stroke:#000000;stroke-width:1;" x1="1907.3181" x2="1907.3181" y1="89.7022" y2="1667.8922"/><line style="stroke:#000000;stroke-width:1;" x1="2140.5515" x2="2140.5515" y1="89.7022" y2="1667.8922"/><line style="stroke:#37474F;stroke-width:1;" x1="118.6287" x2="118.6287" y1="139.218" y2="159.218"/><polygon fill="#37474F" points="114.6287,149.218,118.6287,159.218,122.6287,149.218,118.6287,153.218" style="stroke:#37474F;stroke-width:1;"/><line style="stroke:#37474F;stroke-width:1;" x1="118.6287" x2="118.6287" y1="211.9062" y2="231.9062"/><polygon fill="#37474F" points="114.6287,221.9062,118.6287,231.9062,122.6287,221.9062,118.6287,225.9062" style="stroke:#37474F;stroke-width:1;"/><line style="stroke:#37474F;stroke-width:1;" x1="602.7444" x2="602.7444" y1="357.2827" y2="377.2827"/><polygon fill="#37474F" points="598.7444,367.2827,602.7444,377.2827,606.7444,367.2827,602.7444,371.2827" style="stroke:#37474F;stroke-width:1;"/><line style="stroke:#37474F;stroke-width:1;" x1="602.7444" x2="602.7444" y1="429.9709" y2="449.9709"/><polygon fill="#37474F" points="598.7444,439.9709,602.7444,449.9709,606.7444,439.9709,602.7444,443.9709" style="stroke:#37474F;stroke-width:1;"/><line style="stroke:#37474F;stroke-width:1;" x1="876.7461" x2="876.7461" y1="604.4153" y2="624.4153"/><polygon fill="#37474F" points="872.7461,614.4153,876.7461,624.4153,880.7461,614.4153,876.7461,618.4153" style="stroke:#37474F;stroke-width:1;"/><line style="stroke:#37474F;stroke-width:1;" x1="876.7461" x2="876.7461" y1="677.1035" y2="697.1035"/><polygon fill="#37474F" points="872.7461,687.1035,876.7461,697.1035,880.7461,687.1035,876.7461,691.1035" style="stroke:#37474F;stroke-width:1;"/><line style="stroke:#37474F;stroke-width:1;" x1="876.7461" x2="876.7461" y1="733.4476" y2="753.4476"/><polygon fill="#37474F" points="872.7461,743.4476,876.7461,753.4476,880.7461,743.4476,876.7461,747.4476" style="stroke:#37474F;stroke-width:1;"/><line style="stroke:#37474F;stroke-width:1;" x1="876.7461" x2="876.7461" y1="789.7918" y2="809.7918"/><polygon fill="#37474F" points="872.7461,799.7918,876.7461,809.7918,880.7461,799.7918,876.7461,803.7918" style="stroke:#37474F;stroke-width:1;"/><line style="stroke:#37474F;stroke-width:1;" x1="876.7461" x2="876.7461" y1="943.5479" y2="963.5479"/><polygon fill="#37474F" points="872.7461,953.5479,876.7461,963.5479,880.7461,953.5479,876.7461,957.5479" style="stroke:#37474F;stroke-width:1;"/><line style="stroke:#37474F;stroke-width:1;" x1="876.7461" x2="876.7461" y1="846.1359" y2="907.2038"/><polygon fill="#37474F" points="872.7461,897.2038,876.7461,907.2038,880.7461,897.2038,876.7461,901.2038" style="stroke:#37474F;stroke-width:1;"/><line style="stroke:#37474F;stroke-width:1;" x1="1556.094" x2="1556.094" y1="1196.4834" y2="1231.4834"/><polygon fill="#37474F" points="1552.094,1221.4834,1556.094,1231.4834,1560.094,1221.4834,1556.094,1225.4834" style="stroke:#37474F;stroke-width:1;"/><line style="stroke:#37474F;stroke-width:1;" x1="1556.094" x2="1556.094" y1="1267.8275" y2="1302.8275"/><polygon fill="#37474F" points="1552.094,1292.8275,1556.094,1302.8275,1560.094,1292.8275,1556.094,1296.8275" style="stroke:#37474F;stroke-width:1;"/><line style="stroke:#37474F;stroke-width:1;" x1="1556.094" x2="1556.094" y1="1339.1716" y2="1374.1716"/><polygon fill="#37474F" points="1552.094,1364.1716,1556.094,1374.1716,1560.094,1364.1716,1556.094,1368.1716" style="stroke:#37474F;stroke-width:1;"/><line style="stroke:#37474F;stroke-width:1;" x1="1805.1775" x2="1805.1775" y1="1212.8275" y2="1247.8275"/><polygon fill="#37474F" points="1801.1775,1237.8275,1805.1775,1247.8275,1809.1775,1237.8275,1805.1775,1241.8275" style="stroke:#37474F;stroke-width:1;"/><line style="stroke:#37474F;stroke-width:1;" x1="1805.1775" x2="1805.1775" y1="1284.1716" y2="1319.1716"/><polygon fill="#37474F" points="1801.1775,1309.1716,1805.1775,1319.1716,1809.1775,1309.1716,1805.1775,1313.1716" style="stroke:#37474F;stroke-width:1;"/><line style="stroke:#37474F;stroke-width:1;" x1="1644.8649" x2="1556.094" y1="1138.1393" y2="1138.1393"/><line style="stroke:#37474F;stroke-width:1;" x1="1556.094" x2="1556.094" y1="1138.1393" y2="1160.1393"/><polygon fill="#37474F" points="1552.094,1150.1393,1556.094,1160.1393,1560.094,1150.1393,1556.094,1154.1393" style="stroke:#37474F;stroke-width:1;"/><line style="stroke:#37474F;stroke-width:1;" x1="1716.4066" x2="1805.1775" y1="1138.1393" y2="1138.1393"/><line style="stroke:#37474F;stroke-width:1;" x1="1805.1775" x2="1805.1775" y1="1138.1393" y2="1160.1393"/><polygon fill="#37474F" points="1801.1775,1150.1393,1805.1775,1160.1393,1809.1775,1150.1393,1805.1775,1154.1393" style="stroke:#37474F;stroke-width:1;"/><line style="stroke:#37474F;stroke-width:1;" x1="1556.094" x2="1556.094" y1="1426.8598" y2="1444.8598"/><line style="stroke:#37474F;stroke-width:1;" x1="1556.094" x2="1668.6357" y1="1444.8598" y2="1444.8598"/><polygon fill="#37474F" points="1658.6357,1440.8598,1668.6357,1444.8598,1658.6357,1448.8598,1662.6357,1444.8598" style="stroke:#37474F;stroke-width:1;"/><line style="stroke:#37474F;stroke-width:1;" x1="1805.1775" x2="1805.1775" y1="1355.5157" y2="1444.8598"/><line style="stroke:#37474F;stroke-width:1;" x1="1805.1775" x2="1692.6357" y1="1444.8598" y2="1444.8598"/><polygon fill="#37474F" points="1702.6357,1440.8598,1692.6357,1444.8598,1702.6357,1448.8598,1698.6357,1444.8598" style="stroke:#37474F;stroke-width:1;"/><line style="stroke:#37474F;stroke-width:1;" x1="2024.9348" x2="2024.9348" y1="1513.204" y2="1533.204"/><polygon fill="#37474F" points="2020.9348,1523.204,2024.9348,1533.204,2028.9348,1523.204,2024.9348,1527.204" style="stroke:#37474F;stroke-width:1;"/><line style="stroke:#37474F;stroke-width:1;" x1="2024.9348" x2="2024.9348" y1="1569.5481" y2="1589.5481"/><polygon fill="#37474F" points="2020.9348,1579.5481,2024.9348,1589.5481,2028.9348,1579.5481,2024.9348,1583.5481" style="stroke:#37474F;stroke-width:1;"/><line style="stroke:#37474F;stroke-width:1;" x1="2024.9348" x2="2024.9348" y1="1625.8922" y2="1645.8922"/><polygon fill="#37474F" points="2020.9348,1635.8922,2024.9348,1645.8922,2028.9348,1635.8922,2024.9348,1639.8922" style="stroke:#37474F;stroke-width:1;"/><line style="stroke:#37474F;stroke-width:1;" x1="118.6287" x2="118.6287" y1="284.5945" y2="289.5945"/><line style="stroke:#37474F;stroke-width:1;" x1="118.6287" x2="602.7444" y1="289.5945" y2="289.5945"/><line style="stroke:#37474F;stroke-width:1;" x1="602.7444" x2="602.7444" y1="289.5945" y2="304.5945"/><polygon fill="#37474F" points="598.7444,294.5945,602.7444,304.5945,606.7444,294.5945,602.7444,298.5945" style="stroke:#37474F;stroke-width:1;"/><line style="stroke:#37474F;stroke-width:1;" x1="602.7444" x2="602.7444" y1="502.6592" y2="514.6931"/><line style="stroke:#37474F;stroke-width:1;" x1="602.7444" x2="876.7461" y1="514.6931" y2="514.6931"/><line style="stroke:#37474F;stroke-width:1;" x1="876.7461" x2="876.7461" y1="514.6931" y2="551.7271"/><polygon fill="#37474F" points="872.7461,541.7271,876.7461,551.7271,880.7461,541.7271,876.7461,545.7271" style="stroke:#37474F;stroke-width:1;"/><line style="stroke:#37474F;stroke-width:1;" x1="876.7461" x2="876.7461" y1="1016.2361" y2="1033.2361"/><line style="stroke:#37474F;stroke-width:1;" x1="876.7461" x2="1106.2814" y1="1033.2361" y2="1033.2361"/><line style="stroke:#37474F;stroke-width:1;" x1="1106.2814" x2="1106.2814" y1="1033.2361" y2="1048.2361"/><polygon fill="#37474F" points="1102.2814,1038.2361,1106.2814,1048.2361,1110.2814,1038.2361,1106.2814,1042.2361" style="stroke:#37474F;stroke-width:1;"/><line style="stroke:#37474F;stroke-width:1;" x1="1106.2814" x2="1106.2814" y1="1100.9244" y2="1111.1393"/><line style="stroke:#37474F;stroke-width:1;" x1="1106.2814" x2="1680.6357" y1="1111.1393" y2="1111.1393"/><line style="stroke:#37474F;stroke-width:1;" x1="1680.6357" x2="1680.6357" y1="1111.1393" y2="1126.1393"/><polygon fill="#37474F" points="1676.6357,1116.1393,1680.6357,1126.1393,1684.6357,1116.1393,1680.6357,1120.1393" style="stroke:#37474F;stroke-width:1;"/><line style="stroke:#37474F;stroke-width:1;" x1="1680.6357" x2="1680.6357" y1="1456.8598" y2="1461.8598"/><line style="stroke:#37474F;stroke-width:1;" x1="1680.6357" x2="2024.9348" y1="1461.8598" y2="1461.8598"/><line style="stroke:#37474F;stroke-width:1;" x1="2024.9348" x2="2024.9348" y1="1461.8598" y2="1476.8598"/><polygon fill="#37474F" points="2020.9348,1466.8598,2024.9348,1476.8598,2028.9348,1466.8598,2024.9348,1470.8598" style="stroke:#37474F;stroke-width:1;"/><text fill="#000000" font-family="Verdana" font-size="18" lengthAdjust="spacing" textLength="70.9016" x="199.36" y="108.944">First run</text><text fill="#000000" font-family="Verdana" font-size="18" lengthAdjust="spacing" textLength="117.9893" x="542.7498" y="108.944">Scaffold client</text><text fill="#000000" font-family="Verdana" font-size="18" lengthAdjust="spacing" textLength="167.3989" x="792.0466" y="108.944">Generation pipeline</text><text fill="#000000" font-family="Verdana" font-size="18" lengthAdjust="spacing" textLength="117.4853" x="1154.6454" y="108.944">Output layout</text><text fill="#000000" font-family="Verdana" font-size="18" lengthAdjust="spacing" textLength="101.4473" x="1612.511" y="108.944">Native build</text><text fill="#000000" font-family="Verdana" font-size="18" lengthAdjust="spacing" textLength="195.4608" x="1926.2044" y="108.944">Client deploy (optional)</text><?plantuml-src TLLTZjis47xNAQPReB2TbTKccwIG-mF7Fuiskvj5l4XV31IqE9AvfaY6fEmrx0Nor0CKFKElqFSU9IVfK98J9ztuIUHyCyFvvflnLtw99OAHJAZ8hOGopB8I5YnR5LPNYe-qr1Q-djQ_8uHRCgutGXMGC-dmoC8nPvNqKwty5QFORz1ofjWHWcLUh8NVllWyo-JxwTbq_11IMuwsHNttzDdJqRV7A6lrfZK-UNxs_6mQUU4bmXNULGxUl_iBpb6XPLve1T_0Yqf8xc0gzMQkSgjBo8LrFhQL0eU-Ck0rq46n1GLHvBP6OCP4qNuQWC6sZvndraVfQtBAf43buyRNPLOOFrTIgEekgU_wRWd__WCboxGB7yGRaUS6KNgX6GTKQtg1nBaw3fJGTN3i_3f-2O-VmICu5xuxY9Js25OKIny1B48fCvk1nRULiEYWGVV9DjNwbcqXOmeMMdldBJCWSYY5SzIuVeIAGuX6TSqobkTQyhQKVPJsay8oBd43APMUKibpDTAbqGvXZ6xbjO5ECD6JqX4rqQE5opSZwd-fvufwqUkrh2DSMtsBcU_r0Zk8YbnUcT0D9bCuoaJPcqnnp6pXVZmf3X7Ys6yDKl0cSnoheAtBxT2Oam4LSDHW8mmI-RYFI1uaX71tacRQ8dIezYm9dqdt17P4Kje-hVMdPrjatCsfd9AcmcFIfeofL20pKzngmSDn4FnlMjn45PIJl9sMQwG0kvrfGeSfkBy_XTskwVjDq6QuUF_kxph4I9jj62YBF87nxE8Kwgbqfq5eNfHOetwpWdXGT-xtJAjS5FrRHuLrN4PO1kl7tIFKGbPeh52-0JbVBGRHVVGf8L8S-93Y0nspGEk1GLXYQ8npTUYF7QkzkCvMQ9Evga-DwbroQ5WiLDmWICDrxlshoflAWsHRNGM5JKhXeUM89cwkUhrQpYx9QQfne-qg-I6q-QUar_jCznGhrddiT6KpAdSRX24A5MHFKnBJ9_MOm-4r73p9pWNp317QDAydm_7bf5_ouqcuQiQzXkmZ6fTEg_QVkw4jnFWMNJVmaN7uqdjhlhAIhO9m3Ma2FRrmKHMV66hlXm1Xfoo4OdOxLrzAKQFRmo12si7G6JRQx3RTehSA1UqTp7p5HJEO7mUEEOSbBRdnXzJZMw6Ke6KpMhAtLH3c8vYDBvx0-SLaLYD-KRJvf8JXzKiW8N5SYmmJ7tQb7mGcHKuqZkezGbOZzHOwkjLEz_-RfO7Sw6OhDtwq7uQar9psF-tlF_uy4DrifuJSYEBqclu_M84F8Knh8XWjQcsY_m00?></g></svg>