<?plantuml 1.2026.2?><svg xmlns="http://www.w3.org/2000/svg" xmlns:xlink="http://www.w3.org/1999/xlink" contentStyleType="text/css" data-diagram-type="ACTIVITY" height="1701.6px" preserveAspectRatio="none" style="width:2179px;height:1701px;background:#FFFFFF;" version="1.1" viewBox="0 0 2179 1701" width="2179.2px" zoomAndPan="magnify"><title>Nexus &#8212; Generation &amp; Builds Flow</title><defs/><g><g class="title" data-source-line="10"><text fill="#000000" font-family="Verdana" font-size="26.4" font-weight="bold" lengthAdjust="spacing" textLength="453.7119" x="861.022" y="46.2217">Nexus &#8212; Generation &amp; Builds Flow</text></g><rect fill="#FFFFFF" height="22.8815" style="stroke:#FFFFFF;stroke-width:1.2;" width="2151.7559" x="12" y="70.2793"/><ellipse cx="147.1705" cy="111.1608" fill="#FFFFFF" rx="12" ry="12" style="stroke:#000000;stroke-width:1.2;"/><rect fill="#FFFFFF" height="66.4944" rx="15" ry="15" style="stroke:#000000;stroke-width:1.2;" width="196.5986" x="48.8712" y="147.1608"/><text fill="#000000" font-family="Verdana" font-size="15.6" lengthAdjust="spacing" textLength="163.9874" x="60.8712" y="175.8372">Run misc/client-setup/</text><text fill="#000000" font-family="Verdana" font-size="15.6" lengthAdjust="spacing" textLength="172.5986" x="60.8712" y="197.0844">linux &#183; macos &#183; windows</text><rect fill="#FFFFFF" height="66.4944" rx="15" ry="15" style="stroke:#000000;stroke-width:1.2;" width="255.941" x="19.2" y="237.6552"/><text fill="#000000" font-family="Verdana" font-size="15.6" lengthAdjust="spacing" textLength="231.941" x="31.2" y="266.3317">source misc/client-setup/env.sh</text><text fill="#000000" font-family="Verdana" font-size="15.6" lengthAdjust="spacing" textLength="94.6141" x="31.2" y="287.5789">(JDK 26 + Git)</text><line style="stroke:#000000;stroke-width:1.2;" x1="12" x2="12" y1="70.2793" y2="1693.6556"/><rect fill="#FFFFFF" height="45.2472" rx="15" ry="15" style="stroke:#000000;stroke-width:1.2;" width="159.5329" x="327.357" y="328.1497"/><text fill="#000000" font-family="Verdana" font-size="15.6" lengthAdjust="spacing" textLength="135.5329" x="339.357" y="356.8261">./gradlew :app:run</text><rect fill="#FFFFFF" height="45.2472" rx="15" ry="15" style="stroke:#000000;stroke-width:1.2;" width="200.2333" x="307.0068" y="397.3969"/><text fill="#000000" font-family="Verdana" font-size="15.6" lengthAdjust="spacing" textLength="176.2333" x="319.0068" y="426.0733">Generate Project screen</text><rect fill="#FFFFFF" height="66.4944" rx="15" ry="15" style="stroke:#000000;stroke-width:1.2;" width="183.5882" x="315.3293" y="528.4849"/><text fill="#000000" font-family="Verdana" font-size="15.6" lengthAdjust="spacing" textLength="115.7989" x="327.3293" y="557.1613">Blueprint Editor</text><text fill="#000000" font-family="Verdana" font-size="15.6" lengthAdjust="spacing" textLength="159.5882" x="327.3293" y="578.4085">(blueprint.json graph)</text><rect fill="#FFFFFF" height="45.2472" rx="15" ry="15" style="stroke:#000000;stroke-width:1.2;" width="207.7214" x="303.2627" y="629.3557"/><text fill="#000000" font-family="Verdana" font-size="15.6" lengthAdjust="spacing" textLength="183.7214" x="315.2627" y="658.0321">BlueprintValidator (:core)</text><polygon fill="#FFFFFF" points="354.0522,466.6441,460.1947,466.6441,474.5947,481.0441,460.1947,495.4441,354.0522,495.4441,339.6522,481.0441,354.0522,466.6441" style="stroke:#000000;stroke-width:1.2;"/><text fill="#000000" font-family="Verdana" font-size="16.8" lengthAdjust="spacing" textLength="26.0903" x="411.9234" y="513.4032">yes</text><text fill="#000000" font-family="Verdana" font-size="15.6" lengthAdjust="spacing" textLength="106.1425" x="354.0522" y="487.0969">Edit blueprint?</text><text fill="#000000" font-family="Verdana" font-size="16.8" lengthAdjust="spacing" textLength="31.6847" x="474.5947" y="476.1217">skip</text><polygon fill="#FFFFFF" points="407.1234,698.6029,421.5234,713.0029,407.1234,727.4029,392.7234,713.0029,407.1234,698.6029" style="stroke:#000000;stroke-width:1.2;"/><rect fill="#FFFFFF" height="45.2472" rx="15" ry="15" style="stroke:#000000;stroke-width:1.2;" width="239.9648" x="287.141" y="751.4029"/><text fill="#000000" font-family="Verdana" font-size="15.6" lengthAdjust="spacing" textLength="215.9648" x="299.141" y="780.0793">Generate &#8594; ProjectGenerator</text><line style="stroke:#000000;stroke-width:1.2;" x1="279.941" x2="279.941" y1="70.2793" y2="1693.6556"/><rect fill="#FFFFFF" height="66.4944" rx="15" ry="15" style="stroke:#000000;stroke-width:1.2;" width="228.3446" x="571.3453" y="820.6501"/><text fill="#000000" font-family="Verdana" font-size="15.6" lengthAdjust="spacing" textLength="204.3446" x="583.3453" y="849.3266">Read template/desktop-app</text><text fill="#000000" font-family="Verdana" font-size="15.6" lengthAdjust="spacing" textLength="182.0054" x="583.3453" y="870.5738">or template/android-app</text><rect fill="#FFFFFF" height="45.2472" rx="15" ry="15" style="stroke:#000000;stroke-width:1.2;" width="265.067" x="552.9841" y="911.1446"/><text fill="#000000" font-family="Verdana" font-size="15.6" lengthAdjust="spacing" textLength="241.067" x="564.9841" y="939.821">TemplateEngine {{placeholders}}</text><rect fill="#FFFFFF" height="45.2472" rx="15" ry="15" style="stroke:#000000;stroke-width:1.2;" width="243.3362" x="563.8495" y="980.3918"/><text fill="#000000" font-family="Verdana" font-size="15.6" lengthAdjust="spacing" textLength="219.3362" x="575.8495" y="1009.0682">Validate + write blueprint.json</text><rect fill="#FFFFFF" height="66.4944" rx="15" ry="15" style="stroke:#000000;stroke-width:1.2;" width="193.0261" x="589.0046" y="1049.639"/><text fill="#000000" font-family="Verdana" font-size="15.6" lengthAdjust="spacing" textLength="169.0261" x="601.0046" y="1078.3154">Copy template/shared/</text><text fill="#000000" font-family="Verdana" font-size="15.6" lengthAdjust="spacing" textLength="166.4054" x="601.0046" y="1099.5627">DSL &#183; themes &#183; runtime</text><path d="M799.5489,1128.1335 L799.5489,1158.7529 L775.5489,1163.5529 L799.5489,1168.3529 L799.5489,1198.9723 A0,0 0 0 0 799.5489,1198.9723 L1077.6723,1198.9723 A0,0 0 0 0 1077.6723,1198.9723 L1077.6723,1140.1335 L1065.6723,1128.1335 L799.5489,1128.1335 A0,0 0 0 0 799.5489,1128.1335" fill="#FFFFFF" style="stroke:#000000;stroke-width:1.2;"/><path d="M1065.6723,1128.1335 L1065.6723,1140.1335 L1077.6723,1140.1335 L1065.6723,1128.1335" fill="#FFFFFF" style="stroke:#000000;stroke-width:1.2;"/><text fill="#000000" font-family="Verdana" font-size="14.4" lengthAdjust="spacing" textLength="99.9943" x="806.7489" y="1149.5272">Headless path:</text><text fill="#000000" font-family="Verdana" font-size="14.4" lengthAdjust="spacing" textLength="252.9234" x="806.7489" y="1169.1401">./gradlew :cli:run --args="generate &#8230;"</text><text fill="#000000" font-family="Verdana" font-size="14.4" lengthAdjust="spacing" textLength="153.9659" x="806.7489" y="1188.753">Optional: misc/docker/</text><rect fill="#FFFFFF" height="45.2472" rx="15" ry="15" style="stroke:#000000;stroke-width:1.2;" width="180.0625" x="595.4863" y="1140.9293"/><text fill="#000000" font-family="Verdana" font-size="15.6" lengthAdjust="spacing" textLength="156.0625" x="607.4863" y="1169.6057">Write nxs_config.json</text><line style="stroke:#000000;stroke-width:1.2;" x1="545.7841" x2="545.7841" y1="70.2793" y2="1693.6556"/><rect fill="#FFFFFF" height="45.2472" rx="15" ry="15" style="stroke:#000000;stroke-width:1.2;" width="262.7738" x="1090.8723" y="1222.9723"/><text fill="#000000" font-family="Verdana" font-size="15.6" lengthAdjust="spacing" textLength="238.7738" x="1102.8723" y="1251.6487">Emit builds/framework/&lt;name&gt;/</text><line style="stroke:#000000;stroke-width:1.2;" x1="1083.6723" x2="1083.6723" y1="70.2793" y2="1693.6556"/><polygon fill="#FFFFFF" points="1568.4454,1292.2195,1635.8686,1292.2195,1650.2686,1306.6195,1635.8686,1321.0195,1568.4454,1321.0195,1554.0454,1306.6195,1568.4454,1292.2195" style="stroke:#000000;stroke-width:1.2;"/><text fill="#000000" font-family="Verdana" font-size="15.6" lengthAdjust="spacing" textLength="67.4232" x="1568.4454" y="1312.6723">Desktop?</text><text fill="#000000" font-family="Verdana" font-size="16.8" lengthAdjust="spacing" textLength="26.0903" x="1527.9551" y="1301.6971">yes</text><text fill="#000000" font-family="Verdana" font-size="16.8" lengthAdjust="spacing" textLength="63.2182" x="1650.2686" y="1301.6971">Android</text><rect fill="#FFFFFF" height="45.2472" rx="15" ry="15" style="stroke:#000000;stroke-width:1.2;" width="184.0717" x="1381.0901" y="1333.0195"/><text fill="#000000" font-family="Verdana" font-size="15.6" lengthAdjust="spacing" textLength="160.0717" x="1393.0901" y="1361.6959">cmake --preset debug</text><rect fill="#FFFFFF" height="45.2472" rx="15" ry="15" style="stroke:#000000;stroke-width:1.2;" width="214.9598" x="1365.6461" y="1402.2667"/><text fill="#000000" font-family="Verdana" font-size="15.6" lengthAdjust="spacing" textLength="47.9544" x="1377.6461" y="1430.9431">cmake</text><text fill="#000000" font-family="Verdana" font-size="15.6" lengthAdjust="spacing" text-decoration="line-through" textLength="36.8784" x="1429.6565" y="1430.9431">build</text><text fill="#000000" font-family="Verdana" font-size="15.6" lengthAdjust="spacing" textLength="98.0149" x="1470.591" y="1430.9431">preset debug</text><rect fill="#FFFFFF" height="45.2472" rx="15" ry="15" style="stroke:#000000;stroke-width:1.2;" width="152.2789" x="1396.9865" y="1471.5139"/><text fill="#000000" font-family="Verdana" font-size="15.6" lengthAdjust="spacing" textLength="128.2789" x="1408.9865" y="1500.1903">Run native binary</text><rect fill="#FFFFFF" height="45.2472" rx="15" ry="15" style="stroke:#000000;stroke-width:1.2;" width="216.0205" x="1623.1777" y="1333.0195"/><text fill="#000000" font-family="Verdana" font-size="15.6" lengthAdjust="spacing" textLength="192.0205" x="1635.1777" y="1361.6959">./gradlew assembleDebug</text><rect fill="#FFFFFF" height="45.2472" rx="15" ry="15" style="stroke:#000000;stroke-width:1.2;" width="253.1642" x="1604.6059" y="1402.2667"/><text fill="#000000" font-family="Verdana" font-size="15.6" lengthAdjust="spacing" textLength="229.1642" x="1616.6059" y="1430.9431">Djinni + Chaquopy + SDL3 GLES</text><rect fill="#FFFFFF" height="45.2472" rx="15" ry="15" style="stroke:#000000;stroke-width:1.2;" width="101.9533" x="1680.2113" y="1471.5139"/><text fill="#000000" font-family="Verdana" font-size="15.6" lengthAdjust="spacing" textLength="77.9533" x="1692.2113" y="1500.1903">Install APK</text><polygon fill="#FFFFFF" points="1602.157,1523.9611,1616.557,1538.3611,1602.157,1552.7611,1587.757,1538.3611,1602.157,1523.9611" style="stroke:#000000;stroke-width:1.2;"/><line style="stroke:#000000;stroke-width:1.2;" x1="1358.4461" x2="1358.4461" y1="70.2793" y2="1693.6556"/><rect fill="#FFFFFF" height="66.4944" rx="15" ry="15" style="stroke:#000000;stroke-width:1.2;" width="288.2019" x="1869.7701" y="1576.7611"/><text fill="#000000" font-family="Verdana" font-size="15.6" lengthAdjust="spacing" textLength="264.2019" x="1881.7701" y="1605.4376">./gradlew :app:deployToBuildsClient</text><text fill="#000000" font-family="Verdana" font-size="15.6" lengthAdjust="spacing" textLength="146.4356" x="1881.7701" y="1626.6848">&#8594; builds/client/app/</text><ellipse cx="2013.871" cy="1680.4556" fill="none" rx="13.2" ry="13.2" style="stroke:#000000;stroke-width:1.2;"/><ellipse cx="2013.871" cy="1680.4556" fill="#FFFFFF" rx="7.2" ry="7.2" style="stroke:#000000;stroke-width:1.2;"/><line style="stroke:#000000;stroke-width:1.2;" x1="1862.5701" x2="1862.5701" y1="70.2793" y2="1693.6556"/><line style="stroke:#000000;stroke-width:1.2;" x1="2162.772" x2="2162.772" y1="70.2793" y2="1693.6556"/><line style="stroke:#37474F;stroke-width:1.2;" x1="147.1705" x2="147.1705" y1="123.1608" y2="147.1608"/><polygon fill="#37474F" points="142.3705,135.1608,147.1705,147.1608,151.9705,135.1608,147.1705,139.9608" style="stroke:#37474F;stroke-width:1.2;"/><line style="stroke:#37474F;stroke-width:1.2;" x1="147.1705" x2="147.1705" y1="213.6552" y2="237.6552"/><polygon fill="#37474F" points="142.3705,225.6552,147.1705,237.6552,151.9705,225.6552,147.1705,230.4552" style="stroke:#37474F;stroke-width:1.2;"/><line style="stroke:#37474F;stroke-width:1.2;" x1="407.1234" x2="407.1234" y1="373.3969" y2="397.3969"/><polygon fill="#37474F" points="402.3234,385.3969,407.1234,397.3969,411.9234,385.3969,407.1234,390.1969" style="stroke:#37474F;stroke-width:1.2;"/><line style="stroke:#37474F;stroke-width:1.2;" x1="407.1234" x2="407.1234" y1="594.9793" y2="629.3557"/><polygon fill="#37474F" points="402.3234,617.3557,407.1234,629.3557,411.9234,617.3557,407.1234,622.1557" style="stroke:#37474F;stroke-width:1.2;"/><line style="stroke:#37474F;stroke-width:1.2;" x1="407.1234" x2="407.1234" y1="495.4441" y2="528.4849"/><polygon fill="#37474F" points="402.3234,516.4849,407.1234,528.4849,411.9234,516.4849,407.1234,521.2849" style="stroke:#37474F;stroke-width:1.2;"/><line style="stroke:#37474F;stroke-width:1.2;" x1="474.5947" x2="522.9841" y1="481.0441" y2="481.0441"/><polygon fill="#37474F" points="518.1841,593.3557,522.9841,605.3557,527.7841,593.3557,522.9841,598.1557" style="stroke:#37474F;stroke-width:1.2;"/><line style="stroke:#37474F;stroke-width:1.2;" x1="522.9841" x2="522.9841" y1="481.0441" y2="713.0029"/><line style="stroke:#37474F;stroke-width:1.2;" x1="522.9841" x2="421.5234" y1="713.0029" y2="713.0029"/><polygon fill="#37474F" points="433.5234,708.2029,421.5234,713.0029,433.5234,717.8029,428.7234,713.0029" style="stroke:#37474F;stroke-width:1.2;"/><line style="stroke:#37474F;stroke-width:1.2;" x1="407.1234" x2="407.1234" y1="674.6029" y2="698.6029"/><polygon fill="#37474F" points="402.3234,686.6029,407.1234,698.6029,411.9234,686.6029,407.1234,691.4029" style="stroke:#37474F;stroke-width:1.2;"/><line style="stroke:#37474F;stroke-width:1.2;" x1="407.1234" x2="407.1234" y1="442.6441" y2="466.6441"/><polygon fill="#37474F" points="402.3234,454.6441,407.1234,466.6441,411.9234,454.6441,407.1234,459.4441" style="stroke:#37474F;stroke-width:1.2;"/><line style="stroke:#37474F;stroke-width:1.2;" x1="407.1234" x2="407.1234" y1="727.4029" y2="751.4029"/><polygon fill="#37474F" points="402.3234,739.4029,407.1234,751.4029,411.9234,739.4029,407.1234,744.2029" style="stroke:#37474F;stroke-width:1.2;"/><line style="stroke:#37474F;stroke-width:1.2;" x1="685.5176" x2="685.5176" y1="887.1446" y2="911.1446"/><polygon fill="#37474F" points="680.7176,899.1446,685.5176,911.1446,690.3176,899.1446,685.5176,903.9446" style="stroke:#37474F;stroke-width:1.2;"/><line style="stroke:#37474F;stroke-width:1.2;" x1="685.5176" x2="685.5176" y1="956.3918" y2="980.3918"/><polygon fill="#37474F" points="680.7176,968.3918,685.5176,980.3918,690.3176,968.3918,685.5176,973.1918" style="stroke:#37474F;stroke-width:1.2;"/><line style="stroke:#37474F;stroke-width:1.2;" x1="685.5176" x2="685.5176" y1="1025.639" y2="1049.639"/><polygon fill="#37474F" points="680.7176,1037.639,685.5176,1049.639,690.3176,1037.639,685.5176,1042.439" style="stroke:#37474F;stroke-width:1.2;"/><line style="stroke:#37474F;stroke-width:1.2;" x1="685.5176" x2="685.5176" y1="1116.1335" y2="1140.9293"/><polygon fill="#37474F" points="680.7176,1128.9293,685.5176,1140.9293,690.3176,1128.9293,685.5176,1133.7293" style="stroke:#37474F;stroke-width:1.2;"/><line style="stroke:#37474F;stroke-width:1.2;" x1="1473.126" x2="1473.126" y1="1378.2667" y2="1402.2667"/><polygon fill="#37474F" points="1468.326,1390.2667,1473.126,1402.2667,1477.926,1390.2667,1473.126,1395.0667" style="stroke:#37474F;stroke-width:1.2;"/><line style="stroke:#37474F;stroke-width:1.2;" x1="1473.126" x2="1473.126" y1="1447.5139" y2="1471.5139"/><polygon fill="#37474F" points="1468.326,1459.5139,1473.126,1471.5139,1477.926,1459.5139,1473.126,1464.3139" style="stroke:#37474F;stroke-width:1.2;"/><line style="stroke:#37474F;stroke-width:1.2;" x1="1731.188" x2="1731.188" y1="1378.2667" y2="1402.2667"/><polygon fill="#37474F" points="1726.388,1390.2667,1731.188,1402.2667,1735.988,1390.2667,1731.188,1395.0667" style="stroke:#37474F;stroke-width:1.2;"/><line style="stroke:#37474F;stroke-width:1.2;" x1="1731.188" x2="1731.188" y1="1447.5139" y2="1471.5139"/><polygon fill="#37474F" points="1726.388,1459.5139,1731.188,1471.5139,1735.988,1459.5139,1731.188,1464.3139" style="stroke:#37474F;stroke-width:1.2;"/><line style="stroke:#37474F;stroke-width:1.2;" x1="1554.0454" x2="1473.126" y1="1306.6195" y2="1306.6195"/><line style="stroke:#37474F;stroke-width:1.2;" x1="1473.126" x2="1473.126" y1="1306.6195" y2="1333.0195"/><polygon fill="#37474F" points="1468.326,1321.0195,1473.126,1333.0195,1477.926,1321.0195,1473.126,1325.8195" style="stroke:#37474F;stroke-width:1.2;"/><line style="stroke:#37474F;stroke-width:1.2;" x1="1650.2686" x2="1731.188" y1="1306.6195" y2="1306.6195"/><line style="stroke:#37474F;stroke-width:1.2;" x1="1731.188" x2="1731.188" y1="1306.6195" y2="1333.0195"/><polygon fill="#37474F" points="1726.388,1321.0195,1731.188,1333.0195,1735.988,1321.0195,1731.188,1325.8195" style="stroke:#37474F;stroke-width:1.2;"/><line style="stroke:#37474F;stroke-width:1.2;" x1="1473.126" x2="1473.126" y1="1516.7611" y2="1538.3611"/><line style="stroke:#37474F;stroke-width:1.2;" x1="1473.126" x2="1587.757" y1="1538.3611" y2="1538.3611"/><polygon fill="#37474F" points="1575.757,1533.5611,1587.757,1538.3611,1575.757,1543.1611,1580.557,1538.3611" style="stroke:#37474F;stroke-width:1.2;"/><line style="stroke:#37474F;stroke-width:1.2;" x1="1731.188" x2="1731.188" y1="1516.7611" y2="1538.3611"/><line style="stroke:#37474F;stroke-width:1.2;" x1="1731.188" x2="1616.557" y1="1538.3611" y2="1538.3611"/><polygon fill="#37474F" points="1628.557,1533.5611,1616.557,1538.3611,1628.557,1543.1611,1623.757,1538.3611" style="stroke:#37474F;stroke-width:1.2;"/><line style="stroke:#37474F;stroke-width:1.2;" x1="2013.871" x2="2013.871" y1="1643.2556" y2="1667.2556"/><polygon fill="#37474F" points="2009.071,1655.2556,2013.871,1667.2556,2018.671,1655.2556,2013.871,1660.0556" style="stroke:#37474F;stroke-width:1.2;"/><line style="stroke:#37474F;stroke-width:1.2;" x1="147.1705" x2="147.1705" y1="304.1497" y2="310.1497"/><line style="stroke:#37474F;stroke-width:1.2;" x1="147.1705" x2="407.1234" y1="310.1497" y2="310.1497"/><line style="stroke:#37474F;stroke-width:1.2;" x1="407.1234" x2="407.1234" y1="310.1497" y2="328.1497"/><polygon fill="#37474F" points="402.3234,316.1497,407.1234,328.1497,411.9234,316.1497,407.1234,320.9497" style="stroke:#37474F;stroke-width:1.2;"/><line style="stroke:#37474F;stroke-width:1.2;" x1="407.1234" x2="407.1234" y1="796.6501" y2="802.6501"/><line style="stroke:#37474F;stroke-width:1.2;" x1="407.1234" x2="685.5176" y1="802.6501" y2="802.6501"/><line style="stroke:#37474F;stroke-width:1.2;" x1="685.5176" x2="685.5176" y1="802.6501" y2="820.6501"/><polygon fill="#37474F" points="680.7176,808.6501,685.5176,820.6501,690.3176,808.6501,685.5176,813.4501" style="stroke:#37474F;stroke-width:1.2;"/><line style="stroke:#37474F;stroke-width:1.2;" x1="685.5176" x2="685.5176" y1="1186.1765" y2="1204.9723"/><line style="stroke:#37474F;stroke-width:1.2;" x1="685.5176" x2="1222.2592" y1="1204.9723" y2="1204.9723"/><line style="stroke:#37474F;stroke-width:1.2;" x1="1222.2592" x2="1222.2592" y1="1204.9723" y2="1222.9723"/><polygon fill="#37474F" points="1217.4592,1210.9723,1222.2592,1222.9723,1227.0592,1210.9723,1222.2592,1215.7723" style="stroke:#37474F;stroke-width:1.2;"/><line style="stroke:#37474F;stroke-width:1.2;" x1="1222.2592" x2="1222.2592" y1="1268.2195" y2="1274.2195"/><line style="stroke:#37474F;stroke-width:1.2;" x1="1222.2592" x2="1602.157" y1="1274.2195" y2="1274.2195"/><line style="stroke:#37474F;stroke-width:1.2;" x1="1602.157" x2="1602.157" y1="1274.2195" y2="1292.2195"/><polygon fill="#37474F" points="1597.357,1280.2195,1602.157,1292.2195,1606.957,1280.2195,1602.157,1285.0195" style="stroke:#37474F;stroke-width:1.2;"/><line style="stroke:#37474F;stroke-width:1.2;" x1="1602.157" x2="1602.157" y1="1552.7611" y2="1558.7611"/><line style="stroke:#37474F;stroke-width:1.2;" x1="1602.157" x2="2013.871" y1="1558.7611" y2="1558.7611"/><line style="stroke:#37474F;stroke-width:1.2;" x1="2013.871" x2="2013.871" y1="1558.7611" y2="1576.7611"/><polygon fill="#37474F" points="2009.071,1564.7611,2013.871,1576.7611,2018.671,1564.7611,2013.871,1569.5611" style="stroke:#37474F;stroke-width:1.2;"/><text fill="#000000" font-family="Verdana" font-size="16.8" lengthAdjust="spacing" textLength="66.175" x="112.883" y="88.2384">First run</text><text fill="#000000" font-family="Verdana" font-size="16.8" lengthAdjust="spacing" textLength="110.1236" x="357.8008" y="88.2384">Scaffold client</text><text fill="#000000" font-family="Verdana" font-size="16.8" lengthAdjust="spacing" textLength="75.3645" x="777.046" y="88.2384">:core / :cli</text><text fill="#000000" font-family="Verdana" font-size="16.8" lengthAdjust="spacing" textLength="56.347" x="1192.8857" y="88.2384">Output</text><text fill="#000000" font-family="Verdana" font-size="16.8" lengthAdjust="spacing" textLength="94.6844" x="1563.1659" y="88.2384">Native build</text><text fill="#000000" font-family="Verdana" font-size="16.8" lengthAdjust="spacing" textLength="68.1573" x="1978.5923" y="88.2384">Optional</text><?plantuml-src RLFRJjj047ttLqofL2L2YTM2YkJq8iY5jY101BKlaQgDTsmlMU-wksj2If1uwWTK_OR-Gj_xANn9PnsJk8AynFQSdJrppfbdBiCSeP1CgC36J2AyxBuAx4oeWXcMmvJ5izJeKl6-bjh0yr7rQo1inhYU2vL2mgJ5HeLZmahfHbgviVXEdNSRHHOxSINSObFTQLILThYfD0dj6wFdDPUTlTsztL4GEE68-0bUbnRkxtx18Ieqp0cju0KSb49o2oEfvq6m70bZ7PXIBGFhc751T5ugo8MDmrWALAvZqPL5E55IgF8Q_lw1dCNQ-WSQaYQrlI2okZGnFd4CrLNNPXFL-ZGuWbUlOHiEXMltwE9np994Imuh_3A8kc5g69SuXuWLHKISg7DD7U7Cw4kC7TZO85959D0QSk5WAaiiZ53kVHl8FGMj1Tfs010TF5J00xKX6cjmzzAI6dHXaH6T9lWpau8pWaChYhL1AYFv22tIl6W7gBX86hpkV_nyu5P_qyRFLvs542AQZuOxHyR1OKx9SXXoj3EdYmxDEL5qqxh053TQS5-WuI_gpqEL2eLmSqDlCMQa6XfxUqk8cYoIi7CZwF__0GdHryLYqv_2QP2JcuFniRUmYdjb9idjH8vqualLI5tRhx5MYKZhJZw2O4IQEPBh0tgdh8M2kIoY3mtpQ61l7dGwpAJsxLQwbkhkznP1JmkVH2QZLLwuZcTeGYzi5NFIxhHqHUaZCSozmLLWmuJIZdDjPk4RHK_lGg_o2QNw2bUGPPM9mKhQHs68SpP3ubGOf6ZIBaxBjDSiL3sU0lY5KFKzGZ6pU0Z4_igiglrcVcOjvbE9WtM3mQLGIf15_OnzAxqVsp0U7E_0uV5mN24-Abe-AM7_xAXN9unKg7Lwl1eS2waN5tgrolrgWIRA9x7MQhLJ8M599Kjo1Fy0?></g></svg>