<?xml version="1.0" encoding="UTF-8"?>
<svg xmlns="http://www.w3.org/2000/svg" viewBox="0 0 800 500" width="800" height="500">
  <title>Nexus build pipeline — use case view</title>
  <rect width="100%" height="100%" fill="#1e1e2e"/>
  <rect x="0" y="0" width="100%" height="36" fill="#313244"/>
  <circle cx="18" cy="18" r="5" fill="#f38ba8"/>
  <circle cx="34" cy="18" r="5" fill="#fab387"/>
  <circle cx="50" cy="18" r="5" fill="#a6e3a1"/>
  <text x="400" y="24" text-anchor="middle" font-family="sans-serif" font-size="13" fill="#a6adc8" font-weight="bold">Build pipeline — focus on what matters</text>

  <!-- System boundary -->
  <rect x="250" y="60" width="340" height="390" rx="16" fill="none" stroke="#585b70" stroke-width="2" stroke-dasharray="6,4"/>
  <rect x="340" y="48" width="160" height="26" rx="6" fill="#313244"/>
  <text x="420" y="66" text-anchor="middle" font-family="sans-serif" font-size="12" fill="#a6adc8">Nexus Build Pipeline</text>

  <!-- Use case ovals inside system -->
  <ellipse cx="420" cy="130" rx="110" ry="30" fill="#313244" stroke="#89b4fa" stroke-width="2"/>
  <text x="420" y="135" text-anchor="middle" font-family="sans-serif" font-size="12" fill="#89b4fa" font-weight="bold">Design Blueprint</text>

  <ellipse cx="420" cy="220" rx="110" ry="30" fill="#313244" stroke="#fab387" stroke-width="2"/>
  <text x="420" y="225" text-anchor="middle" font-family="sans-serif" font-size="12" fill="#fab387" font-weight="bold">Generate Project</text>

  <ellipse cx="420" cy="310" rx="100" ry="30" fill="#313244" stroke="#a6e3a1" stroke-width="2"/>
  <text x="420" y="315" text-anchor="middle" font-family="sans-serif" font-size="12" fill="#a6e3a1" font-weight="bold">Compile Binary</text>

  <ellipse cx="420" cy="400" rx="100" ry="30" fill="#313244" stroke="#cba6f7" stroke-width="2"/>
  <text x="420" y="405" text-anchor="middle" font-family="sans-serif" font-size="12" fill="#cba6f7" font-weight="bold">Ship to Target</text>

  <!-- Arrow connectors -->
  <line x1="420" y1="160" x2="420" y2="188" stroke="#585b70" stroke-width="2" marker-end="url(#arrow)"/>
  <line x1="420" y1="250" x2="420" y2="278" stroke="#585b70" stroke-width="2" marker-end="url(#arrow)"/>
  <line x1="420" y1="340" x2="420" y2="368" stroke="#585b70" stroke-width="2" marker-end="url(#arrow)"/>

  <!-- Actor: Developer -->
  <circle cx="100" cy="180" r="20" fill="#f5c2e7" opacity="0.8"/>
  <line x1="100" y1="200" x2="100" y2="250" stroke="#f5c2e7" stroke-width="3" stroke-linecap="round"/>
  <line x1="70" y1="225" x2="130" y2="225" stroke="#f5c2e7" stroke-width="3" stroke-linecap="round"/>
  <line x1="100" y1="250" x2="75" y2="290" stroke="#f5c2e7" stroke-width="3" stroke-linecap="round"/>
  <line x1="100" y1="250" x2="125" y2="290" stroke="#f5c2e7" stroke-width="3" stroke-linecap="round"/>
  <text x="100" y="315" text-anchor="middle" font-family="sans-serif" font-size="11" fill="#f5c2e7">Developer</text>

  <line x1="120" y1="200" x2="308" y2="140" stroke="#585b70" stroke-width="1.5" marker-end="url(#arrow)"/>
  <line x1="120" y1="220" x2="308" y2="220" stroke="#585b70" stroke-width="1.5" marker-end="url(#arrow)"/>
  <line x1="120" y1="240" x2="308" y2="320" stroke="#585b70" stroke-width="1.5" marker-end="url(#arrow)"/>

  <!-- Actor: Target devices -->
  <circle cx="700" cy="250" r="20" fill="#a6e3a1" opacity="0.8"/>
  <line x1="700" y1="270" x2="700" y2="310" stroke="#a6e3a1" stroke-width="3" stroke-linecap="round"/>
  <line x1="670" y1="295" x2="730" y2="295" stroke="#a6e3a1" stroke-width="3" stroke-linecap="round"/>
  <line x1="700" y1="310" x2="675" y2="350" stroke="#a6e3a1" stroke-width="3" stroke-linecap="round"/>
  <line x1="700" y1="310" x2="725" y2="350" stroke="#a6e3a1" stroke-width="3" stroke-linecap="round"/>
  <text x="700" y="375" text-anchor="middle" font-family="sans-serif" font-size="11" fill="#a6e3a1">Desktop / Android</text>

  <line x1="680" y1="265" x2="522" y2="320" stroke="#585b70" stroke-width="1.5" marker-end="url(#arrow)"/>
  <line x1="680" y1="280" x2="520" y2="400" stroke="#585b70" stroke-width="1.5" marker-end="url(#arrow)"/>

  <!-- Metadata labels -->
  <text x="420" y="170" text-anchor="middle" font-family="sans-serif" font-size="9" fill="#585b70">blueprint.json</text>
  <text x="420" y="260" text-anchor="middle" font-family="sans-serif" font-size="9" fill="#585b70">:core + template engine</text>
  <text x="420" y="350" text-anchor="middle" font-family="sans-serif" font-size="9" fill="#585b70">zig build · CMake removed</text>
  <text x="420" y="440" text-anchor="middle" font-family="sans-serif" font-size="9" fill="#585b70">builds/framework/&lt;name&gt;/</text>

  <defs>
    <marker id="arrow" viewBox="0 0 10 10" refX="8" refY="5" markerWidth="6" markerHeight="6" orient="auto">
      <path d="M0,0 L10,5 L0,10 Z" fill="#585b70"/>
    </marker>
  </defs>

  <text x="400" y="485" text-anchor="middle" font-family="sans-serif" font-size="10" fill="#585b70">Use cases: what the framework does for you</text>
</svg>
