<?xml version="1.0" encoding="UTF-8"?>
<svg xmlns="http://www.w3.org/2000/svg" viewBox="0 0 2736 1069" width="2736" height="1069">
  <title>Generation &amp; builds flow</title>
  <defs>
    <filter id="shadow" x="-4%" y="-4%" width="108%" height="112%">
      <feDropShadow dx="0" dy="2" stdDeviation="3" flood-color="#94a3b8" flood-opacity="0.18"/>
    </filter>
    <marker id="arrow" markerWidth="9" markerHeight="9" refX="8" refY="4.5" orient="auto">
      <path d="M0,0 L9,4.5 L0,9 Z" fill="#475569"/>
    </marker>
    <marker id="arrow-blue" markerWidth="9" markerHeight="9" refX="8" refY="4.5" orient="auto">
      <path d="M0,0 L9,4.5 L0,9 Z" fill="#2563eb"/>
    </marker>
    <marker id="arrow-dashed" markerWidth="9" markerHeight="9" refX="8" refY="4.5" orient="auto">
      <path d="M0,0 L9,4.5 L0,9 Z" fill="#64748b"/>
    </marker>
    <style>
      .label { font: bold 15px "JetBrainsMono Nerd Font", "Symbols Nerd Font", Verdana, sans-serif; fill: #1e293b; font-weight: 700; }
      .desc { font: italic 12px "JetBrainsMono Nerd Font", "Symbols Nerd Font", Verdana, sans-serif; fill: #64748b; }
      .small { font: 12px "JetBrainsMono Nerd Font", "Symbols Nerd Font", Verdana, sans-serif; fill: #475569; }
      .mono { font: bold 12px "JetBrainsMono Nerd Font", "Symbols Nerd Font", Consolas, monospace; fill: #1e293b; font-weight: 700; }
      .legend-title { font: bold 13px "JetBrainsMono Nerd Font", "Symbols Nerd Font", Verdana, sans-serif; fill: #334155; }
      .layer-label { font: bold 15px "JetBrainsMono Nerd Font", "Symbols Nerd Font", Verdana, sans-serif; fill: #1e293b; }
      .badge { font: bold 12px "JetBrainsMono Nerd Font", "Symbols Nerd Font", Verdana, sans-serif; fill: #2563eb; }
      .icon { font: 14px "JetBrainsMono Nerd Font", "Symbols Nerd Font", Consolas, monospace; fill: #1e293b; }
      .node { rx: 10; stroke-width: 2; filter: url(#shadow); }
      .panel { rx: 12; stroke-width: 2; }
      .legend-box { rx: 6; stroke-width: 2; }
    </style>
  </defs>
  <rect width="2736" height="100%" fill="#f8fafc"/>
  <image href="../nexus-logo.png" x="24" y="16" width="36" height="36" preserveAspectRatio="xMidYMid meet"/>

  <text x="206" y="110" text-anchor="middle" class="layer-label">First run</text>
  <text x="572" y="110" text-anchor="middle" class="layer-label">Scaffold client</text>
  <text x="912" y="110" text-anchor="middle" class="layer-label">:core / :cli</text>
  <text x="1239" y="110" text-anchor="middle" class="layer-label">Output</text>
  <text x="1713" y="110" text-anchor="middle" class="layer-label">Native build</text>
  <text x="2525" y="110" text-anchor="middle" class="layer-label">Optional</text>
  <line x1="320" y1="120" x2="320" y2="819" stroke="#CFD8DC" stroke-width="2" stroke-dasharray="6,4"/>
  <line x1="600" y1="120" x2="600" y2="819" stroke="#CFD8DC" stroke-width="2" stroke-dasharray="6,4"/>
  <line x1="920" y1="120" x2="920" y2="819" stroke="#CFD8DC" stroke-width="2" stroke-dasharray="6,4"/>
  <line x1="1180" y1="120" x2="1180" y2="819" stroke="#CFD8DC" stroke-width="2" stroke-dasharray="6,4"/>
  <line x1="1400" y1="120" x2="1400" y2="819" stroke="#CFD8DC" stroke-width="2" stroke-dasharray="6,4"/>
  <line x1="1760" y1="120" x2="1760" y2="819" stroke="#CFD8DC" stroke-width="2" stroke-dasharray="6,4"/>
  <line x1="2080" y1="120" x2="2080" y2="819" stroke="#CFD8DC" stroke-width="2" stroke-dasharray="6,4"/>
  <rect x="40" y="140" width="332" height="85" class="node" fill="#E8F5E9" stroke="#2E7D32"/>
  <text x="56" y="169" class="icon">&#xf0ad;</text>
  <text x="78" y="171" class="label">
    <tspan x="78" dy="0">Run misc/client-setup/</tspan>
  </text>
  <text x="56" y="191" class="desc">
    <tspan x="56" dy="0">Installs JDK 26 + Zig 0.14.0 before first</tspan>
    <tspan x="56" dy="15">build</tspan>
  </text>
  <rect x="40" y="281" width="275" height="85" class="node" fill="#E8F5E9" stroke="#2E7D32"/>
  <text x="56" y="310" class="icon">&#xf120;</text>
  <text x="78" y="312" class="label">
    <tspan x="78" dy="0">source env.sh</tspan>
  </text>
  <text x="56" y="332" class="desc">
    <tspan x="56" dy="0">Activates toolchain for Gradle and</tspan>
    <tspan x="56" dy="15">Zig</tspan>
  </text>
  <rect x="428" y="140" width="288" height="72" class="node" fill="#E3F2FD" stroke="#1565C0"/>
  <text x="444" y="169" class="icon">&#xf108;</text>
  <text x="466" y="171" class="label">
    <tspan x="466" dy="0">./gradlew :app:run</tspan>
  </text>
  <text x="444" y="191" class="desc">
    <tspan x="444" dy="0">Launches Compose Desktop scaffold client</tspan>
  </text>
  <rect x="428" y="268" width="262" height="85" class="node" fill="#E3F2FD" stroke="#1565C0"/>
  <text x="444" y="297" class="icon">&#xf5fd;</text>
  <text x="466" y="299" class="label">
    <tspan x="466" dy="0">Generate Project screen</tspan>
  </text>
  <text x="444" y="319" class="desc">
    <tspan x="444" dy="0">Collects name, type, and output</tspan>
    <tspan x="444" dy="15">path</tspan>
  </text>
  <rect x="428" y="409" width="275" height="85" class="node" fill="#FFF3E0" stroke="#EF6C00"/>
  <text x="444" y="438" class="icon">&#xf126;</text>
  <text x="466" y="440" class="label">
    <tspan x="466" dy="0">Blueprint Editor?</tspan>
  </text>
  <text x="444" y="460" class="desc">
    <tspan x="444" dy="0">Optional visual edit of</tspan>
    <tspan x="444" dy="15">blueprint.json</tspan>
  </text>
  <rect x="428" y="550" width="262" height="85" class="node" fill="#FFF3E0" stroke="#EF6C00"/>
  <text x="444" y="579" class="icon">&#xf013;</text>
  <text x="466" y="581" class="label">
    <tspan x="466" dy="0">BlueprintValidator</tspan>
  </text>
  <text x="444" y="601" class="desc">
    <tspan x="444" dy="0">Schema check before codegen</tspan>
    <tspan x="444" dy="15">proceeds</tspan>
  </text>
  <rect x="428" y="691" width="260" height="72" class="node" fill="#FFF3E0" stroke="#EF6C00"/>
  <text x="444" y="720" class="icon">&#xf135;</text>
  <text x="466" y="722" class="label">
    <tspan x="466" dy="0">ProjectGenerator</tspan>
  </text>
  <text x="444" y="742" class="desc">
    <tspan x="444" dy="0">Orchestrates template copy and emit</tspan>
  </text>
  <rect x="772" y="140" width="260" height="72" class="node" fill="#F3E5F5" stroke="#6A1B9A"/>
  <text x="788" y="169" class="icon">&#xf487;</text>
  <text x="810" y="171" class="label">
    <tspan x="810" dy="0">Read template/</tspan>
  </text>
  <text x="788" y="191" class="desc">
    <tspan x="788" dy="0">desktop-app or android-app skeleton</tspan>
  </text>
  <rect x="772" y="268" width="268" height="85" class="node" fill="#F3E5F5" stroke="#6A1B9A"/>
  <text x="788" y="297" class="icon">&#xf121;</text>
  <text x="810" y="299" class="label">
    <tspan x="810" dy="0">TemplateEngine</tspan>
  </text>
  <text x="788" y="319" class="desc">
    <tspan x="788" dy="0">Substitutes {{placeholders}} in</tspan>
    <tspan x="788" dy="15">files</tspan>
  </text>
  <rect x="772" y="409" width="281" height="85" class="node" fill="#F3E5F5" stroke="#6A1B9A"/>
  <text x="788" y="438" class="icon">&#xf15b;</text>
  <text x="810" y="440" class="label">
    <tspan x="810" dy="0">Validate blueprint.json</tspan>
  </text>
  <text x="788" y="460" class="desc">
    <tspan x="788" dy="0">Ensures graph nodes and edges are</tspan>
    <tspan x="788" dy="15">valid</tspan>
  </text>
  <rect x="772" y="550" width="260" height="72" class="node" fill="#F3E5F5" stroke="#6A1B9A"/>
  <text x="788" y="579" class="icon">&#xf466;</text>
  <text x="810" y="581" class="label">
    <tspan x="810" dy="0">Copy template/shared/</tspan>
  </text>
  <text x="788" y="601" class="desc">
    <tspan x="788" dy="0">DSL, themes, and runtime helpers</tspan>
  </text>
  <rect x="772" y="678" width="260" height="72" class="node" fill="#F3E5F5" stroke="#6A1B9A"/>
  <text x="788" y="707" class="icon">&#xf15b;</text>
  <text x="810" y="709" class="label">
    <tspan x="810" dy="0">Write nxs_config.json</tspan>
  </text>
  <text x="788" y="729" class="desc">
    <tspan x="788" dy="0">Schema v2 project metadata on disk</tspan>
  </text>
  <rect x="1109" y="140" width="260" height="72" class="node" fill="#E0F7FA" stroke="#00838F"/>
  <text x="1125" y="169" class="icon">&#xf466;</text>
  <text x="1147" y="171" class="label">
    <tspan x="1147" dy="0">Emit builds/framework/</tspan>
  </text>
  <text x="1125" y="191" class="desc">
    <tspan x="1125" dy="0">Out-of-source native project tree</tspan>
  </text>
  <rect x="1425" y="140" width="260" height="72" class="node" fill="#ECEFF1" stroke="#455A64"/>
  <text x="1441" y="169" class="icon">&#xf126;</text>
  <text x="1463" y="171" class="label">
    <tspan x="1463" dy="0">Desktop?</tspan>
  </text>
  <text x="1441" y="191" class="desc">
    <tspan x="1441" dy="0">Branch on project type selection</tspan>
  </text>
  <rect x="1741" y="140" width="260" height="72" class="node" fill="#E3F2FD" stroke="#1565C0"/>
  <text x="1757" y="169" class="icon">&#xf013;</text>
  <text x="1779" y="171" class="label">
    <tspan x="1779" dy="0">zig build</tspan>
  </text>
  <text x="1757" y="191" class="desc">
    <tspan x="1757" dy="0">Compile C++ and link native binary</tspan>
  </text>
  <rect x="1741" y="268" width="260" height="72" class="node" fill="#E3F2FD" stroke="#1565C0"/>
  <text x="1757" y="297" class="icon">&#xf135;</text>
  <text x="1779" y="299" class="label">
    <tspan x="1779" dy="0">Run native binary</tspan>
  </text>
  <text x="1757" y="319" class="desc">
    <tspan x="1757" dy="0">SDL3 desktop app with pybind11</tspan>
  </text>
  <rect x="2057" y="140" width="260" height="72" class="node" fill="#FCE4EC" stroke="#C2185B"/>
  <text x="2073" y="169" class="icon">&#xf17b;</text>
  <text x="2095" y="171" class="label">
    <tspan x="2095" dy="0">assembleDebug</tspan>
  </text>
  <text x="2073" y="191" class="desc">
    <tspan x="2073" dy="0">Gradle builds Android APK</tspan>
  </text>
  <rect x="2057" y="268" width="281" height="85" class="node" fill="#FCE4EC" stroke="#C2185B"/>
  <text x="2073" y="297" class="icon">&#xf1e6;</text>
  <text x="2095" y="299" class="label">
    <tspan x="2095" dy="0">Zig JNI + Chaquopy</tspan>
  </text>
  <text x="2073" y="319" class="desc">
    <tspan x="2073" dy="0">Native .so via zig build + Python</tspan>
    <tspan x="2073" dy="15">embed</tspan>
  </text>
  <rect x="2057" y="409" width="260" height="72" class="node" fill="#FCE4EC" stroke="#C2185B"/>
  <text x="2073" y="438" class="icon">&#xf3cd;</text>
  <text x="2095" y="440" class="label">
    <tspan x="2095" dy="0">Install APK</tspan>
  </text>
  <text x="2073" y="460" class="desc">
    <tspan x="2073" dy="0">Deploy to device or emulator</tspan>
  </text>
  <rect x="2394" y="140" width="262" height="85" class="node" fill="#E8EAF6" stroke="#3949AB"/>
  <text x="2410" y="169" class="icon">&#xf0c2;</text>
  <text x="2432" y="171" class="label">
    <tspan x="2432" dy="0">deployToBuildsClient</tspan>
  </text>
  <text x="2410" y="191" class="desc">
    <tspan x="2410" dy="0">Copy client distro to</tspan>
    <tspan x="2410" dy="15">builds/client/</tspan>
  </text>
  <line x1="206" y1="225" x2="177" y2="281" stroke="#475569" stroke-width="2" marker-end="url(#arrow)"/>
  <line x1="315" y1="323" x2="428" y2="176" stroke="#475569" stroke-width="2" marker-end="url(#arrow)"/>
  <line x1="572" y1="212" x2="559" y2="268" stroke="#475569" stroke-width="2" marker-end="url(#arrow)"/>
  <line x1="559" y1="353" x2="565" y2="409" stroke="#475569" stroke-width="2" marker-end="url(#arrow)"/>
  <line x1="565" y1="494" x2="559" y2="550" stroke="#475569" stroke-width="2" marker-end="url(#arrow)"/>
  <line x1="559" y1="635" x2="558" y2="691" stroke="#475569" stroke-width="2" marker-end="url(#arrow)"/>
  <path d="M688,727 L688,176 L772,176 L772,176" fill="none" stroke="#475569"  stroke-width="2" marker-end="url(#arrow)"/>
  <line x1="902" y1="212" x2="906" y2="268" stroke="#475569" stroke-width="2" marker-end="url(#arrow)"/>
  <line x1="906" y1="353" x2="912" y2="409" stroke="#475569" stroke-width="2" marker-end="url(#arrow)"/>
  <line x1="912" y1="494" x2="902" y2="550" stroke="#475569" stroke-width="2" marker-end="url(#arrow)"/>
  <line x1="902" y1="622" x2="902" y2="678" stroke="#475569" stroke-width="2" marker-end="url(#arrow)"/>
  <line x1="1032" y1="714" x2="1109" y2="176" stroke="#475569" stroke-width="2" marker-end="url(#arrow)"/>
  <line x1="1369" y1="176" x2="1425" y2="176" stroke="#475569" stroke-width="2" marker-end="url(#arrow)"/>
  <path d="M1685,176 L1685,100 L1741,100 L1741,176" fill="none" stroke="#475569"  stroke-width="2" marker-end="url(#arrow)"/>
  <path d="M1685,176 L1697,120 L2069,120 L2057,176" fill="none" stroke="#475569"  stroke-width="2" marker-end="url(#arrow)"/>
  <line x1="1871" y1="212" x2="1871" y2="268" stroke="#475569" stroke-width="2" marker-end="url(#arrow)"/>
  <line x1="2187" y1="212" x2="2197" y2="268" stroke="#475569" stroke-width="2" marker-end="url(#arrow)"/>
  <line x1="2197" y1="353" x2="2187" y2="409" stroke="#475569" stroke-width="2" marker-end="url(#arrow)"/>
  <path d="M2317,445 L2317,182 L2394,182 L2394,182" fill="none" stroke="#475569"  stroke-width="2" marker-end="url(#arrow)"/>
  <rect x="680" y="819" width="380" height="70" class="panel" fill="#FFFDE7" stroke="#F9A825"/>
  <text x="700" y="847" class="small">Headless: ./gradlew :cli:run --args="generate …"</text>
  <text x="700" y="867" class="desc">Optional Docker path via misc/docker/</text>
  <rect x="24" y="909" width="520" height="88" fill="#FFFFFF" stroke="#B0BEC5" stroke-width="2" rx="10"/>
  <text x="40" y="931" class="legend-title">Pipeline stages</text>
  <rect x="40" y="933" width="16" height="16" class="legend-box" fill="#E8F5E9" stroke="#2E7D32"/>
  <text x="62" y="945" class="small">Setup — JDK 26 + Git bootstrap</text>
  <rect x="300" y="933" width="16" height="16" class="legend-box" fill="#E3F2FD" stroke="#1565C0"/>
  <text x="322" y="945" class="small">Client — Compose Generate UI</text>
  <rect x="40" y="955" width="16" height="16" class="legend-box" fill="#F3E5F5" stroke="#6A1B9A"/>
  <text x="62" y="967" class="small">Core — template engine + emit</text>
  <rect x="300" y="955" width="16" height="16" class="legend-box" fill="#FCE4EC" stroke="#C2185B"/>
  <text x="322" y="967" class="small">Android — Gradle + Chaquopy path</text>
</svg>