<?plantuml 1.2026.2?><svg xmlns="http://www.w3.org/2000/svg" xmlns:xlink="http://www.w3.org/1999/xlink" contentStyleType="text/css" data-diagram-type="DESCRIPTION" height="672px" preserveAspectRatio="none" style="width:543px;height:672px;background:#FFFFFF;" version="1.1" viewBox="0 0 543 672" width="543px" zoomAndPan="magnify"><defs/><g><!--cluster Authoring layer--><g class="cluster" data-qualified-name="Authoring layer" data-source-line="6" id="ent0002"><path d="M8.5,6.602 L119.4136,6.602 A3.75,3.75 0 0 1 121.9136,9.102 L128.9136,31.6699 L398.5,31.6699 A2.5,2.5 0 0 1 401,34.1699 L401,135.302 A2.5,2.5 0 0 1 398.5,137.802 L8.5,137.802 A2.5,2.5 0 0 1 6,135.302 L6,9.102 A2.5,2.5 0 0 1 8.5,6.602" fill="none" style="stroke:#888888;stroke-width:1.5;"/><line style="stroke:#888888;stroke-width:1.5;" x1="6" x2="128.9136" y1="31.6699" y2="31.6699"/><text fill="#000000" font-family="Helvetica" font-size="14" font-weight="bold" lengthAdjust="spacing" textLength="109.9136" x="10" y="23.5679">Authoring layer</text></g><!--cluster Scripting layer--><g class="cluster" data-qualified-name="Scripting layer" data-source-line="11" id="ent0005"><path d="M148.5,188.802 L250.7476,188.802 A3.75,3.75 0 0 1 253.2476,191.302 L260.2476,213.8699 L291.5,213.8699 A2.5,2.5 0 0 1 294,216.3699 L294,279.372 A2.5,2.5 0 0 1 291.5,281.872 L148.5,281.872 A2.5,2.5 0 0 1 146,279.372 L146,191.302 A2.5,2.5 0 0 1 148.5,188.802" fill="none" style="stroke:#888888;stroke-width:1.5;"/><line style="stroke:#888888;stroke-width:1.5;" x1="146" x2="260.2476" y1="213.8699" y2="213.8699"/><text fill="#000000" font-family="Helvetica" font-size="14" font-weight="bold" lengthAdjust="spacing" textLength="101.2476" x="150" y="205.7679">Scripting layer</text></g><!--cluster C++ core--><g class="cluster" data-qualified-name="C.. core" data-source-line="15" id="ent0007"><path d="M112.5,332.872 L172.7338,332.872 A3.75,3.75 0 0 1 175.2338,335.372 L182.2338,357.9399 L299.5,357.9399 A2.5,2.5 0 0 1 302,360.4399 L302,662.642 A2.5,2.5 0 0 1 299.5,665.142 L112.5,665.142 A2.5,2.5 0 0 1 110,662.642 L110,335.372 A2.5,2.5 0 0 1 112.5,332.872" fill="none" style="stroke:#888888;stroke-width:1.5;"/><line style="stroke:#888888;stroke-width:1.5;" x1="110" x2="182.2338" y1="357.9399" y2="357.9399"/><text fill="#000000" font-family="Helvetica" font-size="14" font-weight="bold" lengthAdjust="spacing" textLength="59.2338" x="114" y="349.8379">C++ core</text></g><!--cluster Android target--><g class="cluster" data-qualified-name="Android target" data-source-line="21" id="ent0011"><path d="M328.5,332.872 L432.8196,332.872 A3.75,3.75 0 0 1 435.3196,335.372 L442.3196,357.9399 L533.5,357.9399 A2.5,2.5 0 0 1 536,360.4399 L536,541.502 A2.5,2.5 0 0 1 533.5,544.002 L328.5,544.002 A2.5,2.5 0 0 1 326,541.502 L326,335.372 A2.5,2.5 0 0 1 328.5,332.872" fill="none" style="stroke:#888888;stroke-width:1.5;"/><line style="stroke:#888888;stroke-width:1.5;" x1="326" x2="442.3196" y1="357.9399" y2="357.9399"/><text fill="#000000" font-family="Helvetica" font-size="14" font-weight="bold" lengthAdjust="spacing" textLength="103.3196" x="330" y="349.8379">Android target</text></g><!--entity TSX--><g class="entity" data-qualified-name="Authoring layer.TSX" data-source-line="7" id="ent0003"><rect fill="#F1F1F1" height="77.2038" rx="2.5" ry="2.5" style="stroke:#444444;stroke-width:0.5;" width="172.5854" x="21.71" y="44.602"/><text fill="#000000" font-family="Helvetica" font-size="14" lengthAdjust="spacing" textLength="130.5775" x="31.71" y="69.5679">TypeScript + XHTML</text><text fill="#000000" font-family="Helvetica" font-size="14" lengthAdjust="spacing" textLength="152.5854" x="31.71" y="88.6358">components (web-style</text><text fill="#000000" font-family="Helvetica" font-size="14" lengthAdjust="spacing" textLength="125.1315" x="31.71" y="107.7038">component model)</text></g><!--entity Nodes--><g class="entity" data-qualified-name="Authoring layer.Nodes" data-source-line="8" id="ent0004"><rect fill="#F1F1F1" height="77.2038" rx="2.5" ry="2.5" style="stroke:#444444;stroke-width:0.5;" width="156.1915" x="228.9" y="44.602"/><text fill="#000000" font-family="Helvetica" font-size="14" lengthAdjust="spacing" textLength="117.3895" x="238.9" y="69.5679">imnodes flow GUI</text><text fill="#000000" font-family="Helvetica" font-size="14" lengthAdjust="spacing" textLength="136.1915" x="238.9" y="88.6358">(Langflow-style JSON</text><text fill="#000000" font-family="Helvetica" font-size="14" lengthAdjust="spacing" textLength="69.9717" x="238.9" y="107.7038">templates)</text></g><!--entity LuaDSL--><g class="entity" data-qualified-name="Scripting layer.LuaDSL" data-source-line="12" id="ent0006"><rect fill="#F1F1F1" height="39.0679" rx="2.5" ry="2.5" style="stroke:#444444;stroke-width:0.5;" width="116.6556" x="161.67" y="226.802"/><text fill="#000000" font-family="Helvetica" font-size="14" lengthAdjust="spacing" textLength="96.6556" x="171.67" y="251.7679">Lua ImGui DSL</text></g><!--entity Logic--><g class="entity" data-qualified-name="C.. core.Logic" data-source-line="16" id="ent0008"><rect fill="#F1F1F1" height="39.0679" rx="2.5" ry="2.5" style="stroke:#444444;stroke-width:0.5;" width="106.5617" x="166.72" y="370.872"/><text fill="#000000" font-family="Helvetica" font-size="14" lengthAdjust="spacing" textLength="86.5617" x="176.72" y="395.8379">Domain logic</text></g><!--entity ImGui--><g class="entity" data-qualified-name="C.. core.ImGui" data-source-line="17" id="ent0009"><rect fill="#F1F1F1" height="39.0679" rx="2.5" ry="2.5" style="stroke:#444444;stroke-width:0.5;" width="122.2276" x="154.89" y="488.942"/><text fill="#000000" font-family="Helvetica" font-size="14" lengthAdjust="spacing" textLength="102.2276" x="164.89" y="513.9079">ImGui renderer</text></g><!--entity SDL--><g class="entity" data-qualified-name="C.. core.SDL" data-source-line="18" id="ent0010"><rect fill="#F1F1F1" height="58.1358" rx="2.5" ry="2.5" style="stroke:#444444;stroke-width:0.5;" width="159.8034" x="126.1" y="591.002"/><text fill="#000000" font-family="Helvetica" font-size="14" lengthAdjust="spacing" textLength="33.2499" x="136.1" y="615.9679">SDL3</text><text fill="#000000" font-family="Helvetica" font-size="14" lengthAdjust="spacing" textLength="139.8034" x="136.1" y="635.0358">window / input / GPU</text></g><!--entity Djinni--><g class="entity" data-qualified-name="Android target.Djinni" data-source-line="22" id="ent0012"><rect fill="#F1F1F1" height="39.0679" rx="2.5" ry="2.5" style="stroke:#444444;stroke-width:0.5;" width="177.8774" x="342.06" y="370.872"/><text fill="#000000" font-family="Helvetica" font-size="14" lengthAdjust="spacing" textLength="157.8774" x="352.06" y="395.8379">Djinni-generated bridge</text></g><!--entity Kotlin--><g class="entity" data-qualified-name="Android target.Kotlin" data-source-line="23" id="ent0013"><rect fill="#F1F1F1" height="39.0679" rx="2.5" ry="2.5" style="stroke:#444444;stroke-width:0.5;" width="127.9956" x="354" y="488.942"/><text fill="#000000" font-family="Helvetica" font-size="14" lengthAdjust="spacing" textLength="107.9956" x="364" y="513.9079">Kotlin / JVM host</text></g><!--link TSX to LuaDSL--><g class="link" data-entity-1="ent0003" data-entity-2="ent0006" data-link-type="dependency" data-source-line="26" id="lnk14"><path d="M134.26,121.982 C157.02,154.722 185.5859,195.8249 203.3559,221.3949" fill="none" id="TSX-to-LuaDSL" style="stroke:#181818;stroke-width:1;"/><polygon fill="#181818" points="206.78,226.322,204.9286,216.6487,203.9266,222.2161,198.3592,221.2141,206.78,226.322" style="stroke:#181818;stroke-width:1;"/><text fill="#000000" font-family="Helvetica" font-size="13" lengthAdjust="spacing" textLength="56.303" x="168.36" y="168.699">lowers to</text></g><!--link Nodes to LuaDSL--><g class="link" data-entity-1="ent0004" data-entity-2="ent0006" data-link-type="dependency" data-source-line="27" id="lnk15"><path d="M286.6,121.982 C268.92,154.722 246.9196,195.4719 233.1196,221.0419" fill="none" id="Nodes-to-LuaDSL" style="stroke:#181818;stroke-width:1;"/><polygon fill="#181818" points="230.27,226.322,238.0645,220.3016,232.6447,221.9219,231.0244,216.5021,230.27,226.322" style="stroke:#181818;stroke-width:1;"/><text fill="#000000" font-family="Helvetica" font-size="13" lengthAdjust="spacing" textLength="56.303" x="269.71" y="168.699">lowers to</text></g><!--link LuaDSL to Logic--><g class="link" data-entity-1="ent0006" data-entity-2="ent0008" data-link-type="dependency" data-source-line="28" id="lnk16"><path d="M220,266.202 C220,293.372 220,337.242 220,364.462" fill="none" id="LuaDSL-to-Logic" style="stroke:#181818;stroke-width:1;"/><polygon fill="#181818" points="220,370.462,224,361.462,220,365.462,216,361.462,220,370.462" style="stroke:#181818;stroke-width:1;"/><text fill="#000000" font-family="Helvetica" font-size="13" lengthAdjust="spacing" textLength="75.0231" x="221" y="312.769">sol2 binding</text></g><!--link Logic to ImGui--><g class="link" data-entity-1="ent0008" data-entity-2="ent0009" data-link-type="dependency" data-source-line="29" id="lnk17"><path d="M219.35,410.312 C218.6,431.892 217.6084,460.9956 216.8584,482.5756" fill="none" id="Logic-to-ImGui" style="stroke:#181818;stroke-width:1;"/><polygon fill="#181818" points="216.65,488.572,220.9602,479.7163,216.8237,483.575,212.965,479.4385,216.65,488.572" style="stroke:#181818;stroke-width:1;"/></g><!--link ImGui to SDL--><g class="link" data-entity-1="ent0009" data-entity-2="ent0010" data-link-type="dependency" data-source-line="30" id="lnk18"><path d="M214.3,528.062 C212.73,545.292 210.9143,565.1667 209.1143,584.9267" fill="none" id="ImGui-to-SDL" style="stroke:#181818;stroke-width:1;"/><polygon fill="#181818" points="208.57,590.902,213.37,582.302,209.0236,585.9226,205.403,581.5762,208.57,590.902" style="stroke:#181818;stroke-width:1;"/></g><!--link Logic to Kotlin--><g class="link" data-entity-1="ent0008" data-entity-2="ent0013" data-link-type="dependency" data-source-line="31" id="lnk19"><path d="M257.4264,413.3459 C294.2464,434.9259 343.7739,463.9575 380.5839,485.5375" fill="none" id="Logic-Kotlin" style="stroke:#181818;stroke-width:1;"/><polygon fill="#181818" points="252.25,410.312,257.9921,418.3138,256.5637,412.8402,262.0373,411.4118,252.25,410.312" style="stroke:#181818;stroke-width:1;"/><polygon fill="#181818" points="385.76,488.572,380.0189,480.5695,381.4466,486.0432,375.9729,487.471,385.76,488.572" style="stroke:#181818;stroke-width:1;"/><text fill="#000000" font-family="Helvetica" font-size="13" lengthAdjust="spacing" textLength="35.62" x="331.85" y="454.839">Djinni</text></g><!--link Djinni to Kotlin--><g class="link" data-entity-1="ent0012" data-entity-2="ent0013" data-link-type="association" data-source-line="32" id="lnk20"><path d="M428.88,410.312 C426.46,431.892 422.53,466.992 420.12,488.572" fill="none" id="Djinni-Kotlin" style="stroke:#181818;stroke-width:1;stroke-dasharray:7,7;"/></g><?plantuml-src TL5DJ-Cm4BtdLupAXLLLa8332g6LW8ho4SfAAIiElRZ9D3KuCv7jR5Mj-EyxjiDk8uGlzinxy_ncnhrfQfLL3RYDgdYhgOQrCWupzm-fSAqwus-O_5mr2BTeVgFNfThZM2ozejhW5TiAxJKRjd1m5iyUhLNbcwg7fE_nP5cFmUYoynksmObHExGZ-9F1_mzWjDYrM9HMjnx6y7AxUCoNL7BJCY5v1uTRN4sStndSIqF35Pfl8r0E5iNBK50t9AY3jU4jp9xlbdIO2nJ290JtnTDyIHwRrYYFBkdCGr7slkSykVhQUTufk6jcdOPfaKSDoSXp878z7aF95ZzLJxbHci1mhSjK75v3JbAtI3BVO41OCJLa5TFyT4coRDau78Dif_Doptu-nmg11uukgRAiA_3ArkW_-thLH7fI8w6LwLImihggCKebRCX_O6-aZsEu__K86tO-CbCs_2lxWSdaHpyRE9UEjsWTUCxYoBy2-rH4msG4T6nEO2Lzoawob0nm6acQLOX3mmcz265lyFp3VRhWwAX7_W80?></g></svg>