<?plantuml 1.2026.2?><svg xmlns="http://www.w3.org/2000/svg" xmlns:xlink="http://www.w3.org/1999/xlink" contentStyleType="text/css" data-diagram-type="DESCRIPTION" height="448px" preserveAspectRatio="none" style="width:437px;height:448px;background:#FFFFFF;" version="1.1" viewBox="0 0 437 448" width="437px" zoomAndPan="magnify"><defs/><g><!--entity Data--><g class="entity" data-qualified-name="Data" data-source-line="4" id="ent0002"><rect fill="#F1F1F1" height="39.0679" rx="2.5" ry="2.5" style="stroke:#181818;stroke-width:0.5;" width="178.9274" x="19.11" y="7"/><text fill="#000000" font-family="Helvetica" font-size="14" lengthAdjust="spacing" textLength="158.9274" x="29.11" y="31.9659">CSV / HDF5 / instrument</text></g><!--entity CPP--><g class="entity" data-qualified-name="CPP" data-source-line="5" id="ent0003"><rect fill="#F1F1F1" height="39.0679" rx="2.5" ry="2.5" style="stroke:#181818;stroke-width:0.5;" width="123.1096" x="47.02" y="106.07"/><text fill="#000000" font-family="Helvetica" font-size="14" lengthAdjust="spacing" textLength="103.1096" x="57.02" y="131.0359">C++ load + filter</text></g><!--entity NumPy--><g class="entity" data-qualified-name="NumPy" data-source-line="6" id="ent0004"><rect fill="#F1F1F1" height="39.0679" rx="2.5" ry="2.5" style="stroke:#181818;stroke-width:0.5;" width="198.0093" x="9.57" y="205.14"/><text fill="#000000" font-family="Helvetica" font-size="14" lengthAdjust="spacing" textLength="178.0093" x="19.57" y="230.1059">numpy arrays via pybind11</text></g><!--entity Plot--><g class="entity" data-qualified-name="Plot" data-source-line="7" id="ent0005"><rect fill="#F1F1F1" height="39.0679" rx="2.5" ry="2.5" style="stroke:#181818;stroke-width:0.5;" width="130.5856" x="43.28" y="304.2"/><text fill="#000000" font-family="Helvetica" font-size="14" lengthAdjust="spacing" textLength="110.5856" x="53.28" y="329.1659">matplotlib figure</text></g><!--entity UI--><g class="entity" data-qualified-name="UI" data-source-line="8" id="ent0006"><rect fill="#F1F1F1" height="39.0679" rx="2.5" ry="2.5" style="stroke:#181818;stroke-width:0.5;" width="212.2473" x="219.45" y="304.2"/><text fill="#000000" font-family="Helvetica" font-size="14" lengthAdjust="spacing" textLength="192.2473" x="229.45" y="329.1659">ImGui plots + sliders on SDL3</text></g><!--entity Lua--><g class="entity" data-qualified-name="Lua" data-source-line="9" id="ent0007"><rect fill="#F1F1F1" height="39.0679" rx="2.5" ry="2.5" style="stroke:#181818;stroke-width:0.5;" width="187.7474" x="242.7" y="205.14"/><text fill="#000000" font-family="Helvetica" font-size="14" lengthAdjust="spacing" textLength="167.7474" x="252.7" y="230.1059">Lua layout scripts via sol2</text></g><!--entity Tex--><g class="entity" data-qualified-name="Tex" data-source-line="10" id="ent0008"><rect fill="#F1F1F1" height="39.0679" rx="2.5" ry="2.5" style="stroke:#181818;stroke-width:0.5;" width="203.1473" x="7" y="403.27"/><text fill="#000000" font-family="Helvetica" font-size="14" lengthAdjust="spacing" textLength="183.1473" x="17" y="428.2359">GPU texture blit to viewport</text></g><!--link Data to CPP--><g class="link" data-entity-1="ent0002" data-entity-2="ent0003" data-link-type="dependency" data-source-line="12" id="lnk9"><path d="M108.57,46.25 C108.57,63.33 108.57,82.45 108.57,99.61" fill="none" id="Data-to-CPP" style="stroke:#181818;stroke-width:1;"/><polygon fill="#181818" points="108.57,105.61,112.57,96.61,108.57,100.61,104.57,96.61,108.57,105.61" style="stroke:#181818;stroke-width:1;"/></g><!--link CPP to NumPy--><g class="link" data-entity-1="ent0003" data-entity-2="ent0004" data-link-type="dependency" data-source-line="13" id="lnk10"><path d="M108.57,145.32 C108.57,162.4 108.57,181.52 108.57,198.68" fill="none" id="CPP-to-NumPy" style="stroke:#181818;stroke-width:1;"/><polygon fill="#181818" points="108.57,204.68,112.57,195.68,108.57,199.68,104.57,195.68,108.57,204.68" style="stroke:#181818;stroke-width:1;"/></g><!--link NumPy to Plot--><g class="link" data-entity-1="ent0004" data-entity-2="ent0005" data-link-type="dependency" data-source-line="14" id="lnk11"><path d="M108.57,244.39 C108.57,261.46 108.57,280.59 108.57,297.75" fill="none" id="NumPy-to-Plot" style="stroke:#181818;stroke-width:1;"/><polygon fill="#181818" points="108.57,303.75,112.57,294.75,108.57,298.75,104.57,294.75,108.57,303.75" style="stroke:#181818;stroke-width:1;"/></g><!--link NumPy to UI--><g class="link" data-entity-1="ent0004" data-entity-2="ent0006" data-link-type="dependency" data-source-line="15" id="lnk12"><path d="M150.93,244.62 C189.16,261.72 239.6429,284.3003 277.8529,301.3903" fill="none" id="NumPy-to-UI" style="stroke:#181818;stroke-width:1;"/><polygon fill="#181818" points="283.33,303.84,276.7475,296.514,278.7657,301.7986,273.4812,303.8168,283.33,303.84" style="stroke:#181818;stroke-width:1;"/></g><!--link Lua to UI--><g class="link" data-entity-1="ent0007" data-entity-2="ent0006" data-link-type="dependency" data-source-line="16" id="lnk13"><path d="M334.45,244.39 C332.52,261.46 330.344,280.628 328.404,297.788" fill="none" id="Lua-to-UI" style="stroke:#181818;stroke-width:1;"/><polygon fill="#181818" points="327.73,303.75,332.7157,295.2563,328.2917,298.7816,324.7664,294.3576,327.73,303.75" style="stroke:#181818;stroke-width:1;"/></g><!--link Plot to Tex--><g class="link" data-entity-1="ent0005" data-entity-2="ent0008" data-link-type="dependency" data-source-line="17" id="lnk14"><path d="M108.57,343.45 C108.57,360.53 108.57,379.65 108.57,396.82" fill="none" id="Plot-to-Tex" style="stroke:#181818;stroke-width:1;"/><polygon fill="#181818" points="108.57,402.82,112.57,393.82,108.57,397.82,104.57,393.82,108.57,402.82" style="stroke:#181818;stroke-width:1;"/></g><?plantuml-src LP1DQyCm38Rl-HMYrr16DtRTfQ4VK4gWw-vAecHY_iAMs-RVpt76bXriIzOZwPN25nk77ZM4J-pidSq0FQf0HVYDTDHZLBApHiwe2GwaRYJSOb5uQWNDe0XMsyi7FC6XshscXqqG7pKPMG46g53m7rkMe2nsK4BFIiXdQblNIyX4xKP0xt4CS6C4DpPikiqcm-Uewt69QnIdh2XkKiqXUifOdRwMr57l8yC4XjGyAEx81x06BjNf9MTSZql-514KZZOAXDQparbAiEevqoc-nFVr5OGUajf3erX0REBfxgoVD_5EZwAOrW7hzLkUE9ripmFbE_jP-P-RP4rQVimfcErKxni0?></g></svg>