<?plantuml 1.2026.2?><svg xmlns="http://www.w3.org/2000/svg" xmlns:xlink="http://www.w3.org/1999/xlink" contentStyleType="text/css" data-diagram-type="DESCRIPTION" height="461px" preserveAspectRatio="none" style="width:739px;height:461px;background:#FFFFFF;" version="1.1" viewBox="0 0 739 461" width="739px" zoomAndPan="magnify"><defs/><g><!--cluster C++ core--><g class="cluster" data-qualified-name="C.. core" data-source-line="5" id="ent0002"><path d="M45.47,6.602 L105.7038,6.602 A3.75,3.75 0 0 1 108.2038,9.102 L115.2038,31.6699 L730.07,31.6699 A2.5,2.5 0 0 1 732.57,34.1699 L732.57,98.102 A2.5,2.5 0 0 1 730.07,100.602 L45.47,100.602 A2.5,2.5 0 0 1 42.97,98.102 L42.97,9.102 A2.5,2.5 0 0 1 45.47,6.602" fill="none" style="stroke:#000000;stroke-width:1.5;"/><line style="stroke:#000000;stroke-width:1.5;" x1="42.97" x2="115.2038" y1="31.6699" y2="31.6699"/><text fill="#000000" font-family="Helvetica" font-size="14" font-weight="bold" lengthAdjust="spacing" textLength="59.2338" x="46.97" y="23.5679">C++ core</text></g><!--cluster Lua DSL (sol2)--><g class="cluster" data-qualified-name="Lua DSL .sol2." data-source-line="11" id="ent0006"><path d="M54.86,360.602 L151.6896,360.602 A3.75,3.75 0 0 1 154.1896,363.102 L161.1896,385.6699 L511.56,385.6699 A2.5,2.5 0 0 1 514.06,388.1699 L514.06,452.102 A2.5,2.5 0 0 1 511.56,454.602 L54.86,454.602 A2.5,2.5 0 0 1 52.36,452.102 L52.36,363.102 A2.5,2.5 0 0 1 54.86,360.602" fill="none" style="stroke:#000000;stroke-width:1.5;"/><line style="stroke:#000000;stroke-width:1.5;" x1="52.36" x2="161.1896" y1="385.6699" y2="385.6699"/><text fill="#000000" font-family="Helvetica" font-size="14" font-weight="bold" lengthAdjust="spacing" textLength="95.8296" x="56.36" y="377.5679">Lua DSL (sol2)</text></g><!--cluster TypeScript + XHTML--><g class="cluster" data-qualified-name="TypeScript . XHTML" data-source-line="16" id="ent0009"><path d="M8.5,242.602 L147.5675,242.602 A3.75,3.75 0 0 1 150.0675,245.102 L157.0675,267.6699 L255.34,267.6699 A2.5,2.5 0 0 1 257.84,270.1699 L257.84,334.102 A2.5,2.5 0 0 1 255.34,336.602 L8.5,336.602 A2.5,2.5 0 0 1 6,334.102 L6,245.102 A2.5,2.5 0 0 1 8.5,242.602" fill="none" style="stroke:#000000;stroke-width:1.5;"/><line style="stroke:#000000;stroke-width:1.5;" x1="6" x2="157.0675" y1="267.6699" y2="267.6699"/><text fill="#000000" font-family="Helvetica" font-size="14" font-weight="bold" lengthAdjust="spacing" textLength="138.0675" x="10" y="259.5679">TypeScript + XHTML</text></g><!--cluster Python (optional)--><g class="cluster" data-qualified-name="Python .optional." data-source-line="20" id="ent0011"><path d="M45.98,124.602 L168.0935,124.602 A3.75,3.75 0 0 1 170.5935,127.102 L177.5935,149.6699 L217.85,149.6699 A2.5,2.5 0 0 1 220.35,152.1699 L220.35,216.102 A2.5,2.5 0 0 1 217.85,218.602 L45.98,218.602 A2.5,2.5 0 0 1 43.48,216.102 L43.48,127.102 A2.5,2.5 0 0 1 45.98,124.602" fill="none" style="stroke:#000000;stroke-width:1.5;"/><line style="stroke:#000000;stroke-width:1.5;" x1="43.48" x2="177.5935" y1="149.6699" y2="149.6699"/><text fill="#000000" font-family="Helvetica" font-size="14" font-weight="bold" lengthAdjust="spacing" textLength="121.1135" x="47.48" y="141.5679">Python (optional)</text></g><!--entity Feed--><g class="entity" data-qualified-name="C.. core.Feed" data-source-line="6" id="ent0003"><rect fill="#F1F1F1" height="39.0679" rx="2.5" ry="2.5" style="stroke:#181818;stroke-width:0.5;" width="145.8875" x="58.97" y="45.072"/><text fill="#000000" font-family="Helvetica" font-size="14" lengthAdjust="spacing" textLength="125.8875" x="68.97" y="70.0379">Market feed parser</text></g><!--entity Book--><g class="entity" data-qualified-name="C.. core.Book" data-source-line="7" id="ent0004"><rect fill="#F1F1F1" height="39.0679" rx="2.5" ry="2.5" style="stroke:#181818;stroke-width:0.5;" width="144.6275" x="361.84" y="45.072"/><text fill="#000000" font-family="Helvetica" font-size="14" lengthAdjust="spacing" textLength="124.6275" x="371.84" y="70.0379">Order book engine</text></g><!--entity GL--><g class="entity" data-qualified-name="C.. core.GL" data-source-line="8" id="ent0005"><rect fill="#F1F1F1" height="39.0679" rx="2.5" ry="2.5" style="stroke:#181818;stroke-width:0.5;" width="149.1075" x="567.46" y="45.072"/><text fill="#000000" font-family="Helvetica" font-size="14" lengthAdjust="spacing" textLength="129.1075" x="577.46" y="70.0379">SDL3 / ImGui frame</text></g><!--entity Panels--><g class="entity" data-qualified-name="Lua DSL .sol2..Panels" data-source-line="12" id="ent0007"><rect fill="#F1F1F1" height="39.0679" rx="2.5" ry="2.5" style="stroke:#181818;stroke-width:0.5;" width="127.8276" x="370.24" y="399.072"/><text fill="#000000" font-family="Helvetica" font-size="14" lengthAdjust="spacing" textLength="107.8276" x="380.24" y="424.0379">Dockable panels</text></g><!--entity Hotkeys--><g class="entity" data-qualified-name="Lua DSL .sol2..Hotkeys" data-source-line="13" id="ent0008"><rect fill="#F1F1F1" height="39.0679" rx="2.5" ry="2.5" style="stroke:#181818;stroke-width:0.5;" width="127.1136" x="68.36" y="399.072"/><text fill="#000000" font-family="Helvetica" font-size="14" lengthAdjust="spacing" textLength="107.1136" x="78.36" y="424.0379">Hotkey bindings</text></g><!--entity Comp--><g class="entity" data-qualified-name="TypeScript . XHTML.Comp" data-source-line="17" id="ent0010"><rect fill="#F1F1F1" height="39.0679" rx="2.5" ry="2.5" style="stroke:#181818;stroke-width:0.5;" width="219.8352" x="22" y="281.072"/><text fill="#000000" font-family="Helvetica" font-size="14" lengthAdjust="spacing" textLength="199.8352" x="32" y="306.0379">Declarative panel components</text></g><!--entity Models--><g class="entity" data-qualified-name="Python .optional..Models" data-source-line="21" id="ent0012"><rect fill="#F1F1F1" height="39.0679" rx="2.5" ry="2.5" style="stroke:#181818;stroke-width:0.5;" width="144.8655" x="59.48" y="163.072"/><text fill="#000000" font-family="Helvetica" font-size="14" lengthAdjust="spacing" textLength="124.8655" x="69.48" y="188.0379">Risk / signal scripts</text></g><!--link Comp to Panels--><g class="link" data-entity-1="ent0010" data-entity-2="ent0007" data-link-type="dependency" data-source-line="24" id="lnk13"><path d="M183.85,320.622 C239.14,342.352 321.3458,374.6573 376.6358,396.3873" fill="none" id="Comp-to-Panels" style="stroke:#181818;stroke-width:1;"/><polygon fill="#181818" points="382.22,398.582,375.3068,391.5671,377.5665,396.7531,372.3806,399.0127,382.22,398.582" style="stroke:#181818;stroke-width:1;"/></g><!--link Feed to Book--><g class="link" data-entity-1="ent0003" data-entity-2="ent0004" data-link-type="dependency" data-source-line="25" id="lnk14"><path d="M205.21,64.602 C252.58,64.602 308.24,64.602 355.48,64.602" fill="none" id="Feed-to-Book" style="stroke:#181818;stroke-width:1;"/><polygon fill="#181818" points="361.48,64.602,352.48,60.602,356.48,64.602,352.48,68.602,361.48,64.602" style="stroke:#181818;stroke-width:1;"/></g><!--link Book to GL--><g class="link" data-entity-1="ent0004" data-entity-2="ent0005" data-link-type="dependency" data-source-line="26" id="lnk15"><path d="M506.86,64.602 C526.36,64.602 541.5,64.602 561.12,64.602" fill="none" id="Book-to-GL" style="stroke:#181818;stroke-width:1;"/><polygon fill="#181818" points="567.12,64.602,558.12,60.602,562.12,64.602,558.12,68.602,567.12,64.602" style="stroke:#181818;stroke-width:1;"/></g><!--link Panels to GL--><g class="link" data-entity-1="ent0007" data-entity-2="ent0005" data-link-type="dependency" data-source-line="27" id="lnk16"><path d="M446.66,398.812 C482.73,336.782 590.3141,151.7989 626.4441,89.6589" fill="none" id="Panels-to-GL" style="stroke:#181818;stroke-width:1;"/><polygon fill="#181818" points="629.46,84.472,621.4782,90.2419,626.9468,88.7945,628.3942,94.263,629.46,84.472" style="stroke:#181818;stroke-width:1;"/></g><!--link Models to Book--><g class="link" data-entity-1="ent0012" data-entity-2="ent0004" data-link-type="dependency" data-source-line="28" id="lnk17"><path d="M183.85,162.582 C239.14,140.852 321.3458,108.5467 376.6358,86.8167" fill="none" id="Models-to-Book" style="stroke:#181818;stroke-width:1;stroke-dasharray:7,7;"/><polygon fill="#181818" points="382.22,84.622,372.3806,84.1912,377.5665,86.4509,375.3068,91.6368,382.22,84.622" style="stroke:#181818;stroke-width:1;"/><text fill="#000000" font-family="Helvetica" font-size="13" lengthAdjust="spacing" textLength="56.8751" x="274.84" y="100.339">pybind11</text></g><!--link Hotkeys to Panels--><g class="link" data-entity-1="ent0008" data-entity-2="ent0007" data-link-type="dependency" data-source-line="29" id="lnk18"><path d="M195.86,418.602 C246.92,418.602 312.59,418.602 363.78,418.602" fill="none" id="Hotkeys-to-Panels" style="stroke:#181818;stroke-width:1;"/><polygon fill="#181818" points="369.78,418.602,360.78,414.602,364.78,418.602,360.78,422.602,369.78,418.602" style="stroke:#181818;stroke-width:1;"/></g><?plantuml-src PP0nRy8m48Nt_8ed9Ye4Y7RhqA4We59eKM7eQf9BiEBObcseegh_lPSOAY8MwvxlwTtTvokfhN2YXZ-At7nBNQ8GobFY_piv5UAamjBey2vgmfhKcOBCHAAe20W6JfR7W5mwoe8qEacio2fH4WRpqGYPSJJ0JmAqVQ5BnOsDS1K554GvU8mdDu3mMBBk6pzSJWu7OogGBgMcplVAkk_RBT8dJF5MhquI1UyTZQiq-RtP9pq9B7OfXjwenuUxhHQ6VGUkhD2aV9UmxSg-Rsr2HGqEKkTCBFhYd--DspUMTfcJDc24h_L-azwFf4mnvY3FbwdCgxP6amunTywo5xfjmj5e38rjOGjrVyQdz1MpyBBaDdotG0pRcBmzXkFQM8p7BzVxMlATxj2sJwUONpHSLKp0P1ATU8PjMWwpMN8XS9Fw1m00?></g></svg>