<?xml version="1.0" encoding="UTF-8"?>
<svg xmlns="http://www.w3.org/2000/svg" viewBox="0 0 700 600" width="700" height="600">
  <title>Nexus higher-order flow — abstract</title>
  <rect width="100%" height="100%" fill="#1e1e2e"/>
  <rect x="0" y="0" width="100%" height="36" fill="#313244"/>
  <circle cx="18" cy="18" r="6" fill="#f38ba8"/>
  <circle cx="36" cy="18" r="6" fill="#fab387"/>
  <circle cx="54" cy="18" r="6" fill="#a6e3a1"/>
  <text x="350" y="24" text-anchor="middle" font-family="sans-serif" font-size="14" fill="#a6adc8" font-weight="bold">Nexus higher-order flow — abstract</text>

  <rect x="60" y="70" width="580" height="100" rx="12" fill="#313244" stroke="#f38ba8" stroke-width="2"/>
  <rect x="60" y="70" width="160" height="100" rx="12" fill="#f38ba8" opacity="0.15"/>
  <text x="140" y="115" text-anchor="middle" font-family="sans-serif" font-size="16" font-weight="bold" fill="#f38ba8">Design</text>
  <text x="140" y="140" text-anchor="middle" font-family="sans-serif" font-size="12" fill="#a6adc8">blueprint.json</text>
  <text x="260" y="115" font-family="sans-serif" font-size="13" fill="#a6adc8">Choose template · Wire node graph</text>
  <text x="260" y="140" font-family="sans-serif" font-size="13" fill="#a6adc8">Configure ports and data flow</text>

  <rect x="60" y="190" width="580" height="100" rx="12" fill="#313244" stroke="#fab387" stroke-width="2"/>
  <rect x="60" y="190" width="160" height="100" rx="12" fill="#fab387" opacity="0.15"/>
  <text x="140" y="235" text-anchor="middle" font-family="sans-serif" font-size="16" font-weight="bold" fill="#fab387">Generate</text>
  <text x="140" y="260" text-anchor="middle" font-family="sans-serif" font-size="12" fill="#a6adc8">:core engine</text>
  <text x="260" y="235" font-family="sans-serif" font-size="13" fill="#a6adc8">ProjectGenerator reads blueprint</text>
  <text x="260" y="260" font-family="sans-serif" font-size="13" fill="#a6adc8">TemplateEngine substitutes placeholders</text>

  <rect x="60" y="310" width="580" height="100" rx="12" fill="#313244" stroke="#a6e3a1" stroke-width="2"/>
  <rect x="60" y="310" width="160" height="100" rx="12" fill="#a6e3a1" opacity="0.15"/>
  <text x="140" y="355" text-anchor="middle" font-family="sans-serif" font-size="16" font-weight="bold" fill="#a6e3a1">Build</text>
  <text x="140" y="380" text-anchor="middle" font-family="sans-serif" font-size="12" fill="#a6adc8">zig build</text>
  <text x="260" y="355" font-family="sans-serif" font-size="13" fill="#a6adc8">C++20 module compilation</text>
  <text x="260" y="380" font-family="sans-serif" font-size="13" fill="#a6adc8">Link SDL3 + Lua + Python bridges</text>

  <line x1="350" y1="170" x2="350" y2="185" stroke="#585b70" stroke-width="2.5" marker-end="url(#arrow)"/>
  <line x1="350" y1="290" x2="350" y2="305" stroke="#585b70" stroke-width="2.5" marker-end="url(#arrow)"/>

  <text x="140" y="460" text-anchor="middle" font-family="sans-serif" font-size="11" fill="#585b70">WHAT to build</text>
  <text x="350" y="460" text-anchor="middle" font-family="sans-serif" font-size="11" fill="#585b70">HOW to build it</text>
  <text x="560" y="460" text-anchor="middle" font-family="sans-serif" font-size="11" fill="#585b70">Produce binary</text>

  <path d="M350,410 L350,445 L280,445 L280,473" fill="none" stroke="#585b70" stroke-width="2" marker-end="url(#arrow)"/>
  <line x1="280" y1="445" x2="420" y2="445" stroke="#585b70" stroke-width="2"/>
  <line x1="420" y1="445" x2="420" y2="473" stroke="#585b70" stroke-width="2" marker-end="url(#arrow)"/>

  <rect x="80" y="475" width="260" height="70" rx="10" fill="#313244" stroke="#89b4fa" stroke-width="2"/>
  <text x="210" y="505" text-anchor="middle" font-family="sans-serif" font-size="15" font-weight="bold" fill="#89b4fa">Desktop App</text>
  <text x="210" y="528" text-anchor="middle" font-family="sans-serif" font-size="11" fill="#a6adc8">SDL3 + ImGui · 3-20 MB</text>

  <rect x="360" y="475" width="260" height="70" rx="10" fill="#313244" stroke="#cba6f7" stroke-width="2"/>
  <text x="490" y="505" text-anchor="middle" font-family="sans-serif" font-size="15" font-weight="bold" fill="#cba6f7">Android APK</text>
  <text x="490" y="528" text-anchor="middle" font-family="sans-serif" font-size="11" fill="#a6adc8">Zig JNI + Chaquopy</text>

  <rect x="100" y="565" width="500" height="28" rx="14" fill="#313244" stroke="#585b70" stroke-width="1"/>
  <text x="350" y="584" text-anchor="middle" font-family="sans-serif" font-size="11" fill="#a6adc8">:app Compose Desktop (visual) · :cli headless (./gradlew :cli:run)</text>

  <defs>
    <marker id="arrow" viewBox="0 0 10 10" refX="8" refY="5" markerWidth="7" markerHeight="7" orient="auto">
      <path d="M0,0 L10,5 L0,10 Z" fill="#585b70"/>
    </marker>
  </defs>
</svg>
