<?xml version="1.0" encoding="UTF-8"?>
<svg xmlns="http://www.w3.org/2000/svg" viewBox="0 0 1706 552" width="1706" height="552">
  <title>TS/XHTML lowering pipeline</title>
  <defs>
    <marker id="arrow" markerWidth="10" markerHeight="10" refX="9" refY="5" orient="auto">
      <path d="M0,0 L10,5 L0,10 Z" fill="#37474F"/>
    </marker>
    <marker id="arrow-blue" markerWidth="10" markerHeight="10" refX="9" refY="5" orient="auto">
      <path d="M0,0 L10,5 L0,10 Z" fill="#1565C0"/>
    </marker>
    <style>
      .label { font: bold 14px "JetBrainsMono Nerd Font", "Symbols Nerd Font", Verdana, sans-serif; fill: #263238; font-weight: 700; }
      .desc { font: italic 11px "JetBrainsMono Nerd Font", "Symbols Nerd Font", Verdana, sans-serif; fill: #78909C; }
      .small { font: 11px "JetBrainsMono Nerd Font", "Symbols Nerd Font", Verdana, sans-serif; fill: #546E7A; }
      .mono { font: bold 12px "JetBrainsMono Nerd Font", "Symbols Nerd Font", Consolas, monospace; fill: #263238; font-weight: 700; }
      .legend-title { font: bold 12px "JetBrainsMono Nerd Font", "Symbols Nerd Font", Verdana, sans-serif; fill: #37474F; }
      .layer-label { font: bold 14px "JetBrainsMono Nerd Font", "Symbols Nerd Font", Verdana, sans-serif; fill: #263238; }
      .badge { font: bold 11px "JetBrainsMono Nerd Font", "Symbols Nerd Font", Verdana, sans-serif; fill: #1565C0; }
      .icon { font: 14px "JetBrainsMono Nerd Font", "Symbols Nerd Font", Consolas, monospace; fill: #263238; }
      .node { rx: 10; stroke-width: 2.5; }
      .panel { rx: 12; stroke-width: 2.5; }
      .legend-box { rx: 6; stroke-width: 2; }
    </style>
  </defs>
  <rect width="1706" height="100%" fill="#f8f9fa"/>
  <image href="../nexus-logo.png" x="24" y="16" width="40" height="40" preserveAspectRatio="xMidYMid meet"/>
  <rect x="40" y="120" width="294" height="78" class="node" fill="#E8F5E9" stroke="#2E7D32"/>
  <text x="54" y="146" class="icon">&#xf15b;</text>
  <text x="76" y="148" class="label">
    <tspan x="76" dy="0">ui/ui.xhtml</tspan>
  </text>
  <text x="54" y="167" class="desc">
    <tspan x="54" dy="0">Declarative markup — panels, plots,</tspan>
    <tspan x="54" dy="14">sliders</tspan>
  </text>
  <rect x="40" y="246" width="251" height="78" class="node" fill="#E8F5E9" stroke="#2E7D32"/>
  <text x="54" y="272" class="icon">&#xf121;</text>
  <text x="76" y="274" class="label">
    <tspan x="76" dy="0">ui/ui.ts</tspan>
  </text>
  <text x="54" y="293" class="desc">
    <tspan x="54" dy="0">state(), native(), invoke()</tspan>
    <tspan x="54" dy="14">bindings</tspan>
  </text>
  <rect x="382" y="186" width="232" height="78" class="node" fill="#E3F2FD" stroke="#1565C0"/>
  <text x="396" y="212" class="icon">&#xf5fd;</text>
  <text x="418" y="214" class="label">
    <tspan x="418" dy="0">shared/dsl/</tspan>
  </text>
  <text x="396" y="233" class="desc">
    <tspan x="396" dy="0">tags.ts · components.ts ·</tspan>
    <tspan x="396" dy="14">core.ts</tspan>
  </text>
  <rect x="662" y="186" width="220" height="72" class="node" fill="#FFF3E0" stroke="#EF6C00"/>
  <text x="676" y="212" class="icon">&#xf013;</text>
  <text x="698" y="214" class="label">
    <tspan x="698" dy="0">Lowering pass</tspan>
  </text>
  <text x="676" y="233" class="desc">
    <tspan x="676" dy="0">Maps ComponentTag → draw calls</tspan>
  </text>
  <rect x="930" y="186" width="220" height="72" class="node" fill="#F3E5F5" stroke="#7B1FA2"/>
  <text x="944" y="212" class="icon">&#xf120;</text>
  <text x="966" y="214" class="label">
    <tspan x="966" dy="0">panels.lua equiv.</tspan>
  </text>
  <text x="944" y="233" class="desc">
    <tspan x="944" dy="0">nxs.register_panel definitions</tspan>
  </text>
  <rect x="1198" y="186" width="220" height="78" class="node" fill="#E0F7FA" stroke="#00838F"/>
  <text x="1212" y="212" class="icon">&#xf120;</text>
  <text x="1234" y="214" class="label">
    <tspan x="1234" dy="0">sol2 runtime</tspan>
  </text>
  <text x="1212" y="233" class="desc">
    <tspan x="1212" dy="0">LuaPanels walks tree each</tspan>
    <tspan x="1212" dy="14">frame</tspan>
  </text>
  <rect x="1466" y="120" width="200" height="72" class="node" fill="#ECEFF1" stroke="#455A64"/>
  <text x="1480" y="146" class="icon">&#xf108;</text>
  <text x="1502" y="148" class="label">
    <tspan x="1502" dy="0">Dear ImGui</tspan>
  </text>
  <text x="1480" y="167" class="desc">
    <tspan x="1480" dy="0">window, button, slider, …</tspan>
  </text>
  <rect x="1466" y="240" width="200" height="72" class="node" fill="#ECEFF1" stroke="#455A64"/>
  <text x="1480" y="266" class="icon">&#xf080;</text>
  <text x="1502" y="268" class="label">
    <tspan x="1502" dy="0">ImPlot / imnodes</tspan>
  </text>
  <text x="1480" y="287" class="desc">
    <tspan x="1480" dy="0">plot-line, node-editor tags</tspan>
  </text>
  <line x1="334" y1="159" x2="382" y2="225" stroke="#37474F" stroke-width="1.5" marker-end="url(#arrow)"/>
  <line x1="291" y1="285" x2="382" y2="225" stroke="#37474F" stroke-width="1.5" marker-end="url(#arrow)"/>
  <line x1="614" y1="225" x2="662" y2="222" stroke="#37474F" stroke-width="1.5" marker-end="url(#arrow)"/>
  <line x1="882" y1="222" x2="930" y2="222" stroke="#37474F" stroke-width="1.5" marker-end="url(#arrow)"/>
  <line x1="1150" y1="222" x2="1198" y2="225" stroke="#37474F" stroke-width="1.5" marker-end="url(#arrow)"/>
  <line x1="1418" y1="225" x2="1466" y2="156" stroke="#37474F" stroke-width="1.5" marker-end="url(#arrow)"/>
  <path d="M1418,225 Q1472,250 1466,276" fill="none" stroke="#37474F" stroke-width="1.5" marker-end="url(#arrow)"/>
  <rect x="40" y="372" width="1626" height="44" fill="#FFFFFF" stroke="#B0BEC5" stroke-width="2" rx="10"/>
  <text x="853" y="400" text-anchor="middle" class="small">No browser engine — same nxs.* commands as hand-written panels.lua; hot-reload via lua.dat optional</text>
  <rect x="40" y="432" width="1626" height="88" fill="#FFFFFF" stroke="#B0BEC5" stroke-width="2" rx="10"/>
  <text x="56" y="454" class="legend-title">Lowering stages</text>
  <rect x="56" y="456" width="16" height="16" class="legend-box" fill="#E8F5E9" stroke="#2E7D32"/>
  <text x="78" y="468" class="small">Authoring — ui.xhtml + ui.ts</text>
  <rect x="869" y="456" width="16" height="16" class="legend-box" fill="#E3F2FD" stroke="#1565C0"/>
  <text x="891" y="468" class="small">DSL — shared tag registry</text>
  <rect x="56" y="478" width="16" height="16" class="legend-box" fill="#F3E5F5" stroke="#7B1FA2"/>
  <text x="78" y="490" class="small">Lua — register_panel output</text>
  <rect x="869" y="478" width="16" height="16" class="legend-box" fill="#ECEFF1" stroke="#455A64"/>
  <text x="891" y="490" class="small">Native — ImGui / ImPlot / imnodes</text>
</svg>