<?xml version="1.0" encoding="UTF-8"?>
<svg xmlns="http://www.w3.org/2000/svg" viewBox="0 0 720 850" width="720" height="850">
  <title>Zig orchestration layer</title>
  <defs>
    <marker id="arrow-green" markerWidth="9" markerHeight="9" refX="8" refY="4.5" orient="auto">
      <path d="M0,0 L9,4.5 L0,9 Z" fill="#a6e3a1"/>
    </marker>
    <marker id="arrow-blue" markerWidth="9" markerHeight="9" refX="8" refY="4.5" orient="auto">
      <path d="M0,0 L9,4.5 L0,9 Z" fill="#89b4fa"/>
    </marker>
    <marker id="arrow-mauve" markerWidth="9" markerHeight="9" refX="8" refY="4.5" orient="auto">
      <path d="M0,0 L9,4.5 L0,9 Z" fill="#cba6f7"/>
    </marker>
    <marker id="arrow-pink" markerWidth="9" markerHeight="9" refX="8" refY="4.5" orient="auto">
      <path d="M0,0 L9,4.5 L0,9 Z" fill="#f38ba8"/>
    </marker>
    <marker id="arrow-dashed" markerWidth="9" markerHeight="9" refX="8" refY="4.5" orient="auto">
      <path d="M0,0 L9,4.5 L0,9 Z" fill="#6c7086"/>
    </marker>
  </defs>

  <rect width="720" height="850" fill="#1e1e2e"/>

  <rect x="0" y="0" width="720" height="36" fill="#181825"/>
  <circle cx="16" cy="18" r="5" fill="#f38ba8"/>
  <circle cx="34" cy="18" r="5" fill="#f9e2af"/>
  <circle cx="52" cy="18" r="5" fill="#a6e3a1"/>
  <text x="360" y="24" font-family="sans-serif" font-weight="bold" font-size="14" fill="#cdd6f4" text-anchor="middle">Zig orchestration layer</text>
  <line x1="0" y1="36" x2="720" y2="36" stroke="#313244" stroke-width="1"/>

  <rect x="20" y="55" width="680" height="135" rx="12" fill="#313244" stroke="#a6e3a1" stroke-width="2"/>
  <text x="35" y="79" font-family="sans-serif" font-weight="bold" font-size="14" fill="#a6e3a1">🛠️ 1. Services Layer — client-setup (Zig bootstrap)</text>

  <rect x="30" y="94" width="180" height="72" rx="8" fill="#1e1e2e" stroke="#a6e3a1" stroke-width="2"/>
  <text x="46" y="116" font-family="sans-serif" font-weight="bold" font-size="13" fill="#cdd6f4">🛠️ setup.zig</text>
  <text x="46" y="136" font-family="sans-serif" font-style="italic" font-size="11" fill="#a6adc8">Entry point —</text>
  <text x="46" y="152" font-family="sans-serif" font-style="italic" font-size="11" fill="#a6adc8">orchestrates bootstrap</text>

  <rect x="245" y="94" width="195" height="72" rx="8" fill="#1e1e2e" stroke="#a6e3a1" stroke-width="2"/>
  <text x="261" y="116" font-family="sans-serif" font-weight="bold" font-size="13" fill="#cdd6f4">🛠️ bootstrap.zig</text>
  <text x="261" y="136" font-family="sans-serif" font-style="italic" font-size="11" fill="#a6adc8">Downloads + extracts</text>
  <text x="261" y="152" font-family="sans-serif" font-style="italic" font-size="11" fill="#a6adc8">Zig 0.14.0 tarball</text>

  <rect x="475" y="94" width="200" height="72" rx="8" fill="#1e1e2e" stroke="#a6e3a1" stroke-width="2"/>
  <text x="491" y="116" font-family="sans-serif" font-weight="bold" font-size="13" fill="#cdd6f4">🛠️ env.sh / env.bat</text>
  <text x="491" y="136" font-family="sans-serif" font-style="italic" font-size="11" fill="#a6adc8">ZIG_HOME, PATH</text>
  <text x="491" y="152" font-family="sans-serif" font-style="italic" font-size="11" fill="#a6adc8">prepend exports</text>

  <line x1="210" y1="130" x2="240" y2="130" stroke="#a6e3a1" stroke-width="2" marker-end="url(#arrow-green)"/>
  <line x1="440" y1="130" x2="470" y2="130" stroke="#a6e3a1" stroke-width="2" marker-end="url(#arrow-green)"/>

  <rect x="20" y="225" width="680" height="135" rx="12" fill="#313244" stroke="#89b4fa" stroke-width="2"/>
  <text x="35" y="249" font-family="sans-serif" font-weight="bold" font-size="14" fill="#89b4fa">🔧 2. Build Layer — zig-services (C++ compilation)</text>

  <rect x="30" y="264" width="185" height="70" rx="8" fill="#1e1e2e" stroke="#89b4fa" stroke-width="2"/>
  <text x="46" y="286" font-family="sans-serif" font-weight="bold" font-size="13" fill="#cdd6f4">🔧 build.zig</text>
  <text x="46" y="306" font-family="sans-serif" font-style="italic" font-size="11" fill="#a6adc8">Build graph — C++ TUs,</text>
  <text x="46" y="322" font-family="sans-serif" font-style="italic" font-size="11" fill="#a6adc8">C-ABI, .cppm</text>

  <rect x="250" y="264" width="180" height="70" rx="8" fill="#1e1e2e" stroke="#89b4fa" stroke-width="2"/>
  <text x="266" y="286" font-family="sans-serif" font-weight="bold" font-size="13" fill="#cdd6f4">🔧 build.zig.zon</text>
  <text x="266" y="306" font-family="sans-serif" font-style="italic" font-size="11" fill="#a6adc8">Pinned deps — SDL3,</text>
  <text x="266" y="322" font-family="sans-serif" font-style="italic" font-size="11" fill="#a6adc8">ImGui, sol2</text>

  <rect x="465" y="264" width="200" height="70" rx="8" fill="#1e1e2e" stroke="#89b4fa" stroke-width="2"/>
  <text x="481" y="286" font-family="sans-serif" font-weight="bold" font-size="13" fill="#cdd6f4">🔧 zig c++ compile</text>
  <text x="481" y="306" font-family="sans-serif" font-style="italic" font-size="11" fill="#a6adc8">Single compiler for</text>
  <text x="481" y="322" font-family="sans-serif" font-style="italic" font-size="11" fill="#a6adc8">all target triples</text>

  <line x1="215" y1="299" x2="245" y2="299" stroke="#89b4fa" stroke-width="2" marker-end="url(#arrow-blue)"/>
  <line x1="430" y1="299" x2="460" y2="299" stroke="#89b4fa" stroke-width="2" marker-end="url(#arrow-blue)"/>

  <rect x="20" y="395" width="680" height="130" rx="12" fill="#313244" stroke="#cba6f7" stroke-width="2"/>
  <text x="35" y="419" font-family="sans-serif" font-weight="bold" font-size="14" fill="#cba6f7">🖥️ 3. Desktop output — native binary + archives</text>

  <rect x="30" y="432" width="185" height="68" rx="8" fill="#1e1e2e" stroke="#cba6f7" stroke-width="2"/>
  <text x="46" y="454" font-family="sans-serif" font-weight="bold" font-size="13" fill="#cdd6f4">🖥️ zig-out/bin/</text>
  <text x="46" y="474" font-family="sans-serif" font-style="italic" font-size="11" fill="#a6adc8">Desktop SDL3</text>
  <text x="46" y="490" font-family="sans-serif" font-style="italic" font-size="11" fill="#a6adc8">app binary</text>

  <rect x="275" y="432" width="200" height="68" rx="8" fill="#1e1e2e" stroke="#cba6f7" stroke-width="2"/>
  <text x="291" y="454" font-family="sans-serif" font-weight="bold" font-size="13" fill="#cdd6f4">🖥️ lua.dat / python.dat</text>
  <text x="291" y="474" font-family="sans-serif" font-style="italic" font-size="11" fill="#a6adc8">Packed script</text>
  <text x="291" y="490" font-family="sans-serif" font-style="italic" font-size="11" fill="#a6adc8">archives staged</text>

  <rect x="20" y="560" width="680" height="130" rx="12" fill="#313244" stroke="#f38ba8" stroke-width="2"/>
  <text x="35" y="584" font-family="sans-serif" font-weight="bold" font-size="14" fill="#f38ba8">📱 4. Android output (Phase 4) — Zig JNI .so</text>

  <rect x="30" y="597" width="195" height="68" rx="8" fill="#1e1e2e" stroke="#f38ba8" stroke-width="2"/>
  <text x="46" y="619" font-family="sans-serif" font-weight="bold" font-size="13" fill="#cdd6f4">📱 Android Zig JNI</text>
  <text x="46" y="639" font-family="sans-serif" font-style="italic" font-size="11" fill="#a6adc8">aarch64-linux-android</text>
  <text x="46" y="655" font-family="sans-serif" font-style="italic" font-size="11" fill="#a6adc8">.so target</text>

  <rect x="275" y="597" width="200" height="68" rx="8" fill="#1e1e2e" stroke="#f38ba8" stroke-width="2"/>
  <text x="291" y="619" font-family="sans-serif" font-weight="bold" font-size="13" fill="#cdd6f4">📱 C++ JNI bridge</text>
  <text x="291" y="639" font-family="sans-serif" font-style="italic" font-size="11" fill="#a6adc8">Hand-authored</text>
  <text x="291" y="655" font-family="sans-serif" font-style="italic" font-size="11" fill="#a6adc8">jni/ files</text>

  <path d="M570,166 L120,166 L120,264" fill="none" stroke="#6c7086" stroke-width="2" stroke-dasharray="6,4" marker-end="url(#arrow-dashed)"/>
  <text x="345" y="210" font-family="sans-serif" font-size="11" fill="#6c7086" text-anchor="middle">provides zig 0.14.0</text>

  <path d="M565,334 L125,334 L125,432" fill="none" stroke="#89b4fa" stroke-width="2" marker-end="url(#arrow-blue)"/>
  <text x="140" y="380" font-family="sans-serif" font-size="11" fill="#89b4fa" text-anchor="middle">links binary</text>

  <path d="M375,334 L375,432" fill="none" stroke="#89b4fa" stroke-width="2" marker-end="url(#arrow-blue)"/>
  <text x="375" y="380" font-family="sans-serif" font-size="11" fill="#89b4fa" text-anchor="middle">packs archives</text>

  <path d="M565,334 L245,334 L245,597" fill="none" stroke="#6c7086" stroke-width="2" stroke-dasharray="6,4" marker-end="url(#arrow-dashed)"/>
  <text x="245" y="475" font-family="sans-serif" font-size="11" fill="#6c7086" text-anchor="middle">cross-compile .so</text>

  <rect x="20" y="725" width="680" height="95" rx="10" fill="#313244" stroke="#45475a" stroke-width="2"/>
  <text x="36" y="748" font-family="sans-serif" font-weight="bold" font-size="13" fill="#cdd6f4">Orchestration layers — solid = done, dashed = Phase 4</text>

  <rect x="36" y="758" width="14" height="14" rx="3" fill="#1e1e2e" stroke="#a6e3a1" stroke-width="2"/>
  <text x="56" y="769" font-family="sans-serif" font-size="11" fill="#a6adc8">Bootstrap — setup.zig → env.sh</text>

  <rect x="316" y="758" width="14" height="14" rx="3" fill="#1e1e2e" stroke="#89b4fa" stroke-width="2"/>
  <text x="336" y="769" font-family="sans-serif" font-size="11" fill="#a6adc8">Build — zig c++ compile</text>

  <rect x="36" y="781" width="14" height="14" rx="3" fill="#1e1e2e" stroke="#cba6f7" stroke-width="2"/>
  <text x="56" y="792" font-family="sans-serif" font-size="11" fill="#a6adc8">Output — desktop native binary</text>

  <rect x="316" y="781" width="14" height="14" rx="3" fill="#1e1e2e" stroke="#f38ba8" stroke-width="2"/>
  <text x="336" y="792" font-family="sans-serif" font-size="11" fill="#a6adc8">Android — Zig JNI (Phase 4)</text>
</svg>
