<?xml version="1.0" encoding="UTF-8"?>
<svg xmlns="http://www.w3.org/2000/svg" viewBox="0 0 1000 600" width="1000" height="600">
  <title>Langflow: agent with tools</title>
  <defs>
    <marker id="arrow" markerWidth="10" markerHeight="10" refX="9" refY="5" orient="auto">
      <path d="M0,0 L10,5 L0,10 Z" fill="#37474F"/>
    </marker>
    <marker id="arrow-blue" markerWidth="10" markerHeight="10" refX="9" refY="5" orient="auto">
      <path d="M0,0 L10,5 L0,10 Z" fill="#1565C0"/>
    </marker>
    <style>
      .title { font: 19px "JetBrainsMono Nerd Font", "Symbols Nerd Font", Verdana, sans-serif; fill: #1a1a2e; font-weight: 700; }
      .subtitle { font: 12px "JetBrainsMono Nerd Font", "Symbols Nerd Font", Verdana, sans-serif; fill: #666666; font-weight: normal; }
      .label { font: bold 13px "JetBrainsMono Nerd Font", "Symbols Nerd Font", Verdana, sans-serif; fill: #263238; font-weight: 700; }
      .desc { font: italic 11px "JetBrainsMono Nerd Font", "Symbols Nerd Font", Verdana, sans-serif; fill: #78909C; }
      .small { font: 11px "JetBrainsMono Nerd Font", "Symbols Nerd Font", Verdana, sans-serif; fill: #546E7A; }
      .mono { font: bold 12px "JetBrainsMono Nerd Font", "Symbols Nerd Font", Consolas, monospace; fill: #263238; font-weight: 700; }
      .legend-title { font: bold 12px "JetBrainsMono Nerd Font", "Symbols Nerd Font", Verdana, sans-serif; fill: #37474F; }
      .layer-label { font: bold 14px "JetBrainsMono Nerd Font", "Symbols Nerd Font", Verdana, sans-serif; fill: #263238; }
      .badge { font: bold 11px "JetBrainsMono Nerd Font", "Symbols Nerd Font", Verdana, sans-serif; fill: #1565C0; }
      .icon { font: 14px "JetBrainsMono Nerd Font", "Symbols Nerd Font", Consolas, monospace; fill: #263238; }
      .node { rx: 10; stroke-width: 2.5; }
      .panel { rx: 12; stroke-width: 2.5; }
      .legend-box { rx: 6; stroke-width: 2; }
    </style>
  </defs>
  <rect width="1000" height="100%" fill="#f8f9fa"/>
  <image href="../nexus-logo.png" x="24" y="16" width="40" height="40" preserveAspectRatio="xMidYMid meet"/>
  <text x="500" y="38" text-anchor="middle" class="title">Langflow: agent with tools</text>
  <text x="500" y="58" text-anchor="middle" class="subtitle">ReAct-style tool-calling workflow</text>

  <rect x="80" y="200" width="150" height="64" class="node" fill="#E8F5E9" stroke="#2E7D32"/>
  <text x="92" y="222" class="icon">&#xf075;</text>
  <text x="114" y="222" class="label">User Input</text>
  <text x="92" y="254" class="desc">Natural language task from user</text>
  <rect x="380" y="190" width="220" height="84" class="node" fill="#E8EAF6" stroke="#3949AB"/>
  <text x="392" y="212" class="icon">&#xf544;</text>
  <text x="414" y="212" class="label">Agent</text>
  <text x="392" y="264" class="desc">ReAct / tool-calling LLM orchestrator</text>
  <rect x="740" y="200" width="150" height="64" class="node" fill="#E8F5E9" stroke="#2E7D32"/>
  <text x="752" y="222" class="icon">&#xf075;</text>
  <text x="774" y="222" class="label">Output</text>
  <text x="752" y="254" class="desc">Synthesized final answer to user</text>

  <rect x="120" y="400" width="160" height="64" class="node" fill="#FFF3E0" stroke="#EF6C00"/>
  <text x="132" y="422" class="icon">&#xf013;</text>
  <text x="154" y="422" class="label">Calculator</text>
  <text x="132" y="454" class="desc">Arithmetic tool invocation</text>
  <rect x="420" y="400" width="160" height="64" class="node" fill="#E3F2FD" stroke="#1565C0"/>
  <text x="432" y="422" class="icon">&#xf002;</text>
  <text x="454" y="422" class="label">Web Search</text>
  <text x="432" y="454" class="desc">Live web lookup capability</text>
  <rect x="720" y="400" width="160" height="64" class="node" fill="#F3E5F5" stroke="#7B1FA2"/>
  <text x="732" y="422" class="icon">&#xe73c;</text>
  <text x="754" y="422" class="label">Python REPL</text>
  <text x="732" y="454" class="desc">Execute code snippets safely</text>

  <line x1="230" y1="232" x2="380" y2="232" stroke="#37474F" stroke-width="1.5" marker-end="url(#arrow)"/>
  <line x1="600" y1="232" x2="740" y2="232" stroke="#37474F" stroke-width="1.5" marker-end="url(#arrow)"/>
  <line x1="420" y1="274" x2="200" y2="400" stroke="#37474F" stroke-width="1.5" marker-end="url(#arrow)"/>
  <line x1="490" y1="274" x2="500" y2="400" stroke="#37474F" stroke-width="1.5" marker-end="url(#arrow)"/>
  <line x1="560" y1="274" x2="800" y2="400" stroke="#37474F" stroke-width="1.5" marker-end="url(#arrow)"/>
  <path d="M200,400 Q200,330 420,274" fill="none" stroke="#90A4AE" stroke-width="1.5" stroke-dasharray="8,5" marker-end="url(#arrow)"/>
  <path d="M500,400 Q500,340 490,274" fill="none" stroke="#90A4AE" stroke-width="1.5" stroke-dasharray="8,5" marker-end="url(#arrow)"/>
  <path d="M800,400 Q800,330 560,274" fill="none" stroke="#90A4AE" stroke-width="1.5" stroke-dasharray="8,5" marker-end="url(#arrow)"/>
  <text x="300" y="340" class="desc">tool result</text>

  <rect x="40" y="490" width="920" height="88" fill="#FFFFFF" stroke="#B0BEC5" stroke-width="2" rx="10"/>
  <text x="56" y="512" class="legend-title">Legend — solid = request, dashed = tool result</text>
  <rect x="56" y="514" width="16" height="16" class="legend-box" fill="#E8F5E9" stroke="#2E7D32"/>
  <text x="78" y="526" class="small">I/O — message in, answer out</text>
  <rect x="516" y="514" width="16" height="16" class="legend-box" fill="#E8EAF6" stroke="#3949AB"/>
  <text x="538" y="526" class="small">Agent — orchestrates tool calls</text>
  <rect x="56" y="536" width="16" height="16" class="legend-box" fill="#FFF3E0" stroke="#EF6C00"/>
  <text x="78" y="548" class="small">Tool — callable capability</text>
</svg>