<?xml version="1.0" encoding="UTF-8"?>
<svg xmlns="http://www.w3.org/2000/svg" viewBox="0 0 2176 551" width="2176" height="551">
  <title>RAG Chatbot — Langflow export</title>
  <defs>
    <marker id="arrow" markerWidth="9" markerHeight="9" refX="8" refY="4.5" orient="auto">
      <path d="M0,0 L9,4.5 L0,9 Z" fill="#585b70"/>
    </marker>
    <marker id="arrow-dashed" markerWidth="9" markerHeight="9" refX="8" refY="4.5" orient="auto">
      <path d="M0,0 L9,4.5 L0,9 Z" fill="#585b70"/>
    </marker>
  </defs>
  <rect width="2176" height="100%" fill="#1e1e2e"/>
  <rect x="0" y="0" width="2176" height="44" fill="#181825"/>
  <text x="24" y="28" font-family="sans-serif" font-size="16" font-weight="bold" fill="#cdd6f4">RAG Chatbot — Langflow export</text>
  <rect x="48" y="120" width="230" height="85" rx="10" stroke-width="2" fill="#313244" stroke="#a6e3a1"/>
  <text x="64" y="149" font-family="sans-serif" font-size="14" fill="#cdd6f4">💬</text>
  <text x="86" y="151" font-family="sans-serif" font-size="15" font-weight="bold" fill="#cdd6f4">
    <tspan x="86" dy="0">Chat Input</tspan>
  </text>
  <text x="64" y="171" font-family="sans-serif" font-size="12" font-style="italic" fill="#a6adc8">
    <tspan x="64" dy="0">User-facing message entry</tspan>
    <tspan x="64" dy="15">point</tspan>
  </text>
  <rect x="334" y="120" width="230" height="85" rx="10" stroke-width="2" fill="#313244" stroke="#89b4fa"/>
  <text x="350" y="149" font-family="sans-serif" font-size="14" fill="#cdd6f4">📄</text>
  <text x="372" y="151" font-family="sans-serif" font-size="15" font-weight="bold" fill="#cdd6f4">
    <tspan x="372" dy="0">PDF Loader</tspan>
  </text>
  <text x="350" y="171" font-family="sans-serif" font-size="12" font-style="italic" fill="#a6adc8">
    <tspan x="350" dy="0">Ingests documents into</tspan>
    <tspan x="350" dy="15">pipeline</tspan>
  </text>
  <rect x="620" y="120" width="192" height="72" rx="10" stroke-width="2" fill="#313244" stroke="#cba6f7"/>
  <text x="636" y="149" font-family="sans-serif" font-size="14" fill="#cdd6f4">✂</text>
  <text x="658" y="151" font-family="sans-serif" font-size="15" font-weight="bold" fill="#cdd6f4">
    <tspan x="658" dy="0">Text Splitter</tspan>
  </text>
  <text x="636" y="171" font-family="sans-serif" font-size="12" font-style="italic" fill="#a6adc8">
    <tspan x="636" dy="0">Chunks text for embedding</tspan>
  </text>
  <rect x="868" y="120" width="180" height="72" rx="10" stroke-width="2" fill="#313244" stroke="#fab387"/>
  <text x="884" y="149" font-family="sans-serif" font-size="14" fill="#cdd6f4">🌐</text>
  <text x="906" y="151" font-family="sans-serif" font-size="15" font-weight="bold" fill="#cdd6f4">
    <tspan x="906" dy="0">Embeddings</tspan>
  </text>
  <text x="884" y="171" font-family="sans-serif" font-size="12" font-style="italic" fill="#a6adc8">
    <tspan x="884" dy="0">Vectorizes text chunks</tspan>
  </text>
  <rect x="1104" y="120" width="224" height="72" rx="10" stroke-width="2" fill="#313244" stroke="#f38ba8"/>
  <text x="1120" y="149" font-family="sans-serif" font-size="14" fill="#cdd6f4">🗄</text>
  <text x="1142" y="151" font-family="sans-serif" font-size="15" font-weight="bold" fill="#cdd6f4">
    <tspan x="1142" dy="0">Vector Store</tspan>
  </text>
  <text x="1120" y="171" font-family="sans-serif" font-size="12" font-style="italic" fill="#a6adc8">
    <tspan x="1120" dy="0">Persists vectors for retrieval</tspan>
  </text>
  <rect x="1384" y="120" width="230" height="85" rx="10" stroke-width="2" fill="#313244" stroke="#89dceb"/>
  <text x="1400" y="149" font-family="sans-serif" font-size="14" fill="#cdd6f4">🔍</text>
  <text x="1422" y="151" font-family="sans-serif" font-size="15" font-weight="bold" fill="#cdd6f4">
    <tspan x="1422" dy="0">Retriever</tspan>
  </text>
  <text x="1400" y="171" font-family="sans-serif" font-size="12" font-style="italic" fill="#a6adc8">
    <tspan x="1400" dy="0">Similarity search at query</tspan>
    <tspan x="1400" dy="15">time</tspan>
  </text>
  <rect x="1670" y="120" width="217" height="85" rx="10" stroke-width="2" fill="#313244" stroke="#b4befe"/>
  <text x="1686" y="149" font-family="sans-serif" font-size="14" fill="#cdd6f4">🧠</text>
  <text x="1708" y="151" font-family="sans-serif" font-size="15" font-weight="bold" fill="#cdd6f4">
    <tspan x="1708" dy="0">LLM</tspan>
  </text>
  <text x="1686" y="171" font-family="sans-serif" font-size="12" font-style="italic" fill="#a6adc8">
    <tspan x="1686" dy="0">Generates answer from</tspan>
    <tspan x="1686" dy="15">context</tspan>
  </text>
  <rect x="1943" y="120" width="185" height="85" rx="10" stroke-width="2" fill="#313244" stroke="#a6e3a1"/>
  <text x="1959" y="149" font-family="sans-serif" font-size="14" fill="#cdd6f4">💬</text>
  <text x="1981" y="151" font-family="sans-serif" font-size="15" font-weight="bold" fill="#cdd6f4">
    <tspan x="1981" dy="0">Chat Output</tspan>
  </text>
  <text x="1959" y="171" font-family="sans-serif" font-size="12" font-style="italic" fill="#a6adc8">
    <tspan x="1959" dy="0">Returns response to</tspan>
    <tspan x="1959" dy="15">user</tspan>
  </text>
  <line x1="278" y1="162" x2="334" y2="162" stroke="#585b70" stroke-width="2" marker-end="url(#arrow)"/>
  <line x1="564" y1="162" x2="620" y2="156" stroke="#585b70" stroke-width="2" marker-end="url(#arrow)"/>
  <line x1="812" y1="156" x2="868" y2="156" stroke="#585b70" stroke-width="2" marker-end="url(#arrow)"/>
  <line x1="1048" y1="156" x2="1104" y2="156" stroke="#585b70" stroke-width="2" marker-end="url(#arrow)"/>
  <line x1="1328" y1="156" x2="1384" y2="162" stroke="#585b70" stroke-width="2" marker-end="url(#arrow)"/>
  <line x1="1614" y1="162" x2="1670" y2="162" stroke="#585b70" stroke-width="2" marker-end="url(#arrow)"/>
  <line x1="1887" y1="162" x2="1943" y2="162" stroke="#585b70" stroke-width="2" marker-end="url(#arrow)"/>
  <path d="M163,205 C163,305 1499,305 1499,205" fill="none" stroke="#585b70" stroke-width="2" marker-end="url(#arrow-dashed)" stroke-dasharray="6,4"/>
  <text x="831" y="297" text-anchor="middle" font-family="sans-serif" font-size="12" font-style="italic" fill="#a6adc8">user query shortcut at chat time</text>
  <rect x="48" y="381" width="2080" height="110" fill="#313244" stroke="#585b70" stroke-width="2" rx="10"/>
  <text x="64" y="403" font-family="sans-serif" font-size="13" font-weight="bold" fill="#cdd6f4">Node categories</text>
  <rect x="64" y="405" width="16" height="16" rx="6" stroke-width="2" fill="#313244" stroke="#a6e3a1"/>
  <text x="86" y="417" font-family="sans-serif" font-size="12" fill="#585b70">I/O — user-facing input and output</text>
  <rect x="1104" y="405" width="16" height="16" rx="6" stroke-width="2" fill="#313244" stroke="#89b4fa"/>
  <text x="1126" y="417" font-family="sans-serif" font-size="12" fill="#585b70">Loader — ingest documents</text>
  <rect x="64" y="427" width="16" height="16" rx="6" stroke-width="2" fill="#313244" stroke="#fab387"/>
  <text x="86" y="439" font-family="sans-serif" font-size="12" fill="#585b70">Model — embeddings and LLM inference</text>
  <rect x="1104" y="427" width="16" height="16" rx="6" stroke-width="2" fill="#313244" stroke="#f38ba8"/>
  <text x="1126" y="439" font-family="sans-serif" font-size="12" fill="#585b70">Memory — vector database persistence</text>
  <rect x="64" y="449" width="16" height="16" rx="6" stroke-width="2" fill="#313244" stroke="#89dceb"/>
  <text x="86" y="461" font-family="sans-serif" font-size="12" fill="#585b70">Retriever — similarity search</text>
</svg>
