<?xml version="1.0" encoding="UTF-8"?>
<svg xmlns="http://www.w3.org/2000/svg" viewBox="0 0 800 520" width="800" height="520">
  <rect width="100%" height="100%" fill="#1e1e2e"/>
  <rect x="0" y="0" width="100%" height="40" fill="#313244"/>
  <circle cx="20" cy="20" r="6" fill="#f38ba8"/>
  <circle cx="38" cy="20" r="6" fill="#fab387"/>
  <circle cx="56" cy="20" r="6" fill="#a6e3a1"/>
  <text x="400" y="26" text-anchor="middle" font-family="sans-serif" font-size="13" fill="#a6adc8">Generate Project</text>
  <text x="60" y="90" font-family="sans-serif" font-size="16" font-weight="bold" fill="#cdd6f4">Generate Project</text>

  <rect x="60" y="110" width="300" height="32" rx="6" fill="#313244" stroke="#a6adc8"/>
  <text x="70" y="131" font-family="sans-serif" font-size="13" fill="#a6adc8">MyApp</text>
  <text x="60" y="100" font-family="sans-serif" font-size="11" fill="#a6adc8">Project name</text>

  <rect x="60" y="170" width="220" height="80" rx="10" fill="#313244" stroke="#89b4fa" stroke-width="2"/>
  <text x="80" y="200" font-family="sans-serif" font-size="24" fill="#89b4fa">🖥</text>
  <text x="110" y="200" font-family="sans-serif" font-size="14" font-weight="bold" fill="#cdd6f4">Desktop App</text>
  <text x="110" y="218" font-family="sans-serif" font-size="11" fill="#a6adc8">SDL3 + ImGui + pybind11</text>

  <rect x="300" y="170" width="220" height="80" rx="10" fill="#313244" stroke="#a6adc8"/>
  <text x="320" y="200" font-family="sans-serif" font-size="24" fill="#a6e3a1">📱</text>
  <text x="350" y="200" font-family="sans-serif" font-size="14" font-weight="bold" fill="#a6adc8">Android App</text>
  <text x="350" y="218" font-family="sans-serif" font-size="11" fill="#a6adc8">SDL3 GLES + Chaquopy</text>

  <text x="60" y="168" font-family="sans-serif" font-size="11" fill="#a6adc8">App type</text>

  <rect x="60" y="280" width="460" height="32" rx="6" fill="#313244" stroke="#a6adc8"/>
  <text x="70" y="301" font-family="sans-serif" font-size="12" fill="#a6adc8">builds/framework/MyApp/</text>
  <text x="60" y="270" font-family="sans-serif" font-size="11" fill="#a6adc8">Output path</text>

  <rect x="60" y="340" width="200" height="40" rx="8" fill="#89b4fa"/>
  <text x="160" y="365" text-anchor="middle" font-family="sans-serif" font-size="14" font-weight="bold" fill="#1e1e2e">Generate</text>

  <rect x="280" y="340" width="140" height="40" rx="8" fill="#313244" stroke="#a6adc8"/>
  <text x="350" y="365" text-anchor="middle" font-family="sans-serif" font-size="13" fill="#a6adc8">Blueprint</text>

  <rect x="440" y="340" width="120" height="40" rx="8" fill="#313244" stroke="#a6adc8"/>
  <text x="500" y="365" text-anchor="middle" font-family="sans-serif" font-size="13" fill="#a6adc8">Flows</text>
</svg>