<?xml version="1.0" encoding="UTF-8"?>
<svg xmlns="http://www.w3.org/2000/svg" viewBox="0 0 800 520" width="800" height="520">
  <rect width="100%" height="100%" fill="#1e1e2e"/>
  <rect x="0" y="0" width="100%" height="40" fill="#313244"/>
  <circle cx="20" cy="20" r="6" fill="#f38ba8"/>
  <circle cx="38" cy="20" r="6" fill="#fab387"/>
  <circle cx="56" cy="20" r="6" fill="#a6e3a1"/>
  <text x="400" y="26" text-anchor="middle" font-family="sans-serif" font-size="13" fill="#a6adc8">Dashboard — The Nexus Framework</text>
  <rect x="60" y="70" width="320" height="100" rx="10" fill="#313244" stroke="#89b4fa" stroke-width="2"/>
  <text x="76" y="102" font-family="sans-serif" font-size="20" fill="#89b4fa">&#x2699;</text>
  <text x="76" y="130" font-family="sans-serif" font-size="14" font-weight="bold" fill="#cdd6f4">Generate Project</text>
  <text x="76" y="148" font-family="sans-serif" font-size="11" fill="#a6adc8">Configure name, type, output path</text>
  <rect x="420" y="70" width="320" height="100" rx="10" fill="#313244" stroke="#a6e3a1" stroke-width="2"/>
  <text x="436" y="102" font-family="sans-serif" font-size="20" fill="#a6e3a1">&#x2b22;</text>
  <text x="436" y="130" font-family="sans-serif" font-size="14" font-weight="bold" fill="#cdd6f4">Blueprint Editor</text>
  <text x="436" y="148" font-family="sans-serif" font-size="11" fill="#a6adc8">Visual DAG canvas + JSON sync</text>
  <rect x="60" y="200" width="320" height="100" rx="10" fill="#313244" stroke="#fab387" stroke-width="2"/>
  <text x="76" y="232" font-family="sans-serif" font-size="20" fill="#fab387">&#x21c6;</text>
  <text x="76" y="260" font-family="sans-serif" font-size="14" font-weight="bold" fill="#cdd6f4">Flows Editor</text>
  <text x="76" y="278" font-family="sans-serif" font-size="11" fill="#a6adc8">Runtime automations and triggers</text>
  <rect x="420" y="200" width="320" height="100" rx="10" fill="#313244" stroke="#cba6f7" stroke-width="2"/>
  <text x="436" y="232" font-family="sans-serif" font-size="20" fill="#cba6f7">&#x1f50d;</text>
  <text x="436" y="260" font-family="sans-serif" font-size="14" font-weight="bold" fill="#cdd6f4">Debugger</text>
  <text x="436" y="278" font-family="sans-serif" font-size="11" fill="#a6adc8">Pattern-based log scanner</text>
  <rect x="240" y="330" width="320" height="100" rx="10" fill="#313244" stroke="#89dceb" stroke-width="2"/>
  <text x="256" y="362" font-family="sans-serif" font-size="20" fill="#89dceb">&#x2705;</text>
  <text x="256" y="390" font-family="sans-serif" font-size="14" font-weight="bold" fill="#cdd6f4">Test Runner</text>
  <text x="256" y="408" font-family="sans-serif" font-size="11" fill="#a6adc8">In-memory assertion runner</text>
  <text x="400" y="480" text-anchor="middle" font-family="sans-serif" font-size="11" fill="#a6adc8">SDL3 &middot; ImGui &middot; Lua 5.4 &middot; Python 3.11 &middot; TS/XHTML &middot; Zig 0.14</text>
</svg>