<?xml version="1.0" encoding="UTF-8"?>
<svg xmlns="http://www.w3.org/2000/svg" viewBox="0 0 800 520" width="800" height="520">
  <rect width="100%" height="100%" fill="#1e1e2e"/>
  <rect x="0" y="0" width="100%" height="40" fill="#313244"/>
  <circle cx="20" cy="20" r="6" fill="#f38ba8"/>
  <circle cx="38" cy="20" r="6" fill="#fab387"/>
  <circle cx="56" cy="20" r="6" fill="#a6e3a1"/>
  <text x="400" y="26" text-anchor="middle" font-family="sans-serif" font-size="13" fill="#a6adc8">Blueprint Editor</text>
  <text x="60" y="90" font-family="sans-serif" font-size="16" font-weight="bold" fill="#cdd6f4">Blueprint Editor</text>

  <rect x="60" y="110" width="680" height="320" rx="10" fill="#313244" stroke="#a6e3a1" stroke-width="1"/>

  <rect x="100" y="150" width="160" height="60" rx="8" fill="#1e1e2e" stroke="#89b4fa" stroke-width="2"/>
  <text x="180" y="180" text-anchor="middle" font-family="sans-serif" font-size="13" fill="#89b4fa">ui.page</text>
  <text x="180" y="196" text-anchor="middle" font-family="sans-serif" font-size="10" fill="#a6adc8">Dashboard</text>

  <rect x="340" y="150" width="160" height="60" rx="8" fill="#1e1e2e" stroke="#cba6f7" stroke-width="2"/>
  <text x="420" y="180" text-anchor="middle" font-family="sans-serif" font-size="13" fill="#cba6f7">cpp.controller</text>
  <text x="420" y="196" text-anchor="middle" font-family="sans-serif" font-size="10" fill="#a6adc8">AppController</text>

  <rect x="580" y="150" width="120" height="60" rx="8" fill="#1e1e2e" stroke="#fab387" stroke-width="2"/>
  <text x="640" y="180" text-anchor="middle" font-family="sans-serif" font-size="13" fill="#fab387">cpp.model</text>
  <text x="640" y="196" text-anchor="middle" font-family="sans-serif" font-size="10" fill="#a6adc8">AppModel</text>

  <rect x="180" y="300" width="160" height="60" rx="8" fill="#1e1e2e" stroke="#a6e3a1" stroke-width="2"/>
  <text x="260" y="330" text-anchor="middle" font-family="sans-serif" font-size="13" fill="#a6e3a1">python.module</text>
  <text x="260" y="346" text-anchor="middle" font-family="sans-serif" font-size="10" fill="#a6adc8">Analytics</text>

  <rect x="420" y="300" width="160" height="60" rx="8" fill="#1e1e2e" stroke="#89dceb" stroke-width="2"/>
  <text x="500" y="330" text-anchor="middle" font-family="sans-serif" font-size="13" fill="#89dceb">lua.script</text>
  <text x="500" y="346" text-anchor="middle" font-family="sans-serif" font-size="10" fill="#a6adc8">Panels</text>

  <line x1="260" y1="210" x2="340" y2="210" stroke="#a6adc8" stroke-width="1.5" marker-end="url(#arrow-sm)"/>
  <line x1="580" y1="180" x2="580" y2="330" stroke="#a6adc8" stroke-width="1.5" marker-end="url(#arrow-sm)"/>
  <line x1="420" y1="330" x2="340" y2="330" stroke="#a6adc8" stroke-width="1.5" marker-end="url(#arrow-sm)"/>

  <text x="60" y="460" font-family="sans-serif" font-size="11" fill="#a6adc8">Drag nodes to rearrange &middot; Click to select &middot; Right-click for inspector</text>  <defs>
    <marker id="arrow-sm" markerWidth="6" markerHeight="6" refX="5" refY="3" orient="auto">
      <path d="M0,0 L6,3 L0,6 Z" fill="#a6adc8"/>
    </marker>
  </defs>
</svg>