<?xml version="1.0" encoding="UTF-8"?>
<svg xmlns="http://www.w3.org/2000/svg" viewBox="0 0 800 520" width="800" height="520">
  <rect width="100%" height="100%" fill="#1e1e2e"/>
  <rect x="0" y="0" width="100%" height="40" fill="#313244"/>
  <circle cx="20" cy="20" r="6" fill="#f38ba8"/>
  <circle cx="38" cy="20" r="6" fill="#fab387"/>
  <circle cx="56" cy="20" r="6" fill="#a6e3a1"/>
  <text x="400" y="26" text-anchor="middle" font-family="sans-serif" font-size="13" fill="#a6adc8">Flows Editor</text>
  <text x="60" y="90" font-family="sans-serif" font-size="16" font-weight="bold" fill="#cdd6f4">Flows Editor</text>
  <rect x="60" y="110" width="480" height="220" rx="10" fill="none" stroke="#fab387" stroke-width="1"/>
  <rect x="60" y="110" width="480" height="40" rx="8" fill="#313244"/>
  <circle cx="76" cy="130" r="5" fill="#a6e3a1"/>
  <text x="90" y="134" font-family="sans-serif" font-size="13" font-weight="bold" fill="#cdd6f4">Data Refresh</text>
  <text x="200" y="134" font-family="sans-serif" font-size="11" fill="#a6adc8">background</text>
  <text x="320" y="134" font-family="sans-serif" font-size="11" fill="#a6adc8">interval: 5000ms</text>
  <rect x="460" y="120" width="36" height="20" rx="10" fill="#a6e3a1" stroke="#a6e3a1"/>
  <circle cx="470" cy="130" r="7" fill="#ffffff"/>  <rect x="60" y="170" width="480" height="40" rx="8" fill="#313244"/>
  <circle cx="76" cy="190" r="5" fill="#fab387"/>
  <text x="90" y="194" font-family="sans-serif" font-size="13" font-weight="bold" fill="#cdd6f4">Alert Handler</text>
  <text x="200" y="194" font-family="sans-serif" font-size="11" fill="#a6adc8">triggered</text>
  <text x="320" y="194" font-family="sans-serif" font-size="11" fill="#a6adc8">event: sensor.alert</text>
  <rect x="460" y="180" width="36" height="20" rx="10" fill="#a6e3a1" stroke="#a6e3a1"/>
  <circle cx="470" cy="190" r="7" fill="#ffffff"/>  <rect x="60" y="230" width="480" height="40" rx="8" fill="#313244"/>
  <circle cx="76" cy="250" r="5" fill="#cba6f7"/>
  <text x="90" y="254" font-family="sans-serif" font-size="13" font-weight="bold" fill="#cdd6f4">Init Pipeline</text>
  <text x="200" y="254" font-family="sans-serif" font-size="11" fill="#a6adc8">startup</text>
  <text x="320" y="254" font-family="sans-serif" font-size="11" fill="#a6adc8">runs once at app launch</text>
  <rect x="460" y="240" width="36" height="20" rx="10" fill="#313244" stroke="#a6adc8"/>
  <circle cx="486" cy="250" r="7" fill="#ffffff"/>  <rect x="60" y="290" width="480" height="40" rx="8" fill="#313244"/>
  <circle cx="76" cy="310" r="5" fill="#89dceb"/>
  <text x="90" y="314" font-family="sans-serif" font-size="13" font-weight="bold" fill="#cdd6f4">Manual Export</text>
  <text x="200" y="314" font-family="sans-serif" font-size="11" fill="#a6adc8">manual</text>
  <text x="320" y="314" font-family="sans-serif" font-size="11" fill="#a6adc8">hotkey: Ctrl+E</text>
  <rect x="460" y="300" width="36" height="20" rx="10" fill="#a6e3a1" stroke="#a6e3a1"/>
  <circle cx="470" cy="310" r="7" fill="#ffffff"/>
  <rect x="60" y="360" width="140" height="36" rx="8" fill="#313244" stroke="#a6adc8"/>
  <text x="130" y="383" text-anchor="middle" font-family="sans-serif" font-size="13" fill="#a6adc8">Reload template</text>

  <rect x="220" y="360" width="120" height="36" rx="8" fill="#313244" stroke="#a6adc8"/>
  <text x="280" y="383" text-anchor="middle" font-family="sans-serif" font-size="13" fill="#a6adc8">Preview JSON</text>

  <text x="60" y="440" font-family="sans-serif" font-size="11" fill="#a6adc8">All imported flows default to disabled (enabled: false). Toggle each flow to opt in.</text>
</svg>