<?xml version="1.0" encoding="UTF-8"?>
<svg xmlns="http://www.w3.org/2000/svg" viewBox="0 0 800 520" width="800" height="520">
  <rect width="100%" height="100%" fill="#1A1A2E"/>
  <rect x="0" y="0" width="100%" height="40" fill="#1F2B47"/>
  <circle cx="20" cy="20" r="6" fill="#F38BA8"/>
  <circle cx="38" cy="20" r="6" fill="#FAB387"/>
  <circle cx="56" cy="20" r="6" fill="#00E676"/>
  <text x="400" y="26" text-anchor="middle" font-family="sans-serif" font-size="13" fill="#9090A0">Generate Project</text>
  <text x="60" y="90" font-family="sans-serif" font-size="16" font-weight="bold" fill="#E8E8E8">Generate Project</text>

  <rect x="60" y="110" width="300" height="32" rx="6" fill="#1F2B47" stroke="#9090A0"/>
  <text x="70" y="131" font-family="sans-serif" font-size="13" fill="#9090A0">MyApp</text>
  <text x="60" y="100" font-family="sans-serif" font-size="11" fill="#9090A0">Project name</text>

  <rect x="60" y="170" width="220" height="80" rx="10" fill="#1F2B47" stroke="#00D4FF" stroke-width="2"/>
  <text x="80" y="200" font-family="sans-serif" font-size="24" fill="#00D4FF">&#x1f5a5;</text>
  <text x="110" y="200" font-family="sans-serif" font-size="14" font-weight="bold" fill="#E8E8E8">Desktop App</text>
  <text x="110" y="218" font-family="sans-serif" font-size="11" fill="#9090A0">SDL3 + ImGui + pybind11</text>

  <rect x="300" y="170" width="220" height="80" rx="10" fill="#1F2B47" stroke="#3A3A5C"/>
  <text x="320" y="200" font-family="sans-serif" font-size="24" fill="#00E676">&#x1f4f1;</text>
  <text x="350" y="200" font-family="sans-serif" font-size="14" font-weight="bold" fill="#9090A0">Android App</text>
  <text x="350" y="218" font-family="sans-serif" font-size="11" fill="#9090A0">SDL3 GLES + Chaquopy</text>

  <text x="60" y="168" font-family="sans-serif" font-size="11" fill="#9090A0">App type</text>

  <rect x="60" y="280" width="460" height="32" rx="6" fill="#1F2B47" stroke="#3A3A5C"/>
  <text x="70" y="301" font-family="sans-serif" font-size="12" fill="#9090A0">builds/framework/MyApp/</text>
  <text x="60" y="270" font-family="sans-serif" font-size="11" fill="#9090A0">Output path</text>

  <rect x="60" y="340" width="200" height="40" rx="8" fill="#00D4FF"/>
  <text x="160" y="365" text-anchor="middle" font-family="sans-serif" font-size="14" font-weight="bold" fill="#1A1A2E">Generate</text>

  <rect x="280" y="340" width="140" height="40" rx="8" fill="#1F2B47" stroke="#3A3A5C"/>
  <text x="350" y="365" text-anchor="middle" font-family="sans-serif" font-size="13" fill="#9090A0">Blueprint</text>

  <rect x="440" y="340" width="120" height="40" rx="8" fill="#1F2B47" stroke="#3A3A5C"/>
  <text x="500" y="365" text-anchor="middle" font-family="sans-serif" font-size="13" fill="#9090A0">Flows</text>
</svg>