<?xml version="1.0" encoding="UTF-8"?>
<svg xmlns="http://www.w3.org/2000/svg" viewBox="0 0 960 580" width="960" height="580">
  <rect width="100%" height="100%" fill="#1A1A2E"/>
  <rect x="0" y="0" width="100%" height="40" fill="#1F2B47"/>
  <circle cx="20" cy="20" r="6" fill="#F38BA8"/>
  <circle cx="38" cy="20" r="6" fill="#FAB387"/>
  <circle cx="56" cy="20" r="6" fill="#00E676"/>
  <text x="480" y="26" text-anchor="middle" font-family="sans-serif" font-size="13" fill="#9090A0">Blueprint Editor</text>
  <defs>
    <marker id="bp-arrow" markerWidth="7" markerHeight="7" refX="6" refY="3.5" orient="auto">
      <path d="M0,0 L7,3.5 L0,7 Z" fill="#00D4FF" fill-opacity="0.7"/>
    </marker>
  </defs>

  <!-- Header -->
  <circle cx="36" cy="64" r="10" fill="#FF9100" opacity="0.85"/>
  <text x="54" y="60" font-family="sans-serif" font-size="16" font-weight="bold" fill="#E8E8E8">Blueprint Editor</text>
  <text x="54" y="76" font-family="sans-serif" font-size="10" fill="#9090A0">MyApp flow · drag nodes, connect edges</text>
  <text x="920" y="68" text-anchor="end" font-family="sans-serif" font-size="11" fill="#9090A0">← Back</text>

  <!-- Toolbar -->
  <rect x="20" y="90" width="920" height="36" rx="8" fill="#1F2B47"/>
  <rect x="28" y="96" width="78" height="24" rx="5" fill="#00E676"/>
  <text x="67" y="112" text-anchor="middle" font-family="sans-serif" font-size="10" font-weight="bold" fill="#fff">+ Add node</text>
  <rect x="114" y="96" width="52" height="24" rx="5" fill="none" stroke="#FF5252"/>
  <text x="140" y="112" text-anchor="middle" font-family="sans-serif" font-size="10" fill="#FF5252">Delete</text>
  <rect x="174" y="96" width="58" height="24" rx="5" fill="none" stroke="#00D4FF"/>
  <text x="203" y="112" text-anchor="middle" font-family="sans-serif" font-size="10" fill="#00D4FF">Connect</text>
  <line x1="244" y1="100" x2="244" y2="116" stroke="#3A3A5C"/>
  <rect x="256" y="96" width="44" height="24" rx="5" fill="none" stroke="#3A3A5C"/>
  <text x="278" y="112" text-anchor="middle" font-family="sans-serif" font-size="10" fill="#E8E8E8">Save</text>
  <rect x="306" y="96" width="44" height="24" rx="5" fill="none" stroke="#3A3A5C"/>
  <text x="328" y="112" text-anchor="middle" font-family="sans-serif" font-size="10" fill="#E8E8E8">Load</text>
  <rect x="356" y="96" width="58" height="24" rx="5" fill="none" stroke="#FF9100"/>
  <text x="385" y="112" text-anchor="middle" font-family="sans-serif" font-size="10" fill="#FF9100">Validate</text>
  <rect x="422" y="96" width="44" height="24" rx="5" fill="none" stroke="#F38BA8"/>
  <text x="444" y="112" text-anchor="middle" font-family="sans-serif" font-size="10" fill="#F38BA8">JSON</text>
  <text x="920" y="112" text-anchor="end" font-family="sans-serif" font-size="10" fill="#707070">5 nodes · 4 edges</text>

  <!-- Palette -->
  <rect x="20" y="136" width="148" height="360" rx="10" fill="#1F2B47"/>
  <text x="32" y="156" font-family="sans-serif" font-size="11" font-weight="bold" fill="#E8E8E8">Palette</text>
  <text x="32" y="170" font-family="sans-serif" font-size="8" fill="#707070">Click to add to canvas</text>
  <rect x="28" y="150" width="132" height="36" rx="6" fill="#16213E" stroke="#00E676" stroke-opacity="0.4"/>
  <circle cx="44" cy="168" r="4" fill="#00E676"/>
  <text x="56" y="165" font-family="sans-serif" font-size="10" font-weight="bold" fill="#E8E8E8">Python module</text>
  <text x="56" y="178" font-family="sans-serif" font-size="8" fill="#707070">python.module</text>
  <rect x="28" y="194" width="132" height="36" rx="6" fill="#16213E" stroke="#00D4FF" stroke-opacity="0.4"/>
  <circle cx="44" cy="212" r="4" fill="#00D4FF"/>
  <text x="56" y="209" font-family="sans-serif" font-size="10" font-weight="bold" fill="#E8E8E8">C++ model</text>
  <text x="56" y="222" font-family="sans-serif" font-size="8" fill="#707070">cpp.model</text>
  <rect x="28" y="238" width="132" height="36" rx="6" fill="#16213E" stroke="#6C63FF" stroke-opacity="0.4"/>
  <circle cx="44" cy="256" r="4" fill="#6C63FF"/>
  <text x="56" y="253" font-family="sans-serif" font-size="10" font-weight="bold" fill="#E8E8E8">C++ controller</text>
  <text x="56" y="266" font-family="sans-serif" font-size="8" fill="#707070">cpp.controller</text>
  <rect x="28" y="282" width="132" height="36" rx="6" fill="#16213E" stroke="#FF9100" stroke-opacity="0.4"/>
  <circle cx="44" cy="300" r="4" fill="#FF9100"/>
  <text x="56" y="297" font-family="sans-serif" font-size="10" font-weight="bold" fill="#E8E8E8">UI page</text>
  <text x="56" y="310" font-family="sans-serif" font-size="8" fill="#707070">ui.page</text>
  <rect x="28" y="326" width="132" height="36" rx="6" fill="#16213E" stroke="#F38BA8" stroke-opacity="0.4"/>
  <circle cx="44" cy="344" r="4" fill="#F38BA8"/>
  <text x="56" y="341" font-family="sans-serif" font-size="10" font-weight="bold" fill="#E8E8E8">Lua script</text>
  <text x="56" y="354" font-family="sans-serif" font-size="8" fill="#707070">lua.script</text>

  <text x="32" y="480" font-family="sans-serif" font-size="8" fill="#707070">imnodes · v1.1</text>

  <!-- Canvas -->
  <rect x="180" y="136" width="520" height="360" rx="10" fill="#16213E" stroke="#3A3A5C"/>
  <circle cx="240" cy="200" r="1.2" fill="#3A3A5C"/><circle cx="280" cy="200" r="1.2" fill="#3A3A5C"/>
  <circle cx="320" cy="200" r="1.2" fill="#3A3A5C"/><circle cx="360" cy="200" r="1.2" fill="#3A3A5C"/>
  <circle cx="400" cy="240" r="1.2" fill="#3A3A5C"/><circle cx="440" cy="280" r="1.2" fill="#3A3A5C"/>
  <circle cx="480" cy="320" r="1.2" fill="#3A3A5C"/><circle cx="520" cy="360" r="1.2" fill="#3A3A5C"/>
  <circle cx="560" cy="200" r="1.2" fill="#3A3A5C"/><circle cx="600" cy="280" r="1.2" fill="#3A3A5C"/>

  <path d="M368,206 C394,206 394,166 420,166" fill="none" stroke="#00D4FF" stroke-width="1.8" stroke-opacity="0.7" marker-end="url(#bp-arrow)"/>
  <path d="M368,206 C394,206 394,266 420,266" fill="none" stroke="#00D4FF" stroke-width="1.8" stroke-opacity="0.7" marker-end="url(#bp-arrow)"/>
  <path d="M568,166 C594,166 594,206 620,206" fill="none" stroke="#00D4FF" stroke-width="1.8" stroke-opacity="0.7" marker-end="url(#bp-arrow)"/>
  <path d="M494,292 C494,320 494,360 494,360" fill="none" stroke="#00D4FF" stroke-width="1.8" stroke-opacity="0.7" marker-end="url(#bp-arrow)"/>
  <rect x="220" y="180" width="148" height="52" rx="8" fill="#1F2B47" stroke="#00E676" stroke-width="1.5"/>
  <rect x="220" y="180" width="4" height="52" fill="#00E676"/>
  <text x="234" y="202" font-family="sans-serif" font-size="11" font-weight="bold" fill="#E8E8E8">py-helpers</text>
  <text x="234" y="218" font-family="sans-serif" font-size="9" fill="#9090A0">python.module</text>
  <rect x="420" y="140" width="148" height="52" rx="8" fill="#1F2B47" stroke="#00D4FF" stroke-width="1.5"/>
  <rect x="420" y="140" width="4" height="52" fill="#00D4FF"/>
  <text x="434" y="162" font-family="sans-serif" font-size="11" font-weight="bold" fill="#E8E8E8">cpp-model</text>
  <text x="434" y="178" font-family="sans-serif" font-size="9" fill="#9090A0">cpp.model</text>
  <rect x="420" y="240" width="148" height="52" rx="8" fill="#1F2B47" stroke="#6C63FF" stroke-width="1.5"/>
  <rect x="420" y="240" width="4" height="52" fill="#6C63FF"/>
  <text x="434" y="262" font-family="sans-serif" font-size="11" font-weight="bold" fill="#E8E8E8">cpp-ctrl</text>
  <text x="434" y="278" font-family="sans-serif" font-size="9" fill="#9090A0">cpp.controller</text>
  <rect x="620" y="180" width="148" height="52" rx="8" fill="#1F2B47" stroke="#FF9100" stroke-width="1.5"/>
  <rect x="620" y="180" width="4" height="52" fill="#FF9100"/>
  <text x="634" y="202" font-family="sans-serif" font-size="11" font-weight="bold" fill="#E8E8E8">ui-main</text>
  <text x="634" y="218" font-family="sans-serif" font-size="9" fill="#9090A0">ui.page</text>
  <rect x="420" y="360" width="148" height="52" rx="8" fill="#1F2B47" stroke="#F38BA8" stroke-width="1.5"/>
  <rect x="420" y="360" width="4" height="52" fill="#F38BA8"/>
  <text x="434" y="382" font-family="sans-serif" font-size="11" font-weight="bold" fill="#E8E8E8">lua-panels</text>
  <text x="434" y="398" font-family="sans-serif" font-size="9" fill="#9090A0">lua.script</text>

  <text x="196" y="484" font-family="sans-serif" font-size="8" fill="#707070">Compose canvas mock · CUSTOMIZE: imnodes</text>

  <!-- Inspector -->
  <rect x="712" y="136" width="228" height="360" rx="10" fill="#1F2B47"/>
  <text x="726" y="158" font-family="sans-serif" font-size="12" font-weight="bold" fill="#E8E8E8">Inspector</text>
  <rect x="726" y="168" width="64" height="18" rx="3" fill="#00D4FF" fill-opacity="0.15"/>
  <text x="734" y="181" font-family="sans-serif" font-size="9" fill="#00D4FF">5 nodes</text>
  <rect x="798" y="168" width="64" height="18" rx="3" fill="#FF9100" fill-opacity="0.15"/>
  <text x="806" y="181" font-family="sans-serif" font-size="9" fill="#FF9100">4 edges</text>
  <rect x="726" y="198" width="200" height="72" rx="6" fill="#FF9100" fill-opacity="0.12"/>
  <text x="738" y="220" font-family="sans-serif" font-size="12" font-weight="bold" fill="#E8E8E8">ui-main</text>
  <circle cx="744" cy="236" r="4" fill="#FF9100"/>
  <text x="754" y="239" font-family="sans-serif" font-size="10" fill="#9090A0">ui.page</text>
  <text x="738" y="258" font-family="sans-serif" font-size="9" fill="#707070">data keys: source, widgets…</text>
  <rect x="726" y="282" width="200" height="28" rx="5" fill="none" stroke="#00D4FF"/>
  <text x="738" y="300" font-family="sans-serif" font-size="10" fill="#9090A0">Node id: ui-main</text>
  <text x="726" y="330" font-family="sans-serif" font-size="11" font-weight="bold" fill="#E8E8E8">Edges</text>
  <rect x="726" y="340" width="200" height="28" rx="4" fill="#16213E"/>
  <text x="736" y="358" font-family="sans-serif" font-size="10" fill="#E8E8E8">py-helpers → cpp-model</text>
  <rect x="726" y="374" width="200" height="28" rx="4" fill="#16213E"/>
  <text x="736" y="392" font-family="sans-serif" font-size="10" fill="#E8E8E8">cpp-ctrl → ui-main</text>
  <rect x="726" y="408" width="200" height="28" rx="4" fill="#16213E"/>
  <text x="736" y="426" font-family="sans-serif" font-size="10" fill="#E8E8E8">ui-main → lua-panels</text>

  <!-- Status -->
  <rect x="20" y="508" width="920" height="28" rx="6" fill="#16213E"/>
  <text x="32" y="526" font-family="sans-serif" font-size="10" fill="#9090A0">Ready — select a node or add from the palette</text>
  <text x="480" y="556" text-anchor="middle" font-family="sans-serif" font-size="9" fill="#707070">Compose: BlueprintEditorView.kt · regenerate via generate-diagrams.py --mockups</text>
</svg>