<?xml version="1.0" encoding="UTF-8"?>
<svg xmlns="http://www.w3.org/2000/svg" viewBox="0 0 920 600" width="920" height="600">
  <rect width="100%" height="100%" fill="#1A1A2E"/>
  <rect x="0" y="0" width="100%" height="40" fill="#1F2B47"/>
  <circle cx="20" cy="20" r="6" fill="#F38BA8"/>
  <circle cx="38" cy="20" r="6" fill="#FAB387"/>
  <circle cx="56" cy="20" r="6" fill="#00E676"/>
  <text x="460" y="26" text-anchor="middle" font-family="sans-serif" font-size="13" fill="#9090A0">Home — The Nexus Framework</text>
  <!-- Left: brand + recent -->
  <circle cx="220" cy="100" r="36" fill="#F38BA8" opacity="0.9"/>
  <text x="220" y="160" text-anchor="middle" font-family="sans-serif" font-size="20" font-weight="bold" fill="#E8E8E8">The Nexus Framework</text>
  <text x="220" y="180" text-anchor="middle" font-family="sans-serif" font-size="12" fill="#9090A0">v1.0.2 · Home (main dashboard)</text>
  <text x="48" y="192" font-family="sans-serif" font-size="12" font-weight="bold" fill="#E8E8E8">Recent creations</text>
  <rect x="48" y="200" width="360" height="58" rx="10" fill="#1F2B47"/>
  <circle cx="74" cy="229" r="12" fill="#F38BA8" opacity="0.85"/>
  <text x="98" y="224" font-family="sans-serif" font-size="13" font-weight="bold" fill="#E8E8E8">DemoDesktop</text>
  <text x="98" y="242" font-family="sans-serif" font-size="10" fill="#9090A0">Desktop · builds/framework/DemoDesktop</text>
  <rect x="48" y="270" width="360" height="58" rx="10" fill="#1F2B47"/>
  <circle cx="74" cy="299" r="12" fill="#F38BA8" opacity="0.85"/>
  <text x="98" y="294" font-family="sans-serif" font-size="13" font-weight="bold" fill="#E8E8E8">MyAndroidApp</text>
  <text x="98" y="312" font-family="sans-serif" font-size="10" fill="#9090A0">Android · builds/framework/MyAndroidApp</text>
  <rect x="48" y="340" width="360" height="58" rx="10" fill="#1F2B47"/>
  <circle cx="74" cy="369" r="12" fill="#F38BA8" opacity="0.85"/>
  <text x="98" y="364" font-family="sans-serif" font-size="13" font-weight="bold" fill="#E8E8E8">PrototypeUI</text>
  <text x="98" y="382" font-family="sans-serif" font-size="10" fill="#9090A0">Desktop · builds/framework/PrototypeUI</text>

  <text x="220" y="440" text-anchor="middle" font-family="sans-serif" font-size="10" fill="#707070">SDL3 · ImGui · Lua · Python · TS/XHTML · Zig</text>

  <!-- Right: actions -->
  <rect x="460" y="100" width="400" height="84" rx="14" fill="#1F2B47"/>
  <rect x="460" y="100" width="400" height="5" fill="#00D4FF"/>
  <text x="484" y="138" font-family="sans-serif" font-size="15" font-weight="bold" fill="#E8E8E8">Create project</text>
  <text x="484" y="158" font-family="sans-serif" font-size="11" fill="#9090A0">Scaffold from Nexus templates</text>
  <rect x="460" y="200" width="400" height="84" rx="14" fill="#1F2B47"/>
  <rect x="460" y="200" width="400" height="5" fill="#F38BA8"/>
  <text x="484" y="238" font-family="sans-serif" font-size="15" font-weight="bold" fill="#E8E8E8">Analyze project</text>
  <text x="484" y="258" font-family="sans-serif" font-size="11" fill="#9090A0">Debugger · Flows · Tests</text>
  <rect x="460" y="300" width="400" height="84" rx="14" fill="#1F2B47"/>
  <rect x="460" y="300" width="400" height="5" fill="#6C63FF"/>
  <text x="484" y="338" font-family="sans-serif" font-size="15" font-weight="bold" fill="#E8E8E8">Blueprint editor</text>
  <text x="484" y="358" font-family="sans-serif" font-size="11" fill="#9090A0">Design the app structure DAG</text>

  <text x="460" y="430" font-family="sans-serif" font-size="10" fill="#F38BA8">About · What's new · Docs · GitHub</text>
  <text x="460" y="560" font-family="sans-serif" font-size="9" fill="#707070">Compose: HomeScreen.kt · AppScreen.Welcome/Dashboard alias Home</text>
</svg>