<?xml version="1.0" encoding="UTF-8"?>
<svg xmlns="http://www.w3.org/2000/svg" viewBox="0 0 1140 600" width="1140" height="600">
  <title>Nexus Blueprint - App Structure (Design-Time)</title>
  <defs>
    <marker id="arrow" markerWidth="10" markerHeight="10" refX="9" refY="5" orient="auto">
      <path d="M0,0 L10,5 L0,10 Z" fill="#37474F"/>
    </marker>
    <marker id="arrow-blue" markerWidth="10" markerHeight="10" refX="9" refY="5" orient="auto">
      <path d="M0,0 L10,5 L0,10 Z" fill="#1565C0"/>
    </marker>
    <style>
      .title { font: bold 22px "JetBrainsMono Nerd Font", "Symbols Nerd Font", Verdana, sans-serif; fill: #1a1a2e; }
      .subtitle { font: 13px "JetBrainsMono Nerd Font", "Symbols Nerd Font", Verdana, sans-serif; fill: #455A64; }
      .label { font: 13px "JetBrainsMono Nerd Font", "Symbols Nerd Font", Verdana, sans-serif; fill: #263238; }
      .desc { font: italic 11px "JetBrainsMono Nerd Font", "Symbols Nerd Font", Verdana, sans-serif; fill: #78909C; }
      .small { font: 11px "JetBrainsMono Nerd Font", "Symbols Nerd Font", Verdana, sans-serif; fill: #546E7A; }
      .mono { font: 12px "JetBrainsMono Nerd Font", "Symbols Nerd Font", Consolas, monospace; fill: #263238; }
      .legend-title { font: bold 12px "JetBrainsMono Nerd Font", "Symbols Nerd Font", Verdana, sans-serif; fill: #37474F; }
      .layer-label { font: bold 14px "JetBrainsMono Nerd Font", "Symbols Nerd Font", Verdana, sans-serif; fill: #263238; }
      .badge { font: bold 11px "JetBrainsMono Nerd Font", "Symbols Nerd Font", Verdana, sans-serif; fill: #1565C0; }
      .icon { font: 14px "JetBrainsMono Nerd Font", "Symbols Nerd Font", Consolas, monospace; fill: #263238; }
      .node { rx: 10; stroke-width: 2.5; }
      .panel { rx: 12; stroke-width: 2.5; }
      .legend-box { rx: 6; stroke-width: 2; }
    </style>
  </defs>
  <rect width="1140" height="100%" fill="#f8f9fa"/>
  <image href="../nexus-logo.png" x="24" y="16" width="40" height="40" preserveAspectRatio="xMidYMid meet"/>
  <text x="570" y="38" text-anchor="middle" class="title">Nexus Blueprint — App Structure</text>
  <text x="570" y="58" text-anchor="middle" class="subtitle">Langflow mental model translated to design-time MVC wiring</text>

  <rect x="380" y="72" width="380" height="28" fill="#E3F2FD" stroke="#1565C0" stroke-width="2" rx="14"/>
  <text x="570" y="91" text-anchor="middle" class="badge">DESIGN-TIME — consumed at generation, not runtime webhooks</text>

  <rect x="60" y="110" width="1020" height="280" class="panel" fill="#FAFAFA" stroke="#B0BEC5" fill-opacity="0.35"/>
  <text x="74" y="134" class="layer-label">&#xf126; blueprint.json graph (author in :app Blueprint Editor)</text>

  <rect x="100" y="170" width="160" height="68" class="node" fill="#E8F5E9" stroke="#2E7D32"/>
  <text x="112" y="192" class="icon">&#xf5fd;</text>
  <text x="134" y="192" class="mono">ui.page</text>
  <text x="112" y="228" class="desc">ImGui screens via TS/XHTML DSL</text>
  <rect x="310" y="170" width="180" height="68" class="node" fill="#E3F2FD" stroke="#1565C0"/>
  <text x="322" y="192" class="icon">&#xf013;</text>
  <text x="344" y="192" class="mono">cpp.controller</text>
  <text x="322" y="228" class="desc">Routes commands and data ports</text>
  <rect x="540" y="170" width="160" height="68" class="node" fill="#FFF3E0" stroke="#EF6C00"/>
  <text x="552" y="192" class="icon">&#xf1c0;</text>
  <text x="574" y="192" class="mono">cpp.model</text>
  <text x="552" y="228" class="desc">Domain state and business logic</text>
  <rect x="760" y="140" width="180" height="68" class="node" fill="#F3E5F5" stroke="#7B1FA2"/>
  <text x="772" y="162" class="icon">&#xe73c;</text>
  <text x="794" y="162" class="mono">python.module</text>
  <text x="772" y="198" class="desc">ML samples and glue code</text>
  <rect x="760" y="230" width="180" height="68" class="node" fill="#E0F7FA" stroke="#00838F"/>
  <text x="772" y="252" class="icon">&#xf120;</text>
  <text x="794" y="252" class="mono">lua.script</text>
  <text x="772" y="288" class="desc">sol2 panel bindings</text>

  <line x1="260" y1="204" x2="310" y2="204" stroke="#37474F" stroke-width="3.5" marker-end="url(#arrow)"/>
  <text x="285" y="194" text-anchor="middle" class="desc">events</text>
  <line x1="490" y1="204" x2="540" y2="204" stroke="#37474F" stroke-width="3.5" marker-end="url(#arrow)"/>
  <text x="515" y="194" text-anchor="middle" class="desc">commands</text>
  <line x1="700" y1="190" x2="760" y2="174" stroke="#37474F" stroke-width="3.5" marker-end="url(#arrow)"/>
  <text x="730" y="168" class="desc">data</text>
  <line x1="700" y1="218" x2="760" y2="264" stroke="#37474F" stroke-width="3.5" marker-end="url(#arrow)"/>

  <rect x="100" y="320" width="360" height="40" fill="#FFFFFF" stroke="#90A4AE" stroke-width="2" stroke-dasharray="6,4" rx="8"/>
  <text x="280" y="345" text-anchor="middle" class="desc">Not shown: external n8n webhooks (ops glue at app edge)</text>

  <line x1="570" y1="390" x2="570" y2="420" stroke="#1565C0" stroke-width="4" marker-end="url(#arrow-blue)"/>
  <text x="570" y="412" text-anchor="middle" class="badge">:core ProjectGenerator</text>

  <rect x="380" y="430" width="380" height="58" class="node" fill="#E8EAF6" stroke="#3949AB"/>
  <text x="392" y="452" class="icon">&#xf466;</text>
  <text x="414" y="452" class="label">builds/framework/&lt;name&gt;/</text>
  <text x="392" y="478" class="desc">Compiled SDL3 desktop or Android APK</text>

  <rect x="60" y="510" width="1020" height="110" fill="#FFFFFF" stroke="#B0BEC5" stroke-width="2" rx="10"/>
  <text x="76" y="532" class="legend-title">Nexus node types (blueprint.json)</text>
  <rect x="76" y="534" width="16" height="16" class="legend-box" fill="#E8F5E9" stroke="#2E7D32"/>
  <text x="98" y="546" class="small">ui.page — screens and DSL layout</text>
  <rect x="586" y="534" width="16" height="16" class="legend-box" fill="#E3F2FD" stroke="#1565C0"/>
  <text x="608" y="546" class="small">cpp.controller — MVC command layer</text>
  <rect x="76" y="556" width="16" height="16" class="legend-box" fill="#FFF3E0" stroke="#EF6C00"/>
  <text x="98" y="568" class="small">cpp.model — domain state</text>
  <rect x="586" y="556" width="16" height="16" class="legend-box" fill="#F3E5F5" stroke="#7B1FA2"/>
  <text x="608" y="568" class="small">python.module — pybind11 / Chaquopy</text>
  <rect x="76" y="578" width="16" height="16" class="legend-box" fill="#E0F7FA" stroke="#00838F"/>
  <text x="98" y="590" class="small">lua.script — sol2 panels</text>
</svg>